<?xml version="1.0" encoding="UTF-8" standalone="no"?>
<!-- Generator: Adobe Illustrator 19.0.0, SVG Export Plug-In . SVG Version: 6.00 Build 0)  -->

<svg
   xmlns:osb="http://www.openswatchbook.org/uri/2009/osb"
   xmlns:dc="http://purl.org/dc/elements/1.1/"
   xmlns:cc="http://creativecommons.org/ns#"
   xmlns:rdf="http://www.w3.org/1999/02/22-rdf-syntax-ns#"
   xmlns:svg="http://www.w3.org/2000/svg"
   xmlns="http://www.w3.org/2000/svg"
   xmlns:sodipodi="http://sodipodi.sourceforge.net/DTD/sodipodi-0.dtd"
   xmlns:inkscape="http://www.inkscape.org/namespaces/inkscape"
   version="1.1"
   id="Layer_1"
   x="0px"
   y="0px"
   viewBox="0 0 400 400"
   xml:space="preserve"
   inkscape:version="0.48.4 r9939"
   width="100%"
   height="100%"
   sodipodi:docname="ذكر.svg"><metadata
   id="metadata79"><rdf:RDF><cc:Work
       rdf:about=""><dc:format>image/svg+xml</dc:format><dc:type
         rdf:resource="http://purl.org/dc/dcmitype/StillImage" /></cc:Work></rdf:RDF></metadata><defs
   id="defs77"><linearGradient
     id="linearGradient5348"
     osb:paint="solid"><stop
       style="stop-color:#f3ab00;stop-opacity:1;"
       offset="0"
       id="stop5350" /></linearGradient><linearGradient
     id="linearGradient3908"
     osb:paint="solid"><stop
       style="stop-color:#f3ab00;stop-opacity:1;"
       offset="0"
       id="stop3910" /></linearGradient></defs><sodipodi:namedview
   pagecolor="#ffffff"
   bordercolor="#666666"
   borderopacity="1"
   objecttolerance="10"
   gridtolerance="10"
   guidetolerance="10"
   inkscape:pageopacity="0"
   inkscape:pageshadow="2"
   inkscape:window-width="1360"
   inkscape:window-height="706"
   id="namedview75"
   showgrid="false"
   width="500px"
   inkscape:zoom="1.8535718"
   inkscape:cx="195.18311"
   inkscape:cy="258.5863"
   inkscape:window-x="-8"
   inkscape:window-y="-8"
   inkscape:window-maximized="1"
   inkscape:current-layer="Layer_1" />














<g
   id="g45"
   transform="translate(0,-109.28699)">
</g>
<g
   id="g47"
   transform="translate(0,-109.28699)">
</g>
<g
   id="g49"
   transform="translate(0,-109.28699)">
</g>
<g
   id="g51"
   transform="translate(0,-109.28699)">
</g>
<g
   id="g53"
   transform="translate(0,-109.28699)">
</g>
<g
   id="g55"
   transform="translate(0,-109.28699)">
</g>
<g
   id="g57"
   transform="translate(0,-109.28699)">
</g>
<g
   id="g59"
   transform="translate(0,-109.28699)">
</g>
<g
   id="g61"
   transform="translate(0,-109.28699)">
</g>
<g
   id="g63"
   transform="translate(0,-109.28699)">
</g>
<g
   id="g65"
   transform="translate(0,-109.28699)">
</g>
<g
   id="g67"
   transform="translate(0,-109.28699)">
</g>
<g
   id="g69"
   transform="translate(0,-109.28699)">
</g>
<g
   id="g71"
   transform="translate(0,-109.28699)">
</g>
<g
   id="g73"
   transform="translate(0,-109.28699)">
</g>
<rect
   style="fill:#f3ab00;fill-opacity:1;fill-rule:nonzero;stroke:none"
   id="rect3063"
   width="403.05188"
   height="403.05188"
   x="-1.3509402"
   y="-1.3582165" /><g
   transform="matrix(0.68431201,0,0,0.68431201,31.64237,29.915499)"
   id="g5"><ellipse
     d="m 137.664,382.81299 c 0,16.29185 -9.41232,29.499 -21.023,29.499 -11.61068,0 -21.023002,-13.20715 -21.023002,-29.499 0,-16.29185 9.412322,-29.499 21.023002,-29.499 11.61068,0 21.023,13.20715 21.023,29.499 z"
     sodipodi:ry="29.499001"
     sodipodi:rx="21.023001"
     sodipodi:cy="382.81299"
     sodipodi:cx="116.641"
     style="fill:#0090ff"
     cx="116.641"
     cy="382.81299"
     rx="21.023001"
     ry="29.499001"
     id="ellipse7" /><ellipse
     d="m 413.669,382.81299 c 0,16.29185 -9.41232,29.499 -21.023,29.499 -11.61069,0 -21.023,-13.20715 -21.023,-29.499 0,-16.29185 9.41231,-29.499 21.023,-29.499 11.61068,0 21.023,13.20715 21.023,29.499 z"
     sodipodi:ry="29.499001"
     sodipodi:rx="21.023001"
     sodipodi:cy="382.81299"
     sodipodi:cx="392.646"
     style="fill:#0090ff"
     cx="392.646"
     cy="382.81299"
     rx="21.023001"
     ry="29.499001"
     id="ellipse9" /><path
     inkscape:connector-curvature="0"
     style="fill:#0090ff"
     d="m 314.321,241.081 -13.224,-3.391 -15.258,38.993 -31.195,4.408 -31.195,-4.408 -15.258,-38.993 -13.224,3.391 c 0,0 -65.78,22.379 -67.136,67.815 l 126.813,62.05 126.813,-62.05 c -1.356,-45.775 -67.136,-67.815 -67.136,-67.815 z"
     id="path11" /></g><path
   inkscape:connector-curvature="0"
   style="fill:#f1f3f7"
   d="m 206.59426,249.41748 c 0,0 -40.60571,-32.02032 -72.85802,-33.64489 v 33.64489 h 72.85802 z"
   id="path13" /><path
   inkscape:connector-curvature="0"
   style="fill:#fcfcfd"
   d="m 206.59426,249.41748 c 0,0 -61.02421,-24.82752 -90.72404,-22.50702 v 34.34083 l 90.72404,-11.83381 z"
   id="path15" /><g
   transform="matrix(0.68431201,0,0,0.68431201,31.64237,29.915499)"
   id="g17"><ellipse
     d="m 262.826,265.082 c 0,14.60628 -17.30599,26.447 -38.654,26.447 -21.34802,0 -38.654,-11.84072 -38.654,-26.447 0,-14.60627 17.30598,-26.447 38.654,-26.447 21.34801,0 38.654,11.84073 38.654,26.447 z"
     sodipodi:ry="26.447001"
     sodipodi:rx="38.653999"
     sodipodi:cy="265.082"
     sodipodi:cx="224.172"
     transform="matrix(-0.6058,-0.7956,0.7956,-0.6058,149.0755,604.0245)"
     style="fill:#3eb9e3"
     cx="224.172"
     cy="265.082"
     rx="38.653999"
     ry="26.447001"
     id="ellipse19" /><ellipse
     d="m 324.04401,265.005 c 0,14.60628 -17.30598,26.44701 -38.654,26.44701 -21.34801,0 -38.65399,-11.84073 -38.65399,-26.44701 0,-14.60627 17.30598,-26.447 38.65399,-26.447 21.34802,0 38.654,11.84073 38.654,26.447 z"
     sodipodi:ry="26.447001"
     sodipodi:rx="38.653999"
     sodipodi:cy="265.005"
     sodipodi:cx="285.39001"
     transform="matrix(-0.6058,0.7956,-0.7956,-0.6058,669.1219,198.4879)"
     style="fill:#3eb9e3"
     cx="285.39001"
     cy="265.005"
     rx="38.653999"
     ry="26.447001"
     id="ellipse21" /></g><path
   inkscape:connector-curvature="0"
   style="fill:#f0ba7a"
   d="m 233.50962,202.31491 c -12.0658,20.41851 -41.53364,20.41851 -53.59943,0 0,-11.60182 0,-23.43494 0,-35.03677 17.8667,0 35.73272,0 53.59943,0 0,11.60183 0,23.20297 0,35.03677 z"
   id="path23" /><circle
   transform="matrix(0.68431201,0,0,0.68431201,31.64237,29.915499)"
   sodipodi:ry="98.331001"
   sodipodi:rx="98.331001"
   sodipodi:cy="108.842"
   sodipodi:cx="254.644"
   style="fill:#393d47"
   cx="254.644"
   cy="108.842"
   r="98.331001"
   id="circle25" /><path
   inkscape:connector-curvature="0"
   style="fill:#f7cfa2"
   d="m 235.13418,89.083854 h -58.47173 c -14.15363,0 -25.52347,11.369846 -25.52347,25.523466 v 17.40206 c 0,30.16379 24.36356,54.52735 54.52735,54.52735 30.1638,0 54.52736,-24.36356 54.52736,-54.52735 v -17.40206 c 0.23198,-14.15431 -11.13787,-25.523466 -25.05951,-25.523466 z"
   id="path27" /><g
   transform="matrix(0.68431201,0,0,0.68431201,31.64237,29.915499)"
   id="g29"><polygon
     style="fill:#393d47"
     points="255.661,320.763 255.661,482.501 115.285,465.547 106.469,299.74 "
     id="polygon33" /></g><path
   inkscape:connector-curvature="0"
   style="fill:#f1f3f7"
   d="m 206.36228,249.41748 c 0,0 40.60571,-32.02032 72.85802,-33.64489 v 33.64489 h -72.85802 z"
   id="path35" /><path
   inkscape:connector-curvature="0"
   style="fill:#fcfcfd"
   d="m 206.36228,249.41748 c 0,0 61.02421,-24.82752 90.72403,-22.50702 v 34.34083 l -90.72403,-11.83381 z"
   id="path37" /><polygon
   transform="matrix(0.68431201,0,0,0.68431201,31.64237,29.915499)"
   style="fill:#333842"
   points="255.322,320.763 255.322,482.501 396.037,465.547 404.514,299.74 "
   id="polygon39" /><path
   inkscape:connector-curvature="0"
   style="fill:#f7cfa2"
   d="m 134.20021,291.87904 c 0,-1.85654 -1.62456,-3.48041 -3.48041,-3.48041 h -2.55249 c 1.85654,0 3.48041,-1.62387 3.48041,-3.48041 v -0.23198 c 0,-1.85654 -1.62456,-3.48041 -3.48041,-3.48041 h -18.56265 c -4.17635,0 -7.42478,3.24843 -7.42478,7.42478 l 2.08852,13.68966 c 0,4.17636 3.24842,7.42479 7.42479,7.42479 h 14.15362 c 1.85654,0 3.24843,-1.39189 3.24843,-3.24843 v -0.69595 c 0,-1.85654 -1.39189,-3.24842 -3.24843,-3.24842 h 3.01645 c 1.85654,0 3.48041,-1.62456 3.48041,-3.48042 v -0.23198 c 0,-1.85654 -1.62456,-3.4804 -3.48041,-3.4804 h 1.85654 c 1.85653,0 3.48041,-1.62388 3.48041,-3.48042 z"
   id="path41" /><path
   inkscape:connector-curvature="0"
   style="fill:#f0ba7a"
   d="m 277.59574,291.87904 c 0,-1.85654 1.62456,-3.48041 3.48041,-3.48041 h 2.55248 c -1.85653,0 -3.4804,-1.62387 -3.4804,-3.48041 v -0.23198 c 0,-1.85654 1.62455,-3.48041 3.4804,-3.48041 h 18.56265 c 4.17636,0 7.42479,3.24843 7.42479,7.42478 l -2.08852,13.68966 c 0,4.17636 -3.24843,7.42479 -7.42479,7.42479 h -14.15362 c -1.85654,0 -3.24843,-1.39189 -3.24843,-3.24843 v -0.69595 c 0,-1.85654 1.39189,-3.24842 3.24843,-3.24842 h -3.01645 c -1.85654,0 -3.48041,-1.62456 -3.48041,-3.48042 v -0.23198 c 0,-1.85654 1.62455,-3.4804 3.48041,-3.4804 h -1.85654 c -1.85585,0 -3.48041,-1.62388 -3.48041,-3.48042 z"
   id="path43" /></svg>