<?xml version="1.0" encoding="utf-8"?>
<!-- Generator: Adobe Illustrator 26.0.1, SVG Export Plug-In . SVG Version: 6.00 Build 0)  -->
<svg version="1.1"
	 id="Layer_1" xmlns:cc="http://creativecommons.org/ns#" xmlns:dc="http://purl.org/dc/elements/1.1/" xmlns:inkscape="http://www.inkscape.org/namespaces/inkscape" xmlns:osb="http://www.openswatchbook.org/uri/2009/osb" xmlns:rdf="http://www.w3.org/1999/02/22-rdf-syntax-ns#" xmlns:sodipodi="http://sodipodi.sourceforge.net/DTD/sodipodi-0.dtd" xmlns:svg="http://www.w3.org/2000/svg"
	 xmlns="http://www.w3.org/2000/svg" xmlns:xlink="http://www.w3.org/1999/xlink" x="0px" y="0px" viewBox="0 0 1088.2 1080"
	 style="enable-background:new 0 0 1088.2 1080;" xml:space="preserve">
<style type="text/css">
	.st0{fill:#ABBEDB;}
	.st1{fill:#333842;}
	.st2{fill:#F1F3F7;}
	.st3{fill:#FCFCFD;}
	.st4{fill:#FFFFFF;}
	.st5{fill:#F5B41A;}
	.st6{fill:#F3AB00;stroke:#000000;stroke-width:2;stroke-miterlimit:10;}
	.st7{fill:none;}
	.st8{fill:#010101;}
	.st9{fill-rule:evenodd;clip-rule:evenodd;fill:#333842;}
	.st10{fill:#232E3F;}
	.st11{fill-rule:evenodd;clip-rule:evenodd;fill:#F5B41A;}
	.st12{fill-rule:evenodd;clip-rule:evenodd;fill:#FFC500;}
	.st13{fill-rule:evenodd;clip-rule:evenodd;fill:#FFE600;}
	.st14{fill-rule:evenodd;clip-rule:evenodd;fill:#FFF300;}
	.st15{fill:#FFFB6A;}
	.st16{fill:#FFC900;}
	.st17{fill:#FFAE00;}
	.st18{fill:#002549;}
	.st19{fill:#FFE600;}
	.st20{fill:#FFFB62;}
	.st21{fill:#FFFCAB;}
</style>
<sodipodi:namedview  bordercolor="#666666" borderopacity="1" gridtolerance="10" guidetolerance="10" id="namedview75" inkscape:current-layer="Layer_1" inkscape:cx="195.18311" inkscape:cy="258.5863" inkscape:pageopacity="0" inkscape:pageshadow="2" inkscape:window-height="706" inkscape:window-maximized="1" inkscape:window-width="1360" inkscape:window-x="-8" inkscape:window-y="-8" inkscape:zoom="1.8535718" objecttolerance="10" pagecolor="#ffffff" showgrid="false" width="500px">
	</sodipodi:namedview>
<g id="g45" transform="translate(0,-109.28699)">
</g>
<g id="g47" transform="translate(0,-109.28699)">
</g>
<g id="g49" transform="translate(0,-109.28699)">
</g>
<g id="g51" transform="translate(0,-109.28699)">
</g>
<g id="g53" transform="translate(0,-109.28699)">
</g>
<g id="g55" transform="translate(0,-109.28699)">
</g>
<g id="g57" transform="translate(0,-109.28699)">
</g>
<g id="g59" transform="translate(0,-109.28699)">
</g>
<g id="g61" transform="translate(0,-109.28699)">
</g>
<g id="g63" transform="translate(0,-109.28699)">
</g>
<g id="g65" transform="translate(0,-109.28699)">
</g>
<g id="g67" transform="translate(0,-109.28699)">
</g>
<g id="g69" transform="translate(0,-109.28699)">
</g>
<g id="g71" transform="translate(0,-109.28699)">
</g>
<g id="g73" transform="translate(0,-109.28699)">
</g>
<rect id="rect3063" y="-3.7" class="st0" width="1088.2" height="1088.2"/>
<g id="g5" transform="matrix(0.68431201,0,0,0.68431201,31.64237,29.915499)">
	
		<ellipse id="ellipse7" sodipodi:cx="116.641" sodipodi:cy="382.81299" sodipodi:rx="21.023001" sodipodi:ry="29.499001" class="st1" cx="398.9" cy="1107.9" rx="56.8" ry="79.6">
	</ellipse>
	
		<ellipse id="ellipse9" sodipodi:cx="392.646" sodipodi:cy="382.81299" sodipodi:rx="21.023001" sodipodi:ry="29.499001" class="st1" cx="1144.1" cy="1107.9" rx="56.8" ry="79.6">
	</ellipse>
	<path id="path11" inkscape:connector-curvature="0" class="st1" d="M932.6,725.2l-35.7-9.2l-41.2,105.3l-84.2,11.9l-84.2-11.9
		L646.1,716l-35.7,9.2c0,0-177.6,60.4-181.3,183.1l342.4,167.5l342.4-167.5C1110.2,784.7,932.6,725.2,932.6,725.2L932.6,725.2z"/>
</g>
<path id="path13" inkscape:connector-curvature="0" class="st2" d="M561.5,673.4c0,0-109.6-86.5-196.7-90.8v90.8H561.5z"/>
<path id="path15" inkscape:connector-curvature="0" class="st3" d="M561.5,673.4c0,0-164.8-67-245-60.8v92.7L561.5,673.4
	L561.5,673.4z"/>
<g id="g17" transform="matrix(0.68431201,0,0,0.68431201,31.64237,29.915499)">
	
		<ellipse id="ellipse19" sodipodi:cx="224.172" sodipodi:cy="265.082" sodipodi:rx="38.653999" sodipodi:ry="26.447001" transform="matrix(0.7355 -0.6775 0.6775 0.7355 -342.9214 675.8489)" class="st4" cx="694.2" cy="777.2" rx="64.1" ry="92.6">
	</ellipse>
	
		<ellipse id="ellipse21" sodipodi:cx="285.39001" sodipodi:cy="265.005" sodipodi:rx="38.653999" sodipodi:ry="26.447001" transform="matrix(0.6775 -0.7355 0.7355 0.6775 -298.3828 873.3203)" class="st4" cx="846.7" cy="776.9" rx="92.6" ry="64.1">
	</ellipse>
</g>
<path id="path23" inkscape:connector-curvature="0" class="st5" d="M634.1,546.3c-32.6,55.1-112.1,55.1-144.7,0
	c0-31.3,0-63.3,0-94.6c48.2,0,96.5,0,144.7,0C634.1,483,634.1,514.3,634.1,546.3z"/>
<g id="g29" transform="matrix(0.68431201,0,0,0.68431201,31.64237,29.915499)">
	<polygon id="polygon33" class="st1" points="774.2,940.4 774.2,1377.1 395.2,1331.3 371.4,883.6 	"/>
</g>
<path id="path35" inkscape:connector-curvature="0" class="st2" d="M560.8,673.4c0,0,109.6-86.5,196.7-90.8v90.8H560.8L560.8,673.4z
	"/>
<path id="path37" inkscape:connector-curvature="0" class="st3" d="M560.8,673.4c0,0,164.8-67,245-60.8v92.7L560.8,673.4
	L560.8,673.4z"/>
<polygon id="polygon39" class="st1" points="560.8,673.4 560.8,972.3 820.8,940.9 836.5,634.6 "/>
<path id="path41" inkscape:connector-curvature="0" class="st5" d="M366,788.1c0-5-4.4-9.4-9.4-9.4h-6.9c5,0,9.4-4.4,9.4-9.4v-0.6
	c0-5-4.4-9.4-9.4-9.4h-50.1c-11.3,0-20,8.8-20,20l5.6,37c0,11.3,8.8,20,20,20h38.2c5,0,8.8-3.8,8.8-8.8v-1.9c0-5-3.8-8.8-8.8-8.8
	h8.1c5,0,9.4-4.4,9.4-9.4v-0.6c0-5-4.4-9.4-9.4-9.4h5C361.6,797.5,366,793.1,366,788.1z"/>
<path id="path43" inkscape:connector-curvature="0" class="st5" d="M753.2,788.1c0-5,4.4-9.4,9.4-9.4h6.9c-5,0-9.4-4.4-9.4-9.4v-0.6
	c0-5,4.4-9.4,9.4-9.4h50.1c11.3,0,20,8.8,20,20l-5.6,37c0,11.3-8.8,20-20,20h-38.2c-5,0-8.8-3.8-8.8-8.8v-1.9c0-5,3.8-8.8,8.8-8.8
	h-8.1c-5,0-9.4-4.4-9.4-9.4v-0.6c0-5,4.4-9.4,9.4-9.4h-5C757.5,797.5,753.2,793.1,753.2,788.1z"/>
<g>
	<path class="st6" d="M689.5,339.4c-1.1-8.8-4.6-16.4-12.2-22c-22-16.4-45.6-30-69.5-43.2c-9.9-5.5-20.2-10.2-30.6-14.9
		c-4.8-2.2-9.5-3.2-14.2-3.2s-9.4,1-14.2,3.2c-10.3,4.7-20.6,9.4-30.6,14.9c-23.9,13.2-47.5,26.8-69.5,43.2
		c-7.6,5.7-11.2,13.2-12.2,22c-4.6,38.4-5.3,76.9-0.4,115.4c1.3,9.8,5.1,17.4,13,23.2c30.8,22.8,64.1,41.3,98.7,57.6
		c5.2,2.4,10.2,3.5,15.2,3.4c5,0.1,10-1,15.2-3.4c34.6-16.3,67.9-34.9,98.7-57.6c7.9-5.8,11.7-13.4,13-23.2
		C694.8,416.2,694.1,377.8,689.5,339.4z"/>
	<path class="st7" d="M618.3,420.8c0.3-0.4,0.5-0.9,0.8-1.4c0,0,0,0.1-0.1,0.1C618.8,419.9,618.6,420.4,618.3,420.8z"/>
	<path class="st8" d="M618.3,420.8c-2,3.4-3.7,5.8-4.2,6.5C615.6,425.2,617,423,618.3,420.8z"/>
	<path class="st5" d="M684.4,340c-1-8.2-4.2-14-10.2-18.5c-22.1-16.4-46.1-30.3-68.9-42.8c-10.1-5.6-20.9-10.5-30.2-14.7
		c-4.1-1.9-8.1-2.8-12.1-2.8v272.6h0.5c4.2,0,8.3-1,12.4-2.9c38.3-18.1,70.3-36.8,97.8-57.1c6.4-4.7,9.8-10.8,10.9-19.7
		C689.4,418.1,689.2,380.8,684.4,340z"/>
	<path class="st8" d="M544.6,426.1c3.6,1.6,7.5,1.4,11.3,1.3c4.2-0.1,8.2-1,12.2-2.3c0.6-0.3,1.3-0.6,1.9-0.9c1.7-0.9,3.5-1.5,5-2.8
		c4.3-2.6,8-5.9,11-10c1.1-1.9,3.3-5.6,4.4-7.5l0,0l0,0c0.3-0.7,0.6-1.4,1-2.1c0.9-2.2,1.5-4.4,0.5-6.8c-0.6-1.6-1-3.3-1.3-5
		c-1.7-10-1.4-19.9,0.3-29.8c0.6-3.6,0.6-3.6-2.9-4.6c-11.5-3.4-21.8-9-31.3-16.1c-1.2-1,0,0-1.2-1l0,0c-1.3-0.9,0,0-1.3-0.9
		c-5.3-4.3-10.4-8.8-15-13.8c-5.4-5.8-10.5-11.8-14.6-18.6c-0.6-0.9-1-1.1-2-0.5c-1.8,1.2-3.7,2.3-5.6,3.3c-1.1,0.6-1.2,1.1-0.5,2.2
		c1.7,2.7,3.3,5.5,5,8.3c1.2,2.2,0,0,1.2,2.2l0,0c1.3,2.2,2.6,4.4,3.9,6.5c4.1,7,8.2,13.9,12.3,20.9c4,6.8,7.9,13.6,11.9,20.4
		c0.5,0.8,1,1.4,2,1.6c5.8,1.2,9.6,6.6,8.8,12.4c-0.8,5.5-5.4,10.1-12,9.7c-6.1-0.3-11.2-6.4-10-12.4c0.5-2.8,0-4.9-1.5-7.1
		c-0.5-0.8-0.9-1.6-1.4-2.4c-6.3-10.8-12.7-21.5-19-32.3c-4.2-7.1-8.3-14.2-12.5-21.3c-0.5-0.9-1-1.1-2-0.5
		c-1.9,1.2-3.8,2.3-5.8,3.4c-1,0.5-1,1.1-0.5,2c2.3,3.8,4.1,7.9,5.7,12c2.3,5.8,4.3,11.7,5.8,17.8c1.4,5.8,2.6,11.7,3.2,17.6
		c0.6,6,0.8,12,0.4,18.1c-0.3,5.5-1,11-2.4,16.3c-0.4,1.5,0,2.1,1.3,2.3c1.9,0.4,3.6,1.3,5.4,2c9.2,3.4,17.6,8.3,24.9,15
		C542,423.9,543,425.4,544.6,426.1z"/>
	<path class="st8" d="M556.6,442.5c-7,0.7-13.9,0.2-20.7-1.3c-1.1-0.2-1.5,0-1.7,1.1c-1.2,4.6-2.4,9.2-3.6,13.7
		c-0.3,1.1,0,1.5,1,1.7c8,1.8,16.1,2.6,24.3,2c7.1-0.5,14-2.1,20.7-4.3c3.8-1.2,7.3-3.1,10.9-4.7c2.2-1.4,4.4-2.7,6.6-4.1
		c5.4-3.5,10.2-7.7,14.5-12.5c2-2.2,3.9-4.5,5.6-6.8c0.5-0.7,2.2-3,4.2-6.5c0.2-0.4,0.5-0.8,0.7-1.3l0.1-0.1
		c1.8-3.2,3.9-7.3,5.6-11.7c0.6-1.8,1.2-3.6,1.8-5.4c0.4-1.4,0.2-1.9-1.1-2.2c-4.5-1.2-9.1-2.5-13.6-3.7c-1.2-0.3-2.1,0.1-2.4,1.4
		c-1.5,5.2-3.7,10.1-6.4,14.8c-0.4,0.7,0,0.1-1.1,2.2c-1.3,2.4-3.1,4.5-5,6.6c-0.5,0.7-0.8,0.9-1.1,1.2c-4.5,4.7-9.1,8.8-14.8,12
		C573.5,438.9,565.4,441.6,556.6,442.5z"/>
	<path class="st8" d="M658.5,408.7c-4.9-1.3-9.8-2.6-14.7-3.9c-0.9-0.2-1.2,0.4-1.5,1c-0.6,1.7-1.2,3.3-1.7,5c-1,3.5-2.6,6.8-4,10.1
		c-1,2.4-1.8,4.1-3.2,6.9c-0.7,1.4-1.4,2.8-2.3,4.1c-3,4.5-6.1,8.8-9.8,12.7c-2.9,3.2-5.9,6.3-9.2,9.1c-4,3.2-8.2,6.3-12.6,9
		c-3.8,2.4-7.8,4.6-12.1,6.1c0.1,0,0.3-0.1,0,0c-3.5,1.4-7.9,2.8-11.6,3.8c-4.6,1.2-9.3,2.2-14.1,2.8c-1.3,0.1-2.6,0.2-3.8,0.3
		c-7.9,0.7-15.8,0.3-23.7-0.9c-2.1-0.3-2.3-0.5-6.3-1c-2-0.4-2.4-0.2-2.7,1.5c-0.4,2.3-1.1,4.6-1.7,6.9c-0.9,3.5-1.1,4.4-2.1,6.9
		c-0.2,0.4,0.1,0.8,0.5,0.9c0.3,0.1,0.6,0.2,0.9,0.3c4.9,0.9,9.7,2.2,14.7,2.6c3.2,0.2,6.7,0.4,10,0.5c4,0.1,7.7,0.3,11.6-0.1
		c6.8-0.6,13.5-1.7,20-3.5c8.3-2.3,16.3-5.2,23.8-9.5c0.9-0.5,1.8-0.9,2.7-1.3c2.1-1.5,4.4-2.6,6.3-4.3c2.6-1.3,4.7-3.2,7-4.9
		c5.5-4.1,10.5-8.9,15-14c5.9-6.6,11.7-14.4,15.8-22.2c0,0-0.2,0.3,0,0c2.1-3.6,3.6-7.5,5.2-11.3c1.6-3.8,2.7-7.9,4-11.8
		C659.7,409.5,659.7,409,658.5,408.7z"/>
</g>
<g>
	<g>
		<g>
			<path class="st9" d="M499.8,266.7l1.1,2.3l-100.5,11.4l28.7,90.3c72.9-20,121.2,15.2,129.8,21.6c0.7,0.6,1.7,0.2,2-0.7
				c3.4-10.2,22.1-66.9,93.2-92.7l-28.7-90.4L499.8,266.7z"/>
			<g>
				<path class="st10" d="M500.8,269l-13.6,1.6l32.3,101.3c5.9,1.7,11.5,4.5,16.1,6.4L500.8,269z"/>
				<polygon class="st10" points="500.6,268.2 500,266.5 499.8,266.7 				"/>
				<path class="st10" d="M450.7,366c17.6-2.7,33.7-1.2,47.4,0.7l-30-93.9l-45.5,5.1L450.7,366z"/>
				<path class="st10" d="M406.7,279.6l-6.3,0.7l28.7,90.3c2-0.6,4-1.1,6-1.6L406.7,279.6z"/>
				<path class="st10" d="M595,336.1c10.1-9.5,22.3-20.2,38.1-28.3l-28.6-89.7l-41.1,19L595,336.1z"/>
			</g>
			<polygon class="st11" points="527.4,289.9 696.4,184.7 695.6,182.2 498.5,199 498.5,199 498.4,199 498.4,199 498.4,199 
				328,299.5 328.8,302 527.4,289.9 527.4,289.9 527.4,289.9 			"/>
			<polygon class="st9" points="526.7,287.5 695.6,182.2 497.6,196.5 497.6,196.5 497.6,196.5 497.6,196.5 497.6,196.5 328,299.5 
				526.7,287.5 526.7,287.5 526.7,287.5 			"/>
		</g>
		
			<ellipse transform="matrix(0.9526 -0.3041 0.3041 0.9526 -47.2803 166.1792)" class="st9" cx="509.9" cy="234.9" rx="18" ry="7.4"/>
		<path class="st12" d="M522.6,229.1c1,3-4.1,7.3-11.5,9.6c-7.3,2.3-14,1.8-15-1.2s4.1-7.3,11.5-9.6
			C514.9,225.5,521.6,226.1,522.6,229.1z"/>
		<path class="st13" d="M517.4,228.6c0.7,1.9-2.7,4.8-7.5,6.3c-4.7,1.6-9.1,1.1-9.7-0.8c-0.7-1.9,2.7-4.8,7.5-6.3
			C512.3,226.4,516.7,226.7,517.4,228.6z"/>
		<path class="st14" d="M511,238.4c-7.2,2.2-13.8,1.8-14.9-1c0,0.1,0,0.1,0,0.2c1,3,7.6,3.6,15,1.2c7.3-2.3,12.4-6.6,11.5-9.6
			c0-0.1-0.1-0.1-0.1-0.2C523.2,231.9,518.2,236,511,238.4z"/>
		<path class="st5" d="M647.9,279.7c-41.5,15.1-65.7,39.4-78.6,56.9c-9.8,13.3-14.9,24.8-17,30.9c-5.3-3.6-16.1-10.1-31.8-15.3
			c-20.8-6.8-54.5-12.5-97.1-0.9l1.7,6.3c40.9-11.2,73.2-5.8,93.1,0.7c21.6,7,33.7,16.9,33.8,17l3.9,3.2l1.3-4.9
			c0-0.1,4.1-15.2,17.7-33.4c12.4-16.8,35.6-39.9,75.5-54.5L647.9,279.7z M549.5,360.6l0.8,0.6l0.2-0.9c0-0.1,4.5-14.7,18.5-32.3
			c12.9-16.3,36.8-38.9,77.4-53.7l-0.4-1.2c-40.9,14.8-65.1,37.6-78.1,54.1c-12.2,15.4-17.1,28.4-18.3,31.9
			c-2.9-2.1-14.5-9.7-33.4-15.3c-20.1-5.9-53-10.5-95,1.1l0.3,1.2c41.6-11.5,74.2-7,94.2-1.1C537.3,351.3,549.4,360.5,549.5,360.6z"
			/>
		<path class="st15" d="M647.8,279.1c-41.5,15.1-65.7,39.4-78.6,56.9c-9.8,13.3-14.9,24.8-17,30.9c-5.3-3.6-16.1-10.1-31.8-15.3
			c-20.8-6.8-54.5-12.5-97.1-0.9l1.7,6.3c40.9-11.2,73.2-5.8,93.1,0.7c21.6,7,33.7,16.9,33.8,17l3.9,3.2l1.3-4.9
			c0-0.1,4.1-15.2,17.7-33.4c12.4-16.8,35.6-39.9,75.5-54.5L647.8,279.1z M549.3,360.1l0.8,0.6l0.2-0.9c0-0.1,4.5-14.7,18.5-32.3
			c12.9-16.3,36.8-38.9,77.4-53.7l-0.4-1.2c-40.9,14.8-65.1,37.6-78.1,54.1c-12.2,15.4-17.1,28.4-18.3,31.9
			c-2.9-2.1-14.5-9.7-33.4-15.3c-20.1-5.9-53-10.5-95,1.1l0.3,1.2c41.6-11.5,74.2-7,94.2-1.1C537.2,350.7,549.2,360,549.3,360.1z"/>
		<path class="st16" d="M647.9,279.7c-41.5,15.1-65.7,39.4-78.6,56.9c-9.8,13.3-14.9,24.8-17,30.9c-5.3-3.6-16.1-10.1-31.8-15.3
			c-20.8-6.8-54.5-12.5-97.1-0.9l1.7,6.3c40.9-11.2,73.2-5.8,93.1,0.7c21.6,7,33.7,16.9,33.8,17l3.9,3.2l1.3-4.9
			c0-0.1,4.1-15.2,17.7-33.4c12.4-16.8,35.6-39.9,75.5-54.5L647.9,279.7z M549.5,360.6l0.8,0.6l0.2-0.9c0-0.1,4.5-14.7,18.5-32.3
			c12.9-16.3,36.8-38.9,77.4-53.7l-0.4-1.2c-40.9,14.8-65.1,37.6-78.1,54.1c-12.2,15.4-17.1,28.4-18.3,31.9
			c-2.9-2.1-14.5-9.7-33.4-15.3c-20.1-5.9-53-10.5-95,1.1l0.3,1.2c41.6-11.5,74.2-7,94.2-1.1C537.3,351.3,549.4,360.5,549.5,360.6z"
			/>
		<g>
			<path class="st17" d="M625,282c-16.1,7.9-28.9,17.1-38.9,26l0.4,1.3c10-8.8,22.7-18,38.8-26.1L625,282z"/>
			<path class="st17" d="M510,342.2l0.4,1.5c1.8,0.4,3.5,0.9,5.1,1.5c3.8,1.1,7.3,2.3,10.5,3.6l-0.4-1.6c-2.9-1.1-6.2-2.2-9.5-3.2
				C514.2,343.2,512.2,342.6,510,342.2z"/>
			<path class="st17" d="M442.9,341.4c17.8-2.9,33.4-2.9,46.6-1.5l-0.4-1.3c-13.3-1.3-29-1.3-46.6,1.6L442.9,341.4z"/>
			<path class="st17" d="M421.3,345.5l0.2,0.6c2-0.6,4-1.1,6-1.6l-0.3-1.2c-2,0.4-3.9,1-6,1.6L421.3,345.5z"/>
			<path class="st17" d="M530.9,363.3l-2.6-8.2c-2.5-1-5-1.9-7.8-2.8c-2.5-0.8-5.1-1.6-7.9-2.3l2.3,7.5c1.1,0.3,2.1,0.7,3.2,1
				C522.9,360,527.1,361.6,530.9,363.3z"/>
			<path class="st17" d="M629.1,295.1l-2-6.3c-16,8.1-28.7,17.5-38.7,26.6l2.2,6.9C600.3,313,612.9,303.4,629.1,295.1z"/>
			<path class="st17" d="M491.5,345.9c-13.4-1.7-29.2-1.8-46.9,1l2,6.3c17.9-2.7,33.8-2.2,47.1-0.3L491.5,345.9z"/>
			<path class="st17" d="M431.1,356.2l-2-6.3c-1.9,0.4-3.9,1-5.9,1.6l0.9,3.1l1,3.1C427.2,357.2,429.2,356.6,431.1,356.2z"/>
		</g>
	</g>
	<g>
		<path class="st17" d="M645.4,337.4c-1.2,0.3-2.5-0.2-2.9-1.5l-31.8-99.6l-102-2.6c-1.2,0-2.2-1.1-2.2-2.3s1.1-2.2,2.3-2.2
			l103.7,2.7c1,0,1.8,0.7,2.1,1.6l32.3,101.1C647.3,335.7,646.6,336.9,645.4,337.4z"/>
	</g>
	<g>
		<g>
			<g>
				<path class="st17" d="M644.5,354.1c1.6,18,7.6,36.1,13.9,53c0.3,0.9,1.8,0.4,1.5-0.4c-6.2-16.8-12.2-34.8-13.8-52.6
					C645.9,353.1,644.5,353.1,644.5,354.1L644.5,354.1z"/>
			</g>
			<g>
				<path class="st17" d="M647.1,354.4c3.5,17.9,9.6,35.6,15.2,52.9c0.3,0.9,1.7,0.4,1.5-0.4c-5.6-17.3-11.7-35-15.2-52.9
					C648.3,352.9,646.9,353.4,647.1,354.4L647.1,354.4z"/>
			</g>
		</g>
		<g>
			<g>
				<path class="st17" d="M654.4,351.5c9.1,15.4,14.7,33.7,19.2,50.9c0.2,1,1.7,0.6,1.5-0.4c-4.7-17.3-10.3-35.7-19.5-51.2
					C655.2,349.8,654,350.6,654.4,351.5L654.4,351.5z"/>
			</g>
			<g>
				<path class="st17" d="M652.3,352.7c7.6,16.7,12.8,34.6,18.2,51.9c0.3,0.9,1.7,0.4,1.5-0.4c-5.6-17.3-10.6-35.3-18.2-51.9
					C653.3,351.3,651.8,351.8,652.3,352.7L652.3,352.7z"/>
			</g>
		</g>
		<g>
			<path class="st17" d="M650.1,354.5c5.6,17.6,11.2,35.1,16.8,52.7c0.3,0.9,1.7,0.4,1.5-0.4c-5.6-17.6-11.2-35.1-16.8-52.7
				C651.2,353.1,649.8,353.6,650.1,354.5L650.1,354.5z"/>
		</g>
	</g>
	<path class="st18" d="M651.1,355.1L651.1,355.1c-4.7,1.6-9.8-1.1-11.4-5.9l0,0c-1.6-4.7,1.1-9.8,5.9-11.4l0,0
		c4.7-1.6,9.8,1.1,11.4,5.9l0,0C658.4,348.4,655.9,353.6,651.1,355.1z"/>
	<path class="st1" d="M648.3,346.4L648.3,346.4c-3.5,1.1-7.2-0.8-8.3-4.3l-1-3.1c-1.1-3.5,0.8-7.2,4.3-8.3l0,0
		c3.5-1.1,7.2,0.8,8.3,4.3l1,3.1C653.6,341.6,651.7,345.4,648.3,346.4z"/>
	<path class="st19" d="M650.7,354L650.7,354c-4.7,1.6-9.8-1.1-11.4-5.9l-0.9-2.8c-1.6-4.7,1.1-9.8,5.9-11.4l0,0
		c4.7-1.6,9.8,1.1,11.4,5.9l0.9,2.8C658.1,347.3,655.5,352.5,650.7,354z"/>
	<path class="st20" d="M644.3,333.9c-4.7,1.6-7.4,6.6-5.9,11.4l0.1,0.3c-1.6-4.7,1.1-9.8,5.9-11.4c4.7-1.6,9.8,1.1,11.4,5.9
		l-0.1-0.3C654.2,335,649,332.4,644.3,333.9z"/>
	<path class="st21" d="M638.2,344.6l0.6,1.9L656,341l-0.6-1.9L638.2,344.6z M639.5,348.7l17.2-5.5l-0.2-0.6l-17.2,5.5L639.5,348.7z"
		/>
	<path class="st18" d="M638.2,344.6l0.6,1.8l17.2-5.5l-0.6-1.8L638.2,344.6z M639.4,348.4l17.2-5.5l-0.2-0.6l-17.2,5.5L639.4,348.4z
		"/>
</g>
</svg>
