<?xml version="1.0" encoding="utf-8"?>
<!-- Generator: Adobe Illustrator 26.0.1, SVG Export Plug-In . SVG Version: 6.00 Build 0)  -->
<svg version="1.1" id="Layer_1" xmlns="http://www.w3.org/2000/svg" xmlns:xlink="http://www.w3.org/1999/xlink" x="0px" y="0px"
	 viewBox="0 0 512 512" style="enable-background:new 0 0 512 512;" xml:space="preserve">
<style type="text/css">
	.st0{display:none;fill:#FF595B;stroke:#FFFFFF;stroke-width:7;stroke-miterlimit:10;}
	.st1{fill:#FF595B;}
	.st2{fill:#FFFFFF;}
</style>
<rect x="-20" y="-13" class="st0" width="550" height="550"/>
<g>
	<path class="st1" d="M206.2,471.1c-4.4,0-8.8-0.7-13.2-2.1c-26.4-8.4-32.7-36.2-36.8-54.6l-0.3-1.2c-0.6-2.4-1.4-5.5-2.1-8.3
		c-0.5,0-0.9,0-1.4,0c-2.7,0-5.4,0.1-8,0.3c-5.8,0.5-12,1.1-18.3,1.1c-7.6,0-30.9,0-44.8-19c-15.7-21.6-5.5-46.4,2-64.5l0.3-0.8
		l0.1-0.2c1.3-2.8,2.5-5.8,3.5-8.7c-2.4-1.6-5-3.2-7.5-4.6l-0.2-0.1c-15.3-9.2-40.9-24.5-40.9-52.3c0-28.8,27.8-44.3,41.2-51.8
		c2.5-1.4,5-3,7.5-4.6c-1-3-2.2-5.9-3.5-8.7l-0.1-0.2l-0.6-1.5c-7.4-17.8-17.5-42.3-1.7-63.9c13.9-19,36.9-19,44.4-19
		c6.7,0,13.3,0.6,18.6,1.1c2.7,0.2,5.4,0.3,8,0.3c0.5,0,0.9,0,1.4,0c0.8-2.8,1.5-5.9,2.1-8.3l0.3-1.2c3.6-15.9,10.2-45.4,36.7-54.1
		c4.3-1.4,8.7-2.1,13.1-2.1c19.5,0,35.1,13.4,47.7,24.2l0.3,0.2c2.5,2.3,5.1,4.4,7.7,6.4c2.7-2.3,5.4-4.7,7.9-7.2l0.3-0.3l1.2-1.1
		c12.1-10.5,27.2-23.5,46.6-23.5c4.4,0,8.9,0.7,13.2,2.1c26.4,8.4,32.7,36.2,36.8,54.6l0.3,1.2c0.6,2.4,1.4,5.5,2.1,8.3
		c0.5,0,0.9,0,1.4,0c2.7,0,5.4-0.1,8-0.3c5.8-0.5,12-1.1,18.3-1.1c7.7,0,30.9,0,44.8,19c15.7,21.6,5.5,46.4-2,64.5l-0.3,0.8
		l-0.1,0.2c-1.3,2.8-2.5,5.8-3.5,8.7c2.4,1.6,5,3.2,7.5,4.6l0.2,0.1c15.3,9.2,40.9,24.5,40.9,52.3c0,30.2-30.8,45.7-41.4,50.9
		c-2.5,1.4-4.9,2.9-7.3,4.5c1,3,2.2,5.9,3.5,8.7l0.1,0.2l0.6,1.5c7.4,17.8,17.5,42.3,1.7,63.9c-13.9,19-36.7,19-44.4,19
		c0,0-0.1,0-0.1,0c-6.7,0-13.3-0.6-18.6-1.1c-2.7-0.2-5.4-0.3-8-0.3c-0.5,0-0.9,0-1.4,0c-0.8,2.8-1.5,5.9-2.1,8.3l-0.3,1.2l-0.2,0.8
		c-4.3,19.2-10.2,45.5-36.6,53.8c-4.2,1.4-8.5,2.1-12.9,2.2l-0.8,0l-0.8-0.1c-17.9-2.4-34.5-11-46.8-24.1c-2.5-2.2-5-4.4-7.7-6.4
		c-2.7,2.1-5.4,4.3-7.9,6.6C242.5,456.4,226.7,471.1,206.2,471.1z"/>
	<path class="st2" d="M317.7,50.9c3.3,0,6.7,0.5,10.2,1.6c20.7,6.6,26,29.2,30.1,47.4c1.3,5.1,3.2,13,4.7,16.9
		c2.9,0.2,5.9,0.3,8.9,0.3s5.9-0.1,8.9-0.3c5.6-0.5,11.5-1,17.5-1c13.9,0,27.9,2.8,36.7,14.9c12.6,17.3,3.6,38.4-3.4,55.5
		c-2.5,5.4-4.6,11.1-6.2,16.9c4.5,3.4,9.3,6.6,14.3,9.4c16,9.6,36.1,22.4,36.1,43.7s-20.1,34.1-36.1,42c-5,2.8-9.7,5.9-14.3,9.4
		c1.6,5.8,3.7,11.4,6.2,16.9c7,17.1,16.2,38,3.4,55.5c-8.9,12.1-22.6,14.9-36.4,14.9c-6.1,0-12.1-0.5-17.8-1.1
		c-2.9-0.2-5.9-0.3-8.9-0.3s-5.9,0.1-8.9,0.3c-1.5,3.8-3.4,11.7-4.7,16.9c-4.1,18.1-8.7,40.7-30.1,47.4c-3.2,1.1-6.6,1.6-10,1.7
		c-15.8-2.1-30.3-9.7-41.2-21.3c-4.6-4.2-9.5-8-14.7-11.5c-5.2,3.5-10.1,7.3-14.7,11.5c-11.5,10.8-25,23-41,23
		c-3.3,0-6.7-0.5-10.2-1.6c-20.7-6.6-26-29.2-30.1-47.4c-1.3-5.1-3.2-13-4.7-16.9c-2.9-0.2-5.9-0.3-8.9-0.3c-3,0-5.9,0.1-8.9,0.3
		c-5.6,0.5-11.5,1-17.5,1c-13.9,0-27.9-2.8-36.7-14.9c-12.6-17.3-3.6-38.4,3.4-55.5c2.5-5.4,4.6-11.1,6.2-16.9
		c-4.5-3.4-9.3-6.6-14.3-9.4c-16-9.6-36.1-22.4-36.1-43.7s20.1-34.1,36.1-43.1c5-2.8,9.7-5.9,14.3-9.4c-1.6-5.8-3.7-11.4-6.2-16.9
		c-7-17.1-16.2-38-3.4-55.5c8.9-12.1,22.6-14.9,36.4-14.9c6.1,0,12.1,0.5,17.8,1.1c2.9,0.2,5.9,0.3,8.9,0.3c3,0,5.9-0.1,8.9-0.3
		c1.5-3.8,3.4-11.7,4.7-16.9c4.1-18.1,10-40.3,30.1-46.9c3.4-1.1,6.7-1.6,10-1.6c15.8,0,29.7,12,41.2,21.9c4.6,4.2,9.5,8,14.7,11.5
		c5.2-3.8,10.1-8,14.7-12.6C288.2,62.8,301.7,50.9,317.7,50.9 M317.7,30.9C317.7,30.9,317.7,30.9,317.7,30.9
		c-23,0-40.4,15-53.1,25.9l-1,0.8l-0.5,0.5l-0.5,0.5c-0.4,0.4-0.8,0.7-1.1,1.1c-0.3-0.2-0.5-0.5-0.8-0.7l-0.2-0.2l-0.2-0.2l-0.1-0.1
		c-13.1-11.3-31-26.7-54.2-26.7c-5.5,0-10.9,0.9-16.2,2.6c-14,4.6-24.9,14.3-32.5,28.9c-5.4,10.3-8.4,21.7-10.8,32.4l-0.3,1.1
		c0,0.2-0.1,0.3-0.1,0.5c-0.3,0-0.6,0-0.9-0.1c-5.5-0.5-12.4-1.1-19.4-1.1c-10.2,0-19,1.3-26.7,4.1c-10.6,3.8-19.3,10.2-25.8,19.1
		c-8.7,11.9-11.9,26-9.5,42c1.8,11.7,6.1,22.3,10,31.6l0.5,1.3l0.2,0.4l0.2,0.4c0.1,0.1,0.1,0.3,0.2,0.4
		C61,203.3,28.7,221.4,28.7,256c0,33.4,29.8,51.3,45.8,60.9l0.2,0.1l0.2,0.1c-0.1,0.1-0.1,0.3-0.2,0.4l-0.2,0.4l-0.2,0.4l-0.3,0.6
		c-3.7,9-8.3,20.1-10.1,31.9c-2.5,16.2,0.6,30.4,9.3,42.3c6.5,8.9,15.2,15.3,26,19.1c7.8,2.7,16.5,4,26.9,4c6.6,0,13.1-0.5,19.1-1.1
		c0.3,0,0.6,0,0.9-0.1c0,0.2,0.1,0.4,0.1,0.5l0.3,1.1c2,9,4.8,21.3,10.4,32.4c7.5,14.9,18.7,24.8,33,29.4c5.3,1.7,10.8,2.6,16.2,2.6
		c24.4,0,42.6-17,54.6-28.3c0.4-0.3,0.8-0.7,1.2-1c0.2,0.2,0.5,0.4,0.7,0.6c13.9,14.6,32.5,24.1,52.5,26.8l1.5,0.2l1.5,0
		c5.4-0.1,10.6-1,15.7-2.7c14.5-4.5,25.6-14.3,33-28.9c5.5-10.8,8.1-22.7,10.3-32.2l0.2-0.7l0.3-1.1c0-0.2,0.1-0.3,0.1-0.5
		c0.3,0,0.6,0,0.9,0.1c5.5,0.5,12.4,1.1,19.4,1.1c10.2,0,19-1.3,26.7-4.1c10.6-3.8,19.3-10.2,25.8-19.1c8.7-11.9,11.9-26,9.5-42
		c-1.8-11.7-6.1-22.3-10-31.6l-0.5-1.3l-0.2-0.4l-0.2-0.4c-0.1-0.1-0.1-0.3-0.2-0.4c12-6,21-12.1,28.1-19.1
		c11.8-11.5,18-25.5,18-40.4c0-33.4-29.8-51.3-45.8-60.9l-0.2-0.1l-0.2-0.1c0.1-0.1,0.1-0.3,0.2-0.4l0.2-0.4l0.2-0.4l0.3-0.6
		c3.7-9,8.3-20.1,10.1-31.9c2.5-16.2-0.6-30.4-9.3-42.3c-6.5-8.9-15.2-15.3-26-19.1c-7.8-2.7-16.5-4-26.9-4
		c-6.6,0-13.1,0.5-19.1,1.1c-0.3,0-0.6,0-0.9,0.1c0-0.2-0.1-0.4-0.1-0.5l-0.3-1.1c-2-9-4.8-21.3-10.4-32.4
		c-7.5-14.9-18.7-24.8-33-29.4C328.7,31.7,323.2,30.9,317.7,30.9L317.7,30.9L317.7,30.9z"/>
</g>
<path class="st2" d="M342.8,216l-85.3,106.7c-3.7,4.8-9.3,7.7-15.4,8.1h-1.3c-5.7,0-11.1-2.2-15.1-6.2l-42.7-42.7
	c-8.4-8.4-8.4-21.9,0-30.3c8.4-8.4,21.9-8.4,30.3,0l25.8,25.8l70.4-87.9c8.1-8.6,21.6-9,30.2-0.9C347.3,195.8,348.6,207.3,342.8,216
	z"/>
</svg>
