<?xml version="1.0" encoding="UTF-8" standalone="no"?>
<!-- Generator: Adobe Illustrator 16.0.0, SVG Export Plug-In . SVG Version: 6.00 Build 0)  -->

<svg
   xmlns:osb="http://www.openswatchbook.org/uri/2009/osb"
   xmlns:dc="http://purl.org/dc/elements/1.1/"
   xmlns:cc="http://creativecommons.org/ns#"
   xmlns:rdf="http://www.w3.org/1999/02/22-rdf-syntax-ns#"
   xmlns:svg="http://www.w3.org/2000/svg"
   xmlns="http://www.w3.org/2000/svg"
   xmlns:sodipodi="http://sodipodi.sourceforge.net/DTD/sodipodi-0.dtd"
   xmlns:inkscape="http://www.inkscape.org/namespaces/inkscape"
   version="1.1"
   id="Layer_1"
   x="0px"
   y="0px"
   width="500"
   height="500"
   viewBox="0 0 500 500"
   enable-background="new 0 0 4000 4000"
   xml:space="preserve"
   inkscape:version="0.48.4 r9939"
   sodipodi:docname="مؤسسة.svg"><metadata
   id="metadata21"><rdf:RDF><cc:Work
       rdf:about=""><dc:format>image/svg+xml</dc:format><dc:type
         rdf:resource="http://purl.org/dc/dcmitype/StillImage" /></cc:Work></rdf:RDF></metadata><defs
   id="defs19"><linearGradient
     id="linearGradient5223"
     osb:paint="gradient"><stop
       style="stop-color:#1af596;stop-opacity:1;"
       offset="0"
       id="stop5225" /><stop
       style="stop-color:#1af596;stop-opacity:0;"
       offset="1"
       id="stop5227" /></linearGradient></defs><sodipodi:namedview
   pagecolor="#ffffff"
   bordercolor="#666666"
   borderopacity="1"
   objecttolerance="10"
   gridtolerance="10"
   guidetolerance="10"
   inkscape:pageopacity="0"
   inkscape:pageshadow="2"
   inkscape:window-width="1280"
   inkscape:window-height="706"
   id="namedview17"
   showgrid="false"
   inkscape:zoom="0.71"
   inkscape:cx="319.59027"
   inkscape:cy="221.37206"
   inkscape:window-x="-8"
   inkscape:window-y="-8"
   inkscape:window-maximized="1"
   inkscape:current-layer="Layer_1" />
<path
   d="m 470.23262,149.50046 c -1.84021,-15.4006 -8.01408,-28.50848 -21.31646,-38.41668 C 410.64768,82.575287 369.52633,58.798266 327.83344,35.868984 310.49968,26.335035 292.59572,18.04461 274.56215,9.9074678 266.12219,6.1001205 257.95629,4.2581755 249.77862,4.2833217 241.60095,4.2581701 233.43425,6.1001205 224.99576,9.9074678 206.96138,18.04461 189.05809,26.335035 171.72367,35.868984 130.02998,58.798266 88.90957,82.575287 50.64161,111.08378 37.337769,120.9921 31.163894,134.1 29.32435,149.50046 c -7.988406,66.9796 -9.234199,133.98076 -0.652054,201.09064 2.182216,17.05381 8.927773,30.28837 22.624184,40.40522 53.71857,39.68321 111.73148,71.94889 172.01356,100.42782 9.01832,4.25823 17.7706,6.12666 26.46845,5.98514 8.69771,0.14152 17.45012,-1.72691 26.46911,-5.98514 60.28208,-28.47893 118.29513,-60.74461 172.01276,-100.42782 13.69588,-10.11685 20.4413,-23.35141 22.62499,-40.40522 8.58161,-67.10988 7.33501,-134.11104 -0.65273,-201.09064 z"
   id="path3"
   inkscape:connector-curvature="0"
   style="fill:#f95858;fill-opacity:1" />


<path
   d="m 461.24306,150.57465 c -1.70177,-14.24468 -7.33769,-24.4858 -17.73449,-32.23117 C 405.0749,89.713552 363.10353,65.597454 323.47061,43.801347 305.78761,34.075859 287.0319,25.465625 270.84028,18.159505 263.64384,14.91353 256.80988,13.336152 249.80658,13.336152 V 488.35953 l 0.88706,0.006 c 7.28633,0 14.38098,-1.67675 21.68776,-5.12764 66.78447,-31.54969 122.55617,-64.10427 170.50119,-99.5231 11.17914,-8.25725 17.04632,-18.82794 19.02389,-34.27121 8.02573,-62.77379 7.80904,-127.82612 -0.66342,-198.86882 z"
   id="path9"
   inkscape:connector-curvature="0"
   style="fill:#ffffff;fill-opacity:1;opacity:0.2" />



<g
   id="g3"
   transform="matrix(0.58186701,0,0,0.58736796,101.37979,77.211267)"
   style="fill:#ffffff"><g
     id="g5"
     style="fill:#ffffff"><path
       inkscape:connector-curvature="0"
       d="m 256,244.032 -75,49.995 V 421 h 30 V 316 c 0,-8.291 6.709,-15 15,-15 8.291,0 15,6.709 15,15 v 105 h 30 V 316 c 0,-8.291 6.709,-15 15,-15 8.291,0 15,6.709 15,15 v 105 h 30 V 294.027 l -75,-49.995 z"
       id="path7"
       style="fill:#ffffff" /></g></g><g
   id="g9"
   transform="matrix(0.58186701,0,0,0.58736796,101.37979,77.211267)"
   style="fill:#ffffff"><g
     id="g11"
     style="fill:#ffffff"><path
       inkscape:connector-curvature="0"
       d="m 15,451 c -8.284,0 -15,6.714 -15,15 v 31 c 0,8.284 6.716,15 15,15 h 62.968 l 40.003,-61 H 15 z"
       id="path13"
       style="fill:#ffffff" /></g></g><g
   id="g15"
   transform="matrix(0.58186701,0,0,0.58736796,101.37979,77.211267)"
   style="fill:#ffffff"><g
     id="g17"
     style="fill:#ffffff"><polygon
       points="357.968,451 154.027,451 114.024,512 397.974,512 "
       id="polygon19"
       style="fill:#ffffff" /></g></g><g
   id="g21"
   transform="matrix(0.58186701,0,0,0.58736796,101.37979,77.211267)"
   style="fill:#ffffff"><g
     id="g23"
     style="fill:#ffffff"><path
       inkscape:connector-curvature="0"
       d="M 497,451 H 394.025 l 40.007,61 H 497 c 8.284,0 15,-6.716 15,-15 v -31 c 0,-8.286 -6.716,-15 -15,-15 z"
       id="path25"
       style="fill:#ffffff" /></g></g><g
   id="g27"
   transform="matrix(0.58186701,0,0,0.58736796,101.37979,77.211267)"
   style="fill:#ffffff"><g
     id="g29"
     style="fill:#ffffff"><rect
       x="391"
       y="361"
       width="91"
       height="60"
       id="rect31"
       style="fill:#ffffff" /></g></g><g
   id="g33"
   transform="matrix(0.58186701,0,0,0.58736796,101.37979,77.211267)"
   style="fill:#ffffff"><g
     id="g35"
     style="fill:#ffffff"><rect
       x="30"
       y="361"
       width="91"
       height="60"
       id="rect37"
       style="fill:#ffffff" /></g></g><g
   id="g39"
   transform="matrix(0.58186701,0,0,0.58736796,101.37979,77.211267)"
   style="fill:#ffffff"><g
     id="g41"
     style="fill:#ffffff"><path
       inkscape:connector-curvature="0"
       d="m 482,271 h -61 v -45 c 0,-8.291 -6.709,-15 -15,-15 H 359.931 C 353.343,165.114 316.877,129.016 271,122.384 V 91 h 75 c 8.291,0 15,-6.709 15,-15 V 15 C 361,6.709 354.291,0 346,0 h -90 c -8.291,0 -15,6.709 -15,15 0,10.686 0,101.627 0,107.384 -45.877,6.632 -82.343,42.729 -88.931,88.616 H 106 c -8.291,0 -15,6.709 -15,15 v 45 H 30 c -16.569,0 -30,13.431 -30,30 0,16.567 13.431,30 30,30 h 121 v -45 c 0,-5.01 2.505,-9.697 6.68,-12.48 l 90,-60 c 5.039,-3.369 11.602,-3.369 16.641,0 l 90,60 c 4.175,2.783 6.68,7.471 6.68,12.48 v 45 h 121 c 16.569,0 30,-13.433 30,-30 C 512,284.431 498.569,271 482,271 z"
       id="path43"
       style="fill:#ffffff" /></g></g></svg>