<?xml version="1.0" encoding="UTF-8" standalone="no"?>
<!-- Generator: Adobe Illustrator 16.0.0, SVG Export Plug-In . SVG Version: 6.00 Build 0)  -->

<svg
   xmlns:osb="http://www.openswatchbook.org/uri/2009/osb"
   xmlns:dc="http://purl.org/dc/elements/1.1/"
   xmlns:cc="http://creativecommons.org/ns#"
   xmlns:rdf="http://www.w3.org/1999/02/22-rdf-syntax-ns#"
   xmlns:svg="http://www.w3.org/2000/svg"
   xmlns="http://www.w3.org/2000/svg"
   xmlns:sodipodi="http://sodipodi.sourceforge.net/DTD/sodipodi-0.dtd"
   xmlns:inkscape="http://www.inkscape.org/namespaces/inkscape"
   version="1.1"
   id="Layer_1"
   x="0px"
   y="0px"
   width="500"
   height="500"
   viewBox="0 0 500 500"
   enable-background="new 0 0 4000 4000"
   xml:space="preserve"
   inkscape:version="0.48.4 r9939"
   sodipodi:docname="خبرة في دليل كتابة.svg"><metadata
   id="metadata21"><rdf:RDF><cc:Work
       rdf:about=""><dc:format>image/svg+xml</dc:format><dc:type
         rdf:resource="http://purl.org/dc/dcmitype/StillImage" /><dc:title /></cc:Work></rdf:RDF></metadata><defs
   id="defs19"><linearGradient
     id="linearGradient5223"
     osb:paint="gradient"><stop
       style="stop-color:#1af596;stop-opacity:1;"
       offset="0"
       id="stop5225" /><stop
       style="stop-color:#1af596;stop-opacity:0;"
       offset="1"
       id="stop5227" /></linearGradient></defs><sodipodi:namedview
   pagecolor="#ffffff"
   bordercolor="#666666"
   borderopacity="1"
   objecttolerance="10"
   gridtolerance="10"
   guidetolerance="10"
   inkscape:pageopacity="0"
   inkscape:pageshadow="2"
   inkscape:window-width="1280"
   inkscape:window-height="706"
   id="namedview17"
   showgrid="false"
   inkscape:zoom="0.71"
   inkscape:cx="319.59027"
   inkscape:cy="221.37206"
   inkscape:window-x="-8"
   inkscape:window-y="-8"
   inkscape:window-maximized="1"
   inkscape:current-layer="Layer_1" />
<path
   d="m 470.23262,149.50046 c -1.84021,-15.4006 -8.01408,-28.50848 -21.31646,-38.41668 C 410.64768,82.575287 369.52633,58.798266 327.83344,35.868984 310.49968,26.335035 292.59572,18.04461 274.56215,9.9074678 266.12219,6.1001205 257.95629,4.2581755 249.77862,4.2833217 241.60095,4.2581701 233.43425,6.1001205 224.99576,9.9074678 206.96138,18.04461 189.05809,26.335035 171.72367,35.868984 130.02998,58.798266 88.90957,82.575287 50.64161,111.08378 37.337769,120.9921 31.163894,134.1 29.32435,149.50046 c -7.988406,66.9796 -9.234199,133.98076 -0.652054,201.09064 2.182216,17.05381 8.927773,30.28837 22.624184,40.40522 53.71857,39.68321 111.73148,71.94889 172.01356,100.42782 9.01832,4.25823 17.7706,6.12666 26.46845,5.98514 8.69771,0.14152 17.45012,-1.72691 26.46911,-5.98514 60.28208,-28.47893 118.29513,-60.74461 172.01276,-100.42782 13.69588,-10.11685 20.4413,-23.35141 22.62499,-40.40522 8.58161,-67.10988 7.33501,-134.11104 -0.65273,-201.09064 z"
   id="path3"
   inkscape:connector-curvature="0"
   style="fill:#ade445;fill-opacity:1" />


<path
   d="m 461.24306,150.57465 c -1.70177,-14.24468 -7.33769,-24.4858 -17.73449,-32.23117 C 405.0749,89.713552 363.10353,65.597454 323.47061,43.801347 305.78761,34.075859 287.0319,25.465625 270.84028,18.159505 263.64384,14.91353 256.80988,13.336152 249.80658,13.336152 V 488.35953 l 0.88706,0.006 c 7.28633,0 14.38098,-1.67675 21.68776,-5.12764 66.78447,-31.54969 122.55617,-64.10427 170.50119,-99.5231 11.17914,-8.25725 17.04632,-18.82794 19.02389,-34.27121 8.02573,-62.77379 7.80904,-127.82612 -0.66342,-198.86882 z"
   id="path9"
   inkscape:connector-curvature="0"
   style="fill:#808080;fill-opacity:1;opacity:0.20000000000000001" />



<path
   inkscape:connector-curvature="0"
   d="m 231.16807,368.60721 c 0,4.27738 -3.48848,7.74468 -7.792,7.74468 h -71.74181 c -2.315,0 -4.51001,-1.02307 -5.99049,-2.79196 -1.47971,-1.76888 -2.09294,-4.10081 -1.67139,-6.36303 l 18.36343,-98.53787 c 5.2183,-28.00321 29.91508,-47.57479 62.91735,-49.8618 15.43831,-1.06954 30.94207,1.98419 43.6633,8.59892 14.40742,7.49143 24.56197,19.01009 29.36808,33.31141 0.48544,1.44361 0.9218,2.93756 1.29581,4.43925 1.03556,4.15115 -1.51087,8.35187 -5.68816,9.38036 -4.17574,1.02617 -8.40213,-1.50169 -9.43769,-5.65362 -0.27583,-1.10439 -0.59608,-2.20026 -0.9514,-3.25818 -8.01408,-23.84897 -34.48042,-32.93735 -57.16685,-31.36673 -19.50652,1.35145 -43.9594,11.91287 -48.67746,37.231 l -16.6562,89.38289 h 62.37425 c 4.30275,0 7.79123,3.46729 7.79123,7.74468 z M 192.7449,186.10927 c -8.85951,-9.14182 -19.19561,-26.04226 -18.11876,-54.64026 1.22257,-32.536175 26.55361,-49.352965 51.30103,-52.124015 1.69398,-0.18974 9.34184,-0.16264 11.21582,0.0627 24.57443,2.95305 49.54782,19.76133 50.76415,52.062055 1.07608,28.598 -9.26002,45.49922 -18.12031,54.64026 -10.27221,10.59937 -23.95186,16.43653 -38.52136,16.43653 -14.56794,-7.7e-4 -28.24837,-5.83794 -38.52057,-16.4373 z m 5.55103,-76.57629 c 9.60287,3.82432 21.00959,6.05788 32.97032,6.37774 11.96152,-0.31986 23.36746,-2.55342 32.96955,-6.37774 -7.91746,-9.703305 -20.54129,-14.573165 -32.96955,-15.070365 -12.42903,0.4972 -25.05364,5.36706 -32.97032,15.070365 z m 5.67258,65.83054 c 7.30734,7.54022 17.00138,11.69292 27.29696,11.69292 10.29559,0 19.98962,-4.1527 27.29775,-11.69292 9.69793,-10.0069 14.46041,-24.98511 13.77004,-43.31599 -0.11533,-3.05914 -0.52596,-5.92003 -1.18984,-8.59039 -11.62958,4.8017 -25.39416,7.58591 -39.68237,7.94294 -0.0647,0.002 -0.13012,0.002 -0.19558,0.002 -0.0654,0 -0.1309,-7.7e-4 -0.19558,-0.002 -14.2882,-0.35703 -28.05201,-3.14202 -39.68158,-7.94294 -0.6631,2.67036 -1.07452,5.53047 -1.18906,8.58962 -0.68959,18.33165 4.07133,33.30986 13.76926,43.31676 z m 186.2181,217.25219 H 246.4708 c -4.30275,0 -7.79201,3.4673 -7.79201,7.74468 0,4.27739 3.48926,7.74468 7.79201,7.74468 h 143.71503 c 4.30275,0 7.79201,-3.46729 7.79201,-7.74468 0,-4.27738 -3.48848,-7.74468 -7.79123,-7.74468 z M 250.2881,290.87077 v 79.98394 c 0,4.27739 3.39265,7.82058 7.69617,7.82058 h 120.68731 c 4.30275,0 7.97668,-3.54319 7.97668,-7.82058 v -12.70824 c 0,-4.27739 -3.48926,-7.74468 -7.79201,-7.74468 -4.30275,0 -7.79201,3.46729 -7.79201,7.74468 v 5.03869 H 265.87212 v -64.28084 h 44.25705 c 4.30275,0 7.79201,-3.46729 7.79201,-7.74468 0,-4.27738 -3.48926,-7.74468 -7.79201,-7.74468 h -52.1449 c -4.30352,7.8e-4 -7.69617,3.17842 -7.69617,7.45581 z m 171.89795,0.28965 c 0,4.27738 -3.48926,7.74468 -7.79201,7.74468 h -8.26732 c -0.61089,1.54893 -1.46178,4.02568 -2.5324,5.92545 l 5.85413,5.67065 c 3.04278,3.0243 3.04902,7.92823 0.005,10.95253 -1.52178,1.51254 -3.50407,2.26842 -5.49882,2.26842 -1.99476,0 -3.96536,-0.75588 -5.48713,-2.26842 l -5.80505,-5.81548 c -1.91138,1.06412 -3.67783,1.91294 -6.01543,2.52012 v 8.21788 c 0,4.27738 -3.48926,7.74468 -7.79201,7.74468 -4.30275,0 -7.79201,-3.4673 -7.79201,-7.74468 v -8.21788 c -2.3376,-0.60718 -4.28794,-1.45213 -6.19932,-2.51625 l -5.94375,5.8209 c -1.52178,1.51176 -3.51575,2.27694 -5.50973,2.27694 -1.99397,0 -3.98795,-0.73807 -5.50972,-2.24983 -3.04278,-3.0243 -3.04278,-7.8926 0,-10.9169 l 5.85257,-5.745 c -1.06984,-1.89977 -1.92384,-4.37575 -2.53474,-5.92468 h -8.26966 c -4.30352,0 -7.79278,-3.4673 -7.79278,-7.74468 0,-4.27739 3.48848,-7.74468 7.79123,-7.74468 h 8.27043 c 0.6109,-2.3234 1.47036,-4.31534 2.54098,-6.21588 l -5.84557,-5.95876 c -3.04278,-3.02429 -3.03265,-7.92745 0.0101,-10.95252 3.04278,-3.02507 7.9985,-3.02585 11.04284,-0.002 l 5.89855,5.81548 c 1.91138,-1.06412 3.86172,-1.91294 6.19932,-2.52012 v -8.21788 c 0,-4.27738 3.48926,-7.74468 7.79201,-7.74468 4.30275,0 7.79201,3.4673 7.79201,7.74468 v 8.21788 c 2.3376,0.60718 4.10483,1.46607 6.01621,2.53019 l 5.75595,-5.80541 c 3.042,-3.02508 7.9759,-3.00804 11.02024,0.0163 3.04278,3.0243 3.04356,7.96385 0.002,10.98892 l -5.85024,5.88906 c 1.07062,1.90054 1.92463,3.8917 2.53552,6.2151 h 8.26654 c 4.30275,7.8e-4 7.79201,3.46807 7.79201,7.74546 z m -30.55324,-0.29043 c 0,-7.10342 -5.8144,-12.8825 -12.96045,-12.8825 -7.14605,0 -12.96045,5.77908 -12.96045,12.8825 0,7.10342 5.8144,12.8825 12.96045,12.8825 7.14605,0 12.96045,-5.7783 12.96045,-12.8825 z"
   id="path3-1"
   style="fill:#000000" /></svg>