<?xml version="1.0" encoding="utf-8"?>
<!-- Generator: Adobe Illustrator 26.0.1, SVG Export Plug-In . SVG Version: 6.00 Build 0)  -->
<svg version="1.1"
	 id="Layer_1" xmlns:cc="http://creativecommons.org/ns#" xmlns:dc="http://purl.org/dc/elements/1.1/" xmlns:inkscape="http://www.inkscape.org/namespaces/inkscape" xmlns:osb="http://www.openswatchbook.org/uri/2009/osb" xmlns:rdf="http://www.w3.org/1999/02/22-rdf-syntax-ns#" xmlns:sodipodi="http://sodipodi.sourceforge.net/DTD/sodipodi-0.dtd" xmlns:svg="http://www.w3.org/2000/svg"
	 xmlns="http://www.w3.org/2000/svg" xmlns:xlink="http://www.w3.org/1999/xlink" x="0px" y="0px" viewBox="0 0 500 500"
	 style="enable-background:new 0 0 500 500;" xml:space="preserve">
<style type="text/css">
	.st0{fill:#232178;}
	.st1{fill:none;}
	.st2{fill:#010101;}
	.st3{opacity:0.2;fill:#FFFFFF;fill-opacity:0.6349;enable-background:new    ;}
	.st4{fill:#FFFFFF;}
</style>
<sodipodi:namedview  bordercolor="#666666" borderopacity="1" gridtolerance="10" guidetolerance="10" id="namedview17" inkscape:current-layer="Layer_1" inkscape:cx="236.80527" inkscape:cy="250" inkscape:pageopacity="0" inkscape:pageshadow="2" inkscape:window-height="706" inkscape:window-maximized="1" inkscape:window-width="1280" inkscape:window-x="-8" inkscape:window-y="-8" inkscape:zoom="0.71" objecttolerance="10" pagecolor="#ffffff" showgrid="false">
	</sodipodi:namedview>
<path id="path3" inkscape:connector-curvature="0" class="st0" d="M470.2,149.5c-1.8-15.4-8-28.5-21.3-38.4
	c-38.3-28.5-79.4-52.3-121.1-75.2c-17.3-9.5-35.2-17.8-53.3-26c-8.4-3.8-16.6-5.6-24.8-5.6s-16.3,1.8-24.8,5.6
	c-18,8.1-35.9,16.4-53.3,26c-41.6,22.9-82.7,46.7-121,75.2c-13.3,9.9-19.5,23-21.3,38.4c-8,67-9.2,134-0.7,201.1
	c2.2,17.1,8.9,30.3,22.6,40.4c53.7,39.7,111.7,71.9,172,100.4c9,4.3,17.8,6.1,26.5,6c8.7,0.1,17.5-1.7,26.5-6
	c60.3-28.5,118.3-60.7,172-100.4c13.7-10.1,20.4-23.4,22.6-40.4C479.5,283.5,478.2,216.5,470.2,149.5z"/>
<path id="path5" inkscape:connector-curvature="0" class="st1" d="M346.1,291.4c0.4-0.8,0.9-1.6,1.4-2.4c-0.1,0.1-0.1,0.1-0.1,0.2
	C346.9,289.9,346.5,290.7,346.1,291.4z"/>
<path id="path7" inkscape:connector-curvature="0" class="st2" d="M346.1,291.4c-3.6,6-6.5,10.1-7.3,11.3
	C341.4,299.1,343.9,295.3,346.1,291.4z"/>
<path id="path9" inkscape:connector-curvature="0" class="st3" d="M461.2,150.6c-1.7-14.2-7.3-24.5-17.7-32.2
	c-38.4-28.6-80.4-52.7-120-74.5c-17.7-9.7-36.4-18.3-52.6-25.6c-7.2-3.2-14-4.8-21-4.8v475h0.9c7.3,0,14.4-1.7,21.7-5.1
	c66.8-31.5,122.6-64.1,170.5-99.5c11.2-8.3,17-18.8,19-34.3C469.9,286.7,469.7,221.6,461.2,150.6L461.2,150.6z"/>
<g id="g5828" transform="matrix(18.915294,0,0,18.915294,-37.607987,-67.418354)">
	<path id="path5830" inkscape:connector-curvature="0" class="st4" d="M15.2,13.4c0.7-0.1,1.3-0.5,1.6-1c0.3-0.6,0.3-1.3-0.2-2.1
		c-0.9-1.5-0.4-2.7-0.4-2.8c0-0.1,0-0.2-0.1-0.3c-0.1-0.1-0.2-0.1-0.3,0s-2.9,1.5-2.9,4c0,1.1,0.8,2.1,1.7,2.2L15.2,13.4z"/>
	<path id="path5832" inkscape:connector-curvature="0" class="st0" d="M15,18.5c-0.3,0-0.5-0.2-0.5-0.5v-6c0-0.3,0.2-0.5,0.5-0.5
		s0.5,0.2,0.5,0.5v6C15.5,18.3,15.3,18.5,15,18.5z"/>
</g>
<path id="path10149" inkscape:connector-curvature="0" class="st4" d="M221.6,458.8c-46-15.9-64.9-67.2-49.7-134.9
	c5.3-23.7,24.2-63.8,45.4-96.4l11.2-17.2l35.9,7.7c31.3,6.7,35.5,8.1,32.9,10.8c-25,25.5-59.3,69.6-59.3,76.1
	c0,1.2,4.2,0.8,10.1-1.1c22-6.9,48.5,0.5,61.1,17c11.7,15.3,15,26.3,15,50.4c0,33.6-7.4,55-25.4,73c-13,13-28,18.5-49.6,18.4
	C239,462.6,228.4,461.1,221.6,458.8L221.6,458.8z M259.7,412.2c21.1-24,6.3-64.5-19.6-53.7c-8.2,3.4-11,8.6-11.3,21
	c-0.6,22.8,7.1,36.4,20.5,36.4C253.5,415.9,257.8,414.4,259.7,412.2z"/>
</svg>
