<?xml version="1.0" encoding="UTF-8" standalone="no"?>
<!-- Generator: Adobe Illustrator 16.0.0, SVG Export Plug-In . SVG Version: 6.00 Build 0)  -->

<svg
   xmlns:dc="http://purl.org/dc/elements/1.1/"
   xmlns:cc="http://creativecommons.org/ns#"
   xmlns:rdf="http://www.w3.org/1999/02/22-rdf-syntax-ns#"
   xmlns:svg="http://www.w3.org/2000/svg"
   xmlns="http://www.w3.org/2000/svg"
   xmlns:sodipodi="http://sodipodi.sourceforge.net/DTD/sodipodi-0.dtd"
   xmlns:inkscape="http://www.inkscape.org/namespaces/inkscape"
   version="1.1"
   id="Layer_1"
   x="0px"
   y="0px"
   width="500"
   height="500"
   viewBox="0 0 500 500"
   enable-background="new 0 0 4000 4000"
   xml:space="preserve"
   inkscape:version="0.48.4 r9939"
   sodipodi:docname="شكر 1.svg"><metadata
   id="metadata21"><rdf:RDF><cc:Work
       rdf:about=""><dc:format>image/svg+xml</dc:format><dc:type
         rdf:resource="http://purl.org/dc/dcmitype/StillImage" /></cc:Work></rdf:RDF></metadata><defs
   id="defs19" /><sodipodi:namedview
   pagecolor="#ffffff"
   bordercolor="#666666"
   borderopacity="1"
   objecttolerance="10"
   gridtolerance="10"
   guidetolerance="10"
   inkscape:pageopacity="0"
   inkscape:pageshadow="2"
   inkscape:window-width="1360"
   inkscape:window-height="706"
   id="namedview17"
   showgrid="false"
   inkscape:zoom="0.74642639"
   inkscape:cx="36.475141"
   inkscape:cy="271.14804"
   inkscape:window-x="-8"
   inkscape:window-y="-8"
   inkscape:window-maximized="1"
   inkscape:current-layer="Layer_1" />
<path
   d="m 470.23262,149.50046 c -1.84021,-15.4006 -8.01408,-28.50848 -21.31646,-38.41668 C 410.64768,82.575287 369.52633,58.798266 327.83344,35.868984 310.49968,26.335035 292.59572,18.04461 274.56215,9.9074678 266.12219,6.1001205 257.95629,4.2581755 249.77862,4.2833217 241.60095,4.2581701 233.43425,6.1001205 224.99576,9.9074678 206.96138,18.04461 189.05809,26.335035 171.72367,35.868984 130.02998,58.798266 88.90957,82.575287 50.64161,111.08378 37.337769,120.9921 31.163894,134.1 29.32435,149.50046 c -7.988406,66.9796 -9.234199,133.98076 -0.652054,201.09064 2.182216,17.05381 8.927773,30.28837 22.624184,40.40522 53.71857,39.68321 111.73148,71.94889 172.01356,100.42782 9.01832,4.25823 17.7706,6.12666 26.46845,5.98514 8.69771,0.14152 17.45012,-1.72691 26.46911,-5.98514 60.28208,-28.47893 118.29513,-60.74461 172.01276,-100.42782 13.69588,-10.11685 20.4413,-23.35141 22.62499,-40.40522 8.58161,-67.10988 7.33501,-134.11104 -0.65273,-201.09064 z"
   id="path3"
   inkscape:connector-curvature="0"
   style="fill:#f3ab00" />


<path
   d="m 461.24306,150.57465 c -1.70177,-14.24468 -7.33769,-24.4858 -17.73449,-32.23117 C 405.0749,89.713552 363.10353,65.597454 323.47061,43.801347 305.78761,34.075859 287.0319,25.465625 270.84028,18.159505 263.64384,14.91353 256.80988,13.336152 249.80658,13.336152 V 488.35953 l 0.88706,0.006 c 7.28633,0 14.38098,-1.67675 21.68776,-5.12764 66.78447,-31.54969 122.55617,-64.10427 170.50119,-99.5231 11.17914,-8.25725 17.04632,-18.82794 19.02389,-34.27121 8.02573,-62.77379 7.80904,-127.82612 -0.66342,-198.86882 z"
   id="path9"
   inkscape:connector-curvature="0"
   style="fill:#f5b41a" />



<g
   transform="matrix(0.7331036,0,0,0.70888315,63.531961,104.24753)"
   id="g11"
   style="fill:#000000"><path
     inkscape:connector-curvature="0"
     style="fill:#000000"
     d="M 39.097,110.51 C 52.013,96.418 65.549,83.737 80.452,71.964 c 1.753,-1.384 4.276,0.273 3.689,2.428 -8.353,30.703 -22.948,61.045 -45.448,83.601 -1.01,-15.791 -1.025,-31.714 0.404,-47.483 z"
     id="path13" /><path
     inkscape:connector-curvature="0"
     style="fill:#000000"
     d="M 38.695,158.005 C 25.705,142.329 14.543,126.122 4.484,108.624 c -1.15,-2.001 -4.209,-1.287 -4.326,1.018 -1.814,35.843 11.881,77.782 45.246,94.697 -3.325,-15.243 -5.721,-30.754 -6.709,-46.334 z"
     id="path15" /><path
     inkscape:connector-curvature="0"
     style="fill:#000000"
     d="m 45.402,204.327 c 8.175,-16.82 17.326,-32.47 28.051,-47.64 1.273,-1.8 4.126,-0.975 4.219,1.227 1.307,30.962 -4.006,63.692 -18.842,90.871 C 53.332,234.319 48.692,219.46 45.402,204.327 z"
     id="path17" /><path
     inkscape:connector-curvature="0"
     style="fill:#000000"
     d="M 58.834,248.797 C 41.967,237.957 26.558,226.103 11.778,212.79 c -1.705,-1.536 -4.38,0.068 -3.802,2.288 8.904,34.236 34.367,69.369 70.62,75.574 C 71.06,277.194 64.309,263.227 58.834,248.797 z"
     id="path19" /><path
     inkscape:connector-curvature="0"
     style="fill:#000000"
     d="m 78.59,290.642 c 2.955,-18.351 7.181,-35.856 13.064,-53.357 0.7,-2.082 3.655,-2.122 4.388,-0.052 10.289,29.048 14.457,61.819 8.249,91.936 C 94.856,316.957 86.126,304.122 78.59,290.642 z"
     id="path21" /><path
     inkscape:connector-curvature="0"
     style="fill:#000000"
     d="m 104.299,329.179 c -19.228,-5.447 -37.392,-12.26 -55.383,-20.61 -2.078,-0.965 -4.161,1.347 -2.963,3.301 18.497,30.164 53.127,56.281 89.602,51.78 -11.197,-10.727 -21.778,-22.186 -31.256,-34.471 z"
     id="path23" /><path
     inkscape:connector-curvature="0"
     style="fill:#000000"
     d="m 135.546,363.642 c -2.624,-18.489 -3.738,-36.521 -3.223,-55.057 0.061,-2.197 2.88,-3.098 4.184,-1.329 18.423,24.977 32.166,55.317 35.455,86.077 -12.81,-9.002 -25.11,-18.843 -36.416,-29.691 z"
     id="path25" /><path
     inkscape:connector-curvature="0"
     style="fill:#000000"
     d="M 472.903,110.51 C 459.987,96.418 446.451,83.737 431.548,71.964 c -1.753,-1.384 -4.276,0.273 -3.689,2.428 8.353,30.703 22.948,61.045 45.448,83.601 1.01,-15.791 1.025,-31.714 -0.404,-47.483 z"
     id="path27" /><path
     inkscape:connector-curvature="0"
     style="fill:#000000"
     d="m 473.305,158.005 c 12.99,-15.676 24.152,-31.883 34.211,-49.381 1.15,-2.001 4.209,-1.287 4.326,1.018 1.814,35.843 -11.881,77.782 -45.246,94.697 3.325,-15.243 5.721,-30.754 6.709,-46.334 z"
     id="path29" /><path
     inkscape:connector-curvature="0"
     style="fill:#000000"
     d="m 466.598,204.327 c -8.175,-16.82 -17.326,-32.47 -28.051,-47.64 -1.273,-1.8 -4.126,-0.975 -4.219,1.227 -1.307,30.962 4.006,63.692 18.842,90.871 5.498,-14.466 10.138,-29.325 13.428,-44.458 z"
     id="path31" /><path
     inkscape:connector-curvature="0"
     style="fill:#000000"
     d="m 453.166,248.797 c 16.867,-10.84 32.276,-22.694 47.056,-36.007 1.705,-1.536 4.38,0.068 3.802,2.288 -8.904,34.236 -34.367,69.369 -70.62,75.574 7.536,-13.458 14.287,-27.425 19.762,-41.855 z"
     id="path33" /><path
     inkscape:connector-curvature="0"
     style="fill:#000000"
     d="m 433.41,290.642 c -2.955,-18.351 -7.181,-35.856 -13.064,-53.357 -0.7,-2.082 -3.655,-2.122 -4.388,-0.052 -10.289,29.048 -14.457,61.819 -8.249,91.936 9.435,-12.212 18.165,-25.047 25.701,-38.527 z"
     id="path35" /><path
     inkscape:connector-curvature="0"
     style="fill:#000000"
     d="m 407.701,329.179 c 19.228,-5.447 37.392,-12.26 55.383,-20.61 2.079,-0.965 4.161,1.347 2.964,3.301 -18.497,30.164 -53.127,56.281 -89.602,51.78 11.196,-10.727 21.777,-22.186 31.255,-34.471 z"
     id="path37" /><path
     inkscape:connector-curvature="0"
     style="fill:#000000"
     d="m 376.454,363.642 c 2.624,-18.489 3.738,-36.521 3.223,-55.057 -0.061,-2.197 -2.88,-3.098 -4.184,-1.329 -18.423,24.977 -32.166,55.317 -35.455,86.077 12.81,-9.002 25.11,-18.843 36.416,-29.691 z"
     id="path39" /></g><path
   inkscape:connector-curvature="0"
   style="fill:#000000"
   d="m 415.67094,183.03422 c -0.002,-0.10775 0,-0.2148 -0.008,-0.32326 -1.29466,-16.66371 -4.4712,-33.36854 -9.44164,-49.64946 -0.88559,-2.90146 -4.03793,-4.55954 -7.03633,-3.7025 -3.00059,0.85633 -4.71532,3.9024 -3.82973,6.80386 4.69626,15.38206 7.70858,31.15471 8.96659,46.88766 0.003,0.11768 0.004,0.23535 0.0146,0.35444 0.9545,10.17177 1.04981,21.19419 0.28444,32.76245 -7.2e-4,0.005 -0.002,0.009 -0.002,0.0135 -0.65832,10.04417 -2.27042,20.79934 -4.7901,31.96709 0,7e-4 -7.3e-4,0.002 -7.3e-4,0.003 -2.19345,9.75636 -5.42057,20.08053 -9.589,30.68614 -0.002,0.004 -0.002,0.006 -0.004,0.01 v 7.1e-4 c -3.65452,9.31331 -8.4021,19.0328 -14.11005,28.88912 l 0,0 c -5.03275,8.70438 -11.20622,17.65189 -18.35105,26.59446 -0.002,0.002 -0.002,0.004 -0.004,0.005 -0.002,0.002 -0.003,0.003 -0.004,0.005 -6.33255,7.93595 -13.83806,15.93854 -22.30908,23.78729 l -7.3e-4,7.1e-4 c -7.54877,7.00376 -16.29323,13.89553 -25.99219,20.48602 -0.0352,0.0241 -0.066,0.0517 -0.10044,0.0759 -0.033,0.0234 -0.0681,0.0432 -0.10044,0.0673 -16.31595,12.12191 -24.58389,15.14529 -33.33715,18.34448 -6.93296,2.53496 -14.01034,5.12877 -24.71952,12.03188 -10.70917,-6.90311 -17.78656,-9.49692 -24.71952,-12.03188 -8.75326,-3.1999 -17.0212,-6.22257 -33.33716,-18.34448 -0.0322,-0.0241 -0.0675,-0.0432 -0.10043,-0.0666 -0.0345,-0.0248 -0.0659,-0.0525 -0.10116,-0.0765 -9.69897,-6.58979 -18.44342,-13.48226 -25.9922,-20.48602 l -7.2e-4,-7.1e-4 c -8.47102,-7.84804 -15.97654,-15.85133 -22.30909,-23.78729 -0.002,-0.002 -0.003,-0.003 -0.004,-0.005 -9.5e-4,-0.002 -0.002,-0.004 -0.004,-0.005 -7.14483,-8.94256 -13.31903,-17.89008 -18.35105,-26.59446 l 0,0 c -5.70868,-9.85632 -10.45553,-19.57581 -14.11005,-28.88911 0,-7.2e-4 0,-7.2e-4 -7.2e-4,-7.2e-4 -0.002,-0.004 -0.002,-0.006 -0.004,-0.01 -4.16989,-10.6056 -7.39628,-20.92978 -9.59046,-30.68614 0,-0.002 -7.3e-4,-0.002 -7.3e-4,-0.003 -2.5204,-11.16775 -4.13177,-21.92363 -4.790099,-31.96709 -7.26e-4,-0.005 -0.0019,-0.009 -0.0019,-0.0135 -0.765357,-11.56755 -0.670059,-22.59069 0.284439,-32.76246 0.011,-0.11909 0.0118,-0.23676 0.0146,-0.35444 1.25801,-15.73295 4.27034,-31.50489 8.9666,-46.88766 0.88559,-2.90146 -0.82915,-5.94753 -3.82974,-6.80386 -2.99766,-0.85845 -6.150733,0.80104 -7.036321,3.7025 -4.97045,16.28092 -8.146988,32.98576 -9.441645,49.64947 -0.0086,0.10845 -0.0067,0.2155 -0.0076,0.32325 -0.95303,10.55882 -1.043205,21.93497 -0.255123,33.83286 0,0.003 0,0.005 0,0.007 0.694983,10.58576 2.385522,21.88394 5.023231,33.58121 0.0019,0.007 0.0019,0.0156 0.0038,0.0234 2.313675,10.28518 5.700619,21.13464 10.068448,32.24639 0.002,0.003 0.002,0.006 0.003,0.008 3.851,9.81164 8.83316,20.02027 14.81016,30.34161 9.6e-4,0.002 0.002,0.005 0.004,0.006 5.30474,9.17507 11.78977,18.5777 19.27623,27.9463 7.3e-4,7.1e-4 9.6e-4,0.002 0.002,0.002 7.3e-4,7.1e-4 7.3e-4,7.1e-4 7.3e-4,0.002 6.67711,8.36836 14.56457,16.78209 23.44392,25.00868 0.002,0.002 0.005,0.005 0.008,0.006 7.93438,7.35962 17.09011,14.58101 27.21353,21.46568 17.5813,13.05126 27.01561,16.50068 36.13762,19.83598 5.67788,2.07561 11.20475,4.10018 18.85616,8.6505 -5.8575,4.3412 -12.64165,9.78826 -20.69112,16.75233 -2.33127,2.01677 -2.53067,5.47967 -0.44426,7.73391 1.11872,1.20936 2.66776,1.82538 4.22341,1.82538 1.34451,0 2.69416,-0.46007 3.77475,-1.39579 9.33387,-8.07632 16.79394,-13.97847 23.00699,-18.4175 6.21231,4.43903 13.67238,10.34118 23.00699,18.4175 1.0806,0.93501 2.43023,1.39579 3.77475,1.39579 1.55565,0 3.10469,-0.61602 4.22341,-1.82538 2.08641,-2.25424 1.88774,-5.71714 -0.44427,-7.73391 -8.04874,-6.96478 -14.83361,-12.41184 -20.69111,-16.75233 7.65067,-4.55032 13.17827,-6.57489 18.85616,-8.6505 9.12274,-3.33459 18.55632,-6.78472 36.13761,-19.83598 10.12343,-6.88467 19.27915,-14.10606 27.21354,-21.46568 0.002,-0.002 0.005,-0.005 0.008,-0.006 8.87936,-8.22659 16.76682,-16.64032 23.44393,-25.00868 0,-7.2e-4 7.3e-4,-7.2e-4 7.3e-4,-0.002 7.3e-4,-7.1e-4 0.002,-0.002 0.002,-0.002 7.48645,-9.3686 13.97149,-18.77123 19.27623,-27.9463 0.002,-0.002 0.002,-0.005 0.004,-0.006 5.97626,-10.32134 10.95917,-20.52997 14.81017,-30.34161 7.3e-4,-0.003 0.002,-0.006 0.003,-0.008 4.36783,-11.11175 7.75477,-21.96121 10.06845,-32.24639 0.002,-0.007 0.002,-0.0156 0.004,-0.0234 2.63844,-11.69727 4.32825,-22.99545 5.02323,-33.58121 0,-0.003 0,-0.005 0,-0.007 0.78808,-11.89789 0.69864,-23.27404 -0.25512,-33.83286 z"
   id="path41" /><path
   style="fill:#000000;fill-opacity:1;fill-rule:nonzero;stroke:#f3ab00;stroke-width:3.69629169;stroke-miterlimit:4;stroke-opacity:0;stroke-dasharray:none;stroke-dashoffset:0"
   d="m 218.61435,264.04797 c -0.78625,-36.59429 -1.67138,-66.97156 -1.96696,-67.50503 -0.29557,-0.53346 -4.61519,0.0915 -9.59915,1.38884 -4.98397,1.29732 -9.36656,1.95659 -9.73908,1.46504 -0.85774,-1.13179 -11.61516,-40.73591 -11.59033,-42.67058 0.0101,-0.79043 10.64901,-6.28838 23.64193,-12.21765 12.99292,-5.92926 31.94558,-15.0551 42.11702,-20.27965 l 18.49354,-9.49917 6.43779,3.49889 6.43778,3.49889 -0.77657,25.37497 c -1.82733,59.70928 -2.96079,116.21072 -2.98245,148.6713 l -0.0232,34.80926 -29.51036,0 -29.51037,0 -1.42955,-66.53511 0,0 z"
   id="path3046"
   inkscape:connector-curvature="0" /></svg>