<?xml version="1.0" encoding="UTF-8" standalone="no"?>
<svg
   xmlns:dc="http://purl.org/dc/elements/1.1/"
   xmlns:cc="http://creativecommons.org/ns#"
   xmlns:rdf="http://www.w3.org/1999/02/22-rdf-syntax-ns#"
   xmlns:svg="http://www.w3.org/2000/svg"
   xmlns="http://www.w3.org/2000/svg"
   xmlns:sodipodi="http://sodipodi.sourceforge.net/DTD/sodipodi-0.dtd"
   xmlns:inkscape="http://www.inkscape.org/namespaces/inkscape"
   version="1.1"
   id="Layer_1"
   x="0px"
   y="0px"
   viewBox="0 0 507.2 507.2"
   style="enable-background:new 0 0 507.2 507.2;"
   xml:space="preserve"
   width="512px"
   height="512px"
   class=""
   inkscape:version="0.48.4 r9939"
   sodipodi:docname="فريق عمل.svg"><metadata
   id="metadata3025"><rdf:RDF><cc:Work
       rdf:about=""><dc:format>image/svg+xml</dc:format><dc:type
         rdf:resource="http://purl.org/dc/dcmitype/StillImage" /><dc:title /></cc:Work></rdf:RDF></metadata><defs
   id="defs3023" /><sodipodi:namedview
   pagecolor="#ffffff"
   bordercolor="#666666"
   borderopacity="1"
   objecttolerance="10"
   gridtolerance="10"
   guidetolerance="10"
   inkscape:pageopacity="0"
   inkscape:pageshadow="2"
   inkscape:window-width="1280"
   inkscape:window-height="706"
   id="namedview3021"
   showgrid="false"
   inkscape:zoom="0.71677427"
   inkscape:cx="-7.417081"
   inkscape:cy="257.56588"
   inkscape:window-x="-8"
   inkscape:window-y="-8"
   inkscape:window-maximized="1"
   inkscape:current-layer="g3009" /><g
   id="g3007"><g
     id="g3009"><circle
       style="fill:#ffbb00;stroke:#000000;stroke-width:33.16501235999999900;stroke-miterlimit:4;stroke-opacity:0.96470588000000002;stroke-dasharray:none;fill-opacity:1"
       cx="253.60001"
       cy="253.60001"
       r="253.60001"
       data-original="#32BA7C"
       class=""
       id="circle3011"
       sodipodi:cx="253.60001"
       sodipodi:cy="253.60001"
       sodipodi:rx="253.60001"
       sodipodi:ry="253.60001"
       transform="matrix(0.92705686,0,0,0.9160171,18.878084,21.193675)" /><g
       id="g3015"
       transform="matrix(0.87735593,0,0,0.87735593,37.62479,41.601767)"
       style="stroke-width:29.28726006000000100;stroke-miterlimit:4;stroke-dasharray:none;fill:#000000">
	<path
   style="fill:#000000;stroke-width:29.28726006000000100;stroke-miterlimit:4;stroke-dasharray:none"
   d="m 260,310.4 c 11.2,11.2 11.2,30.4 0,41.6 l -23.2,23.2 c -11.2,11.2 -30.4,11.2 -41.6,0 L 93.6,272.8 c -11.2,-11.2 -11.2,-30.4 0,-41.6 L 116.8,208 c 11.2,-11.2 30.4,-11.2 41.6,0 L 260,310.4 z"
   data-original="#FFFFFF"
   class=""
   id="path3017"
   inkscape:connector-curvature="0" />
	<path
   style="fill:#000000;stroke-width:29.28726006000000100;stroke-miterlimit:4;stroke-dasharray:none"
   d="m 348.8,133.6 c 11.2,-11.2 30.4,-11.2 41.6,0 l 23.2,23.2 c 11.2,11.2 11.2,30.4 0,41.6 l -176,175.2 c -11.2,11.2 -30.4,11.2 -41.6,0 l -23.2,-23.2 c -11.2,-11.2 -11.2,-30.4 0,-41.6 l 176,-175.2 z"
   data-original="#FFFFFF"
   class=""
   id="path3019"
   inkscape:connector-curvature="0" />
</g></g></g> </svg>