<?xml version="1.0" encoding="iso-8859-1"?>
<!-- Generator: Adobe Illustrator 19.0.0, SVG Export Plug-In . SVG Version: 6.00 Build 0)  -->
<svg version="1.1" id="Capa_1" xmlns="http://www.w3.org/2000/svg" xmlns:xlink="http://www.w3.org/1999/xlink" x="0px" y="0px"
	 viewBox="0 0 512 512" style="enable-background:new 0 0 512 512;" xml:space="preserve">
<g transform="matrix(1.25 0 0 -1.25 0 45)">
	<g>
		<path style="fill:#ED2939;" d="M364.089-20.889H182.044v-125.156H0V-271.2c0-25.133,20.378-45.511,45.511-45.511h318.578
			c25.133,0,45.511,20.378,45.511,45.511v204.8C409.6-41.267,389.222-20.889,364.089-20.889z"/>
		<g>
			<path style="fill:#FFFFFF;" d="M277.389-217.953h70.997l-35.499,35.499L277.389-217.953z"/>
			<path style="fill:#FFFFFF;" d="M348.388-123.289h-70.997l35.499-35.499L348.388-123.289z"/>
			<path style="fill:#FFFFFF;" d="M360.22-206.119v70.997l-35.499-35.499L360.22-206.119z"/>
			<path style="fill:#FFFFFF;" d="M265.557-135.122v-70.997l35.499,35.499L265.557-135.122z"/>
		</g>
	</g>
	<g>
		<path style="fill:#002395;" d="M68.267-20.889H45.511C20.378-20.889,0-41.267,0-66.4v-91.022h68.267V-20.889z"/>
		<path style="fill:#EEEEEE;" d="M68.267-20.889v-136.533H0V-168.8h216.178v147.911H68.267z"/>
		<path style="fill:#ED2939;" d="M204.8-157.422h-68.267v136.533H204.8L204.8-157.422L204.8-157.422z"/>
		<path style="fill:#EEEEEE;" d="M136.533-157.422H68.267v136.533h68.267V-157.422z"/>
	</g>
</g>
<g>
</g>
<g>
</g>
<g>
</g>
<g>
</g>
<g>
</g>
<g>
</g>
<g>
</g>
<g>
</g>
<g>
</g>
<g>
</g>
<g>
</g>
<g>
</g>
<g>
</g>
<g>
</g>
<g>
</g>
</svg>
