<?xml version="1.0" encoding="UTF-8" standalone="no"?>
<!-- Generator: Adobe Illustrator 16.0.0, SVG Export Plug-In . SVG Version: 6.00 Build 0)  -->

<svg
   xmlns:dc="http://purl.org/dc/elements/1.1/"
   xmlns:cc="http://creativecommons.org/ns#"
   xmlns:rdf="http://www.w3.org/1999/02/22-rdf-syntax-ns#"
   xmlns:svg="http://www.w3.org/2000/svg"
   xmlns="http://www.w3.org/2000/svg"
   xmlns:sodipodi="http://sodipodi.sourceforge.net/DTD/sodipodi-0.dtd"
   xmlns:inkscape="http://www.inkscape.org/namespaces/inkscape"
   version="1.1"
   id="Layer_1"
   x="0px"
   y="0px"
   width="500"
   height="500"
   viewBox="0 0 500 500"
   enable-background="new 0 0 4000 4000"
   xml:space="preserve"
   inkscape:version="0.48.4 r9939"
   sodipodi:docname="تسجبع.svg"><metadata
   id="metadata21"><rdf:RDF><cc:Work
       rdf:about=""><dc:format>image/svg+xml</dc:format><dc:type
         rdf:resource="http://purl.org/dc/dcmitype/StillImage" /></cc:Work></rdf:RDF></metadata><defs
   id="defs19" /><sodipodi:namedview
   pagecolor="#ffffff"
   bordercolor="#666666"
   borderopacity="1"
   objecttolerance="10"
   gridtolerance="10"
   guidetolerance="10"
   inkscape:pageopacity="0"
   inkscape:pageshadow="2"
   inkscape:window-width="1360"
   inkscape:window-height="706"
   id="namedview17"
   showgrid="false"
   inkscape:zoom="0.74642639"
   inkscape:cx="36.475141"
   inkscape:cy="271.14804"
   inkscape:window-x="-8"
   inkscape:window-y="-8"
   inkscape:window-maximized="1"
   inkscape:current-layer="Layer_1" />
<path
   d="m 470.23262,149.50046 c -1.84021,-15.4006 -8.01408,-28.50848 -21.31646,-38.41668 C 410.64768,82.575287 369.52633,58.798266 327.83344,35.868984 310.49968,26.335035 292.59572,18.04461 274.56215,9.9074678 266.12219,6.1001205 257.95629,4.2581755 249.77862,4.2833217 241.60095,4.2581701 233.43425,6.1001205 224.99576,9.9074678 206.96138,18.04461 189.05809,26.335035 171.72367,35.868984 130.02998,58.798266 88.90957,82.575287 50.64161,111.08378 37.337769,120.9921 31.163894,134.1 29.32435,149.50046 c -7.988406,66.9796 -9.234199,133.98076 -0.652054,201.09064 2.182216,17.05381 8.927773,30.28837 22.624184,40.40522 53.71857,39.68321 111.73148,71.94889 172.01356,100.42782 9.01832,4.25823 17.7706,6.12666 26.46845,5.98514 8.69771,0.14152 17.45012,-1.72691 26.46911,-5.98514 60.28208,-28.47893 118.29513,-60.74461 172.01276,-100.42782 13.69588,-10.11685 20.4413,-23.35141 22.62499,-40.40522 8.58161,-67.10988 7.33501,-134.11104 -0.65273,-201.09064 z"
   id="path3"
   inkscape:connector-curvature="0"
   style="fill:#ffaaaa" />


<path
   d="m 461.24306,150.57465 c -1.70177,-14.24468 -7.33769,-24.4858 -17.73449,-32.23117 C 405.0749,89.713552 363.10353,65.597454 323.47061,43.801347 305.78761,34.075859 287.0319,25.465625 270.84028,18.159505 263.64384,14.91353 256.80988,13.336152 249.80658,13.336152 V 488.35953 l 0.88706,0.006 c 7.28633,0 14.38098,-1.67675 21.68776,-5.12764 66.78447,-31.54969 122.55617,-64.10427 170.50119,-99.5231 11.17914,-8.25725 17.04632,-18.82794 19.02389,-34.27121 8.02573,-62.77379 7.80904,-127.82612 -0.66342,-198.86882 z"
   id="path9"
   inkscape:connector-curvature="0"
   style="fill:#e9afaf" />



<g
   transform="matrix(0.57070622,0,0,0.57070622,104.03028,109.54611)"
   id="surface1"><path
     inkscape:connector-curvature="0"
     d="m 460.33984,337.67969 35.02735,-35.03125 c 22.17578,-22.17188 22.17968,-58.25391 0.004,-80.4375 -6.80468,-6.80078 -14.97656,-11.57813 -23.70703,-14.22657 7.14063,-9.69921 11.00391,-21.375 11.00391,-33.64453 0,-15.1914 -5.91797,-29.47656 -16.66406,-40.21875 -10.73829,-10.74218 -25.02344,-16.66015 -40.21875,-16.66015 -0.63672,0 -1.27344,0.0117 -1.91016,0.0312 0.49609,-15.1836 -5.03516,-30.535159 -16.60156,-42.105471 -11.56641,-11.5625 -26.9375,-17.101563 -42.09766,-16.597657 0.0195,-0.632812 0.0312,-1.273437 0.0312,-1.910156 0,-15.195312 -5.91797,-29.476562 -16.66016,-40.21875 -22.17187,-22.171875 -58.2539,-22.175781 -80.4375,0 L 256,28.769531 243.89453,16.664062 C 233.15234,5.917969 218.86719,0 203.67187,0 c -15.1914,0 -29.47265,5.917969 -40.21484,16.65625 -11.57031,11.570312 -17.08984,26.925781 -16.58594,42.121094 -0.64062,-0.02344 -1.28125,-0.04687 -1.92187,-0.04687 -15.19141,0 -29.47656,5.914062 -40.22656,16.65625 -11.56641,11.574219 -17.085941,26.929696 -16.582035,42.121086 -0.644531,-0.0234 -1.285156,-0.0469 -1.929687,-0.0469 -15.191407,0 -29.476563,5.91796 -40.210938,16.65624 -10.746094,10.74218 -16.664062,25.02734 -16.664062,40.22265 0,12.26563 3.859374,23.94141 11.003906,33.63672 -8.859375,2.67188 -16.980469,7.50781 -23.710938,14.23438 -22.121094,22.1289 -22.171875,58.09765 -0.148437,80.28125 0.05469,0.0586 0.109375,0.11328 0.164062,0.17187 l 35.078125,35.07032 c 0.04687,0.0508 0.09766,0.10156 0.148438,0.15235 2.105468,2.10937 4.355468,4.01952 6.714844,5.75 l -10.375,10.375 c -10.089844,10.08983 -15.230469,23.83594 -14.46875,38.70703 0.726562,14.27734 6.871093,27.87891 17.292968,38.30078 l 59.332034,59.33594 c 11.00781,11.0039 25.46093,16.50781 39.91797,16.50781 14.45703,0 28.91406,-5.50391 39.91796,-16.50781 l 27.57813,-27.58203 c 12.58203,2.69922 25.39844,4.07031 38.22656,4.07031 12.81641,0 25.63672,-1.36328 38.21485,-4.0625 l 27.57031,27.57422 c 11.00781,11.0039 25.46094,16.50781 39.91797,16.50781 14.45312,-0.004 28.91406,-5.50391 39.91797,-16.50781 l 59.33593,-59.33594 c 22.00782,-22.00781 24.50782,-55.32031 5.57032,-74.26172 l -12.63672,-12.63672 6.23437,-6.23828 c 0.0703,-0.0664 0.13672,-0.13281 0.20703,-0.20312 z M 185.16406,38.367188 c 4.94531,-4.945313 11.51953,-7.667969 18.51172,-7.667969 6.99219,0 13.56641,2.722656 18.51172,7.667969 l 46.98047,46.980468 c 10.20703,10.210938 10.20703,26.820314 0,37.027344 -4.94531,4.94531 -11.51953,7.66797 -18.50781,7.66797 l -0.004,0 c -6.99219,-0.004 -13.5625,-2.72266 -18.50781,-7.66797 -0.008,-0.008 -0.0156,-0.0156 -0.0195,-0.0195 L 185.17578,75.402344 c -0.0391,-0.03906 -0.0742,-0.07813 -0.11719,-0.113282 -10.10156,-10.222656 -10.0664,-26.753906 0.10547,-36.921874 z m -58.80078,95.683592 c -10.13672,-10.21484 -10.11328,-26.77344 0.0664,-36.953124 4.94922,-4.945312 11.52734,-7.667968 18.51953,-7.667968 6.98437,0 13.55078,2.71875 18.49609,7.660156 0.004,0 0.008,0.0039 0.008,0.0078 0.0195,0.01563 0.0352,0.03125 0.0508,0.04687 l 46.92578,46.925776 c 0.0273,0.0312 0.0625,0.0625 0.0937,0.0937 l 11.66015,11.66016 c 4.94532,4.94531 7.67188,11.51953 7.67188,18.51562 0,6.99219 -2.72266,13.56641 -7.66797,18.50782 -4.94531,4.94531 -11.51953,7.66796 -18.51172,7.66796 -6.99219,0 -13.56641,-2.72265 -18.50781,-7.66796 -0.0625,-0.0625 -0.125,-0.1211 -0.1875,-0.17969 l -11.51172,-11.51563 c -0.0156,-0.0156 -0.0312,-0.0312 -0.0469,-0.0508 L 126.43371,134.121 c 0,0 -0.004,-0.004 -0.004,-0.004 -0.0234,-0.0234 -0.0469,-0.0469 -0.0664,-0.0664 z m -58.652342,21.77344 c 4.941406,-4.94141 11.511718,-7.66406 18.503906,-7.66406 6.992187,0 13.566406,2.72265 18.511716,7.66796 l 47.03516,47.03516 c 10.15625,10.21094 10.13672,26.78125 -0.0469,36.97266 -4.94531,4.9414 -11.52343,7.66406 -18.51562,7.66406 -6.99219,0 -13.56641,-2.72266 -18.50781,-7.66797 -0.0625,-0.0586 -0.1211,-0.12109 -0.1836,-0.17969 L 67.855469,193 c -0.05078,-0.0508 -0.101563,-0.10547 -0.148438,-0.15234 -4.945312,-4.94532 -7.667969,-11.51563 -7.667969,-18.50782 -0.0039,-6.99218 2.722657,-13.5664 7.671876,-18.51562 z M 38.496094,281.10156 c -0.05859,-0.0625 -0.117188,-0.12109 -0.175782,-0.17969 -10.1875,-10.20703 -10.179687,-26.80078 0.01953,-37 4.945312,-4.94531 11.519531,-7.66796 18.511718,-7.66796 6.992188,0 13.570313,2.72265 18.515626,7.67187 l 35.234374,35.23047 c 10.20703,10.20703 10.20703,26.81641 0.004,37.02344 -4.94531,4.94531 -11.519534,7.66797 -18.507816,7.66797 l -0.0039,0 c -1.285156,0 -2.554688,-0.0937 -3.804688,-0.27344 -0.09375,-0.0195 -0.1875,-0.0312 -0.28125,-0.0469 -5.390624,-0.83984 -10.367187,-3.33203 -14.316406,-7.23437 -0.03906,-0.043 -0.08203,-0.082 -0.121094,-0.125 z m 178.453126,149.9336 c -0.13281,-0.0352 -0.26172,-0.0508 -0.39063,-0.082 -0.30859,-0.0742 -0.61328,-0.14453 -0.92187,-0.19921 -0.22656,-0.0391 -0.45313,-0.0664 -0.6836,-0.0977 -0.2539,-0.0312 -0.50781,-0.0625 -0.76562,-0.082 -0.26953,-0.0234 -0.53906,-0.0352 -0.80859,-0.0391 -0.21875,-0.008 -0.4336,-0.0117 -0.65235,-0.008 -0.28906,0.004 -0.57422,0.0195 -0.85937,0.043 -0.20703,0.0156 -0.41407,0.0312 -0.6211,0.0547 -0.28125,0.0312 -0.55859,0.0742 -0.83593,0.12109 -0.21875,0.0352 -0.4336,0.0781 -0.65235,0.125 -0.2539,0.0547 -0.5039,0.11328 -0.7539,0.1836 -0.23829,0.0625 -0.47657,0.13281 -0.71485,0.20703 -0.22265,0.0742 -0.4375,0.15234 -0.65625,0.23047 -0.2539,0.0976 -0.50781,0.19531 -0.7539,0.30468 -0.19922,0.0859 -0.39844,0.17969 -0.59375,0.27344 -0.25,0.1211 -0.4961,0.2461 -0.73829,0.38281 -0.19921,0.10938 -0.39453,0.22657 -0.58984,0.34766 -0.21875,0.13672 -0.44141,0.27344 -0.65625,0.42188 -0.21875,0.15234 -0.43359,0.3125 -0.64453,0.47656 -0.17578,0.13281 -0.34766,0.26562 -0.51953,0.40625 -0.25,0.21094 -0.48828,0.42969 -0.72266,0.65625 -0.0898,0.0859 -0.1875,0.16015 -0.27734,0.25 L 168.5,468.64844 c -10.04297,10.04297 -26.37891,10.04297 -36.42188,0 L 72.746094,409.31641 c -5.039063,-5.03907 -8.003906,-11.48829 -8.34375,-18.16407 -0.308594,-6.08203 1.648437,-11.5625 5.519531,-15.42968 l 21.195313,-21.19922 c 0.324218,0.004 0.648437,0.0234 0.976562,0.0234 0,0 0,0 0.0039,0 15.1875,0 29.46875,-5.91796 40.21484,-16.66015 16.44141,-16.44531 20.67969,-40.53125 12.73437,-60.92969 10.67188,-2.25 20.48047,-7.52344 28.37891,-15.41406 9.01953,-9.02735 14.37109,-20.35938 16.04688,-32.11719 4.58593,1.17578 9.34765,1.78906 14.20312,1.78906 0,0 0,0 0.004,0 15.1875,0 29.46875,-5.91406 40.21484,-16.65625 10.74219,-10.74218 16.66016,-25.02734 16.66016,-40.21875 0,-4.84765 -0.60938,-9.60156 -1.77735,-14.17968 12.10938,-1.71875 23.29688,-7.27344 32.09766,-16.08204 22.17578,-22.17187 22.17578,-58.253901 0.004,-80.433589 L 277.70703,50.472656 289.81641,38.367188 c 10.21093,-10.207032 26.82031,-10.207032 37.02343,-0.0039 4.94532,4.945313 7.66797,11.519531 7.66797,18.511719 0,6.992188 -2.72265,13.566406 -7.66797,18.511719 -2.99609,2.996093 -4.49609,6.925781 -4.49609,10.855469 0,3.925781 1.49609,7.855468 4.49609,10.851562 5.9961,5.996093 15.71094,5.996093 21.70703,0 10.20313,-10.203125 26.8125,-10.207031 37.02344,0 10.20703,10.210943 10.20313,26.820313 -0.004,37.027343 -2.9961,2.9961 -4.4961,6.92578 -4.4961,10.85157 0,3.92968 1.4961,7.85546 4.4961,10.85156 5.99609,5.99609 15.71093,5.99609 21.70703,0.004 4.94531,-4.94531 11.52343,-7.66796 18.51562,-7.67187 6.99219,0 13.56641,2.72266 18.50781,7.66797 4.94922,4.94922 7.67188,11.52344 7.67188,18.51562 0,6.89844 -2.65234,13.39063 -7.47266,18.3086 -0.0703,0.0703 -0.14062,0.13672 -0.20703,0.20703 l -22.01172,22.01562 c -5.48047,5.48047 -6.01562,14.1875 -1.24609,20.29688 l 0.78906,1.01172 c 4.75781,6.09765 13.3125,7.69922 19.95313,3.74218 10.29297,-6.13281 23.40625,-4.48828 31.89062,3.99219 10.20703,10.21094 10.20703,26.82031 0,37.02735 l -35.23047,35.22656 c -0.0664,0.0703 -0.13672,0.14062 -0.20312,0.21094 L 362.60937,392 c -37.9414,37.94141 -93.7539,52.89844 -145.66015,39.03516 z m 227.88281,-52.57032 c 6.73047,6.73438 4.12891,21.15235 -5.57031,30.85157 l -59.33594,59.33203 c -10.04297,10.04297 -26.37891,10.04297 -36.42187,0 l -16.32813,-16.32813 c 21.22266,-9.05859 40.66016,-22.13281 57.14063,-38.61328 l 47.875,-47.87891 z m 0,0"
     style="fill:#000000;fill-opacity:1;fill-rule:nonzero;stroke:none"
     id="path5" /></g></svg>