<?xml version="1.0" encoding="utf-8"?>
<!-- Generator: Adobe Illustrator 26.0.1, SVG Export Plug-In . SVG Version: 6.00 Build 0)  -->
<svg version="1.1"
	 id="Layer_1" inkscape:version="0.48.4 r9939" sodipodi:docname="Ù…Ø´Ø±Ù.svg" xmlns:cc="http://creativecommons.org/ns#" xmlns:dc="http://purl.org/dc/elements/1.1/" xmlns:inkscape="http://www.inkscape.org/namespaces/inkscape" xmlns:rdf="http://www.w3.org/1999/02/22-rdf-syntax-ns#" xmlns:sodipodi="http://sodipodi.sourceforge.net/DTD/sodipodi-0.dtd" xmlns:svg="http://www.w3.org/2000/svg"
	 xmlns="http://www.w3.org/2000/svg" xmlns:xlink="http://www.w3.org/1999/xlink" x="0px" y="0px" viewBox="0 0 512 512"
	 style="enable-background:new 0 0 512 512;" xml:space="preserve">
<style type="text/css">
	.st0{fill:#808080;stroke:#000000;stroke-width:33.165;stroke-opacity:0.9647;}
	.st1{fill:#FFFFFF;}
</style>
<sodipodi:namedview  bordercolor="#666666" borderopacity="1" gridtolerance="10" guidetolerance="10" id="namedview3021" inkscape:current-layer="g3009" inkscape:cx="210.22466" inkscape:cy="257.56588" inkscape:pageopacity="0" inkscape:pageshadow="2" inkscape:window-height="706" inkscape:window-maximized="1" inkscape:window-width="1280" inkscape:window-x="-8" inkscape:window-y="-8" inkscape:zoom="0.71677427" objecttolerance="10" pagecolor="#ffffff" showgrid="false">
	</sodipodi:namedview>
<g id="g3009">
	
		<ellipse id="circle3011" sodipodi:cx="253.60001" sodipodi:cy="253.60001" sodipodi:rx="253.60001" sodipodi:ry="253.60001" class="st0" cx="256.4" cy="255.9" rx="237.3" ry="234.5">
	</ellipse>
	<g id="g3015" transform="matrix(0.87735593,0,0,0.87735593,37.62479,41.601767)">
		<path id="path3017" inkscape:connector-curvature="0" class="st1" d="M262.9,313.8c11.3,11.3,11.3,30.7,0,42l-23.4,23.4
			c-11.3,11.3-30.7,11.3-42,0L94.9,275.8c-11.3-11.3-11.3-30.7,0-42l23.4-23.4c11.3-11.3,30.7-11.3,42,0L262.9,313.8z"/>
		<path id="path3019" inkscape:connector-curvature="0" class="st1" d="M352.5,135.3c11.3-11.3,30.7-11.3,42,0l23.4,23.4
			c11.3,11.3,11.3,30.7,0,42L240.3,377.6c-11.3,11.3-30.7,11.3-42,0l-23.4-23.4c-11.3-11.3-11.3-30.7,0-42L352.5,135.3L352.5,135.3z
			"/>
	</g>
</g>
</svg>
