<?xml version="1.0" encoding="UTF-8" standalone="no"?>
<!-- Generator: Adobe Illustrator 16.0.0, SVG Export Plug-In . SVG Version: 6.00 Build 0)  -->

<svg
   xmlns:osb="http://www.openswatchbook.org/uri/2009/osb"
   xmlns:dc="http://purl.org/dc/elements/1.1/"
   xmlns:cc="http://creativecommons.org/ns#"
   xmlns:rdf="http://www.w3.org/1999/02/22-rdf-syntax-ns#"
   xmlns:svg="http://www.w3.org/2000/svg"
   xmlns="http://www.w3.org/2000/svg"
   xmlns:sodipodi="http://sodipodi.sourceforge.net/DTD/sodipodi-0.dtd"
   xmlns:inkscape="http://www.inkscape.org/namespaces/inkscape"
   version="1.1"
   id="Layer_1"
   x="0px"
   y="0px"
   width="500"
   height="500"
   viewBox="0 0 500 500"
   enable-background="new 0 0 4000 4000"
   xml:space="preserve"
   inkscape:version="0.48.4 r9939"
   sodipodi:docname="50 موضوع.svg"><metadata
   id="metadata21"><rdf:RDF><cc:Work
       rdf:about=""><dc:format>image/svg+xml</dc:format><dc:type
         rdf:resource="http://purl.org/dc/dcmitype/StillImage" /><dc:title></dc:title></cc:Work></rdf:RDF></metadata><defs
   id="defs19"><linearGradient
     id="linearGradient5223"
     osb:paint="gradient"><stop
       style="stop-color:#1af596;stop-opacity:1;"
       offset="0"
       id="stop5225" /><stop
       style="stop-color:#1af596;stop-opacity:0;"
       offset="1"
       id="stop5227" /></linearGradient></defs><sodipodi:namedview
   pagecolor="#ffffff"
   bordercolor="#666666"
   borderopacity="1"
   objecttolerance="10"
   gridtolerance="10"
   guidetolerance="10"
   inkscape:pageopacity="0"
   inkscape:pageshadow="2"
   inkscape:window-width="1280"
   inkscape:window-height="706"
   id="namedview17"
   showgrid="false"
   inkscape:zoom="1"
   inkscape:cx="282.37251"
   inkscape:cy="271.14804"
   inkscape:window-x="-8"
   inkscape:window-y="-8"
   inkscape:window-maximized="1"
   inkscape:current-layer="Layer_1" />
<path
   d="m 470.23262,149.50046 c -1.84021,-15.4006 -8.01408,-28.50848 -21.31646,-38.41668 C 410.64768,82.575287 369.52633,58.798266 327.83344,35.868984 310.49968,26.335035 292.59572,18.04461 274.56215,9.9074678 266.12219,6.1001205 257.95629,4.2581755 249.77862,4.2833217 241.60095,4.2581701 233.43425,6.1001205 224.99576,9.9074678 206.96138,18.04461 189.05809,26.335035 171.72367,35.868984 130.02998,58.798266 88.90957,82.575287 50.64161,111.08378 37.337769,120.9921 31.163894,134.1 29.32435,149.50046 c -7.988406,66.9796 -9.234199,133.98076 -0.652054,201.09064 2.182216,17.05381 8.927773,30.28837 22.624184,40.40522 53.71857,39.68321 111.73148,71.94889 172.01356,100.42782 9.01832,4.25823 17.7706,6.12666 26.46845,5.98514 8.69771,0.14152 17.45012,-1.72691 26.46911,-5.98514 60.28208,-28.47893 118.29513,-60.74461 172.01276,-100.42782 13.69588,-10.11685 20.4413,-23.35141 22.62499,-40.40522 8.58161,-67.10988 7.33501,-134.11104 -0.65273,-201.09064 z"
   id="path3"
   inkscape:connector-curvature="0"
   style="fill:#cc00ff;fill-opacity:1" />
<path
   d="m 346.09252,291.40542 c 0.44928,-0.76174 0.91194,-1.56039 1.38063,-2.38259 -0.0516,0.0589 -0.0869,0.0958 -0.14152,0.15917 -0.39926,0.75131 -0.82219,1.48522 -1.23911,2.22342 z"
   id="path5"
   inkscape:connector-curvature="0"
   style="fill:none" />
<path
   d="m 346.09252,291.40542 c -3.55107,6.00721 -6.45664,10.09906 -7.33194,11.30139 2.65665,-3.613 5.11147,-7.3718 7.33194,-11.30139 z"
   id="path7"
   inkscape:connector-curvature="0"
   style="fill:#010101" />
<path
   d="m 461.24306,150.57465 c -1.70177,-14.24468 -7.33769,-24.4858 -17.73449,-32.23117 C 405.0749,89.713552 363.10353,65.597454 323.47061,43.801347 305.78761,34.075859 287.0319,25.465625 270.84028,18.159505 263.64384,14.91353 256.80988,13.336152 249.80658,13.336152 V 488.35953 l 0.88706,0.006 c 7.28633,0 14.38098,-1.67675 21.68776,-5.12764 66.78447,-31.54969 122.55617,-64.10427 170.50119,-99.5231 11.17914,-8.25725 17.04632,-18.82794 19.02389,-34.27121 8.02573,-62.77379 7.80904,-127.82612 -0.66342,-198.86882 z"
   id="path9"
   inkscape:connector-curvature="0"
   style="fill:#ffffff;fill-opacity:0.58823532;opacity:0.39513276000000003" />



<g
   transform="matrix(3.8679998,0,0,3.8679998,177.76972,248.64963)"
   id="g5144"
   style="fill:#ffffff;stroke:#000000;stroke-opacity:1;stroke-width:0.25853155;stroke-miterlimit:4;stroke-dasharray:none"><g
     id="g5146"
     style="fill:#ffffff;stroke:#000000;stroke-width:0.25853155;stroke-miterlimit:4;stroke-opacity:1;stroke-dasharray:none"><g
       id="g5148"
       style="fill:#ffffff;stroke:#000000;stroke-width:0.25853155;stroke-miterlimit:4;stroke-opacity:1;stroke-dasharray:none"><path
         style="fill:#ffffff;stroke:#000000;stroke-width:0.25853155;stroke-miterlimit:4;stroke-opacity:1;stroke-dasharray:none"
         inkscape:connector-curvature="0"
         d="M 48.15,6.05 43.782,1.688 C 43.331,1.237 42.738,1.011 42.146,1.011 c -0.593,0 -1.186,0.225 -1.636,0.676 l -3.494,3.484 7.64,7.626 3.494,-3.483 c 0.903,-0.902 0.903,-2.365 0,-3.264 z"
         id="path5150" /><polygon
         style="fill:#ffffff;stroke:#000000;stroke-width:0.25853155;stroke-miterlimit:4;stroke-opacity:1;stroke-dasharray:none"
         points="43.021,14.431 35.381,6.804 14.336,27.81 21.976,35.437 "
         id="polygon5152" /><polygon
         style="fill:#ffffff;stroke:#000000;stroke-width:0.25853155;stroke-miterlimit:4;stroke-opacity:1;stroke-dasharray:none"
         points="20.327,37.067 12.687,29.441 11.056,38.694 "
         id="polygon5154" /><path
         style="fill:#ffffff;stroke:#000000;stroke-width:0.25853155;stroke-miterlimit:4;stroke-opacity:1;stroke-dasharray:none"
         inkscape:connector-curvature="0"
         d="M 33.807,42.816 H 5.001 V 14.011 H 25.33 l 5.01,-5 H 3.234 C 1.455,9.011 0,10.466 0,12.245 v 32.338 c 0,1.778 1.455,3.233 3.234,3.233 h 32.339 c 1.777,0 3.232,-1.455 3.232,-3.233 V 21.462 l -5,4.992 0.002,16.362 0,0 z"
         id="path5156" /></g></g></g><path
   style="fill:#ffffff;fill-opacity:1;stroke:#000000;stroke-width:0.05;stroke-miterlimit:4;stroke-opacity:1;stroke-dasharray:none;stroke-dashoffset:0"
   d="m 339.48976,235.26923 c -10.10772,-3.61685 -22.32022,-15.66695 -28.68435,-28.30303 -8.68282,-17.23974 -9.87424,-22.68499 -10.39822,-47.52385 -0.41159,-19.49389 -0.12084,-23.54018 2.27641,-31.71789 4.94114,-16.8558 13.93656,-28.6266 27.83438,-36.42229 5.95617,-3.34099 7.7568,-3.67134 21.61281,-3.96532 14.24732,-0.30227 15.51803,-0.10858 22.12888,3.37287 20.585,10.8407 31.5187,33.13719 32.27832,65.82345 0.43745,18.82285 -2.20765,32.91845 -8.73885,46.56897 -13.76226,28.76377 -35.03076,40.49681 -58.30938,32.16709 z m 21.72071,-30.24121 c 8.34055,-1.8929 10.99717,-10.79025 12.31931,-23.91498 4.04312,-40.13546 -11.77907,-60.10309 -20.67821,-59.80303 -8.9821,0.30286 -23.96648,24.96054 -18.95951,55.47741 2.15803,13.15296 8.23552,22.95681 13.86864,28.6603 4.47996,4.5359 6.93915,1.05791 13.44977,-0.4197 z"
   id="path10157-1"
   inkscape:connector-curvature="0"
   sodipodi:nodetypes="sscsssssssssssss" /><path
   style="fill:#ffffff;fill-opacity:1;stroke:#000000;stroke-width:0.04353997;stroke-miterlimit:4;stroke-opacity:1;stroke-dasharray:none;stroke-dashoffset:0"
   d="m 120.01251,189.87991 c -0.42656,-25.72794 -0.98323,-46.98574 -1.23703,-47.23956 -0.2538,-0.25381 -3.40072,0.31389 -6.99312,1.26155 l -6.53163,1.72301 -4.09633,-13.97865 c -2.253,-7.68826 -4.08068,-14.75227 -4.06152,-15.6978 0.0192,-0.94554 3.95436,-3.4202 8.74491,-5.49924 4.79055,-2.07904 18.23488,-8.36216 29.87632,-13.96248 l 21.16623,-10.1824 4.53216,2.80102 c 3.98718,2.46422 4.44637,3.28633 3.81862,6.837 -0.39245,2.21979 -1.03886,23.56627 -1.43648,47.43663 -0.39763,23.87037 -1.06487,54.62328 -1.48276,68.33982 l -0.75982,24.9392 -20.382,0 -20.38201,0 -0.77554,-46.7781 z"
   id="path10139"
   inkscape:connector-curvature="0" /><path
   style="fill:#ffffff;fill-opacity:1;stroke:#000000;stroke-width:0.05;stroke-miterlimit:4;stroke-opacity:1;stroke-dasharray:none;stroke-dashoffset:0"
   d="m 221.0805,236.7511 c -10.10772,-3.61685 -22.32022,-15.66695 -28.68435,-28.30303 -8.68282,-17.23974 -9.87424,-22.68499 -10.39822,-47.52385 -0.41159,-19.49389 -0.12084,-23.54018 2.27641,-31.71789 4.94114,-16.85579 13.93656,-28.6266 27.83438,-36.42229 5.95617,-3.34098 7.7568,-3.67134 21.61281,-3.96531 14.24732,-0.30228 15.51803,-0.10859 22.12888,3.37286 20.585,10.8407 31.5187,33.13719 32.27832,65.82345 0.43745,18.82285 -2.20765,32.91845 -8.73885,46.56897 -13.76226,28.76377 -35.03076,40.49681 -58.30938,32.16709 z m 21.72071,-30.24121 c 8.34055,-1.8929 10.99717,-10.79025 12.31931,-23.91498 4.04312,-40.13546 -11.77907,-60.10309 -20.67821,-59.80302 -8.9821,0.30286 -23.96648,24.96053 -18.95951,55.4774 2.15803,13.15296 8.23552,22.95681 13.86864,28.6603 4.47996,4.5359 6.93915,1.05791 13.44977,-0.4197 z"
   id="path10157-7"
   inkscape:connector-curvature="0"
   sodipodi:nodetypes="sscsssssssssssss" /></svg>