<?xml version="1.0" encoding="utf-8"?>
<!-- Generator: Adobe Illustrator 26.0.1, SVG Export Plug-In . SVG Version: 6.00 Build 0)  -->
<svg version="1.1"
	 id="Layer_1" inkscape:version="0.48.4 r9939" sodipodi:docname="50 Ù…ÙˆØ¶ÙˆØ¹.svg" xmlns:cc="http://creativecommons.org/ns#" xmlns:dc="http://purl.org/dc/elements/1.1/" xmlns:inkscape="http://www.inkscape.org/namespaces/inkscape" xmlns:osb="http://www.openswatchbook.org/uri/2009/osb" xmlns:rdf="http://www.w3.org/1999/02/22-rdf-syntax-ns#" xmlns:sodipodi="http://sodipodi.sourceforge.net/DTD/sodipodi-0.dtd" xmlns:svg="http://www.w3.org/2000/svg"
	 xmlns="http://www.w3.org/2000/svg" xmlns:xlink="http://www.w3.org/1999/xlink" x="0px" y="0px" viewBox="0 0 500 500"
	 style="enable-background:new 0 0 500 500;" xml:space="preserve">
<style type="text/css">
	.st0{fill:#CC00FF;}
	.st1{fill:none;}
	.st2{fill:#010101;}
	.st3{opacity:0.3951;fill:#FFFFFF;fill-opacity:0.5882;enable-background:new    ;}
	.st4{fill:#FFFFFF;stroke:#000000;stroke-miterlimit:59.8457;}
	.st5{fill:#FFFFFF;stroke:#000000;}
	.st6{fill:#FFFFFF;stroke:#1D1D1B;stroke-miterlimit:10;}
</style>
<sodipodi:namedview  bordercolor="#666666" borderopacity="1" gridtolerance="10" guidetolerance="10" id="namedview17" inkscape:current-layer="Layer_1" inkscape:cx="282.37251" inkscape:cy="271.14804" inkscape:pageopacity="0" inkscape:pageshadow="2" inkscape:window-height="706" inkscape:window-maximized="1" inkscape:window-width="1280" inkscape:window-x="-8" inkscape:window-y="-8" inkscape:zoom="1" objecttolerance="10" pagecolor="#ffffff" showgrid="false">
	</sodipodi:namedview>
<path id="path3" inkscape:connector-curvature="0" class="st0" d="M470.2,149.5c-1.8-15.4-8-28.5-21.3-38.4
	c-38.3-28.5-79.4-52.3-121.1-75.2c-17.3-9.5-35.2-17.8-53.3-26c-8.4-3.8-16.6-5.6-24.8-5.6s-16.3,1.8-24.8,5.6
	c-18,8.1-35.9,16.4-53.3,26c-41.6,22.9-82.7,46.7-121,75.2c-13.3,9.9-19.5,23-21.3,38.4c-8,67-9.2,134-0.7,201.1
	c2.2,17.1,8.9,30.3,22.6,40.4c53.7,39.7,111.7,71.9,172,100.4c9,4.3,17.8,6.1,26.5,6c8.7,0.1,17.5-1.7,26.5-6
	c60.3-28.5,118.3-60.7,172-100.4c13.7-10.1,20.4-23.4,22.6-40.4C479.5,283.5,478.2,216.5,470.2,149.5z"/>
<path id="path5" inkscape:connector-curvature="0" class="st1" d="M346.1,291.4c0.4-0.8,0.9-1.6,1.4-2.4c-0.1,0.1-0.1,0.1-0.1,0.2
	C346.9,289.9,346.5,290.7,346.1,291.4z"/>
<path id="path7" inkscape:connector-curvature="0" class="st2" d="M346.1,291.4c-3.6,6-6.5,10.1-7.3,11.3
	C341.4,299.1,343.9,295.3,346.1,291.4z"/>
<path id="path9" inkscape:connector-curvature="0" class="st3" d="M461.2,150.6c-1.7-14.2-7.3-24.5-17.7-32.2
	c-38.4-28.6-80.4-52.7-120-74.5c-17.7-9.7-36.4-18.3-52.6-25.6c-7.2-3.2-14-4.8-21-4.8v475h0.9c7.3,0,14.4-1.7,21.7-5.1
	c66.8-31.5,122.6-64.1,170.5-99.5c11.2-8.3,17-18.8,19-34.3C469.9,286.7,469.7,221.6,461.2,150.6L461.2,150.6z"/>
<g id="g5148">
	<path id="path5150" inkscape:connector-curvature="0" class="st4" d="M363.8,271.9l-17-17c-1.9-1.9-3.9-2.7-6.2-2.7
		c-2.3,0-4.6,0.8-6.2,2.7l-13.5,13.9l29.4,29.4l13.5-13.5C367.7,281.1,367.7,275.3,363.8,271.9L363.8,271.9z"/>
	<polygon id="polygon5152" class="st4" points="344.1,304.3 314.7,275 233.1,356.2 262.9,385.6 	"/>
	<polygon id="polygon5154" class="st4" points="256.3,392.2 226.9,362.4 220.7,398.3 	"/>
	<path id="path5156" inkscape:connector-curvature="0" class="st4" d="M308.5,414.2H197.1V302.8h78.5l19.3-19.3H190.1
		c-6.6,0-12.4,5.8-12.4,12.4v124.9c0,7,5.8,12.4,12.4,12.4h124.9c7,0,12.4-5.8,12.4-12.4v-89l-19.3,19.3L308.5,414.2L308.5,414.2z"
		/>
</g>
<path id="path10147" inkscape:connector-curvature="0" class="st5" d="M264.7,238.9c-2.1-0.3-4.4-1.3-5.1-2.3
	c-1.3-1.7-4.8-23.9-3.9-24.8c0.3-0.3,3.7,0.6,7.7,1.9c10,3.3,26.9,2.4,32.4-1.6c8.8-6.5,9.5-17.8,1.5-23.8c-5.3-3.9-18-4.7-29.4-1.8
	c-7.3,1.9-9.4,2-11.2,0.5c-2.5-2-8.7-8.4-8.7-9c0-0.2,1.6-8,3.6-17.2c5.1-23.4,8.6-42.6,11.3-60.9c1.2-8.6,2.6-17,2.9-18.8
	c0.7-3.1,0.8-3.2,36.2-3.6c19.5-0.2,35.5-0.4,35.5-0.4c-0.1,0-7.5,41.4-8.1,45.1l-0.8,5.3h-22.3H284l-2.3,8.1
	c-1.2,4.5-2.1,8.3-1.8,8.6c0.3,0.3,5.1-0.3,10.8-1.2c5.7-0.9,13.7-1.2,17.8-0.7c24,3,39.3,26,34.9,52.5
	c-2.2,13.3-5.7,20.8-13.4,28.4c-11.8,11.8-26.1,16.6-47.8,16.3C274.5,239.6,266.7,239.2,264.7,238.9L264.7,238.9z"/>
<path id="path10139" inkscape:connector-curvature="0" class="st6" d="M179.1,187.2c-0.5-28.3-1.1-51.6-1.4-51.9
	c-0.3-0.3-3.7,0.3-7.7,1.4l-7.2,1.9l-4.5-15.4c-2.5-8.4-4.5-16.2-4.5-17.2s4.3-3.8,9.6-6s20-9.2,32.8-15.3l23.2-11.2l5,3.1
	c4.4,2.7,4.9,3.6,4.2,7.5c-0.4,2.4-1.1,25.9-1.6,52.1s-1.2,60-1.6,75.1l-0.8,27.4h-22.4h-22.4L179.1,187.2L179.1,187.2z"/>
</svg>
