<?xml version="1.0" encoding="UTF-8" standalone="no"?>
<!-- Generator: Adobe Illustrator 16.0.0, SVG Export Plug-In . SVG Version: 6.00 Build 0)  -->

<svg
   xmlns:osb="http://www.openswatchbook.org/uri/2009/osb"
   xmlns:dc="http://purl.org/dc/elements/1.1/"
   xmlns:cc="http://creativecommons.org/ns#"
   xmlns:rdf="http://www.w3.org/1999/02/22-rdf-syntax-ns#"
   xmlns:svg="http://www.w3.org/2000/svg"
   xmlns="http://www.w3.org/2000/svg"
   xmlns:sodipodi="http://sodipodi.sourceforge.net/DTD/sodipodi-0.dtd"
   xmlns:inkscape="http://www.inkscape.org/namespaces/inkscape"
   version="1.1"
   id="Layer_1"
   x="0px"
   y="0px"
   width="500"
   height="500"
   viewBox="0 0 500 500"
   enable-background="new 0 0 4000 4000"
   xml:space="preserve"
   inkscape:version="0.48.4 r9939"
   sodipodi:docname="خبرة في دليل كتابة.svg"><metadata
   id="metadata21"><rdf:RDF><cc:Work
       rdf:about=""><dc:format>image/svg+xml</dc:format><dc:type
         rdf:resource="http://purl.org/dc/dcmitype/StillImage" /><dc:title /></cc:Work></rdf:RDF></metadata><defs
   id="defs19"><linearGradient
     id="linearGradient5223"
     osb:paint="gradient"><stop
       style="stop-color:#1af596;stop-opacity:1;"
       offset="0"
       id="stop5225" /><stop
       style="stop-color:#1af596;stop-opacity:0;"
       offset="1"
       id="stop5227" /></linearGradient></defs><sodipodi:namedview
   pagecolor="#ffffff"
   bordercolor="#666666"
   borderopacity="1"
   objecttolerance="10"
   gridtolerance="10"
   guidetolerance="10"
   inkscape:pageopacity="0"
   inkscape:pageshadow="2"
   inkscape:window-width="1360"
   inkscape:window-height="706"
   id="namedview17"
   showgrid="false"
   inkscape:zoom="0.71"
   inkscape:cx="319.59027"
   inkscape:cy="221.37206"
   inkscape:window-x="-8"
   inkscape:window-y="-8"
   inkscape:window-maximized="1"
   inkscape:current-layer="Layer_1" />
<path
   d="m 470.23262,149.50046 c -1.84021,-15.4006 -8.01408,-28.50848 -21.31646,-38.41668 C 410.64768,82.575287 369.52633,58.798266 327.83344,35.868984 310.49968,26.335035 292.59572,18.04461 274.56215,9.9074678 266.12219,6.1001205 257.95629,4.2581755 249.77862,4.2833217 241.60095,4.2581701 233.43425,6.1001205 224.99576,9.9074678 206.96138,18.04461 189.05809,26.335035 171.72367,35.868984 130.02998,58.798266 88.90957,82.575287 50.64161,111.08378 37.337769,120.9921 31.163894,134.1 29.32435,149.50046 c -7.988406,66.9796 -9.234199,133.98076 -0.652054,201.09064 2.182216,17.05381 8.927773,30.28837 22.624184,40.40522 53.71857,39.68321 111.73148,71.94889 172.01356,100.42782 9.01832,4.25823 17.7706,6.12666 26.46845,5.98514 8.69771,0.14152 17.45012,-1.72691 26.46911,-5.98514 60.28208,-28.47893 118.29513,-60.74461 172.01276,-100.42782 13.69588,-10.11685 20.4413,-23.35141 22.62499,-40.40522 8.58161,-67.10988 7.33501,-134.11104 -0.65273,-201.09064 z"
   id="path3"
   inkscape:connector-curvature="0"
   style="fill:#ade445;fill-opacity:1" />


<path
   d="m 461.24306,150.57465 c -1.70177,-14.24468 -7.33769,-24.4858 -17.73449,-32.23117 C 405.0749,89.713552 363.10353,65.597454 323.47061,43.801347 305.78761,34.075859 287.0319,25.465625 270.84028,18.159505 263.64384,14.91353 256.80988,13.336152 249.80658,13.336152 V 488.35953 l 0.88706,0.006 c 7.28633,0 14.38098,-1.67675 21.68776,-5.12764 66.78447,-31.54969 122.55617,-64.10427 170.50119,-99.5231 11.17914,-8.25725 17.04632,-18.82794 19.02389,-34.27121 8.02573,-62.77379 7.80904,-127.82612 -0.66342,-198.86882 z"
   id="path9"
   inkscape:connector-curvature="0"
   style="fill:#808080;fill-opacity:1;opacity:0.20000000000000001" />



<g
   transform="matrix(7.9800466,0,0,7.9800466,81.990831,70.62816)"
   id="g3"><g
     id="g5"><path
       inkscape:connector-curvature="0"
       d="m 11.542,29.34 1.088,-1.088 h 7.96 l -5.079,-9.177 -3.756,0.764 c -0.985,0.2 -1.771,0.942 -2.028,1.914 L 5.268,36.305 c -0.21,0.792 -0.039,1.637 0.461,2.285 0.5,0.65 1.273,1.03 2.093,1.03 h 3.721 l -10e-4,-10.28 0,0 z"
       id="path7" /><path
       inkscape:connector-curvature="0"
       d="M 37.31,36.305 32.851,21.753 C 32.59,20.769 31.789,20.022 30.789,19.832 l -3.742,-0.708 -5.058,9.127 h 8.56 l 1.088,1.088 v 10.279 h 3.121 c 0.819,0 1.593,-0.38 2.093,-1.03 0.499,-0.65 0.667,-1.491 0.459,-2.283 z"
       id="path9-1" /><polygon
       points="13.417,39.624 29.159,39.623 29.159,39.62 29.46,39.62 29.46,30.43 13.719,30.43 13.719,39.62 13.417,39.62 "
       id="polygon11" /><rect
       x="9.3719997"
       y="40.608002"
       width="23.833"
       height="1.9680001"
       id="rect13" /><path
       inkscape:connector-curvature="0"
       d="m 12.804,12.654 c 0.042,0.086 0.097,0.218 0.155,0.356 0.231,0.556 0.419,0.971 0.68,1.215 1.209,3.945 4.329,6.676 7.644,6.666 3.301,-0.011 6.383,-2.766 7.547,-6.722 0.256,-0.246 0.438,-0.659 0.663,-1.211 0.057,-0.141 0.109,-0.274 0.15,-0.36 0.447,-0.924 0.293,-1.925 -0.332,-2.412 0,-0.03 0,-0.061 0,-0.091 C 29.296,5.198 28.657,-0.025 21.211,0 13.71,0.024 13.1,5.027 13.116,10.148 c 0,0.031 0.001,0.061 0.001,0.091 -0.62,0.494 -0.766,1.496 -0.313,2.415 z m 1.047,-1.577 0.022,-0.009 c 0.123,-0.045 0.221,-0.132 0.284,-0.24 l 1.299,0.201 c 0.125,0.018 0.246,-0.049 0.296,-0.164 l 0.821,-1.896 c 0.929,0.223 4.447,1.018 7.204,1.008 0.854,-0.002 1.563,-0.085 2.112,-0.246 l 0.521,1.257 c 0.043,0.106 0.146,0.172 0.255,0.171 0.023,0 0.05,-0.004 0.074,-0.01 l 1.513,-0.425 c 0.06,0.133 0.171,0.242 0.313,0.295 l 0.021,0.007 c 0.225,0.112 0.299,0.603 0.062,1.091 -0.057,0.118 -0.116,0.267 -0.182,0.425 -0.092,0.229 -0.281,0.695 -0.396,0.82 -0.125,0.072 -0.22,0.191 -0.258,0.332 -0.989,3.578 -3.68,6.083 -6.539,6.093 -2.874,0.009 -5.602,-2.478 -6.633,-6.048 -0.041,-0.141 -0.134,-0.258 -0.261,-0.329 -0.116,-0.125 -0.312,-0.594 -0.407,-0.824 -0.064,-0.155 -0.126,-0.303 -0.184,-0.419 -0.233,-0.486 -0.163,-0.977 0.063,-1.09 z"
       id="path15" /></g></g></svg>