<?xml version="1.0" encoding="utf-8"?>
<!-- Generator: Adobe Illustrator 26.0.1, SVG Export Plug-In . SVG Version: 6.00 Build 0)  -->
<svg version="1.1"
	 id="Layer_1" xmlns:cc="http://creativecommons.org/ns#" xmlns:dc="http://purl.org/dc/elements/1.1/" xmlns:inkscape="http://www.inkscape.org/namespaces/inkscape" xmlns:osb="http://www.openswatchbook.org/uri/2009/osb" xmlns:rdf="http://www.w3.org/1999/02/22-rdf-syntax-ns#" xmlns:sodipodi="http://sodipodi.sourceforge.net/DTD/sodipodi-0.dtd" xmlns:svg="http://www.w3.org/2000/svg"
	 xmlns="http://www.w3.org/2000/svg" xmlns:xlink="http://www.w3.org/1999/xlink" x="0px" y="0px" viewBox="0 0 500 500"
	 style="enable-background:new 0 0 500 500;" xml:space="preserve">
<style type="text/css">
	.st0{fill:#F3AB00;}
	.st1{opacity:0.7;fill:#FFFFFF;enable-background:new    ;}
	.st2{fill:#263238;}
	.st3{fill:#FFFFFF;stroke:#263238;stroke-linecap:round;stroke-linejoin:round;stroke-miterlimit:10;}
	.st4{fill:#263238;stroke:#263238;stroke-linecap:round;stroke-linejoin:round;stroke-miterlimit:10;}
	.st5{fill:#F3AB00;stroke:#263238;stroke-linecap:round;stroke-linejoin:round;stroke-miterlimit:10;}
	.st6{fill:none;stroke:#263238;stroke-miterlimit:10;stroke-dasharray:5;}
	.st7{fill:#263238;stroke:#263238;stroke-miterlimit:10;}
	.st8{fill:none;stroke:#263238;stroke-miterlimit:10;}
	.st9{fill:none;stroke:#263238;stroke-miterlimit:10;stroke-dasharray:4.7011,4.7011;}
	.st10{fill:none;stroke:#263238;stroke-miterlimit:10;stroke-dasharray:5.0123,5.0123;}
	.st11{fill:none;stroke:#263238;stroke-linecap:round;stroke-linejoin:round;stroke-miterlimit:10;}
	.st12{fill:#263238;stroke:#263238;stroke-linejoin:round;stroke-miterlimit:10;}
	.st13{fill:#FFFFFF;stroke:#263238;stroke-linejoin:round;stroke-miterlimit:10;}
	.st14{fill:none;stroke:#263238;stroke-miterlimit:10;stroke-dasharray:5.0103,5.0103;}
	.st15{fill:#F3AB00;stroke:#263238;stroke-width:1;stroke-linecap:round;stroke-linejoin:round;stroke-miterlimit:9.9998;}
	.st16{fill:none;stroke:#263238;stroke-miterlimit:10;stroke-dasharray:5.0161,5.0161;}
	.st17{fill:none;stroke:#FFFFFF;stroke-width:2;stroke-linecap:round;stroke-linejoin:round;stroke-miterlimit:10;}
	.st18{fill:none;stroke:#92E3A9;stroke-width:2;stroke-linecap:round;stroke-linejoin:round;stroke-miterlimit:10;}
	.st19{fill:#FFFFFF;stroke:#FFFFFF;stroke-miterlimit:10;}
	.st20{fill:none;}
	.st21{fill:#010101;}
	.st22{fill:#F5B41A;}
</style>
<g id="Background_Simple">
	<g>
		<path class="st0" d="M460.6,255.7c0,0,6.5-115.2-91.3-146.9s-146.9-8.4-178,21.4s-41.4,49.2-77,53.1
			c-35.6,3.9-68.6,10.3-85.4,53.7s4.5,77.6,36.9,99s69.9-1.3,99.7,12.3c29.8,13.6,48.5,36.2,109.4,38.8
			c60.8,2.6,62.8-14.9,93.9-42.1C399.8,317.8,454.8,346.3,460.6,255.7z"/>
		<path class="st1" d="M460.6,255.7c0,0,6.5-115.2-91.3-146.9s-146.9-8.4-178,21.4s-41.4,49.2-77,53.1
			c-35.6,3.9-68.6,10.3-85.4,53.7s4.5,77.6,36.9,99s69.9-1.3,99.7,12.3c29.8,13.6,48.5,36.2,109.4,38.8
			c60.8,2.6,62.8-14.9,93.9-42.1C399.8,317.8,454.8,346.3,460.6,255.7z"/>
	</g>
</g>
<g id="Plant">
	<g>
		<g>
			<path class="st2" d="M398.6,265.3c2.4,1.1,8.3,0.9,8.3,0.9c0,0-1.3-3.9-1.4-4.1c-1.3-2.7-5.4-7.2-8.7-6.7c-2.4,0.3-3.7,2.7-3.2,5
				C394.1,262.7,396.5,264.4,398.6,265.3z"/>
			<path class="st2" d="M400.6,282.4c2.5,0.4,7.7-1.1,8.2-1.3c0.9,2.9,1.9,5.9,3.2,8.8c0.7,1.7,1.5,3.3,2.3,5
				c-0.5-0.7-0.9-1.3-1-1.4c-2-2.3-7.1-5.5-10.2-4.2c-2.2,0.9-2.9,3.6-1.7,5.7c1.1,2.1,3.9,3.1,6.1,3.4c2.3,0.3,6.8-0.9,8-1.2
				c0.3,0.6,0.6,1.3,0.9,1.9c1.5,3,3.1,6,4.5,9.1c0.5,1.1,0.9,2.1,1.4,3.2c-0.4-0.6-0.8-1.1-0.9-1.2c-2-2.3-7.1-5.5-10.2-4.2
				c-2.2,0.9-2.9,3.6-1.7,5.7c1.1,2.1,3.9,3.1,6.1,3.4c2.1,0.3,6.3-0.8,7.7-1.1c0.4,1.1,0.9,2.2,1.2,3.3c0.3,0.8,0.5,1.4,0.7,2.2
				c0.2,0.8,0.4,1.5,0.6,2.3c0.3,1.4,0.7,2.9,1,4.3c0.2,1,0.4,1.9,0.6,2.9c-0.5-1.1-1.5-3.1-1.6-3.3c-1.6-2.6-6.2-6.5-9.4-5.7
				c-2.3,0.6-3.4,3.1-2.6,5.3c0.8,2.2,3.4,3.7,5.5,4.3c2.3,0.7,7.6,0,8.2,0c0.3,1.6,0.6,3.1,0.9,4.5c0.6,3.2,1,6,1.3,8.4h2.2
				c-0.4-2.5-0.9-5.4-1.5-8.8c-0.3-1.6-0.7-3.3-1.1-5c0.4-0.2,2.6-1.1,4.6-2.2c1.7,1.9,6.1,4,6.7,4.3c-0.6,1.5-1.2,2.9-1.8,4.3
				c-1.2,2.8-2.4,5.3-3.4,7.4h2.4c0.9-2,1.8-4.2,2.9-6.6c0.6-1.5,1.2-3.1,1.9-4.8c0.6,0.1,5.8,1.2,8.2,0.6c2.2-0.5,4.9-1.7,5.8-3.9
				s0.1-4.7-2.2-5.5c-3.2-1.1-8,2.6-9.8,5c-0.1,0.1-1.1,1.8-1.7,2.9c0.3-0.7,0.5-1.3,0.8-2c0.5-1.4,1-2.8,1.5-4.3
				c0.2-0.7,0.4-1.5,0.7-2.2c0.3-0.7,0.4-1.5,0.6-2.3c0.4-1.8,0.8-3.7,1.1-5.6c1.2,0.4,5.5,2,7.8,1.8c2.3-0.2,5-1,6.3-3
				c1.3-2,0.8-4.6-1.3-5.7c-3-1.5-8.3,1.3-10.5,3.4c-0.1,0.1-1.5,1.8-2.2,2.8c0.2-1.1,0.4-2.3,0.5-3.4c0.4-3.3,0.7-6.7,1.1-10.1
				c0.1-1,0.2-2,0.3-3.1c0.4,0.2,5.5,2.1,8,1.9c2.2-0.2,5-1,6.3-3c1.3-2,0.8-4.6-1.3-5.7c-3-1.5-8.3,1.3-10.5,3.4
				c-0.2,0.2-2.1,2.6-2.6,3.2c0.3-2.3,0.5-4.5,0.9-6.7c0.5-3.1,1.1-6,1.9-8.8c0.2,0.1,5.5,2.1,8.1,1.9c2.3-0.2,5-1,6.3-3
				c1.3-2,0.8-4.6-1.3-5.7c-3-1.5-8.3,1.3-10.5,3.4c-0.2,0.2-2.3,2.8-2.6,3.3c0-0.2,0.1-0.3,0.1-0.5c0.9-3,2.2-5.8,3.5-8.4
				c0.8-1.5,1.6-2.9,2.4-4.2c0.9,0.5,5.3,2.6,7.7,2.7c2.3,0.1,5.1-0.4,6.6-2.3c1.5-1.8,1.3-4.6-0.7-5.9c-2.8-1.9-8.4,0.4-10.8,2.3
				c-0.1,0.1-1.3,1.3-2.2,2.1c0.4-0.6,0.8-1.2,1.1-1.8c1.4-2.1,2.8-4,4.1-5.6c0.7-0.9,1.4-1.7,2-2.5c1.2,0,5.9-0.2,8-1.1
				c2-0.9,4.3-2.7,4.9-5.1c0.5-2.3-0.9-4.6-3.3-4.9c-3.3-0.3-7.3,4.2-8.5,6.9c-0.1,0.3-1.3,4.1-1.3,4.1c0,0,0,0,0.1,0
				c-0.6,0.7-1.3,1.5-2,2.3c-1.3,1.6-2.8,3.4-4.2,5.5s-3,4.4-4.4,7c-1.4,2.6-2.7,5.4-3.7,8.4c0,0,0,0.1,0,0.1c0-1,0-3.7,0-4
				c-0.4-3-2.9-8.5-6.2-9.1c-2.4-0.4-4.4,1.4-4.6,3.7c-0.2,2.4,1.5,4.7,3.2,6.2c1.9,1.7,7.1,3.3,7.5,3.4c-0.9,2.9-1.7,6-2.2,9.1
				c-0.3,1.8-0.6,3.6-0.9,5.4c0-0.9,0-1.6,0-1.7c-0.4-3-2.9-8.5-6.2-9.1c-2.4-0.4-4.4,1.4-4.6,3.7c-0.2,2.4,1.5,4.7,3.2,6.2
				c1.7,1.5,6.1,3,7.3,3.4c-0.1,0.7-0.2,1.4-0.3,2.1c-0.4,3.4-0.8,6.7-1.3,10c-0.2,1.1-0.4,2.3-0.6,3.4c0-0.8,0-1.4,0-1.5
				c-0.4-3-2.9-8.5-6.2-9.1c-2.4-0.4-4.4,1.4-4.6,3.7c-0.2,2.3,1.5,4.7,3.2,6.2c1.6,1.4,5.7,2.9,7.1,3.3c-0.3,1.1-0.5,2.3-0.8,3.4
				c-0.2,0.8-0.4,1.5-0.6,2.3c-0.3,0.7-0.5,1.5-0.7,2.2c-0.5,1.4-1,2.8-1.5,4.2c-0.3,0.9-0.7,1.8-1.1,2.7c0.2-1.1,0.5-3.4,0.5-3.6
				c0-2-0.7-5.2-2.1-7.5c0-0.3,0-0.6,0-0.9c-0.4-2.3-2.5-4-4.9-3.4c-3.2,0.9-5.3,6.6-5.4,9.6c0,0.2,0.1,2.1,0.2,3.3
				c-0.2-0.7-0.3-1.4-0.5-2.1c-0.3-1.4-0.7-2.9-1.1-4.4c-0.2-0.7-0.4-1.5-0.7-2.2c-0.2-0.8-0.5-1.5-0.8-2.3
				c-0.6-1.7-1.4-3.5-2.2-5.2c1.3-0.3,5.7-1.4,7.5-2.8c1.8-1.4,3.7-3.6,3.7-6c0-2.3-1.9-4.3-4.3-4.1c-3.3,0.4-6.3,5.7-6.8,8.6
				c0,0.2-0.3,2.3-0.3,3.5c-0.5-1.1-0.9-2.1-1.4-3.1c-1.5-3-3.1-6-4.7-9c-0.5-0.9-1-1.8-1.4-2.8c0.5-0.1,5.7-1.3,7.7-2.9
				c1.8-1.4,3.7-3.6,3.7-6c0-2.3-1.9-4.3-4.3-4.1c-3.3,0.4-6.3,5.7-6.8,8.6c0,0.2-0.3,3.3-0.3,4.1c-1.1-2-2.1-4-3-6.1
				c-1.3-2.8-2.4-5.7-3.3-8.5c0.2,0,5.7-1.3,7.8-2.9c1.8-1.4,3.7-3.6,3.7-6c0-2.3-1.9-4.3-4.3-4.1c-3.3,0.4-6.3,5.7-6.8,8.6
				c0,0.2-0.3,3.6-0.3,4.2c0-0.2-0.1-0.3-0.2-0.5c-0.9-3-1.4-6.1-1.7-8.9c-0.2-1.7-0.3-3.3-0.3-4.9c1.1-0.1,5.9-0.8,7.9-2
				c1.9-1.1,4-3.1,4.3-5.5c0.3-2.3-1.4-4.5-3.8-4.5c-3.4,0-6.8,5-7.7,7.8c0,0.2-0.4,1.8-0.6,3c0-0.7,0-1.4,0-2.1
				c0-2.6,0.2-4.9,0.3-6.9c0.1-1.1,0.2-2.2,0.3-3.2c1-0.7,4.9-3.4,6-5.4c1.1-1.9,2.1-4.7,1.2-6.9c-0.9-2.2-3.3-3.4-5.5-2.3
				c-3,1.5-3.8,7.5-3.3,10.5c0,0.3,1.1,4.2,1.2,4.1l0,0c-0.1,0.9-0.3,2-0.4,3.1c-0.2,2-0.4,4.4-0.5,6.9c-0.1,2.6-0.1,5.3,0.2,8.2
				c0.3,2.9,0.7,6,1.5,9.1c0,0,0,0.1,0,0.1c-0.5-0.9-2.1-3.1-2.2-3.3c-2-2.3-7.1-5.5-10.2-4.2c-2.2,0.9-2.9,3.6-1.7,5.7
				C395.7,281.1,398.4,282.1,400.6,282.4z"/>
			<path class="st2" d="M458.2,266.7c0,0,1.1-3.9,1.1-4.2c0.4-3-0.6-8.9-3.6-10.4c-2.2-1.1-4.6,0.2-5.4,2.4c-0.8,2.2,0.2,5,1.4,6.8
				C453.2,263.5,458.2,266.7,458.2,266.7z"/>
		</g>
		<polygon class="st3" points="450.5,374.3 418.3,374.3 414.3,338.5 454.5,338.5 		"/>
		<g>
			<polygon class="st2" points="415,345 415.4,348.5 453.4,348.5 453.8,345 			"/>
			<polygon class="st2" points="452.6,356.1 453,352.6 415.9,352.6 416.3,356.1 			"/>
		</g>
	</g>
</g>
<g id="Device">
	<g>
		<rect x="263.3" y="294.9" class="st4" width="19.6" height="78.9"/>
		<rect x="154.6" y="164.7" class="st4" width="246.8" height="149.7"/>
		<rect x="149.6" y="164.7" class="st5" width="246.8" height="149.7"/>
		<g>
			<rect x="158.5" y="170.1" class="st3" width="229.1" height="138.9"/>
			<rect x="158.5" y="300.7" class="st3" width="229.1" height="8.4"/>
		</g>
		<polygon class="st4" points="274.1,364.9 201.6,369.6 201.6,374.3 344.5,374.3 344.5,369.6 		"/>
		<rect x="158.5" y="170.1" class="st3" width="229.1" height="138.9"/>
	</g>
</g>
<g id="Icon_5">
	<g>
		<line class="st6" x1="238.5" y1="138.2" x2="218.8" y2="168"/>
		<g>
			<path class="st5" d="M269.7,122.4v-6.8l-6.8-0.8c-0.4-1.4-0.9-2.8-1.7-4l4.3-5.3l-4.8-4.8l-5.3,4.3c-1.2-0.7-2.6-1.3-4-1.7
				l-0.8-6.8h-6.8l-0.8,6.8c-1.4,0.4-2.8,0.9-4,1.7l-5.3-4.3l-4.8,4.8l4.3,5.3c-0.7,1.2-1.3,2.6-1.7,4l-6.8,0.8v6.8l6.8,0.8
				c0.4,1.4,0.9,2.8,1.7,4l-4.3,5.3l4.8,4.8l5.3-4.3c1.2,0.7,2.6,1.3,4,1.7l0.8,6.8h6.8l0.8-6.8c1.4-0.4,2.8-0.9,4-1.7l5.3,4.3
				l4.8-4.8l-4.3-5.3c0.7-1.2,1.3-2.6,1.7-4L269.7,122.4z M247.3,127c-4.5,0-8.1-3.6-8.1-8.1c0-4.5,3.6-8.1,8.1-8.1s8.1,3.6,8.1,8.1
				C255.3,123.4,251.7,127,247.3,127z"/>
			<path class="st7" d="M296.3,108.8l-0.8-4.5l-4.6,0.3c-0.4-0.9-0.9-1.7-1.5-2.5l2.2-4l-3.7-2.6l-3.1,3.4c-0.9-0.3-1.9-0.6-2.9-0.7
				l-1.2-4.4l-4.5,0.8l0.3,4.6c-0.9,0.4-1.7,0.9-2.5,1.5l-4-2.2l-2.6,3.7l3.4,3.1c-0.3,0.9-0.6,1.9-0.7,2.9l-4.4,1.2l0.8,4.5
				l4.6-0.3c0.4,0.9,0.9,1.7,1.5,2.5l-2.2,4l3.7,2.6l3.1-3.4c0.9,0.3,1.9,0.6,2.9,0.7l1.2,4.4l4.5-0.8l-0.3-4.6
				c0.9-0.4,1.7-0.9,2.5-1.5l4,2.2l2.6-3.7l-3.4-3.1c0.3-0.9,0.6-1.9,0.7-2.9L296.3,108.8z M282,114.3c-2.9,0.5-5.7-1.5-6.3-4.5
				c-0.5-2.9,1.5-5.7,4.5-6.3c2.9-0.5,5.7,1.5,6.3,4.5C286.9,111,284.9,113.8,282,114.3z"/>
		</g>
	</g>
</g>
<g id="Icon_4">
	<g>
		<g>
			<g>
				<line class="st8" x1="180.8" y1="138.5" x2="181.1" y2="140.1"/>
				<line class="st9" x1="181.7" y1="143.1" x2="186.1" y2="165.5"/>
				<line class="st8" x1="186.4" y1="167" x2="186.7" y2="168.6"/>
			</g>
		</g>
		<g>
			<g>
				<rect x="185.3" y="101.8" class="st5" width="9.1" height="34"/>
				<rect x="173.1" y="109.4" class="st7" width="9.1" height="26.4"/>
				<rect x="160.9" y="115.5" class="st5" width="9.1" height="20.3"/>
				<rect x="148.8" y="120.5" class="st7" width="9.1" height="15.2"/>
			</g>
			<g>
				<g>
					<polygon class="st2" points="153,118.3 152.1,117.1 161.5,110 166.1,111.5 173.8,103.3 178.3,104.7 186.4,95.3 189.9,97.5 
						193.5,95 194.3,96.2 189.9,99.3 186.7,97.3 178.8,106.4 174.2,105 166.6,113.2 161.8,111.6 					"/>
				</g>
				<g>
					<g>
						<polygon class="st2" points="195.1,99 198,92.7 191.1,93.4 						"/>
					</g>
				</g>
			</g>
		</g>
	</g>
</g>
<g id="Icon_3">
	<g>
		<g>
			<g>
				<line class="st8" x1="109.1" y1="137.3" x2="110.5" y2="138.2"/>
				<line class="st10" x1="113.2" y1="140" x2="155.1" y2="167.7"/>
				<line class="st8" x1="156.5" y1="168.6" x2="157.8" y2="169.5"/>
			</g>
		</g>
		<g>
			<g>
				<path class="st3" d="M116.6,145.8H61.4v-32.1c0-2.3,1.8-4.1,4.1-4.1h47c2.3,0,4.1,1.8,4.1,4.1V145.8L116.6,145.8z"/>
				<g>
					<line class="st11" x1="75.3" y1="124.1" x2="101.5" y2="124.1"/>
					<line class="st11" x1="75.3" y1="128.4" x2="101.5" y2="128.4"/>
					<line class="st11" x1="75.3" y1="132.6" x2="101.5" y2="132.6"/>
					<line class="st11" x1="75.3" y1="136.8" x2="101.5" y2="136.8"/>
				</g>
				<path class="st5" d="M116.6,115.3v-2.3c0-1.9-1.5-3.4-3.4-3.4H64.8c-1.9,0-3.4,1.5-3.4,3.4v2.3H116.6z"/>
				<path class="st4" d="M107.2,112.6c0-0.5-0.4-0.9-0.9-0.9s-0.9,0.4-0.9,0.9s0.4,0.9,0.9,0.9S107.2,113.1,107.2,112.6z"/>
				<path class="st4" d="M110.6,112.6c0-0.5-0.4-0.9-0.9-0.9s-0.9,0.4-0.9,0.9s0.4,0.9,0.9,0.9C110.2,113.5,110.6,113.1,110.6,112.6
					z"/>
				<path class="st4" d="M114,112.6c0-0.5-0.4-0.9-0.9-0.9s-0.9,0.4-0.9,0.9s0.4,0.9,0.9,0.9C113.6,113.5,114,113.1,114,112.6z"/>
			</g>
			<g>
				<path class="st12" d="M54.4,153.5L54.4,153.5c-0.9-0.8-1-2.2-0.3-3.1l15.5-17.8l2.4,2l-14.6,18.5
					C56.7,154.2,55.3,154.3,54.4,153.5z"/>
				<path class="st13" d="M65.5,137.4l-11.4,13.1c-0.8,0.9-0.7,2.3,0.3,3.1s2.3,0.6,3.1-0.3l10.8-13.7L65.5,137.4z"/>
				<path class="st12" d="M82.6,119.5c-4.2-3.4-10.3-2.9-13.8,1.3c-3.4,4.2-2.9,10.3,1.3,13.8c4.1,3.4,10.3,2.9,13.8-1.3
					C87.3,129.1,86.7,122.9,82.6,119.5z M71,133.5c-3.6-2.9-4-8.2-1.1-11.8c2.9-3.6,8.2-4,11.8-1.1c3.6,2.9,4,8.2,1.1,11.8
					C79.9,135.9,74.6,136.4,71,133.5z"/>
			</g>
		</g>
	</g>
</g>
<g id="Icon_2">
	<g>
		<g>
			<g>
				<line class="st8" x1="89.8" y1="214.2" x2="91.4" y2="214.2"/>
				<line class="st14" x1="94.7" y1="214.2" x2="151.4" y2="214.2"/>
				<line class="st8" x1="153" y1="214.2" x2="154.6" y2="214.2"/>
			</g>
		</g>
		<g>
			<line class="st11" x1="63.2" y1="190.1" x2="99.8" y2="190.1"/>
			<line class="st11" x1="81.5" y1="208.2" x2="81.5" y2="190.1"/>
			<line class="st11" x1="52.5" y1="194.6" x2="52.5" y2="217.4"/>
			<polyline class="st11" points="87.7,219.8 120.8,219.8 120.8,239.9 			"/>
			<line class="st11" x1="99.8" y1="220.2" x2="99.8" y2="239.5"/>
			<rect x="45.9" y="182.5" class="st7" width="23.8" height="16.2"/>
			<rect x="91" y="182.5" class="st5" width="23.8" height="16.2"/>
			<rect x="92.3" y="234.6" class="st5" width="15.3" height="10.4"/>
			<rect x="45.7" y="212.2" class="st3" width="15.3" height="10.4"/>
			<rect x="112.4" y="234.6" class="st7" width="15.3" height="10.4"/>
			
				<rect x="73" y="211.7" transform="matrix(0.7071 -0.7071 0.7071 0.7071 -131.8167 122.0734)" class="st15" width="17" height="17"/>
		</g>
	</g>
</g>
<g id="Icon_1">
	<g>
		<g>
			<g>
				<line class="st8" x1="125.6" y1="291.1" x2="127.2" y2="290.6"/>
				<line class="st16" x1="130.2" y1="289.5" x2="153.2" y2="281.6"/>
				<line class="st8" x1="154.8" y1="281.1" x2="156.3" y2="280.6"/>
			</g>
		</g>
		<g>
			<rect x="49.1" y="281" class="st3" width="72.9" height="17.1"/>
			<g>
				<rect x="83.6" y="302.3" class="st3" width="38.1" height="22.7"/>
				<polygon class="st4" points="83.6,324.9 96.9,314.3 102.4,318.4 114,309.5 121.5,316.7 121.5,324.9 				"/>
				<circle class="st4" cx="90.2" cy="308.1" r="2.6"/>
			</g>
			<g>
				<rect x="83.6" y="328.1" class="st3" width="38.1" height="22.7"/>
				<polygon class="st4" points="83.6,350.8 96.9,340.1 102.4,344.2 114,335.3 121.5,342.6 121.5,350.8 				"/>
				<circle class="st4" cx="90.2" cy="333.9" r="2.6"/>
			</g>
			<line class="st8" x1="50.2" y1="304" x2="79.1" y2="304"/>
			<line class="st8" x1="50.2" y1="310.4" x2="79.1" y2="310.4"/>
			<line class="st8" x1="50.2" y1="316.8" x2="79.1" y2="316.8"/>
			<line class="st8" x1="50.2" y1="323.3" x2="79.1" y2="323.3"/>
			<line class="st8" x1="50.2" y1="329.7" x2="79.1" y2="329.7"/>
			<line class="st8" x1="50.2" y1="336.1" x2="79.1" y2="336.1"/>
			<line class="st8" x1="50.2" y1="342.6" x2="79.1" y2="342.6"/>
			<line class="st8" x1="50.2" y1="349" x2="79.1" y2="349"/>
		</g>
	</g>
</g>
<g id="Screen_2">
	<g>
		<rect x="272.3" y="177.6" class="st3" width="110.4" height="31.3"/>
		<g>
			<rect x="312.7" y="216.4" class="st3" width="69.6" height="41.4"/>
			<polygon class="st4" points="312.7,257.9 336.9,238.5 347.1,245.9 368.3,229.6 381.9,242.9 381.9,257.9 			"/>
			<path class="st4" d="M329.5,227c0,2.7-2.2,4.8-4.9,4.8c-2.7,0-4.9-2.2-4.9-4.8s2.2-4.9,4.9-4.9
				C327.3,222.2,329.5,224.3,329.5,227z"/>
		</g>
		<g>
			<rect x="312.7" y="263.6" class="st3" width="69.6" height="41.4"/>
			<polygon class="st4" points="312.7,305 336.9,285.6 347.1,293.1 368.3,276.8 381.9,290 381.9,305 			"/>
			<path class="st4" d="M329.5,274.1c0,2.7-2.2,4.9-4.9,4.9c-2.7,0-4.9-2.2-4.9-4.9c0-2.7,2.2-4.9,4.9-4.9
				C327.3,269.3,329.5,271.5,329.5,274.1z"/>
		</g>
		<g>
			<g>
				<path class="st2" d="M278.1,283.7l-2.7-16.6h1.9l1.8,12l2.3-11.9h1.7l2.3,12l1.7-12h1.9l-2.7,16.6h-1.7l-2.3-12.3l-2.3,12.3
					L278.1,283.7L278.1,283.7z"/>
			</g>
			<line class="st8" x1="291.4" y1="268.1" x2="307.7" y2="268.1"/>
			<line class="st8" x1="291.4" y1="272.5" x2="307.7" y2="272.5"/>
			<line class="st8" x1="291.4" y1="277" x2="307.7" y2="277"/>
			<line class="st8" x1="291.4" y1="281.5" x2="307.7" y2="281.5"/>
			<line class="st8" x1="291.4" y1="286" x2="307.7" y2="286"/>
			<line class="st8" x1="291.4" y1="290.5" x2="307.7" y2="290.5"/>
			<line class="st8" x1="291.4" y1="295" x2="307.7" y2="295"/>
			<line class="st8" x1="291.4" y1="299.5" x2="307.7" y2="299.5"/>
			<line class="st8" x1="291.4" y1="304" x2="307.7" y2="304"/>
		</g>
	</g>
</g>
<g id="Screen_1">
	<g>
		<path class="st4" d="M281.6,217.1c-4.6,0-8.9,1.4-12.5,3.8v-50.8H158.5V309h110.7v-50.8c3.6,2.4,7.9,3.8,12.5,3.8
			c12.4,0,22.5-10.1,22.5-22.5S294.1,217.1,281.6,217.1z"/>
		<g>
			<g>
				<g>
					<line class="st17" x1="170" y1="191.3" x2="219.8" y2="191.3"/>
					<line class="st17" x1="170" y1="206.2" x2="196" y2="206.2"/>
					<g>
						<line class="st18" x1="170" y1="198" x2="194.3" y2="198"/>
						<line class="st18" x1="199.5" y1="198" x2="212.3" y2="198"/>
						<line class="st18" x1="219.8" y1="198" x2="232.6" y2="198"/>
					</g>
					<g>
						<line class="st17" x1="170" y1="212.5" x2="194.3" y2="212.5"/>
						<line class="st17" x1="199.5" y1="212.5" x2="212.3" y2="212.5"/>
						<line class="st18" x1="219.8" y1="212.5" x2="232.6" y2="212.5"/>
					</g>
					<g>
						<line class="st17" x1="170" y1="227.1" x2="194.3" y2="227.1"/>
						<line class="st18" x1="199.5" y1="227.1" x2="212.3" y2="227.1"/>
						<line class="st17" x1="219.8" y1="227.1" x2="232.6" y2="227.1"/>
					</g>
					<g>
						<line class="st17" x1="185" y1="233.4" x2="203.4" y2="233.4"/>
						<line class="st17" x1="207.4" y1="233.4" x2="217.2" y2="233.4"/>
						<line class="st17" x1="222.9" y1="233.4" x2="232.6" y2="233.4"/>
					</g>
					<g>
						<line class="st17" x1="185" y1="241.2" x2="203.4" y2="241.2"/>
						<line class="st17" x1="207.4" y1="241.2" x2="217.2" y2="241.2"/>
						<line class="st17" x1="222.9" y1="241.2" x2="232.6" y2="241.2"/>
					</g>
				</g>
				<g>
					<line class="st18" x1="170" y1="249.8" x2="219.8" y2="249.8"/>
					<line class="st17" x1="170" y1="264.7" x2="196" y2="264.7"/>
					<g>
						<line class="st18" x1="170" y1="256.5" x2="194.3" y2="256.5"/>
						<line class="st17" x1="199.5" y1="256.5" x2="212.3" y2="256.5"/>
						<line class="st18" x1="219.8" y1="256.5" x2="232.6" y2="256.5"/>
					</g>
					<g>
						<line class="st18" x1="170" y1="271" x2="194.3" y2="271"/>
						<line class="st18" x1="199.5" y1="271" x2="212.3" y2="271"/>
						<line class="st17" x1="219.8" y1="271" x2="232.6" y2="271"/>
					</g>
					<g>
						<line class="st17" x1="170" y1="285.6" x2="194.3" y2="285.6"/>
						<line class="st18" x1="199.5" y1="285.6" x2="212.3" y2="285.6"/>
						<line class="st18" x1="219.8" y1="285.6" x2="232.6" y2="285.6"/>
					</g>
					<g>
						<line class="st17" x1="185" y1="291.9" x2="203.4" y2="291.9"/>
						<line class="st17" x1="207.4" y1="291.9" x2="217.2" y2="291.9"/>
						<line class="st17" x1="222.9" y1="291.9" x2="232.6" y2="291.9"/>
					</g>
					<g>
						<line class="st17" x1="185" y1="299.7" x2="203.4" y2="299.7"/>
						<line class="st17" x1="207.4" y1="299.7" x2="217.2" y2="299.7"/>
						<line class="st17" x1="222.9" y1="299.7" x2="232.6" y2="299.7"/>
					</g>
				</g>
			</g>
			<g>
				<path class="st19" d="M171.4,182.4l4.7-2.4v0.7l-4,2l0,0l4,2v0.7l-4.7-2.4V182.4z"/>
				<path class="st19" d="M178.9,185.7l2.8-7.3h0.7l-2.8,7.3H178.9z"/>
				<path class="st19" d="M189.8,182.9l-4.7,2.4v-0.7l4-2l0,0l-4-2V180l4.7,2.4V182.9z"/>
			</g>
		</g>
	</g>
</g>
<g id="Table">
	<g>
		<line class="st8" x1="65.8" y1="374.3" x2="476.8" y2="374.3"/>
		<line class="st8" x1="44.5" y1="374.3" x2="55.6" y2="374.3"/>
	</g>
</g>
<sodipodi:namedview  bordercolor="#666666" borderopacity="1" gridtolerance="10" guidetolerance="10" id="namedview17" inkscape:current-layer="Layer_1" inkscape:cx="2147.863" inkscape:cy="1854.9683" inkscape:pageopacity="0" inkscape:pageshadow="2" inkscape:window-height="706" inkscape:window-maximized="1" inkscape:window-width="1280" inkscape:window-x="-8" inkscape:window-y="-8" inkscape:zoom="0.093303299" objecttolerance="10" pagecolor="#ffffff" showgrid="false">
	</sodipodi:namedview>
<g id="Layer_2_00000101063857647532388800000016838847252959079319_">
	<path id="path3" inkscape:connector-curvature="0" class="st0" d="M297.4,232c-0.1-1.1-0.6-2-1.5-2.8c-2.7-2-5.7-3.7-8.7-5.4
		c-1.2-0.7-2.5-1.3-3.8-1.9c-0.6-0.3-1.2-0.4-1.8-0.4c-0.6,0-1.2,0.1-1.8,0.4c-1.3,0.6-2.6,1.2-3.8,1.9c-3,1.7-5.9,3.4-8.7,5.4
		c-0.9,0.7-1.4,1.7-1.5,2.8c-0.6,4.8-0.7,9.6,0,14.4c0.2,1.2,0.6,2.2,1.6,2.9c3.8,2.9,8,5.1,12.3,7.2c0.6,0.3,1.3,0.4,1.9,0.4
		c0.6,0,1.2-0.1,1.9-0.4c4.3-2,8.5-4.3,12.3-7.2c1-0.7,1.4-1.7,1.6-2.9C298.1,241.6,298,236.8,297.4,232L297.4,232z"/>
	<path id="path5" inkscape:connector-curvature="0" class="st20" d="M288.5,242.1c0,0,0.1-0.1,0.1-0.2l0,0
		C288.6,242,288.6,242.1,288.5,242.1z"/>
	<path id="path7" inkscape:connector-curvature="0" class="st21" d="M288.5,242.1c-0.3,0.4-0.5,0.7-0.5,0.8
		C288.2,242.7,288.4,242.4,288.5,242.1z"/>
	<path id="path9" inkscape:connector-curvature="0" class="st22" d="M296.8,232c-0.1-1-0.5-1.7-1.3-2.3c-2.8-2-5.7-3.8-8.6-5.3
		c-1.3-0.7-2.6-1.3-3.8-1.8c-0.5-0.2-1-0.3-1.5-0.3v34h0c0.5,0,1-0.1,1.5-0.4c4.8-2.3,8.8-4.6,12.2-7.1c0.8-0.6,1.2-1.4,1.4-2.5
		C297.4,241.8,297.4,237.1,296.8,232L296.8,232z"/>
	<path id="path11" inkscape:connector-curvature="0" class="st21" d="M279.3,242.8c0.5,0.2,0.9,0.2,1.4,0.2c0.5,0,1-0.1,1.5-0.3
		c0.1,0,0.2-0.1,0.3-0.1c0.2-0.1,0.4-0.2,0.6-0.3c0.6-0.3,1-0.7,1.4-1.2c0.1-0.3,0.4-0.7,0.6-0.9l0,0l0,0c0-0.1,0.1-0.2,0.1-0.3
		c0.1-0.3,0.2-0.6,0.1-0.9c-0.1-0.2-0.1-0.4-0.2-0.6c-0.2-1.2-0.2-2.5,0-3.7c0.1-0.5,0.1-0.4-0.3-0.6c-1.4-0.4-2.7-1.1-3.9-2
		c-0.2-0.1,0,0-0.2-0.1l0,0c-0.2-0.1,0,0-0.2-0.1c-0.7-0.6-1.3-1.1-1.9-1.7c-0.7-0.7-1.3-1.5-1.8-2.3c-0.1-0.1-0.1-0.1-0.3,0
		c-0.2,0.2-0.5,0.3-0.7,0.4c-0.1,0.1-0.1,0.1-0.1,0.3c0.2,0.3,0.4,0.7,0.6,1c0.2,0.3,0,0,0.2,0.3l0,0c0.2,0.3,0.3,0.6,0.5,0.8
		c0.5,0.9,1,1.7,1.5,2.6c0.5,0.9,1,1.7,1.5,2.6c0,0.1,0.1,0.2,0.3,0.2c0.7,0.1,1.2,0.8,1.1,1.5c-0.1,0.7-0.7,1.3-1.5,1.2
		c-0.8,0-1.4-0.8-1.2-1.5c0.1-0.3,0-0.6-0.2-0.9c-0.1-0.1-0.1-0.2-0.2-0.3c-0.8-1.4-1.6-2.7-2.4-4c-0.5-0.9-1-1.8-1.6-2.6
		c-0.1-0.1-0.1-0.1-0.3,0c-0.3,0.2-0.5,0.3-0.7,0.4c-0.1,0.1-0.1,0.1,0,0.3c0.3,0.5,0.5,1,0.7,1.5c0.3,0.7,0.6,1.4,0.7,2.2
		c0.2,0.7,0.3,1.4,0.4,2.2c0.1,0.8,0.1,1.5,0,2.3c0,0.7-0.1,1.4-0.3,2c0,0.2,0,0.3,0.2,0.3c0.3,0,0.5,0.2,0.7,0.3
		c1.1,0.4,2.2,1,3.1,1.9C279,242.5,279.1,242.7,279.3,242.8L279.3,242.8z"/>
	<path id="path13" inkscape:connector-curvature="0" class="st21" d="M280.8,244.8c-0.9,0.1-1.7,0-2.6-0.2c-0.1,0-0.2,0-0.2,0.1
		c-0.1,0.6-0.3,1.1-0.5,1.7c0,0.1,0,0.2,0.1,0.2c1,0.2,2,0.3,3,0.3c0.9-0.1,1.7-0.3,2.6-0.6c0.5-0.2,0.9-0.4,1.4-0.6
		c0.3-0.2,0.6-0.3,0.8-0.5c0.7-0.4,1.3-1,1.8-1.6c0.3-0.3,0.5-0.6,0.7-0.9c0-0.1,0.3-0.4,0.5-0.8c0,0,0-0.1,0.1-0.2l0,0
		c0.2-0.4,0.5-0.9,0.7-1.4c0.1-0.2,0.2-0.4,0.2-0.7c0-0.2,0-0.2-0.1-0.3c-0.6-0.2-1.1-0.3-1.7-0.5c-0.2,0-0.3,0-0.3,0.2
		c-0.2,0.6-0.5,1.3-0.8,1.8c0,0.1,0,0-0.1,0.3c-0.2,0.3-0.4,0.6-0.6,0.8c-0.1,0.1-0.1,0.1-0.1,0.2c-0.6,0.6-1.1,1.1-1.8,1.5
		C282.9,244.4,281.9,244.7,280.8,244.8L280.8,244.8z"/>
	<path id="path15" inkscape:connector-curvature="0" class="st21" d="M293.6,240.6c-0.6-0.2-1.2-0.3-1.8-0.5c-0.1,0-0.2,0-0.2,0.1
		c-0.1,0.2-0.2,0.4-0.2,0.6c-0.1,0.4-0.3,0.9-0.5,1.3c-0.1,0.3-0.2,0.5-0.4,0.9c-0.1,0.2-0.2,0.3-0.3,0.5c-0.4,0.6-0.8,1.1-1.2,1.6
		c-0.4,0.4-0.7,0.8-1.1,1.1c-0.5,0.4-1,0.8-1.6,1.1c-0.5,0.3-1,0.6-1.5,0.8c0,0,0,0,0,0c-0.4,0.2-1,0.3-1.4,0.5
		c-0.6,0.2-1.1,0.3-1.7,0.3c-0.2,0-0.3,0-0.5,0c-1,0.1-2,0-3-0.1c-0.3,0-0.3,0-0.8-0.1c-0.3,0-0.3,0-0.3,0.2c0,0.3-0.1,0.6-0.2,0.9
		c-0.1,0.4-0.1,0.6-0.3,0.9c0,0,0,0.1,0.1,0.1c0,0,0.1,0,0.1,0c0.6,0.1,1.2,0.3,1.8,0.3c0.4,0,0.9,0,1.2,0c0.5,0,1,0,1.4,0
		c0.9-0.1,1.7-0.2,2.5-0.4c1-0.3,2-0.6,3-1.2c0.1,0,0.2-0.1,0.3-0.2c0.3-0.2,0.6-0.3,0.8-0.6c0.3-0.2,0.6-0.4,0.9-0.6
		c0.7-0.5,1.3-1.1,1.9-1.7c0.7-0.8,1.4-1.8,2-2.8c0,0,0,0,0,0c0.3-0.5,0.5-0.9,0.6-1.4c0.2-0.5,0.3-1,0.5-1.5
		C293.7,240.7,293.7,240.7,293.6,240.6L293.6,240.6z"/>
</g>
<g id="Layer_3">
	<g>
		<path d="M304.2,201.3v-16.6h3.2v16.6H304.2z"/>
		<path d="M313.5,201.6c-0.6,0-1.1-0.1-1.5-0.3c-0.5-0.2-0.9-0.4-1.2-0.7c-0.3-0.3-0.6-0.7-0.8-1.1c-0.2-0.4-0.3-0.9-0.3-1.4
			c0-1.1,0.3-2,0.9-2.7c0.6-0.7,1.5-1.1,2.7-1.3l2.1-0.3c0.3,0,0.5-0.1,0.7-0.1c0.2,0,0.4-0.1,0.6-0.2c0.2-0.1,0.3-0.2,0.4-0.3
			c0.1-0.1,0.2-0.3,0.2-0.6c0-0.4-0.2-0.8-0.6-1c-0.4-0.2-0.9-0.3-1.6-0.3c-0.6,0-1.1,0.2-1.4,0.5c-0.3,0.3-0.5,0.7-0.6,1.3h-3.1
			c0.1-2.9,2-4.3,5.5-4.3c0.8,0,1.4,0.1,2,0.3c0.6,0.2,1.1,0.4,1.6,0.7c0.4,0.3,0.8,0.7,1,1.1c0.2,0.4,0.3,0.9,0.3,1.5v6.8
			c0,0.3,0,0.5,0,0.7c0,0.2,0,0.3,0.1,0.5c0,0.1,0.1,0.2,0.2,0.3c0.1,0.1,0.2,0.1,0.3,0.2v0.5h-3.5c-0.1-0.3-0.1-0.5-0.2-0.7
			c0-0.3-0.1-0.5-0.1-0.7v0C316.4,201,315.1,201.6,313.5,201.6z M317.4,196.8v-1.4c-0.2,0.1-0.4,0.2-0.7,0.3s-0.5,0.2-0.9,0.2
			l-1.2,0.2c-1.1,0.2-1.7,0.8-1.7,1.7c0,0.5,0.1,0.9,0.4,1.1c0.3,0.3,0.6,0.4,1.1,0.4c0.4,0,0.7,0,1.1-0.2c0.3-0.1,0.7-0.3,0.9-0.5
			s0.5-0.5,0.6-0.8C317.3,197.6,317.4,197.2,317.4,196.8z"/>
		<path d="M326.4,201.6c-0.6,0-1.1-0.1-1.5-0.3c-0.5-0.2-0.9-0.4-1.2-0.7c-0.3-0.3-0.6-0.7-0.8-1.1c-0.2-0.4-0.3-0.9-0.3-1.4
			c0-1.1,0.3-2,0.9-2.7c0.6-0.7,1.5-1.1,2.7-1.3l2.1-0.3c0.3,0,0.5-0.1,0.7-0.1c0.2,0,0.4-0.1,0.6-0.2s0.3-0.2,0.4-0.3
			c0.1-0.1,0.2-0.3,0.2-0.6c0-0.4-0.2-0.8-0.6-1c-0.4-0.2-0.9-0.3-1.6-0.3c-0.6,0-1.1,0.2-1.4,0.5c-0.3,0.3-0.5,0.7-0.6,1.3H323
			c0.1-2.9,2-4.3,5.5-4.3c0.8,0,1.4,0.1,2,0.3c0.6,0.2,1.1,0.4,1.6,0.7c0.4,0.3,0.8,0.7,1,1.1c0.2,0.4,0.3,0.9,0.3,1.5v6.8
			c0,0.3,0,0.5,0,0.7c0,0.2,0,0.3,0.1,0.5c0,0.1,0.1,0.2,0.2,0.3c0.1,0.1,0.2,0.1,0.3,0.2v0.5h-3.5c-0.1-0.3-0.1-0.5-0.2-0.7
			c0-0.3-0.1-0.5-0.1-0.7v0C329.2,201,328,201.6,326.4,201.6z M330.2,196.8v-1.4c-0.2,0.1-0.4,0.2-0.7,0.3c-0.3,0.1-0.5,0.2-0.9,0.2
			l-1.2,0.2c-1.1,0.2-1.7,0.8-1.7,1.7c0,0.5,0.1,0.9,0.4,1.1c0.3,0.3,0.6,0.4,1.1,0.4c0.4,0,0.7,0,1.1-0.2c0.3-0.1,0.7-0.3,0.9-0.5
			s0.5-0.5,0.6-0.8C330.1,197.6,330.2,197.2,330.2,196.8z"/>
		<path d="M336.2,201.3V189h3.1v1.8c0.4-0.7,0.9-1.3,1.6-1.6s1.4-0.5,2.3-0.5c0.6,0,1.2,0.1,1.7,0.3s0.9,0.5,1.3,0.9
			s0.6,0.8,0.8,1.4s0.3,1.1,0.3,1.8v8.3h-3.2v-7.7c0-1.5-0.7-2.2-2-2.2c-0.9,0-1.5,0.3-2,0.8c-0.5,0.5-0.7,1.2-0.7,2.2v6.9H336.2z"
			/>
		<path d="M353.3,201.6c-0.6,0-1.1-0.1-1.5-0.3c-0.5-0.2-0.9-0.4-1.2-0.7c-0.3-0.3-0.6-0.7-0.8-1.1c-0.2-0.4-0.3-0.9-0.3-1.4
			c0-1.1,0.3-2,0.9-2.7c0.6-0.7,1.5-1.1,2.7-1.3l2.1-0.3c0.3,0,0.5-0.1,0.7-0.1c0.2,0,0.4-0.1,0.6-0.2c0.2-0.1,0.3-0.2,0.4-0.3
			c0.1-0.1,0.2-0.3,0.2-0.6c0-0.4-0.2-0.8-0.6-1c-0.4-0.2-0.9-0.3-1.6-0.3c-0.6,0-1.1,0.2-1.4,0.5c-0.3,0.3-0.5,0.7-0.6,1.3H350
			c0.1-2.9,2-4.3,5.5-4.3c0.8,0,1.4,0.1,2,0.3c0.6,0.2,1.1,0.4,1.6,0.7c0.4,0.3,0.8,0.7,1,1.1c0.2,0.4,0.3,0.9,0.3,1.5v6.8
			c0,0.3,0,0.5,0,0.7c0,0.2,0,0.3,0.1,0.5c0,0.1,0.1,0.2,0.2,0.3c0.1,0.1,0.2,0.1,0.3,0.2v0.5h-3.5c-0.1-0.3-0.1-0.5-0.2-0.7
			c0-0.3-0.1-0.5-0.1-0.7v0C356.2,201,354.9,201.6,353.3,201.6z M357.2,196.8v-1.4c-0.2,0.1-0.4,0.2-0.7,0.3s-0.5,0.2-0.9,0.2
			l-1.2,0.2c-1.1,0.2-1.7,0.8-1.7,1.7c0,0.5,0.1,0.9,0.4,1.1c0.3,0.3,0.6,0.4,1.1,0.4c0.4,0,0.7,0,1.1-0.2c0.3-0.1,0.7-0.3,0.9-0.5
			c0.3-0.2,0.5-0.5,0.6-0.8C357.1,197.6,357.2,197.2,357.2,196.8z"/>
		<path d="M370.1,192.7c0-0.5-0.2-0.9-0.6-1.1c-0.4-0.3-0.9-0.4-1.6-0.4c-0.6,0-1.1,0.1-1.4,0.3c-0.3,0.2-0.5,0.5-0.5,0.9
			c0,0.1,0,0.3,0.1,0.4c0.1,0.1,0.3,0.2,0.5,0.3c0.2,0.1,0.5,0.2,0.9,0.3c0.3,0.1,0.8,0.2,1.3,0.3c2,0.4,3.3,0.9,4,1.4
			c0.7,0.6,1,1.4,1,2.5c0,0.6-0.1,1.1-0.4,1.6c-0.3,0.5-0.6,0.9-1.1,1.3c-0.5,0.3-1,0.6-1.7,0.8c-0.6,0.2-1.4,0.3-2.2,0.3
			c-1.9,0-3.4-0.3-4.4-1.1s-1.5-1.8-1.6-3.1h3.3c0,0.6,0.3,1,0.8,1.3c0.5,0.3,1.1,0.5,2,0.5c0.6,0,1.1-0.1,1.5-0.3
			c0.4-0.2,0.6-0.5,0.6-0.9c0-0.1,0-0.3-0.1-0.4c-0.1-0.1-0.2-0.2-0.4-0.3c-0.2-0.1-0.4-0.2-0.7-0.3c-0.3-0.1-0.7-0.2-1.1-0.3
			c-2.1-0.5-3.4-1-4.2-1.5c-0.7-0.5-1.1-1.3-1.1-2.4c0-0.6,0.1-1.1,0.4-1.7c0.3-0.5,0.6-0.9,1-1.3s0.9-0.6,1.6-0.9
			c0.6-0.2,1.3-0.3,2-0.3c0.8,0,1.6,0.1,2.3,0.3c0.7,0.2,1.3,0.5,1.7,0.8c0.5,0.3,0.9,0.8,1.1,1.3c0.3,0.5,0.4,1,0.4,1.6
			L370.1,192.7L370.1,192.7z"/>
	</g>
	<path id="path3_00000124844099198784913270000017878268783162449047_" inkscape:connector-curvature="0" class="st0" d="
		M301.2,188.3c-0.1-0.7-0.4-1.4-1-1.8c-1.8-1.4-3.7-2.5-5.7-3.5c-0.8-0.5-1.7-0.9-2.5-1.2c-0.4-0.2-0.8-0.3-1.1-0.3
		s-0.8,0.1-1.1,0.3c-0.9,0.4-1.7,0.8-2.5,1.2c-2,1.1-3.9,2.2-5.7,3.5c-0.6,0.5-0.9,1.1-1,1.8c-0.4,3.1-0.4,6.3,0,9.5
		c0.1,0.8,0.4,1.4,1.1,1.9c2.6,1.9,5.3,3.4,8.1,4.7c0.4,0.2,0.9,0.3,1.2,0.3c0.4,0,0.8-0.1,1.2-0.3c2.9-1.4,5.6-2.9,8.1-4.7
		c0.6-0.5,1-1.1,1.1-1.9C301.6,194.6,301.6,191.5,301.2,188.3L301.2,188.3z"/>
	<path id="path5_00000061446072368987195430000010671179662869101464_" inkscape:connector-curvature="0" class="st20" d="
		M295.3,195c0,0,0-0.1,0.1-0.1l0,0C295.4,194.9,295.3,195,295.3,195z"/>
	<path id="path7_00000176015133245460416320000012235547762725102268_" inkscape:connector-curvature="0" class="st21" d="
		M295.3,195c-0.2,0.3-0.3,0.5-0.3,0.6C295.1,195.4,295.2,195.2,295.3,195z"/>
	<path id="path9_00000145767270973673967830000009078494645568270486_" inkscape:connector-curvature="0" class="st22" d="
		M300.7,188.4c-0.1-0.7-0.3-1.1-0.9-1.5c-1.8-1.4-3.8-2.5-5.7-3.5c-0.9-0.5-1.7-0.9-2.5-1.2c-0.3-0.2-0.7-0.2-1-0.2v22.4h0
		c0.3,0,0.7-0.1,1-0.3c3.1-1.5,5.8-3,8-4.7c0.5-0.4,0.8-0.9,0.9-1.6C301.2,194.8,301.2,191.7,300.7,188.4L300.7,188.4z"/>
	<path id="path11_00000069364607951760284050000000991040401247667097_" inkscape:connector-curvature="0" class="st21" d="
		M289.3,195.4c0.3,0.1,0.6,0.1,0.9,0.1c0.3,0,0.7-0.1,1-0.2c0,0,0.1,0,0.2-0.1c0.1-0.1,0.3-0.1,0.4-0.2c0.3-0.2,0.6-0.5,0.9-0.8
		c0.1-0.2,0.3-0.5,0.3-0.6l0,0l0,0c0,0,0-0.1,0.1-0.2c0.1-0.2,0.1-0.3,0-0.6c0-0.1-0.1-0.3-0.1-0.4c-0.1-0.8-0.1-1.6,0-2.5
		c0-0.3,0-0.3-0.3-0.4c-0.9-0.3-1.8-0.7-2.6-1.3c-0.1-0.1,0,0-0.1-0.1l0,0c-0.1-0.1,0,0-0.1-0.1c-0.4-0.3-0.9-0.7-1.2-1.1
		c-0.4-0.5-0.9-1-1.2-1.5c0-0.1-0.1-0.1-0.2,0c-0.2,0.1-0.3,0.2-0.5,0.3c-0.1,0-0.1,0.1,0,0.2c0.1,0.2,0.3,0.5,0.4,0.7
		c0.1,0.2,0,0,0.1,0.2l0,0c0.1,0.2,0.2,0.3,0.3,0.6c0.3,0.6,0.7,1.1,1,1.7c0.3,0.6,0.6,1.1,1,1.7c0,0.1,0.1,0.1,0.2,0.1
		c0.5,0.1,0.8,0.6,0.7,1s-0.4,0.8-1,0.8c-0.5,0-0.9-0.5-0.8-1c0-0.2,0-0.4-0.1-0.6c0,0-0.1-0.1-0.1-0.2c-0.5-0.9-1.1-1.8-1.6-2.6
		c-0.3-0.6-0.7-1.1-1-1.7c0-0.1-0.1-0.1-0.2,0c-0.2,0.1-0.3,0.2-0.5,0.3c-0.1,0-0.1,0.1,0,0.2c0.2,0.3,0.3,0.6,0.5,1
		c0.2,0.5,0.3,1,0.5,1.4s0.2,1,0.3,1.4c0,0.5,0.1,1,0,1.5c0,0.5-0.1,0.9-0.2,1.4c0,0.1,0,0.2,0.1,0.2c0.2,0,0.3,0.1,0.4,0.2
		c0.8,0.3,1.4,0.7,2,1.2C289,195.3,289.1,195.4,289.3,195.4L289.3,195.4z"/>
	<path id="path13_00000096055336893190053250000009880471044949699774_" inkscape:connector-curvature="0" class="st21" d="
		M290.3,196.8c-0.6,0-1.1,0-1.7-0.1c-0.1,0-0.1,0-0.1,0.1c-0.1,0.4-0.2,0.8-0.3,1.1c0,0.1,0,0.1,0.1,0.1c0.6,0.1,1.3,0.2,2,0.2
		c0.6,0,1.1-0.2,1.7-0.3c0.3-0.1,0.6-0.3,0.9-0.4c0.2-0.1,0.3-0.2,0.6-0.3c0.4-0.3,0.9-0.6,1.2-1c0.2-0.2,0.3-0.4,0.5-0.6
		c0,0,0.2-0.3,0.3-0.6c0,0,0-0.1,0-0.1l0,0c0.2-0.3,0.3-0.6,0.5-1c0-0.1,0.1-0.3,0.1-0.4c0-0.1,0-0.2-0.1-0.2
		c-0.4-0.1-0.8-0.2-1.1-0.3c-0.1,0-0.2,0-0.2,0.1c-0.1,0.4-0.3,0.9-0.5,1.2c0,0,0,0-0.1,0.2c-0.1,0.2-0.3,0.4-0.4,0.6
		c0,0,0,0.1-0.1,0.1c-0.4,0.4-0.8,0.7-1.2,1C291.6,196.5,291,196.7,290.3,196.8L290.3,196.8z"/>
	<path id="path15_00000012472869749097306070000016635773758983841680_" inkscape:connector-curvature="0" class="st21" d="
		M298.6,194c-0.4-0.1-0.8-0.2-1.2-0.3c-0.1,0-0.1,0-0.1,0.1c0,0.1-0.1,0.3-0.1,0.4c-0.1,0.3-0.2,0.6-0.3,0.9
		c-0.1,0.2-0.1,0.3-0.3,0.6c0,0.1-0.1,0.2-0.2,0.3c-0.3,0.4-0.5,0.7-0.8,1.1c-0.3,0.3-0.5,0.5-0.8,0.8c-0.3,0.3-0.7,0.5-1,0.7
		c-0.3,0.2-0.6,0.4-1,0.5c0,0,0,0,0,0c-0.3,0.1-0.6,0.2-0.9,0.3c-0.4,0.1-0.8,0.2-1.1,0.2c-0.1,0-0.2,0-0.3,0c-0.6,0-1.3,0-2-0.1
		c-0.2,0-0.2,0-0.5-0.1c-0.2,0-0.2,0-0.2,0.1c0,0.2-0.1,0.4-0.1,0.6c-0.1,0.3-0.1,0.3-0.2,0.6c0,0,0,0.1,0,0.1c0,0,0,0,0.1,0
		c0.4,0.1,0.8,0.2,1.2,0.2c0.3,0,0.6,0,0.8,0c0.3,0,0.6,0,0.9,0c0.6,0,1.1-0.1,1.7-0.3c0.7-0.2,1.4-0.4,2-0.8c0.1,0,0.1-0.1,0.2-0.1
		c0.2-0.1,0.4-0.2,0.5-0.3c0.2-0.1,0.4-0.3,0.6-0.4c0.5-0.3,0.9-0.7,1.2-1.1c0.5-0.6,1-1.2,1.3-1.8c0,0,0,0,0,0
		c0.2-0.3,0.3-0.6,0.4-0.9c0.1-0.3,0.2-0.6,0.3-1C298.7,194.1,298.7,194,298.6,194L298.6,194z"/>
</g>
</svg>
