<?xml version="1.0" encoding="utf-8"?>
<!-- Generator: Adobe Illustrator 26.0.1, SVG Export Plug-In . SVG Version: 6.00 Build 0)  -->
<svg version="1.1"
	 id="Layer_1" xmlns:cc="http://creativecommons.org/ns#" xmlns:dc="http://purl.org/dc/elements/1.1/" xmlns:inkscape="http://www.inkscape.org/namespaces/inkscape" xmlns:osb="http://www.openswatchbook.org/uri/2009/osb" xmlns:rdf="http://www.w3.org/1999/02/22-rdf-syntax-ns#" xmlns:sodipodi="http://sodipodi.sourceforge.net/DTD/sodipodi-0.dtd" xmlns:svg="http://www.w3.org/2000/svg"
	 xmlns="http://www.w3.org/2000/svg" xmlns:xlink="http://www.w3.org/1999/xlink" x="0px" y="0px" viewBox="0 0 500 500"
	 style="enable-background:new 0 0 500 500;" xml:space="preserve">
<style type="text/css">
	.st0{fill:#262626;stroke:#263238;stroke-miterlimit:10;}
	.st1{fill:#F3AB00;}
	.st2{fill:#FFFFFF;}
	.st3{fill:none;}
	.st4{fill:#010101;}
	.st5{fill:#F5B41A;}
	.st6{display:none;}
	.st7{display:inline;fill:#F3AB00;}
	.st8{fill-rule:evenodd;clip-rule:evenodd;fill:#F2F2F2;}
	.st9{fill-rule:evenodd;clip-rule:evenodd;fill:#F3AB00;stroke:#FFFFFF;stroke-width:2;stroke-miterlimit:10;}
</style>
<sodipodi:namedview  bordercolor="#666666" borderopacity="1" gridtolerance="10" guidetolerance="10" id="namedview17" inkscape:current-layer="Layer_1" inkscape:cx="2147.863" inkscape:cy="1854.9683" inkscape:pageopacity="0" inkscape:pageshadow="2" inkscape:window-height="706" inkscape:window-maximized="1" inkscape:window-width="1280" inkscape:window-x="-8" inkscape:window-y="-8" inkscape:zoom="0.093303299" objecttolerance="10" pagecolor="#ffffff" showgrid="false">
	</sodipodi:namedview>
<rect y="-1" class="st0" width="500" height="501"/>
<g id="Layer_3_00000114753878248587710840000014581560162885054106_">
	<g>
		<path class="st1" d="M207.3,353.1v-34.2h6.6v34.2H207.3z"/>
		<path class="st2" d="M226.5,353.7c-1.2,0-2.3-0.2-3.1-0.6c-1-0.4-1.9-0.8-2.5-1.4s-1.2-1.4-1.6-2.3c-0.4-0.8-0.6-1.9-0.6-2.9
			c0-2.3,0.6-4.1,1.9-5.6c1.2-1.4,3.1-2.3,5.6-2.7l4.3-0.6c0.6,0,1-0.2,1.4-0.2s0.8-0.2,1.2-0.4c0.4-0.2,0.6-0.4,0.8-0.6
			s0.4-0.6,0.4-1.2c0-0.8-0.4-1.6-1.2-2.1s-1.9-0.6-3.3-0.6c-1.2,0-2.3,0.4-2.9,1c-0.6,0.6-1,1.4-1.2,2.7h-6.4
			c0.2-6,4.1-8.9,11.3-8.9c1.6,0,2.9,0.2,4.1,0.6c1.2,0.4,2.3,0.8,3.3,1.4c0.8,0.6,1.6,1.4,2.1,2.3s0.6,1.9,0.6,3.1v14
			c0,0.6,0,1,0,1.4s0,0.6,0.2,1c0,0.2,0.2,0.4,0.4,0.6s0.4,0.2,0.6,0.4v1h-7.2c-0.2-0.6-0.2-1-0.4-1.4c0-0.6-0.2-1-0.2-1.4l0,0
			C232.4,352.5,229.8,353.7,226.5,353.7z M234.5,343.8v-2.9c-0.4,0.2-0.8,0.4-1.4,0.6c-0.6,0.2-1,0.4-1.9,0.4l-2.5,0.4
			c-2.3,0.4-3.5,1.6-3.5,3.5c0,1,0.2,1.9,0.8,2.3c0.6,0.6,1.2,0.8,2.3,0.8c0.8,0,1.4,0,2.3-0.4c0.6-0.2,1.4-0.6,1.9-1
			c0.4-0.4,1-1,1.2-1.6C234.3,345.4,234.5,344.6,234.5,343.8z"/>
		<path class="st2" d="M253,353.7c-1.2,0-2.3-0.2-3.1-0.6c-1-0.4-1.9-0.8-2.5-1.4s-1.2-1.4-1.6-2.3c-0.4-0.8-0.6-1.9-0.6-2.9
			c0-2.3,0.6-4.1,1.9-5.6c1.2-1.4,3.1-2.3,5.6-2.7l4.3-0.6c0.6,0,1-0.2,1.4-0.2s0.8-0.2,1.2-0.4c0.4-0.2,0.6-0.4,0.8-0.6
			s0.4-0.6,0.4-1.2c0-0.8-0.4-1.6-1.2-2.1s-1.9-0.6-3.3-0.6c-1.2,0-2.3,0.4-2.9,1s-1,1.4-1.2,2.7H246c0.2-6,4.1-8.9,11.3-8.9
			c1.6,0,2.9,0.2,4.1,0.6s2.3,0.8,3.3,1.4c0.8,0.6,1.6,1.4,2.1,2.3s0.6,1.9,0.6,3.1v14c0,0.6,0,1,0,1.4s0,0.6,0.2,1
			c0,0.2,0.2,0.4,0.4,0.6s0.4,0.2,0.6,0.4v1h-7.2c-0.2-0.6-0.2-1-0.4-1.4c0-0.6-0.2-1-0.2-1.4l0,0
			C258.8,352.5,256.3,353.7,253,353.7z M260.9,343.8v-2.9c-0.4,0.2-0.8,0.4-1.4,0.6s-1,0.4-1.9,0.4l-2.5,0.4
			c-2.3,0.4-3.5,1.6-3.5,3.5c0,1,0.2,1.9,0.8,2.3c0.6,0.6,1.2,0.8,2.3,0.8c0.8,0,1.4,0,2.3-0.4c0.6-0.2,1.4-0.6,1.9-1
			c0.4-0.4,1-1,1.2-1.6C260.7,345.4,260.9,344.6,260.9,343.8z"/>
		<path class="st1" d="M273.2,353.1v-25.3h6.4v3.7c0.8-1.4,1.9-2.7,3.3-3.3c1.4-0.6,2.9-1,4.7-1c1.2,0,2.5,0.2,3.5,0.6
			s1.9,1,2.7,1.9s1.2,1.6,1.6,2.9c0.4,1.2,0.6,2.3,0.6,3.7v17.1h-6.6v-15.9c0-3.1-1.4-4.5-4.1-4.5c-1.9,0-3.1,0.6-4.1,1.6
			s-1.4,2.5-1.4,4.5v14.2h-6.6V353.1z"/>
		<path class="st2" d="M308.5,353.7c-1.2,0-2.3-0.2-3.1-0.6c-1-0.4-1.9-0.8-2.5-1.4s-1.2-1.4-1.6-2.3c-0.4-0.8-0.6-1.9-0.6-2.9
			c0-2.3,0.6-4.1,1.9-5.6c1.2-1.4,3.1-2.3,5.6-2.7l4.3-0.6c0.6,0,1-0.2,1.4-0.2s0.8-0.2,1.2-0.4c0.4-0.2,0.6-0.4,0.8-0.6
			s0.4-0.6,0.4-1.2c0-0.8-0.4-1.6-1.2-2.1s-1.9-0.6-3.3-0.6c-1.2,0-2.3,0.4-2.9,1s-1,1.4-1.2,2.7h-6c0.2-6,4.1-8.9,11.3-8.9
			c1.6,0,2.9,0.2,4.1,0.6s2.3,0.8,3.3,1.4c0.8,0.6,1.6,1.4,2.1,2.3s0.6,1.9,0.6,3.1v14c0,0.6,0,1,0,1.4s0,0.6,0.2,1
			c0,0.2,0.2,0.4,0.4,0.6c0.2,0.2,0.4,0.2,0.6,0.4v1h-7.2c-0.2-0.6-0.2-1-0.4-1.4c0-0.6-0.2-1-0.2-1.4l0,0
			C314.4,352.5,311.8,353.7,308.5,353.7z M316.5,343.8v-2.9c-0.4,0.2-0.8,0.4-1.4,0.6s-1,0.4-1.9,0.4l-2.5,0.4
			c-2.3,0.4-3.5,1.6-3.5,3.5c0,1,0.2,1.9,0.8,2.3c0.6,0.6,1.2,0.8,2.3,0.8c0.8,0,1.4,0,2.3-0.4c0.6-0.2,1.4-0.6,1.9-1
			c0.6-0.4,1-1,1.2-1.6C316.3,345.4,316.5,344.6,316.5,343.8z"/>
		<path class="st2" d="M343.1,335.4c0-1-0.4-1.9-1.2-2.3c-0.8-0.6-1.9-0.8-3.3-0.8c-1.2,0-2.3,0.2-2.9,0.6s-1,1-1,1.9
			c0,0.2,0,0.6,0.2,0.8c0.2,0.2,0.6,0.4,1,0.6s1,0.4,1.9,0.6c0.6,0.2,1.6,0.4,2.7,0.6c4.1,0.8,6.8,1.9,8.2,2.9
			c1.4,1.2,2.1,2.9,2.1,5.2c0,1.2-0.2,2.3-0.8,3.3c-0.6,1-1.2,1.9-2.3,2.7c-1,0.6-2.1,1.2-3.5,1.6c-1.2,0.4-2.9,0.6-4.5,0.6
			c-3.9,0-7-0.6-9.1-2.3c-2.1-1.6-3.1-3.7-3.3-6.4h6.8c0,1.2,0.6,2.1,1.6,2.7s2.3,1,4.1,1c1.2,0,2.3-0.2,3.1-0.6s1.2-1,1.2-1.9
			c0-0.2,0-0.6-0.2-0.8c-0.2-0.2-0.4-0.4-0.8-0.6s-0.8-0.4-1.4-0.6s-1.4-0.4-2.3-0.6c-4.3-1-7-2.1-8.7-3.1c-1.4-1-2.3-2.7-2.3-4.9
			c0-1.2,0.2-2.3,0.8-3.5c0.6-1,1.2-1.9,2.1-2.7s1.9-1.2,3.3-1.9c1.2-0.4,2.7-0.6,4.1-0.6c1.6,0,3.3,0.2,4.7,0.6
			c1.4,0.4,2.7,1,3.5,1.6c1,0.6,1.9,1.6,2.3,2.7c0.6,1,0.8,2.1,0.8,3.3L343.1,335.4L343.1,335.4z"/>
	</g>
	<path id="path3_00000101804424623524114170000002406430535730668728_" inkscape:connector-curvature="0" class="st1" d="
		M201.1,326.3c-0.2-1.4-0.8-2.9-2.1-3.7c-3.7-2.9-7.6-5.2-11.7-7.2c-1.6-1-3.5-1.9-5.2-2.5c-0.8-0.4-1.6-0.6-2.3-0.6
		s-1.6,0.2-2.3,0.6c-1.9,0.8-3.5,1.6-5.2,2.5c-4.1,2.3-8,4.5-11.7,7.2c-1.2,1-1.9,2.3-2.1,3.7c-0.8,6.4-0.8,13,0,19.6
		c0.2,1.6,0.8,2.9,2.3,3.9c5.4,3.9,10.9,7,16.7,9.7c0.8,0.4,1.9,0.6,2.5,0.6c0.8,0,1.6-0.2,2.5-0.6c6-2.9,11.5-6,16.7-9.7
		c1.2-1,2.1-2.3,2.3-3.9C201.9,339.3,201.9,332.9,201.1,326.3L201.1,326.3z"/>
	<path id="path5_00000039846899211806939360000007096170029849917833_" inkscape:connector-curvature="0" class="st3" d="M189,340.1
		c0,0,0-0.2,0.2-0.2l0,0L189,340.1z"/>
	<path id="path7_00000056419442752844584360000003554926651050720421_" inkscape:connector-curvature="0" class="st4" d="M189,340.1
		c-0.4,0.6-0.6,1-0.6,1.2C188.6,340.9,188.8,340.5,189,340.1z"/>
	<path id="path9_00000034777304535694498630000010044499930990206649_" inkscape:connector-curvature="0" class="st5" d="
		M200.1,326.5c-0.2-1.4-0.6-2.3-1.9-3.1c-3.7-2.9-7.8-5.2-11.7-7.2c-1.9-1-3.5-1.9-5.2-2.5c-0.6-0.4-1.4-0.4-2.1-0.4v46.1l0,0
		c0.6,0,1.4-0.2,2.1-0.6c6.4-3.1,11.9-6.2,16.5-9.7c1-0.8,1.6-1.9,1.9-3.3C201.1,339.7,201.1,333.3,200.1,326.5L200.1,326.5z"/>
	<path id="path11_00000129928577687173700540000009707377381955811465_" inkscape:connector-curvature="0" class="st4" d="
		M176.6,340.9c0.6,0.2,1.2,0.2,1.9,0.2c0.6,0,1.4-0.2,2.1-0.4c0,0,0.2,0,0.4-0.2s0.6-0.2,0.8-0.4c0.6-0.4,1.2-1,1.9-1.6
		c0.2-0.4,0.6-1,0.6-1.2l0,0l0,0c0,0,0-0.2,0.2-0.4c0.2-0.4,0.2-0.6,0-1.2c0-0.2-0.2-0.6-0.2-0.8c-0.2-1.6-0.2-3.3,0-5.2
		c0-0.6,0-0.6-0.6-0.8c-1.9-0.6-3.7-1.4-5.4-2.7c-0.2-0.2,0,0-0.2-0.2l0,0c-0.2-0.2,0,0-0.2-0.2c-0.8-0.6-1.9-1.4-2.5-2.3
		c-0.8-1-1.9-2.1-2.5-3.1c0-0.2-0.2-0.2-0.4,0c-0.4,0.2-0.6,0.4-1,0.6c-0.2,0-0.2,0.2,0,0.4c0.2,0.4,0.6,1,0.8,1.4s0,0,0.2,0.4l0,0
		c0.2,0.4,0.4,0.6,0.6,1.2c0.6,1.2,1.4,2.3,2.1,3.5c0.6,1.2,1.2,2.3,2.1,3.5c0,0.2,0.2,0.2,0.4,0.2c1,0.2,1.6,1.2,1.4,2.1
		s-0.8,1.6-2.1,1.6c-1,0-1.9-1-1.6-2.1c0-0.4,0-0.8-0.2-1.2c0,0-0.2-0.2-0.2-0.4c-1-1.9-2.3-3.7-3.3-5.4c-0.6-1.2-1.4-2.3-2.1-3.5
		c0-0.2-0.2-0.2-0.4,0c-0.4,0.2-0.6,0.4-1,0.6c-0.2,0-0.2,0.2,0,0.4c0.4,0.6,0.6,1.2,1,2.1c0.4,1,0.6,2.1,1,2.9s0.4,2.1,0.6,2.9
		c0,1,0.2,2.1,0,3.1c0,1-0.2,1.9-0.4,2.9c0,0.2,0,0.4,0.2,0.4c0.4,0,0.6,0.2,0.8,0.4c1.6,0.6,2.9,1.4,4.1,2.5
		C176,340.7,176.2,340.9,176.6,340.9L176.6,340.9z"/>
	<path id="path13_00000155131090133002080460000009678317105844625316_" inkscape:connector-curvature="0" class="st4" d="
		M178.7,343.8c-1.2,0-2.3,0-3.5-0.2c-0.2,0-0.2,0-0.2,0.2c-0.2,0.8-0.4,1.6-0.6,2.3c0,0.2,0,0.2,0.2,0.2c1.2,0.2,2.7,0.4,4.1,0.4
		c1.2,0,2.3-0.4,3.5-0.6c0.6-0.2,1.2-0.6,1.9-0.8c0.4-0.2,0.6-0.4,1.2-0.6c0.8-0.6,1.9-1.2,2.5-2.1c0.4-0.4,0.6-0.8,1-1.2
		c0,0,0.4-0.6,0.6-1.2V340l0,0c0.4-0.6,0.6-1.2,1-2.1c0-0.2,0.2-0.6,0.2-0.8c0-0.2,0-0.4-0.2-0.4c-0.8-0.2-1.6-0.4-2.3-0.6
		c-0.2,0-0.4,0-0.4,0.2c-0.2,0.8-0.6,1.9-1,2.5c0,0,0,0-0.2,0.4s-0.6,0.8-0.8,1.2c0,0,0,0.2-0.2,0.2c-0.8,0.8-1.6,1.4-2.5,2.1
		C181.3,343.2,180.1,343.6,178.7,343.8L178.7,343.8z"/>
	<path id="path15_00000099625119834235362400000010935889042601667720_" inkscape:connector-curvature="0" class="st4" d="
		M195.8,338c-0.8-0.2-1.6-0.4-2.5-0.6c-0.2,0-0.2,0-0.2,0.2s-0.2,0.6-0.2,0.8c-0.2,0.6-0.4,1.2-0.6,1.9c-0.2,0.4-0.2,0.6-0.6,1.2
		c0,0.2-0.2,0.4-0.4,0.6c-0.6,0.8-1,1.4-1.6,2.3c-0.6,0.6-1,1-1.6,1.6s-1.4,1-2.1,1.4c-0.6,0.4-1.2,0.8-2.1,1l0,0
		c-0.6,0.2-1.2,0.4-1.9,0.6c-0.8,0.2-1.6,0.4-2.3,0.4c-0.2,0-0.4,0-0.6,0c-1.2,0-2.7,0-4.1-0.2c-0.4,0-0.4,0-1-0.2
		c-0.4,0-0.4,0-0.4,0.2c0,0.4-0.2,0.8-0.2,1.2c-0.2,0.6-0.2,0.6-0.4,1.2v0.2c0,0,0,0,0.2,0c0.8,0.2,1.6,0.4,2.5,0.4
		c0.6,0,1.2,0,1.6,0c0.6,0,1.2,0,1.9,0c1.2,0,2.3-0.2,3.5-0.6c1.4-0.4,2.9-0.8,4.1-1.6c0.2,0,0.2-0.2,0.4-0.2c0.4-0.2,0.8-0.4,1-0.6
		c0.4-0.2,0.8-0.6,1.2-0.8c1-0.6,1.9-1.4,2.5-2.3c1-1.2,2.1-2.5,2.7-3.7l0,0c0.4-0.6,0.6-1.2,0.8-1.9c0.2-0.6,0.4-1.2,0.6-2.1
		C196,338.2,196,338,195.8,338L195.8,338z"/>
</g>
<g class="st6">
	<path class="st7" d="M258.4,283.3c-21.2,0-38-16.8-38-38c0-6,1.6-11.4,3.8-16.8l-6-6c-1.1,0.5-2.2,1.1-3.3,1.1H204
		c-3.3,0-5.4-2.2-5.4-5.4c0-3.3,2.2-5.4,5.4-5.4h4.3l-15.2-15.2c-6.5,2.2-10.9,8.1-10.9,15.2v76c0,9.2,7.1,16.3,16.3,16.3h102.1
		l-25.5-25.5C269.8,281.7,264.4,283.3,258.4,283.3z"/>
	<path class="st7" d="M334.4,288.7v-76c0-9.2-7.1-16.3-16.3-16.3h-18.5l-6.5-12.5c-2.7-5.4-8.1-9.2-14.7-9.2h-40.7
		c-6,0-11.9,3.3-14.7,9.2l-4.3,8.7l-27.2-27.2c-2.2-2.2-5.4-2.2-7.6,0c-2.2,2.2-2.2,5.4,0,7.6l141.2,141.2c1.1,1.1,2.7,1.6,3.8,1.6
		c1.1,0,2.7-0.5,3.8-1.6c2.2-2.2,2.2-5.4,0-7.6l-4.9-4.9C331.7,298.5,334.4,294.2,334.4,288.7z M238.8,212.7
		c5.4-3.3,12.5-5.4,19.6-5.4c21.2,0,38,16.8,38,38c0,7.1-2.2,13.6-5.4,19.6L238.8,212.7z"/>
</g>
<g id="Layer_3">
	<path class="st1" d="M188.2,194.8c0,6.9,5.6,12.4,12.4,12.4s12.4-5.6,12.4-12.4s-5.6-12.4-12.4-12.4S188.2,187.9,188.2,194.8z"/>
	<path class="st1" d="M170.1,294c-2.6,0-5-1.3-6.6-3.6c-2.5-3.8-1.5-8.9,2.1-11.5l69.2-49.1c6.4-4.5,14.2-3.9,19.4,1.4l18.6,19.5
		l0.1-0.1l65.2-52c3.4-2.8,8.4-2.1,11,1.6c2.7,3.6,2,8.8-1.5,11.6l-65.2,52c-6.4,5.1-14.8,4.8-20.1-0.8l-18.6-19.5c0,0,0,0-0.1,0
		l-69.1,49.1C173.2,293.5,171.7,294,170.1,294L170.1,294z"/>
	<path class="st2" d="M328,301.7H180.7c-14.1,0-25.6-10.3-25.6-23V175.8c0-12.7,11.5-23,25.6-23H328c14.1,0,25.6,10.3,25.6,23v102.9
		C353.6,291.4,342.1,301.7,328,301.7L328,301.7z M180.7,167.7c-5,0-9,3.6-9,8.1v102.9c0,4.5,4.1,8.1,9,8.1H328c5,0,9-3.6,9-8.1
		V175.8c0-4.5-4.1-8.1-9-8.1H180.7L180.7,167.7z"/>
</g>
<g id="Layer_2_00000116216428103768838900000015175279740257070759_">
	<circle class="st8" cx="332.7" cy="286.8" r="21.3"/>
	<path class="st9" d="M332.7,311.7c13.7,0,24.9-11.1,24.9-24.9s-11.1-24.9-24.9-24.9s-24.9,11.1-24.9,24.9S319,311.7,332.7,311.7z
		 M329,299.2c0-2.2,1.6-3.7,3.7-3.7s3.8,1.6,3.8,3.7c0,2.2-1.6,3.8-3.8,3.8C330.6,303,329,301.4,329,299.2z M330.6,271.9
		c-0.7,0-1.2,0.6-1.2,1.2c0,0,0,0,0,0.1l0.8,17.4c0,0.7,0.6,1.2,1.2,1.2h2.6c0.7,0,1.2-0.5,1.2-1.2l0.8-17.4c0-0.7-0.5-1.3-1.2-1.3
		c0,0,0,0-0.1,0L330.6,271.9L330.6,271.9z"/>
</g>
</svg>
