<?xml version="1.0" encoding="UTF-8" standalone="no"?>
<!-- Generator: Adobe Illustrator 16.0.0, SVG Export Plug-In . SVG Version: 6.00 Build 0)  -->

<svg
   xmlns:dc="http://purl.org/dc/elements/1.1/"
   xmlns:cc="http://creativecommons.org/ns#"
   xmlns:rdf="http://www.w3.org/1999/02/22-rdf-syntax-ns#"
   xmlns:svg="http://www.w3.org/2000/svg"
   xmlns="http://www.w3.org/2000/svg"
   xmlns:sodipodi="http://sodipodi.sourceforge.net/DTD/sodipodi-0.dtd"
   xmlns:inkscape="http://www.inkscape.org/namespaces/inkscape"
   version="1.1"
   id="Layer_1"
   x="0px"
   y="0px"
   width="500"
   height="500"
   viewBox="0 0 500 500"
   enable-background="new 0 0 4000 4000"
   xml:space="preserve"
   inkscape:version="0.48.4 r9939"
   sodipodi:docname="كاتب نشيط.svg"><metadata
   id="metadata21"><rdf:RDF><cc:Work
       rdf:about=""><dc:format>image/svg+xml</dc:format><dc:type
         rdf:resource="http://purl.org/dc/dcmitype/StillImage" /></cc:Work></rdf:RDF></metadata><defs
   id="defs19" /><sodipodi:namedview
   pagecolor="#ffffff"
   bordercolor="#666666"
   borderopacity="1"
   objecttolerance="10"
   gridtolerance="10"
   guidetolerance="10"
   inkscape:pageopacity="0"
   inkscape:pageshadow="2"
   inkscape:window-width="1280"
   inkscape:window-height="706"
   id="namedview17"
   showgrid="false"
   inkscape:zoom="0.74642639"
   inkscape:cx="204.74908"
   inkscape:cy="271.14804"
   inkscape:window-x="-8"
   inkscape:window-y="-8"
   inkscape:window-maximized="1"
   inkscape:current-layer="Layer_1" />
<path
   d="m 470.23262,149.50046 c -1.84021,-15.4006 -8.01408,-28.50848 -21.31646,-38.41668 C 410.64768,82.575287 369.52633,58.798266 327.83344,35.868984 310.49968,26.335035 292.59572,18.04461 274.56215,9.9074678 266.12219,6.1001205 257.95629,4.2581755 249.77862,4.2833217 241.60095,4.2581701 233.43425,6.1001205 224.99576,9.9074678 206.96138,18.04461 189.05809,26.335035 171.72367,35.868984 130.02998,58.798266 88.90957,82.575287 50.64161,111.08378 37.337769,120.9921 31.163894,134.1 29.32435,149.50046 c -7.988406,66.9796 -9.234199,133.98076 -0.652054,201.09064 2.182216,17.05381 8.927773,30.28837 22.624184,40.40522 53.71857,39.68321 111.73148,71.94889 172.01356,100.42782 9.01832,4.25823 17.7706,6.12666 26.46845,5.98514 8.69771,0.14152 17.45012,-1.72691 26.46911,-5.98514 60.28208,-28.47893 118.29513,-60.74461 172.01276,-100.42782 13.69588,-10.11685 20.4413,-23.35141 22.62499,-40.40522 8.58161,-67.10988 7.33501,-134.11104 -0.65273,-201.09064 z"
   id="path3"
   inkscape:connector-curvature="0"
   style="fill:#f3ab00;opacity:0.51769912" />


<path
   d="m 461.24306,150.57465 c -1.70177,-14.24468 -7.33769,-24.4858 -17.73449,-32.23117 C 405.0749,89.713552 363.10353,65.597454 323.47061,43.801347 305.78761,34.075859 287.0319,25.465625 270.84028,18.159505 263.64384,14.91353 256.80988,13.336152 249.80658,13.336152 V 488.35953 l 0.88706,0.006 c 7.28633,0 14.38098,-1.67675 21.68776,-5.12764 66.78447,-31.54969 122.55617,-64.10427 170.50119,-99.5231 11.17914,-8.25725 17.04632,-18.82794 19.02389,-34.27121 8.02573,-62.77379 7.80904,-127.82612 -0.66342,-198.86882 z"
   id="path9"
   inkscape:connector-curvature="0"
   style="fill:#f5b41a" />



<path
   inkscape:connector-curvature="0"
   style="fill:#ffffff"
   d="M 391.69419,101.97201 118.82334,195.86845 201.94358,212.449 391.69419,101.97201 z"
   id="path5" /><path
   inkscape:connector-curvature="0"
   style="fill:#ffd95e"
   d="M 118.8215,195.86845 201.93991,212.449 257.10497,180.33056 118.8215,195.86845 z"
   id="path7" /><path
   inkscape:connector-curvature="0"
   style="fill:#ecf0f1"
   d="M 201.94174,212.44716 214.81702,310.42518 391.69235,101.97201 201.94174,212.44716 z"
   id="path9-7" /><path
   inkscape:connector-curvature="0"
   style="fill:#edb937"
   d="m 201.94174,212.44716 12.87711,97.97802 79.05427,-93.16677 -13.64533,-22.23619 -27.03827,22.57028 3.91821,-37.26194 h -0.002 L 201.94066,212.449 h 0.002 v -0.002 z"
   id="path11" /><path
   inkscape:connector-curvature="0"
   style="fill:#fece0e"
   d="M 391.69419,101.97201 231.79039,235.45708 214.81793,310.4261 391.69419,101.97201 z"
   id="path13" /><path
   inkscape:connector-curvature="0"
   style="fill:#fad24d"
   d="m 253.18861,217.59158 -21.40006,17.86458 -16.97245,74.96902 79.05426,-93.16677 -13.64533,-22.23619 -27.03826,22.57028 v -0.002 l 0.002,9.2e-4 z"
   id="path15" /><path
   inkscape:connector-curvature="0"
   style="fill:#ffffff"
   d="m 337.29826,288.02745 54.39409,-186.05544 -159.9038,133.48507 105.50971,52.57037 z"
   id="path17" /><path
   inkscape:connector-curvature="0"
   style="fill:#ffd95e"
   d="m 253.06929,217.59158 -21.40005,17.86458 105.51154,52.57129 -57.07323,-93.00431 -27.03551,22.57028 v -0.002 l -0.003,0 0,0 z"
   id="path19" /><path
   inkscape:connector-curvature="0"
   style="fill:#ecf0f1"
   d="M 62.488964,338.02424 176.43533,230.3815 l 4.68276,6.42479 -118.629126,101.21795 z m 127.166746,75.3389 103.7796,-115.03767 6.94061,3.20964 -110.72021,111.82803 z m -83.13033,-11.28744 91.22648,-88.12056 4.96545,4.37712 -96.19469,83.74252 h 0.002 v 9.2e-4 z"
   id="path21" /></svg>