<?xml version="1.0" encoding="utf-8"?>
<!-- Generator: Adobe Illustrator 26.0.1, SVG Export Plug-In . SVG Version: 6.00 Build 0)  -->
<svg version="1.1"
	 id="Layer_1" xmlns:cc="http://creativecommons.org/ns#" xmlns:dc="http://purl.org/dc/elements/1.1/" xmlns:inkscape="http://www.inkscape.org/namespaces/inkscape" xmlns:osb="http://www.openswatchbook.org/uri/2009/osb" xmlns:rdf="http://www.w3.org/1999/02/22-rdf-syntax-ns#" xmlns:sodipodi="http://sodipodi.sourceforge.net/DTD/sodipodi-0.dtd" xmlns:svg="http://www.w3.org/2000/svg"
	 xmlns="http://www.w3.org/2000/svg" xmlns:xlink="http://www.w3.org/1999/xlink" x="0px" y="0px" viewBox="0 0 500 500"
	 style="enable-background:new 0 0 500 500;" xml:space="preserve">
<style type="text/css">
	.st0{fill:none;stroke:#1D1D1B;stroke-width:14;}
	.st1{display:none;fill:#F3AB00;}
	.st2{display:none;}
	.st3{display:none;fill-rule:evenodd;clip-rule:evenodd;fill:#F3AB00;stroke:#1D1D1B;stroke-width:6;stroke-miterlimit:10;}
	.st4{display:none;fill-rule:evenodd;clip-rule:evenodd;stroke:#1D1D1B;stroke-width:6;stroke-miterlimit:10;}
	.st5{fill:#F3AB00;stroke:#1D1D1B;stroke-miterlimit:10;}
</style>
<sodipodi:namedview  bordercolor="#666666" borderopacity="1" gridtolerance="10" guidetolerance="10" id="namedview17" inkscape:current-layer="Layer_1" inkscape:cx="378.19937" inkscape:cy="207.01127" inkscape:pageopacity="0" inkscape:pageshadow="2" inkscape:window-height="838" inkscape:window-maximized="1" inkscape:window-width="1600" inkscape:window-x="-8" inkscape:window-y="-8" inkscape:zoom="0.71" objecttolerance="10" pagecolor="#ffffff" showgrid="false">
	</sodipodi:namedview>
<path id="path3" inkscape:connector-curvature="0" class="st0" d="M464.6,152.4c-1.8-14.9-7.8-27.6-20.7-37.1
	c-37.2-27.6-77.1-50.6-117.6-72.7c-16.8-9.2-34.2-17.2-51.7-25.1c-8.2-3.7-16.1-5.5-24.1-5.4c-7.9,0-15.9,1.8-24.1,5.4
	c-17.5,7.9-34.9,15.9-51.7,25.1c-40.5,22.2-80.4,45.2-117.6,72.7c-12.9,9.6-18.9,22.3-20.7,37.1c-7.8,64.8-9,129.5-0.6,194.4
	c2.1,16.5,8.7,29.3,22,39.1c52.2,38.4,108.5,69.6,167.1,97.1c8.8,4.1,17.3,5.9,25.7,5.8c8.4,0.1,16.9-1.7,25.7-5.8
	c58.6-27.5,114.9-58.7,167.1-97.1c13.3-9.8,19.9-22.6,22-39.1C473.6,282,472.4,217.2,464.6,152.4z"/>
<path class="st1" d="M215.7,262.9c-36.3,0-65.8-32.5-65.8-72.4s29.5-72.4,65.8-72.4s65.8,32.5,65.8,72.4S251.9,262.9,215.7,262.9
	L215.7,262.9z M215.7,143.3c-23.7,0-42.9,21.2-42.9,47.2s19.3,47.2,42.9,47.2s42.9-21.2,42.9-47.2S239.3,143.3,215.7,143.3
	L215.7,143.3z"/>
<path class="st1" d="M270,376.3H161.4c-20.6,0-37.2-18.4-37.2-41v-27.6c0-38.6,28.5-69.9,63.6-69.9h56c35,0,63.6,31.4,63.6,69.9
	v27.6C307.2,357.9,290.5,376.3,270,376.3L270,376.3z M187.6,262.9c-22.4,0-40.6,20.1-40.6,44.7v27.6c0,8.7,6.4,15.8,14.4,15.8H270
	c7.9,0,14.4-7.1,14.4-15.8v-27.6c0-24.7-18.2-44.7-40.7-44.7H187.6z"/>
<path class="st2" d="M338.6,363.7c-6.3,0-11.5-5.6-11.5-12.6s5.1-12.6,11.5-12.6c7.9,0,14.4-7.1,14.4-15.8V295
	c0-24.7-18.2-44.7-40.7-44.7h-3.8c-5.3,0-9.9-4-11.1-9.7s1.3-11.5,6-14.2c14.7-8.1,23.9-24.2,23.9-42.2c0-26-19.3-47.2-42.9-47.2
	c-6.3,0-11.5-5.6-11.5-12.6c0-7,5.1-12.6,11.5-12.6c36.3,0,65.8,32.5,65.8,72.4c0,17.1-5.3,33-14.7,45.7
	c23.7,10.2,40.5,35.6,40.5,65.2v27.6C375.9,345.3,359.2,363.7,338.6,363.7L338.6,363.7z"/>
<path class="st3" d="M149.5,160h197c9.7,0,17.6,7.9,17.6,17.6v139.1c-0.1,9.7-7.9,17.6-17.6,17.6h-56.2l-30.5,36
	c-5.3,6.7-15,7.8-21.7,2.5c-0.9-0.7-1.8-1.6-2.5-2.5l-30-36h-56.1c-9.7,0-17.6-7.9-17.6-17.6V177.6C131.9,167.9,139.8,160,149.5,160
	z"/>
<path class="st4" d="M219.7,254.3h56.6c11.5,0,20.8,9.3,20.8,20.8v8.1c0,1.4-1.1,2.5-2.6,2.5h-93c-1.4,0-2.5-1.1-2.6-2.5V275
	C199,263.5,208.3,254.2,219.7,254.3L219.7,254.3z M248.1,193.2c14.8,0,26.8,12.1,26.8,26.9c0,14.8-12.1,26.8-26.9,26.8
	c-14.8,0-26.8-12.1-26.8-26.9C221.1,205.2,233.2,193.2,248.1,193.2L248.1,193.2z"/>
<path d="M167.6,348.4h-27c-12.5,0-22.8-10.2-22.8-22.8V205.3c0-12.6,10.2-22.8,22.8-22.8h32.5c3,0,5.9,1.2,8,3.4
	c2.1,2.2,3.2,5.1,3.1,8.1l-5.5,143.8C178.4,343.7,173.5,348.4,167.6,348.4L167.6,348.4z M140.6,204.6c-0.4,0-0.7,0.3-0.7,0.7v120.3
	c0,0.4,0.3,0.7,0.7,0.7h16.3l4.7-121.7H140.6z"/>
<path class="st5" d="M327.9,348.4H189.3l6.4-165.9h30.5l18.7-52.3c5.4-15,19.7-25.1,35.6-25.1c11,0,21.4,4.8,28.6,13.1
	c7.2,8.3,10.4,19.3,8.9,30.2l-4.9,34.2h37c18.3,0,33.2,14.9,33.2,33.2l-0.3,2.4l-21.9,98.4C360.4,334.2,345.8,348.4,327.9,348.4
	L327.9,348.4z M212.2,326.3h115.7c6.1,0,11.1-5,11.1-11.1l0.3-2.4l21.8-98c-0.5-5.7-5.3-10.1-11.1-10.1h-62.5l8.5-59.5
	c0.6-4.6-0.6-9-3.7-12.5c-3-3.5-7.3-5.4-11.9-5.4c-6.6,0-12.6,4.2-14.8,10.4l-23.9,67h-24.8L212.2,326.3z"/>
</svg>
