<?xml version="1.0" encoding="utf-8"?>
<!-- Generator: Adobe Illustrator 26.0.1, SVG Export Plug-In . SVG Version: 6.00 Build 0)  -->
<svg version="1.1" id="Capa_1" xmlns="http://www.w3.org/2000/svg" xmlns:xlink="http://www.w3.org/1999/xlink" x="0px" y="0px"
	 viewBox="0 0 800 800" style="enable-background:new 0 0 800 800;" xml:space="preserve">
<style type="text/css">
	.st0{fill:#F3AB00;}
</style>
<g>
	<path class="st0" d="M796.1,426.5l-47.2-74.4l28-83.5c3.8-11.4-0.9-23.9-11.3-29.9l-76.3-44l-14-86.9c-2-11.9-12-20.7-23.9-21.2
		l-88-3.4l-52.8-70.5c-7.2-9.6-20.2-12.8-31-7.6L400,43L320.5,5.1c-10.8-5.1-23.8-1.9-31,7.7l-52.8,70.5l-88,3.4
		c-12,0.5-22,9.3-23.9,21.2l-14,86.9l-76.3,44c-10.4,6-15.1,18.5-11.4,29.9l28,83.5L3.9,426.5c-6.4,10.2-4.8,23.4,3.9,31.7
		l63.5,60.9l-7.1,87.7c-1,12,6.6,23,18.1,26.3l84.6,24.4l34.4,81c4.7,11,16.5,17.4,28.3,14.9l86.3-17.7l68.1,55.8
		c4.6,3.8,10.3,5.7,16,5.7s11.3-2,16-5.7l68.1-55.8l86.3,17.7c11.7,2.5,23.6-3.8,28.3-14.9l34.4-81l84.6-24.4
		c11.5-3.3,19.1-14.3,18.1-26.3l-7.1-87.7l63.5-60.9C800.9,449.9,802.5,436.7,796.1,426.5z M582.4,305.1L405.8,569.8
		c-6.7,9.9-17,16.5-27.3,16.5c-10.2,0-21.7-5.7-29-13.1L219.8,441.4c-8.8-9-8.8-23.6,0-32.6l32-32.6c8.8-8.9,23.2-8.9,32,0
		l84.4,85.7l139.2-208.5c7-10.5,21.2-13.2,31.5-6.1l37.5,25.8C586.7,280.3,589.4,294.6,582.4,305.1z"/>
</g>
</svg>
