<?xml version="1.0" encoding="utf-8"?>
<!-- Generator: Adobe Illustrator 26.0.1, SVG Export Plug-In . SVG Version: 6.00 Build 0)  -->
<svg version="1.1"
	 id="Layer_1" xmlns:cc="http://creativecommons.org/ns#" xmlns:dc="http://purl.org/dc/elements/1.1/" xmlns:inkscape="http://www.inkscape.org/namespaces/inkscape" xmlns:rdf="http://www.w3.org/1999/02/22-rdf-syntax-ns#" xmlns:sodipodi="http://sodipodi.sourceforge.net/DTD/sodipodi-0.dtd" xmlns:svg="http://www.w3.org/2000/svg"
	 xmlns="http://www.w3.org/2000/svg" xmlns:xlink="http://www.w3.org/1999/xlink" x="0px" y="0px" viewBox="0 0 500 500"
	 style="enable-background:new 0 0 500 500;" xml:space="preserve">
<style type="text/css">
	.st0{opacity:0.8;fill:#FFFFFF;enable-background:new    ;}
	.st1{display:none;}
	.st2{display:inline;fill:#F3AB00;}
	.st3{display:inline;fill:#1D1D1B;}
	.st4{opacity:0.5;fill:#F3AB00;enable-background:new    ;}
</style>
<sodipodi:namedview  bordercolor="#666666" borderopacity="1" gridtolerance="10" guidetolerance="10" id="namedview17" inkscape:current-layer="Layer_1" inkscape:cx="36.475141" inkscape:cy="271.14804" inkscape:pageopacity="0" inkscape:pageshadow="2" inkscape:window-height="706" inkscape:window-maximized="1" inkscape:window-width="1280" inkscape:window-x="-8" inkscape:window-y="-8" inkscape:zoom="0.74642639" objecttolerance="10" pagecolor="#ffffff" showgrid="false">
	</sodipodi:namedview>
<path id="path3" inkscape:connector-curvature="0" class="st0" d="M470.2,149.5c-1.8-15.4-8-28.5-21.3-38.4
	c-38.3-28.5-79.4-52.3-121.1-75.2c-17.3-9.5-35.2-17.8-53.3-26c-8.4-3.8-16.6-5.6-24.8-5.6s-16.3,1.8-24.8,5.6
	c-18,8.1-35.9,16.4-53.3,26c-41.6,22.9-82.7,46.7-121,75.2c-13.3,9.9-19.5,23-21.3,38.4c-8,67-9.2,134-0.7,201.1
	c2.2,17.1,8.9,30.3,22.6,40.4c53.7,39.7,111.7,71.9,172,100.4c9,4.3,17.8,6.1,26.5,6c8.7,0.1,17.5-1.7,26.5-6
	c60.3-28.5,118.3-60.7,172-100.4c13.7-10.1,20.4-23.4,22.6-40.4C479.5,283.5,478.2,216.5,470.2,149.5z"/>
<g class="st1">
	<path class="st2" d="M150.7,386c-11.2,0-20.4-9.2-20.4-20.4V218c0-11.2,9.2-20.4,20.4-20.4h22.6v-28.7c0-41.8,34-75.8,75.8-75.8
		s75.8,34,75.8,75.8v28.7h22.6c11.2,0,20.4,9.2,20.4,20.4v147.6c0,11.2-9.2,20.4-20.4,20.4H150.7z M150.7,213.9
		c-2.3,0-4.1,1.9-4.2,4.2l0,147.5c0,2.3,1.9,4.2,4.2,4.2h196.7c2.3,0,4.2-1.9,4.2-4.2V218c0-2.3-1.9-4.2-4.2-4.2H150.7z
		 M308.5,197.6v-28.7c0-33.3-26.1-59.5-59.5-59.5c-33.3,0-59.5,26.1-59.5,59.5v28.7H308.5z M249.1,324.5c-7.9,0-14.3-6.4-14.3-14.3
		v-16.4c-3.9-3.6-6.2-8.9-6.2-14.3c0-11.6,8.8-20.4,20.4-20.4c11.6,0,20.5,8.8,20.6,20.4c0,5.5-2.3,10.8-6.2,14.4v16.4
		C263.4,318.1,257,324.5,249.1,324.5z"/>
	<path class="st3" d="M249,95.1c40.8,0,73.8,32.9,73.8,73.8v30.7h24.6c10,0,18.4,8.3,18.4,18.4v147.6c0,10-8.3,18.4-18.4,18.4H150.7
		c-10,0-18.4-8.3-18.4-18.4V218c0-10,8.3-18.4,18.4-18.4h24.6v-30.7C175.2,128.1,208.2,95.1,249,95.1 M187.5,199.6h122.9v-30.7
		c0-34.2-27.2-61.5-61.5-61.5s-61.5,27.2-61.5,61.5V199.6 M150.7,371.8h196.7c3.4,0,6.2-2.8,6.2-6.2V218c0-3.4-2.8-6.2-6.2-6.2
		H150.7c-3.4,0-6.1,2.8-6.2,6.2v147.6C144.5,369,147.2,371.8,150.7,371.8 M249,261.1c10.5,0,18.5,8,18.6,18.4
		c0,5.5-2.5,10.4-6.2,13.4v17.3c0,6.8-5.5,12.3-12.3,12.3c-6.8,0-12.3-5.5-12.3-12.3v-17.3c-3.7-3-6.2-7.9-6.2-13.4
		C230.6,269.1,238.5,261.1,249,261.1 M249,91.1c-20.8,0-40.3,8.1-55,22.7c-14.7,14.7-22.8,34.2-22.8,55v26.7h-20.6
		c-12.4,0-22.4,10-22.4,22.4v147.6c0,12.4,10,22.4,22.4,22.4h196.7c12.4,0,22.4-10,22.4-22.4V218c0-12.4-10-22.4-22.4-22.4h-20.6
		v-26.7c0-20.8-8.1-40.4-22.7-55C289.4,99.2,269.8,91.1,249,91.1L249,91.1z M191.5,195.6v-26.7c0-32.2,25.2-57.5,57.5-57.5
		s57.5,25.2,57.5,57.5v26.7H191.5L191.5,195.6z M148.5,218.1c0.1-1.3,1-2.2,2.2-2.2h196.7c1.2,0,2.2,1,2.2,2.2v147.6
		c0,1.2-1,2.2-2.2,2.2H150.7c-1.2,0-2.2-1-2.2-2.2V218.1L148.5,218.1z M249,257.1c-12.6,0-22.4,9.8-22.4,22.4
		c0,5.7,2.3,11.3,6.2,15.2v15.5c0,9,7.3,16.3,16.3,16.3s16.3-7.3,16.3-16.3v-15.5c3.9-3.9,6.2-9.5,6.2-15.2
		C271.5,266.9,261.6,257.1,249,257.1L249,257.1z"/>
</g>
<path class="st4" d="M113.4,291.6c0-38.1,0-57.1,11.8-68.9c11.8-11.8,30.9-11.8,68.9-11.8h107.7c38.1,0,57.1,0,68.9,11.8
	c11.8,11.8,11.8,30.9,11.8,68.9s0,57.1-11.8,68.9c-11.8,11.8-30.9,11.8-68.9,11.8H194.1c-38.1,0-57.1,0-68.9-11.8
	S113.4,329.6,113.4,291.6z"/>
<path d="M248,318.5c14.9,0,26.9-12.1,26.9-26.9c0-14.9-12.1-26.9-26.9-26.9S221,276.7,221,291.6C221,306.4,233.1,318.5,248,318.5z"
	/>
<path d="M177.3,183.9c0-39,31.6-70.7,70.7-70.7c39,0,70.7,31.6,70.7,70.7v27c7.6,0.1,14.3,0.2,20.2,0.7v-27.7
	c0-50.2-40.7-90.9-90.9-90.9c-50.2,0-90.9,40.7-90.9,90.9v27.7c5.9-0.4,12.6-0.6,20.2-0.7V183.9z"/>
</svg>
