<?xml version="1.0" encoding="utf-8"?>
<!-- Generator: Adobe Illustrator 26.0.1, SVG Export Plug-In . SVG Version: 6.00 Build 0)  -->
<svg version="1.1"
	 id="Layer_1" xmlns:cc="http://creativecommons.org/ns#" xmlns:dc="http://purl.org/dc/elements/1.1/" xmlns:inkscape="http://www.inkscape.org/namespaces/inkscape" xmlns:osb="http://www.openswatchbook.org/uri/2009/osb" xmlns:rdf="http://www.w3.org/1999/02/22-rdf-syntax-ns#" xmlns:sodipodi="http://sodipodi.sourceforge.net/DTD/sodipodi-0.dtd" xmlns:svg="http://www.w3.org/2000/svg"
	 xmlns="http://www.w3.org/2000/svg" xmlns:xlink="http://www.w3.org/1999/xlink" x="0px" y="0px" viewBox="0 0 500 500"
	 style="enable-background:new 0 0 500 500;" xml:space="preserve">
<style type="text/css">
	.st0{fill:none;stroke:#1D1D1B;stroke-width:14;}
	.st1{fill:#F3AB00;}
</style>
<sodipodi:namedview  bordercolor="#666666" borderopacity="1" gridtolerance="10" guidetolerance="10" id="namedview17" inkscape:current-layer="Layer_1" inkscape:cx="378.19937" inkscape:cy="207.01127" inkscape:pageopacity="0" inkscape:pageshadow="2" inkscape:window-height="838" inkscape:window-maximized="1" inkscape:window-width="1600" inkscape:window-x="-8" inkscape:window-y="-8" inkscape:zoom="0.71" objecttolerance="10" pagecolor="#ffffff" showgrid="false">
	</sodipodi:namedview>
<path id="path3" inkscape:connector-curvature="0" class="st0" d="M464.6,152.4c-1.8-14.9-7.8-27.6-20.7-37.1
	c-37.2-27.6-77.1-50.6-117.6-72.7c-16.8-9.2-34.2-17.2-51.7-25.1c-8.2-3.7-16.1-5.5-24.1-5.4c-7.9,0-15.9,1.8-24.1,5.4
	c-17.5,7.9-34.9,15.9-51.7,25.1c-40.5,22.2-80.4,45.2-117.6,72.7c-12.9,9.6-18.9,22.3-20.7,37.1c-7.8,64.8-9,129.5-0.6,194.4
	c2.1,16.5,8.7,29.3,22,39.1c52.2,38.4,108.5,69.6,167.1,97.1c8.8,4.1,17.3,5.9,25.7,5.8c8.4,0.1,16.9-1.7,25.7-5.8
	c58.6-27.5,114.9-58.7,167.1-97.1c13.3-9.8,19.9-22.6,22-39.1C473.6,282,472.4,217.2,464.6,152.4z"/>
<path id="secondary" class="st1" d="M376,328.7c-1.4,4-4.6,7.1-8.6,8.3l-35.9,10.6l-22.4,30.1c-2.5,3.4-6.4,5.4-10.6,5.4l0,0
	c-4.3-0.1-8.3-2.2-10.7-5.7L249.7,323c-2.8-3.9-3.3-8.9-1.3-13.2c1.7-4.2,5.5-7.2,9.9-7.9c23.6-4.1,44-18.7,55.5-39.7
	c2.2-4,6.3-6.5,10.9-6.8c4.6-0.2,8.9,1.9,11.5,5.7l38.3,55.9C376.8,320.4,377.4,324.7,376,328.7z M230.3,302.2
	c-23.6-4.1-44-18.7-55.5-39.7c-3.6-6.4-11.7-8.6-18-5c-1.7,1-3.2,2.3-4.3,3.9l-38.1,55.5c-4.2,6-2.7,14.3,3.3,18.4
	c1.2,0.8,2.5,1.4,3.8,1.8l35.8,10.6l22.4,30.1c2.5,3.4,6.4,5.4,10.6,5.4l0,0c4.3-0.1,8.3-2.2,10.7-5.7l38.1-54.4
	c2.8-3.9,3.3-8.9,1.3-13.2c-1.7-3.8-5.2-6.6-9.3-7.5L230.3,302.2z"/>
<path id="primary" d="M346.2,200.5c-1.6-2.6-2.9-5.3-4-8.1c-0.8-2.9-1.3-6-1.5-9c-0.1-8.4-2.5-16.6-7-23.7
	c-5.5-6.8-12.7-11.9-20.9-15c-2.8-1.2-5.6-2.5-8.2-4.1c-2.6-1.9-5.1-4.1-7.3-6.5c-5-6.4-11.5-11.3-19.1-14.3c-8-2.2-16.5-2.2-24.5,0
	c-6,1.6-12.3,1.6-18.3,0c-8-2.6-16.6-2.9-24.8-0.8c-8.4,3.3-15.5,8.9-20.7,16.3c-1.8,2.3-3.7,4.4-6,6.2c-2.6,1.6-5.4,3-8.2,4.1
	c-7.9,2.8-14.9,7.7-20.3,14c-4.7,7.4-7.2,16-7.2,24.8c-0.2,2.9-0.6,5.9-1.3,8.7c-1.1,2.7-2.5,5.3-4.1,7.7
	c-4.8,6.9-7.7,14.9-8.3,23.3c0.6,8.6,3.6,16.9,8.7,23.8c1.7,2.4,3.2,5.1,4.4,7.8c0.8,2.9,1.3,6,1.5,9c0.1,8.4,2.5,16.7,7,23.8
	c5.4,6.8,12.5,11.9,20.7,15c2.8,1.1,5.5,2.4,8.1,4c2.4,2,4.5,4.2,6.5,6.6c5.1,6.6,11.9,11.8,19.6,15c8.1,2.1,16.6,1.8,24.5-0.7
	c6.1-1.5,12.5-1.5,18.7,0c4.8,1.4,9.7,2.1,14.7,2.3c3.4,0,6.7-0.6,9.9-1.6c8.3-3.4,15.5-8.9,20.9-16c1.8-2.2,3.8-4.2,5.8-6.1
	c2.4-1.5,5-2.9,7.7-4c7.6-2.6,14.4-7.2,19.7-13.2c4.5-7.2,7-15.6,7.2-24.1c0.1-3,0.6-5.9,1.3-8.7c1.1-2.7,2.4-5.3,4-7.8
	c5-7,8-15.2,8.5-23.8C353.8,216.5,351.1,207.9,346.2,200.5z"/>
<path id="secondary-2" class="st1" d="M260.8,260.6c-2,0-4-0.5-5.8-1.3l-10.6-5.2l-10.6,5.2c-6.6,3.2-14.5,0.5-17.7-6.1
	c-1.3-2.6-1.6-5.5-1.1-8.3l1.7-9.4l-7.7-6.9c-3.7-3.3-5.1-8.5-3.8-13.2c1.5-5,5.8-8.6,11-9.3l11.5-1.5l5-9.3
	c3.5-6.4,11.5-8.8,17.9-5.4c2.3,1.2,4.1,3.1,5.4,5.4l5,9.3l11.5,1.5c5.2,0.7,9.5,4.3,11,9.3c1.3,4.8-0.2,9.9-3.8,13.2l-7.7,6.9
	l1.7,9.4c1,5-0.9,10.2-5,13.2C266.4,259.8,263.6,260.7,260.8,260.6z"/>
</svg>
