<?xml version="1.0" encoding="utf-8"?>
<!-- Generator: Adobe Illustrator 26.0.1, SVG Export Plug-In . SVG Version: 6.00 Build 0)  -->
<svg version="1.1"
	 id="Layer_1" xmlns:cc="http://creativecommons.org/ns#" xmlns:dc="http://purl.org/dc/elements/1.1/" xmlns:inkscape="http://www.inkscape.org/namespaces/inkscape" xmlns:osb="http://www.openswatchbook.org/uri/2009/osb" xmlns:rdf="http://www.w3.org/1999/02/22-rdf-syntax-ns#" xmlns:sodipodi="http://sodipodi.sourceforge.net/DTD/sodipodi-0.dtd" xmlns:svg="http://www.w3.org/2000/svg"
	 xmlns="http://www.w3.org/2000/svg" xmlns:xlink="http://www.w3.org/1999/xlink" x="0px" y="0px" viewBox="0 0 500 500"
	 style="enable-background:new 0 0 500 500;" xml:space="preserve">
<style type="text/css">
	.st0{fill:none;stroke:#1D1D1B;stroke-width:14;}
	.st1{fill:#F3AB00;}
	.st2{fill:none;stroke:#1D1D1B;stroke-width:2;stroke-miterlimit:10;}
</style>
<sodipodi:namedview  bordercolor="#666666" borderopacity="1" gridtolerance="10" guidetolerance="10" id="namedview17" inkscape:current-layer="Layer_1" inkscape:cx="378.19937" inkscape:cy="207.01127" inkscape:pageopacity="0" inkscape:pageshadow="2" inkscape:window-height="838" inkscape:window-maximized="1" inkscape:window-width="1600" inkscape:window-x="-8" inkscape:window-y="-8" inkscape:zoom="0.71" objecttolerance="10" pagecolor="#ffffff" showgrid="false">
	</sodipodi:namedview>
<path id="path3" inkscape:connector-curvature="0" class="st0" d="M464.6,152.4c-1.8-14.9-7.8-27.6-20.7-37.1
	c-37.2-27.6-77.1-50.6-117.6-72.7c-16.8-9.2-34.2-17.2-51.7-25.1c-8.2-3.7-16.1-5.5-24.1-5.4c-7.9,0-15.9,1.8-24.1,5.4
	c-17.5,7.9-34.9,15.9-51.7,25.1c-40.5,22.2-80.4,45.2-117.6,72.7c-12.9,9.6-18.9,22.3-20.7,37.1c-7.8,64.8-9,129.5-0.6,194.4
	c2.1,16.5,8.7,29.3,22,39.1c52.2,38.4,108.5,69.6,167.1,97.1c8.8,4.1,17.3,5.9,25.7,5.8c8.4,0.1,16.9-1.7,25.7-5.8
	c58.6-27.5,114.9-58.7,167.1-97.1c13.3-9.8,19.9-22.6,22-39.1C473.6,282,472.4,217.2,464.6,152.4z"/>
<g>
	<g id="XMLID_00000085219966484566468150000012206231418293935239_">
		<g>
			<path class="st1" d="M347.6,115.7l65.5,244.4l-70.8,19L277,135.3v-0.7L347.6,115.7z M371.7,347.4c8.7-2.3,13.9-11.3,11.6-20.1
				s-11.3-13.9-20.1-11.6c-8.7,2.3-13.9,11.3-11.6,20.1S363,349.7,371.7,347.4z M353.7,216.7L334,143.2l-31.7,8.5l19.7,73.5
				L353.7,216.7z"/>
			<path d="M383.3,327.3c2.3,8.7-2.8,17.7-11.6,20.1s-17.7-2.8-20.1-11.6s2.8-17.7,11.6-20.1C372,313.4,381,318.6,383.3,327.3z"/>
			<rect x="311.6" y="146.1" transform="matrix(0.966 -0.2587 0.2587 0.966 -36.4878 91.1342)" width="32.8" height="76.1"/>
			<path class="st1" d="M277,135.3V374h-73.3V121H277v13.7V135.3z M256.7,220.1V144h-32.8v76.1H256.7z M256.7,334.6
				c0-9.1-7.3-16.4-16.4-16.4s-16.4,7.3-16.4,16.4c0,9.1,7.3,16.4,16.4,16.4S256.7,343.7,256.7,334.6z"/>
			<rect x="223.9" y="144" width="32.8" height="76.1"/>
			<circle cx="240.3" cy="334.6" r="16.4"/>
			<path class="st1" d="M188.1,121V374h-73.3V121H188.1z M167.9,220.1V144h-32.8v76.1H167.9z M167.9,334.6c0-9.1-7.3-16.4-16.4-16.4
				s-16.4,7.3-16.4,16.4c0,9.1,7.3,16.4,16.4,16.4C160.5,351,167.9,343.7,167.9,334.6z"/>
			<rect x="135.1" y="144" width="32.8" height="76.1"/>
			<path d="M151.5,318.2c9.1,0,16.4,7.3,16.4,16.4c0,9.1-7.3,16.4-16.4,16.4c-9.1,0-16.4-7.3-16.4-16.4
				C135.1,325.5,142.5,318.2,151.5,318.2z"/>
		</g>
		<g>
			<rect x="114.9" y="121" class="st2" width="73.3" height="253.1"/>
			<rect x="135.1" y="144" class="st2" width="32.8" height="76.1"/>
			<path class="st2" d="M151.5,351c-9.1,0-16.4-7.3-16.4-16.4c0-9.1,7.3-16.4,16.4-16.4s16.4,7.3,16.4,16.4
				C167.9,343.7,160.5,351,151.5,351z"/>
			<polygon class="st2" points="277,135.3 342.3,379.1 413.1,360.1 347.6,115.7 277,134.6 277,121 203.7,121 203.7,374 277,374 			
				"/>
			<circle class="st2" cx="240.3" cy="334.6" r="16.4"/>
			<rect x="223.9" y="144" class="st2" width="32.8" height="76.1"/>
			
				<rect x="311.6" y="146.1" transform="matrix(0.966 -0.2587 0.2587 0.966 -36.4866 91.1296)" class="st2" width="32.8" height="76.1"/>
			<path class="st2" d="M371.7,347.4c-8.7,2.3-17.7-2.8-20.1-11.6s2.8-17.7,11.6-20.1c8.7-2.3,17.7,2.8,20.1,11.6
				S380.5,345,371.7,347.4z"/>
		</g>
	</g>
</g>
</svg>
