<?xml version="1.0" encoding="utf-8"?>
<!-- Generator: Adobe Illustrator 26.0.1, SVG Export Plug-In . SVG Version: 6.00 Build 0)  -->
<svg version="1.1"
	 id="Layer_1" xmlns:cc="http://creativecommons.org/ns#" xmlns:dc="http://purl.org/dc/elements/1.1/" xmlns:inkscape="http://www.inkscape.org/namespaces/inkscape" xmlns:osb="http://www.openswatchbook.org/uri/2009/osb" xmlns:rdf="http://www.w3.org/1999/02/22-rdf-syntax-ns#" xmlns:sodipodi="http://sodipodi.sourceforge.net/DTD/sodipodi-0.dtd" xmlns:svg="http://www.w3.org/2000/svg"
	 xmlns="http://www.w3.org/2000/svg" xmlns:xlink="http://www.w3.org/1999/xlink" x="0px" y="0px" viewBox="0 0 500 500"
	 style="enable-background:new 0 0 500 500;" xml:space="preserve">
<style type="text/css">
	.st0{fill:none;stroke:#1D1D1B;stroke-width:14;}
	.st1{fill-rule:evenodd;clip-rule:evenodd;fill:#F3AB00;}
</style>
<sodipodi:namedview  bordercolor="#666666" borderopacity="1" gridtolerance="10" guidetolerance="10" id="namedview17" inkscape:current-layer="Layer_1" inkscape:cx="378.19937" inkscape:cy="207.01127" inkscape:pageopacity="0" inkscape:pageshadow="2" inkscape:window-height="838" inkscape:window-maximized="1" inkscape:window-width="1600" inkscape:window-x="-8" inkscape:window-y="-8" inkscape:zoom="0.71" objecttolerance="10" pagecolor="#ffffff" showgrid="false">
	</sodipodi:namedview>
<path id="path3" inkscape:connector-curvature="0" class="st0" d="M464.6,152.4c-1.8-14.9-7.8-27.6-20.7-37.1
	c-37.2-27.6-77.1-50.6-117.6-72.7c-16.8-9.2-34.2-17.2-51.7-25.1c-8.2-3.7-16.1-5.5-24.1-5.4c-7.9,0-15.9,1.8-24.1,5.4
	c-17.5,7.9-34.9,15.9-51.7,25.1c-40.5,22.2-80.4,45.2-117.6,72.7c-12.9,9.6-18.9,22.3-20.7,37.1c-7.8,64.8-9,129.5-0.6,194.4
	c2.1,16.5,8.7,29.3,22,39.1c52.2,38.4,108.5,69.6,167.1,97.1c8.8,4.1,17.3,5.9,25.7,5.8c8.4,0.1,16.9-1.7,25.7-5.8
	c58.6-27.5,114.9-58.7,167.1-97.1c13.3-9.8,19.9-22.6,22-39.1C473.6,282,472.4,217.2,464.6,152.4z"/>
<path class="st1" d="M293.1,282.1c1.6,7.3-4.4,13.7-12,13.7h-48.3c-5.7,0-10.5-3.7-12.5-8.9c-2-5.1-8.9-14.5-14.3-19.4
	c-5-5.5-10.3-10.6-15.5-15.6c-20.4-19.9-39.6-38.7-39.6-71.4c0-56.8,47.8-88.6,98.8-88.6c38.9,0,92.7,18.3,103.2,79.4
	c2.1,12.3-8,22.6-20.2,22.6h-31.1c-11.6,0-20.2-9.6-24.2-20.8c-3.8-10.8-11.6-18.7-27.7-18.7c-29.4,0-29.4,33.3-12.4,55.1
	c6.4,8.2,13.9,15.5,21.4,22.7C273.8,246.6,288.6,260.9,293.1,282.1z M211.7,363.8c0,25,19.7,45.3,44.1,45.3
	c24.3,0,44.1-20.3,44.1-45.3c0-25-19.7-45.3-44.1-45.3C231.4,318.5,211.7,338.7,211.7,363.8z"/>
</svg>
