<?xml version="1.0" encoding="utf-8"?>
<!-- Generator: Adobe Illustrator 26.0.1, SVG Export Plug-In . SVG Version: 6.00 Build 0)  -->
<svg version="1.1"
	 id="Layer_1" xmlns:cc="http://creativecommons.org/ns#" xmlns:dc="http://purl.org/dc/elements/1.1/" xmlns:inkscape="http://www.inkscape.org/namespaces/inkscape" xmlns:osb="http://www.openswatchbook.org/uri/2009/osb" xmlns:rdf="http://www.w3.org/1999/02/22-rdf-syntax-ns#" xmlns:sodipodi="http://sodipodi.sourceforge.net/DTD/sodipodi-0.dtd" xmlns:svg="http://www.w3.org/2000/svg"
	 xmlns="http://www.w3.org/2000/svg" xmlns:xlink="http://www.w3.org/1999/xlink" x="0px" y="0px" viewBox="0 0 500 500"
	 style="enable-background:new 0 0 500 500;" xml:space="preserve">
<style type="text/css">
	.st0{fill:none;stroke:#1D1D1B;stroke-width:14;}
	.st1{fill:#F3AB00;stroke:#1D1D1B;stroke-width:3;stroke-miterlimit:133.3333;}
	.st2{fill-rule:evenodd;clip-rule:evenodd;}
	.st3{display:none;fill:#F3AB00;}
	.st4{display:none;}
</style>
<sodipodi:namedview  bordercolor="#666666" borderopacity="1" gridtolerance="10" guidetolerance="10" id="namedview17" inkscape:current-layer="Layer_1" inkscape:cx="378.19937" inkscape:cy="207.01127" inkscape:pageopacity="0" inkscape:pageshadow="2" inkscape:window-height="838" inkscape:window-maximized="1" inkscape:window-width="1600" inkscape:window-x="-8" inkscape:window-y="-8" inkscape:zoom="0.71" objecttolerance="10" pagecolor="#ffffff" showgrid="false">
	</sodipodi:namedview>
<path id="path3" inkscape:connector-curvature="0" class="st0" d="M464.6,152.4c-1.8-14.9-7.8-27.6-20.7-37.1
	c-37.2-27.6-77.1-50.6-117.6-72.7c-16.8-9.2-34.2-17.2-51.7-25.1c-8.2-3.7-16.1-5.5-24.1-5.4c-7.9,0-15.9,1.8-24.1,5.4
	c-17.5,7.9-34.9,15.9-51.7,25.1c-40.5,22.2-80.4,45.2-117.6,72.7c-12.9,9.6-18.9,22.3-20.7,37.1c-7.8,64.8-9,129.5-0.6,194.4
	c2.1,16.5,8.7,29.3,22,39.1c52.2,38.4,108.5,69.6,167.1,97.1c8.8,4.1,17.3,5.9,25.7,5.8c8.4,0.1,16.9-1.7,25.7-5.8
	c58.6-27.5,114.9-58.7,167.1-97.1c13.3-9.8,19.9-22.6,22-39.1C473.6,282,472.4,217.2,464.6,152.4z"/>
<path class="st1" d="M122.2,223.6c0-51.7,0-77.5,16.1-93.6s41.9-16.1,93.6-16.1h27.4c51.7,0,77.5,0,93.6,16.1s16.1,41.9,16.1,93.6
	v54.8c0,51.7,0,77.5-16.1,93.6s-41.9,16.1-93.6,16.1h-27.4c-51.7,0-77.5,0-93.6-16.1s-16.1-41.9-16.1-93.6
	C122.2,278.4,122.2,223.6,122.2,223.6z"/>
<path d="M307.5,312.7c2.4-1.9,4.6-4,8.9-8.4l54.2-54.2c1.3-1.3,0.7-3.6-1-4.2c-6.4-2.2-14.7-6.4-22.5-14.2s-12-16.1-14.2-22.5
	c-0.6-1.8-2.9-2.4-4.2-1l-54.2,54.2c-4.4,4.4-6.5,6.5-8.4,8.9c-2.2,2.8-4.1,5.9-5.6,9.1c-1.3,2.7-2.3,5.7-4.2,11.5l-2.5,7.5l-4,12
	l-3.7,11.2c-1,2.9-0.2,6,1.9,8.2c2.1,2.1,5.3,2.9,8.2,1.9l11.2-3.7l12-4l7.5-2.5l0,0c5.8-1.9,8.8-2.9,11.5-4.2
	C301.6,316.8,304.7,315,307.5,312.7z"/>
<path d="M387.7,233.1c11.6-11.6,11.6-30.3,0-41.9c-11.6-11.6-30.3-11.6-41.9,0L344,193c-1.7,1.7-2.4,4-2,6.4
	c0.3,1.5,0.8,3.6,1.6,6.2c1.8,5.1,5.2,11.9,11.5,18.2s13.1,9.7,18.2,11.5c2.6,0.9,4.7,1.4,6.2,1.6c2.3,0.4,4.7-0.3,6.4-2
	L387.7,233.1z"/>
<path class="st2" d="M180.5,209.9c0-5.7,4.6-10.3,10.3-10.3h89.1c5.7,0,10.3,4.6,10.3,10.3s-4.6,10.3-10.3,10.3h-89.1
	C185.1,220.2,180.5,215.6,180.5,209.9z M180.5,264.8c0-5.7,4.6-10.3,10.3-10.3h41.1c5.7,0,10.3,4.6,10.3,10.3s-4.6,10.3-10.3,10.3
	h-41.1C185.1,275,180.5,270.4,180.5,264.8z M180.5,319.6c0-5.7,4.6-10.3,10.3-10.3h20.6c5.7,0,10.3,4.6,10.3,10.3
	s-4.6,10.3-10.3,10.3h-20.6C185.1,329.9,180.5,325.3,180.5,319.6z"/>
<path class="st3" d="M338.9,378.9H159.5c-21.6,0-39.2-17.6-39.2-39.2V160.3c0-21.6,17.6-39.2,39.2-39.2h89.7
	c7.1,0,12.9,5.8,12.9,12.9c0,7.1-5.8,12.9-12.9,12.9h-89.7c-7.4,0-13.4,6-13.4,13.4v179.5c0,7.4,6,13.4,13.4,13.4H339
	c7.4,0,13.4-6,13.4-13.4V250c0-7.1,5.8-12.9,12.9-12.9s12.9,5.8,12.9,12.9v89.7C378.1,361.4,360.6,378.9,338.9,378.9L338.9,378.9z"
	/>
<path class="st4" d="M236.1,323.9c-0.5,0-1.1,0-1.6-0.1l-40.6-5.1c-5.9-0.7-10.5-5.3-11.2-11.2l-5.1-40.6c-0.5-4,0.9-7.9,3.7-10.7
	L294.5,143c15.4-15.4,40.6-15.4,56,0l7.9,7.9c7.5,7.5,11.6,17.4,11.6,28s-4.1,20.5-11.6,28L245.2,320.1
	C242.8,322.5,239.5,323.9,236.1,323.9z M207,294.3l24.4,3.1l108.7-108.7c2.6-2.6,4-6.1,4-9.8s-1.5-7.2-4-9.8l-7.9-7.9
	c-5.4-5.4-14.1-5.4-19.5,0L204,269.9L207,294.3z"/>
</svg>
