<?xml version="1.0" encoding="utf-8"?>
<!-- Generator: Adobe Illustrator 26.0.1, SVG Export Plug-In . SVG Version: 6.00 Build 0)  -->
<svg version="1.1"
	 id="Layer_1" xmlns:cc="http://creativecommons.org/ns#" xmlns:dc="http://purl.org/dc/elements/1.1/" xmlns:inkscape="http://www.inkscape.org/namespaces/inkscape" xmlns:osb="http://www.openswatchbook.org/uri/2009/osb" xmlns:rdf="http://www.w3.org/1999/02/22-rdf-syntax-ns#" xmlns:sodipodi="http://sodipodi.sourceforge.net/DTD/sodipodi-0.dtd" xmlns:svg="http://www.w3.org/2000/svg"
	 xmlns="http://www.w3.org/2000/svg" xmlns:xlink="http://www.w3.org/1999/xlink" x="0px" y="0px" viewBox="0 0 500 500"
	 style="enable-background:new 0 0 500 500;" xml:space="preserve">
<style type="text/css">
	.st0{fill:none;stroke:#1D1D1B;stroke-width:14;}
	.st1{display:none;}
	.st2{display:inline;}
	.st3{fill:#F3AB00;}
	.st4{fill:#F3AB00;stroke:#1D1D1B;stroke-width:3;stroke-miterlimit:10;}
</style>
<sodipodi:namedview  bordercolor="#666666" borderopacity="1" gridtolerance="10" guidetolerance="10" id="namedview17" inkscape:current-layer="Layer_1" inkscape:cx="378.19937" inkscape:cy="207.01127" inkscape:pageopacity="0" inkscape:pageshadow="2" inkscape:window-height="838" inkscape:window-maximized="1" inkscape:window-width="1600" inkscape:window-x="-8" inkscape:window-y="-8" inkscape:zoom="0.71" objecttolerance="10" pagecolor="#ffffff" showgrid="false">
	</sodipodi:namedview>
<path id="path3" inkscape:connector-curvature="0" class="st0" d="M464.6,152.4c-1.8-14.9-7.8-27.6-20.7-37.1
	c-37.2-27.6-77.1-50.6-117.6-72.7c-16.8-9.2-34.2-17.2-51.7-25.1c-8.2-3.7-16.1-5.5-24.1-5.4c-7.9,0-15.9,1.8-24.1,5.4
	c-17.5,7.9-34.9,15.9-51.7,25.1c-40.5,22.2-80.4,45.2-117.6,72.7c-12.9,9.6-18.9,22.3-20.7,37.1c-7.8,64.8-9,129.5-0.6,194.4
	c2.1,16.5,8.7,29.3,22,39.1c52.2,38.4,108.5,69.6,167.1,97.1c8.8,4.1,17.3,5.9,25.7,5.8c8.4,0.1,16.9-1.7,25.7-5.8
	c58.6-27.5,114.9-58.7,167.1-97.1c13.3-9.8,19.9-22.6,22-39.1C473.6,282,472.4,217.2,464.6,152.4z"/>
<g class="st1">
	<g id="XMLID_00000037685452331546662880000004224001485223120518_" class="st2">
		<g>
			<path class="st3" d="M363.3,138.8V361c0,18.1-14.7,32.8-32.8,32.8H167.6c-18.1,0-32.8-14.7-32.8-32.8V138.8
				c0-18.1,14.7-32.8,32.8-32.8h162.9C348.6,106,363.3,120.7,363.3,138.8z M332.6,239.7c0-7.2-5.9-13.1-13.1-13.1h-42.6
				c-7.2,0-13.1,5.9-13.1,13.1s5.9,13.1,13.1,13.1h42.6C326.7,252.8,332.6,247,332.6,239.7z M332.6,288.9c0-7.2-5.9-13.1-13.1-13.1
				H178.7c-7.2,0-13.1,5.9-13.1,13.1s5.9,13.1,13.1,13.1h140.8C326.7,302,332.6,296.1,332.6,288.9z M332.6,338
				c0-7.2-5.9-13.1-13.1-13.1H178.7c-7.2,0-13.1,5.9-13.1,13.1s5.9,13.1,13.1,13.1h140.8C326.7,351.1,332.6,345.2,332.6,338z
				 M250.7,239.8v-23.4c0-7.7-6.2-13.9-13.9-13.9h-4.7c5.2-5.7,8.4-13.3,8.4-21.6c0-17.8-14.5-32.3-32.3-32.3s-32.3,14.5-32.3,32.3
				c0,8.3,3.2,15.9,8.4,21.6h-4.9c-7.7,0-13.9,6.2-13.9,13.9v23.4c0,7.3,5.7,13.3,12.9,13.8h59.3C245,253.1,250.7,247.2,250.7,239.8
				z"/>
			<path d="M319.5,226.6c7.2,0,13.1,5.9,13.1,13.1s-5.9,13.1-13.1,13.1h-42.6c-7.2,0-13.1-5.9-13.1-13.1s5.9-13.1,13.1-13.1H319.5z"
				/>
			<path d="M319.5,275.8c7.2,0,13.1,5.9,13.1,13.1s-5.9,13.1-13.1,13.1H178.7c-7.2,0-13.1-5.9-13.1-13.1s5.9-13.1,13.1-13.1H319.5z"
				/>
			<path d="M319.5,324.9c7.2,0,13.1,5.9,13.1,13.1s-5.9,13.1-13.1,13.1H178.7c-7.2,0-13.1-5.9-13.1-13.1s5.9-13.1,13.1-13.1H319.5z"
				/>
			<path d="M250.7,216.4v23.4c0,7.3-5.7,13.3-12.9,13.8h-59.3c-7.2-0.5-12.9-6.4-12.9-13.8v-23.4c0-7.7,6.2-13.9,13.9-13.9h4.9
				c-5.2-5.7-8.4-13.3-8.4-21.6c0-17.8,14.5-32.3,32.3-32.3s32.3,14.5,32.3,32.3c0,8.3-3.2,15.9-8.4,21.6h4.7
				C244.5,202.5,250.7,208.7,250.7,216.4z"/>
		</g>
	</g>
</g>
<g id="g3" transform="matrix(0.929151,0,0,0.929151,88.008152,85.173222)">
	<path id="path5" inkscape:connector-curvature="0" class="st4" d="M174.9,174.1c38.9,0,70.5-38.3,70.5-85.6
		c0-47.3-10.4-85.6-70.5-85.6s-70.5,38.3-70.5,85.6C104.4,135.8,136,174.1,174.9,174.1z"/>
	<path id="path7" inkscape:connector-curvature="0" class="st4" d="M41.8,304.8C41.8,301.9,41.8,304,41.8,304.8L41.8,304.8z"/>
	<path id="path9-0" inkscape:connector-curvature="0" class="st4" d="M308,307C308,306.2,308,301.6,308,307L308,307z"/>
	<path id="path11" inkscape:connector-curvature="0" class="st4" d="M307.8,301.3c-1.3-82.3-12.1-105.8-94.4-120.7
		c0,0-11.6,14.8-38.6,14.8s-38.6-14.8-38.6-14.8c-81.4,14.7-92.8,37.8-94.3,118c-0.1,6.5-0.2,6.9-0.2,6.1c0,1.4,0,4.1,0,8.7
		c0,0,19.6,39.5,133.1,39.5c113.5,0,133.1-39.5,133.1-39.5c0-3,0-5,0-6.4C307.9,307.5,307.9,306.6,307.8,301.3L307.8,301.3z"/>
</g>
</svg>
