<?xml version="1.0" encoding="utf-8"?>
<!-- Generator: Adobe Illustrator 26.0.1, SVG Export Plug-In . SVG Version: 6.00 Build 0)  -->
<svg version="1.1"
	 id="Layer_1" xmlns:cc="http://creativecommons.org/ns#" xmlns:dc="http://purl.org/dc/elements/1.1/" xmlns:inkscape="http://www.inkscape.org/namespaces/inkscape" xmlns:rdf="http://www.w3.org/1999/02/22-rdf-syntax-ns#" xmlns:sodipodi="http://sodipodi.sourceforge.net/DTD/sodipodi-0.dtd" xmlns:svg="http://www.w3.org/2000/svg"
	 xmlns="http://www.w3.org/2000/svg" xmlns:xlink="http://www.w3.org/1999/xlink" x="0px" y="0px" viewBox="0 0 512 512"
	 style="enable-background:new 0 0 512 512;" xml:space="preserve">
<style type="text/css">
	.st0{fill:#808080;stroke:#000000;stroke-width:33.165;stroke-opacity:0.9647;}
	.st1{fill-rule:evenodd;clip-rule:evenodd;fill:#FFFFFF;}
</style>
<sodipodi:namedview  bordercolor="#666666" borderopacity="1" gridtolerance="10" guidetolerance="10" id="namedview3021" inkscape:current-layer="g3009" inkscape:cx="427.8664" inkscape:cy="257.56588" inkscape:pageopacity="0" inkscape:pageshadow="2" inkscape:window-height="706" inkscape:window-maximized="1" inkscape:window-width="1280" inkscape:window-x="-8" inkscape:window-y="-8" inkscape:zoom="0.71677427" objecttolerance="10" pagecolor="#ffffff" showgrid="false">
	</sodipodi:namedview>
<g id="g3007">
	<g id="g3009">
		
			<ellipse id="circle3011" sodipodi:cx="253.60001" sodipodi:cy="253.60001" sodipodi:rx="253.60001" sodipodi:ry="253.60001" class="st0" cx="256.4" cy="255.9" rx="237.3" ry="234.5">
		</ellipse>
	</g>
</g>
<path class="st1" d="M395.1,254.2c0-18.2-14.8-32.9-32.9-32.9h-63.3c-2.9,0-5.4-1.4-7-3.8c-1.5-2.4-1.7-5.2-0.6-7.8
	c8-17.7,13.8-36,17.4-54.6c2.3-12.2-0.9-24.7-8.8-34.2c-7.9-9.5-19.4-14.9-31.7-14.9h-21.5v8.2c0,37.1-22.6,69-41.6,89.3
	c-10.6,11.3-25.8,17.8-41.7,17.8h-32v107.1c0,31.8,25.9,57.6,57.6,57.6h140c18.2,0,32.9-14.8,32.9-32.9c0-6.8-2.1-13.1-5.6-18.3
	c12.8-4.5,22-16.8,22-31.1c0-6.8-2.1-13.1-5.6-18.3C385.8,280.8,395.1,268.6,395.1,254.2"/>
</svg>
