<?xml version="1.0" encoding="UTF-8" standalone="no"?>
<!-- Generator: Adobe Illustrator 16.0.0, SVG Export Plug-In . SVG Version: 6.00 Build 0)  -->

<svg
   xmlns:dc="http://purl.org/dc/elements/1.1/"
   xmlns:cc="http://creativecommons.org/ns#"
   xmlns:rdf="http://www.w3.org/1999/02/22-rdf-syntax-ns#"
   xmlns:svg="http://www.w3.org/2000/svg"
   xmlns="http://www.w3.org/2000/svg"
   xmlns:sodipodi="http://sodipodi.sourceforge.net/DTD/sodipodi-0.dtd"
   xmlns:inkscape="http://www.inkscape.org/namespaces/inkscape"
   version="1.1"
   id="Layer_1"
   x="0px"
   y="0px"
   width="500"
   height="500"
   viewBox="0 0 500 500"
   enable-background="new 0 0 4000 4000"
   xml:space="preserve"
   inkscape:version="0.48.4 r9939"
   sodipodi:docname="فريق عمل.svg"><metadata
   id="metadata21"><rdf:RDF><cc:Work
       rdf:about=""><dc:format>image/svg+xml</dc:format><dc:type
         rdf:resource="http://purl.org/dc/dcmitype/StillImage" /></cc:Work></rdf:RDF></metadata><defs
   id="defs19" /><sodipodi:namedview
   pagecolor="#ffffff"
   bordercolor="#666666"
   borderopacity="1"
   objecttolerance="10"
   gridtolerance="10"
   guidetolerance="10"
   inkscape:pageopacity="0"
   inkscape:pageshadow="2"
   inkscape:window-width="1280"
   inkscape:window-height="706"
   id="namedview17"
   showgrid="false"
   inkscape:zoom="0.74642639"
   inkscape:cx="36.475141"
   inkscape:cy="271.14804"
   inkscape:window-x="-8"
   inkscape:window-y="-8"
   inkscape:window-maximized="1"
   inkscape:current-layer="Layer_1" />
<path
   d="m 470.23262,149.50046 c -1.84021,-15.4006 -8.01408,-28.50848 -21.31646,-38.41668 C 410.64768,82.575287 369.52633,58.798266 327.83344,35.868984 310.49968,26.335035 292.59572,18.04461 274.56215,9.9074678 266.12219,6.1001205 257.95629,4.2581755 249.77862,4.2833217 241.60095,4.2581701 233.43425,6.1001205 224.99576,9.9074678 206.96138,18.04461 189.05809,26.335035 171.72367,35.868984 130.02998,58.798266 88.90957,82.575287 50.64161,111.08378 37.337769,120.9921 31.163894,134.1 29.32435,149.50046 c -7.988406,66.9796 -9.234199,133.98076 -0.652054,201.09064 2.182216,17.05381 8.927773,30.28837 22.624184,40.40522 53.71857,39.68321 111.73148,71.94889 172.01356,100.42782 9.01832,4.25823 17.7706,6.12666 26.46845,5.98514 8.69771,0.14152 17.45012,-1.72691 26.46911,-5.98514 60.28208,-28.47893 118.29513,-60.74461 172.01276,-100.42782 13.69588,-10.11685 20.4413,-23.35141 22.62499,-40.40522 8.58161,-67.10988 7.33501,-134.11104 -0.65273,-201.09064 z"
   id="path3"
   inkscape:connector-curvature="0"
   style="fill:#f3ab00" />
<path
   d="m 346.09252,291.40542 c 0.44928,-0.76174 0.91194,-1.56039 1.38063,-2.38259 -0.0516,0.0589 -0.0869,0.0958 -0.14152,0.15917 -0.39926,0.75131 -0.82219,1.48522 -1.23911,2.22342 z"
   id="path5"
   inkscape:connector-curvature="0"
   style="fill:none" />
<path
   d="m 346.09252,291.40542 c -3.55107,6.00721 -6.45664,10.09906 -7.33194,11.30139 2.65665,-3.613 5.11147,-7.3718 7.33194,-11.30139 z"
   id="path7"
   inkscape:connector-curvature="0"
   style="fill:#010101" />
<path
   d="m 461.24306,150.57465 c -1.70177,-14.24468 -7.33769,-24.4858 -17.73449,-32.23117 C 405.0749,89.713552 363.10353,65.597454 323.47061,43.801347 305.78761,34.075859 287.0319,25.465625 270.84028,18.159505 263.64384,14.91353 256.80988,13.336152 249.80658,13.336152 V 488.35953 l 0.88706,0.006 c 7.28633,0 14.38098,-1.67675 21.68776,-5.12764 66.78447,-31.54969 122.55617,-64.10427 170.50119,-99.5231 11.17914,-8.25725 17.04632,-18.82794 19.02389,-34.27121 8.02573,-62.77379 7.80904,-127.82612 -0.66342,-198.86882 z"
   id="path9"
   inkscape:connector-curvature="0"
   style="fill:#f5b41a" />
<path
   d="m 217.64255,300.67934 c 6.31085,2.78933 13.03634,2.42084 19.65817,2.33391 7.27227,-0.0958 14.33898,-1.70914 21.21253,-4.09038 1.13024,-0.54506 2.26916,-1.06818 3.38455,-1.63998 2.93378,-1.50434 6.13401,-2.52837 8.63898,-4.80489 7.4867,-4.58099 13.87405,-10.36578 19.08703,-17.43394 1.9111,-3.28584 5.75831,-9.79116 7.61336,-13.10643 -10e-4,-0.0368 -0.003,-0.0559 -0.004,-0.0721 0.002,0.0162 0.003,0.0353 0.004,0.0721 0.55254,-1.24205 1.12434,-2.47687 1.65629,-3.73084 1.6163,-3.81483 2.56971,-7.60011 0.93121,-11.76405 -1.09025,-2.7686 -1.82858,-5.72004 -2.34581,-8.65731 -3.02046,-17.34553 -2.45909,-34.67568 0.54827,-51.96289 1.09332,-6.30791 1.11819,-6.22539 -5.03482,-8.04579 -19.97864,-5.90865 -37.95616,-15.73511 -54.63358,-28.07592 -2.14759,-1.67462 0,0 -2.14759,-1.67462 l -0.003,-0.001 c -2.21164,-1.60172 0,0 -2.21164,-1.60172 -9.2548,-7.46007 -18.05429,-15.40581 -26.17593,-24.09911 -9.43309,-10.08957 -18.34387,-20.57974 -25.50701,-32.441832 -0.96144,-1.592892 -1.80931,-1.886082 -3.45744,-0.807475 -3.18124,2.080564 -6.45664,4.036597 -9.82059,5.814211 -1.98466,1.047706 -2.05181,1.964865 -0.90258,3.781668 3.00588,4.746708 5.79442,9.633328 8.66908,14.463498 2.11294,3.85817 0,0 2.11066,3.85604 0,0 0.002,0.001 0.002,0.002 2.25659,3.79852 4.52133,7.59116 6.76762,11.39502 7.14842,12.12065 14.30727,24.23474 21.43282,36.36849 6.93857,11.82157 13.8497,23.66012 20.75295,35.50229 0.80896,1.38571 1.71582,2.40906 3.44862,2.76565 10.04971,2.07549 16.70832,11.55714 15.26136,21.57876 -1.3821,9.58331 -9.46547,17.55486 -20.97178,16.93811 -10.55437,-0.56578 -19.45993,-11.11426 -17.48263,-21.54264 0.93201,-4.92287 0.0817,-8.57853 -2.66694,-12.31432 -0.95622,-1.3092 -1.61925,-2.83281 -2.44961,-4.23911 -11.05902,-18.77484 -22.12768,-37.53925 -33.18377,-56.31557 -7.27148,-12.35925 -14.53639,-24.7208 -21.74901,-37.1163 -0.94886,-1.63557 -1.78216,-1.91551 -3.42361,-0.86567 -3.28503,2.10116 -6.66891,4.05788 -10.07472,5.96081 -1.70337,0.94819 -1.77252,1.9531 -0.82581,3.52446 3.99675,6.62984 7.08209,13.70912 9.88024,20.90168 3.95181,10.14922 7.50876,20.4207 10.07981,31.03686 2.45187,10.14695 4.57737,20.32561 5.59833,30.72816 1.03299,10.47479 1.39172,20.92978 0.7287,31.46274 -0.60564,9.62678 -1.81894,19.13799 -4.11981,28.47384 -0.64831,2.62562 0.0716,3.57757 2.26181,4.07406 3.30202,0.74863 6.32997,2.23813 9.4743,3.40515 16.07097,5.96602 30.63025,14.456 43.31961,26.05955 2.18825,2.00406 3.85912,4.60307 6.66905,5.90423 z"
   id="path11"
   inkscape:connector-curvature="0"
   style="fill:#010101" />
<path
   d="m 238.5516,329.23785 c -12.2548,1.26573 -24.21106,0.41545 -36.12479,-2.22488 -1.91846,-0.42441 -2.57853,0.0544 -3.03825,1.85505 -2.03924,7.98319 -4.14695,15.95755 -6.33947,23.90088 -0.51201,1.86401 -0.067,2.59927 1.82415,3.01619 13.96246,3.07062 27.98243,4.4808 42.33171,3.39926 12.41316,-0.93709 24.33785,-3.72495 36.10044,-7.47051 6.57314,-2.09367 12.67746,-5.37523 18.98537,-8.13487 3.81176,-2.40171 7.66191,-4.75045 11.43261,-7.2141 9.36675,-6.13108 17.7595,-13.39961 25.25355,-21.72467 3.45824,-3.84133 6.74407,-7.79902 9.78366,-11.93353 0.8753,-1.20233 3.78101,-5.29417 7.33194,-11.30139 0.41692,-0.73833 0.83985,-1.47211 1.23924,-2.22342 0.0544,-0.0636 0.0899,-0.10026 0.14151,-0.15916 3.22244,-5.65371 6.79412,-12.6673 9.81029,-20.41616 1.13011,-3.08694 2.17045,-6.21361 3.08253,-9.39484 0.70717,-2.46204 0.26229,-3.25775 -1.93624,-3.84265 -7.92126,-2.11294 -15.82634,-4.31509 -23.74773,-6.42133 -2.1453,-0.56954 -3.57903,0.0965 -4.24941,2.48571 -2.56383,9.09121 -6.40514,17.64607 -11.09367,25.83859 -0.69392,1.21704 -0.0678,0.11489 -1.87873,3.83396 -2.34567,4.2141 -5.37803,7.90642 -8.65063,11.4207 -0.93561,1.1685 -1.32752,1.53244 -1.87872,2.11147 -7.78284,8.21606 -15.8543,15.34308 -25.71621,20.9069 -13.25075,7.4689 -27.37973,12.11623 -42.66315,13.6928 z"
   id="path13"
   inkscape:connector-curvature="0"
   style="fill:#010101" />
<path
   d="m 416.13927,270.40569 c -8.56676,-2.21312 -17.12443,-4.4808 -25.69119,-6.71305 -1.52495,-0.39779 -2.1453,0.6233 -2.55633,1.81238 -1.0005,2.91307 -2.08793,5.80245 -2.92483,8.76125 -1.73722,6.12505 -4.51037,11.81407 -6.92078,17.66667 -1.69013,4.10362 -3.14138,7.13011 -5.55058,12.03224 -1.30103,2.38406 -2.43274,4.88314 -3.93561,7.13009 -5.19399,7.774 -10.66633,15.33573 -17.05221,22.19764 -5.13206,5.51661 -10.21116,11.03322 -16.10642,15.79705 -6.99742,5.6624 -14.24241,10.95657 -21.87341,15.70703 -6.69834,4.16848 -13.62941,7.93022 -21.09698,10.59423 0.16359,-0.059 0.47284,-0.19301 0,0 -6.10018,2.47233 -13.85344,4.86963 -20.22622,6.54357 -8.0835,2.13073 -16.25662,3.80161 -24.5536,4.82711 -2.22489,0.2033 -4.44697,0.40072 -6.66892,0.6011 -13.83792,1.28191 -27.59346,0.51561 -41.30913,-1.56776 -3.64604,-0.55414 -3.94887,-0.8575 -10.93009,-1.71808 -3.49731,-0.66597 -4.22226,-0.30055 -4.70618,2.69343 -0.66236,4.07271 -1.86175,8.00392 -2.93661,11.97043 -1.62312,6.18258 -1.98773,7.61175 -3.62102,12.01164 -0.27848,0.7485 0.10901,1.39387 0.94458,1.64439 0.51122,0.168 1.01814,0.40662 1.5442,0.50091 8.5328,1.58246 16.91739,3.86352 25.65509,4.48816 5.6426,0.40676 11.7575,0.6336 17.41188,0.81925 6.91354,0.22699 13.37673,0.49223 20.29764,-0.14151 11.8348,-1.07847 23.49132,-3.01458 34.94011,-6.15595 14.45321,-3.96371 28.44068,-9.1149 41.55445,-16.47626 1.48977,-0.83985 3.084,-1.49111 4.62954,-2.23372 3.62317,-2.56971 7.67368,-4.50287 11.03175,-7.46462 4.47799,-2.26327 8.24548,-5.54174 12.21801,-8.53279 9.59815,-7.20673 18.23849,-15.44326 26.22315,-24.39149 10.22292,-11.45909 20.46336,-25.12541 27.57286,-38.77408 0,0 -0.3198,0.55107 0,0 3.61729,-6.30643 6.35646,-13.02242 9.13696,-19.71501 2.78935,-6.70422 4.62513,-13.72958 6.9902,-20.57532 0.68001,-1.9686 0.50906,-2.82184 -1.49031,-3.33893 z"
   id="path15"
   inkscape:connector-curvature="0"
   style="fill:#010101" />
</svg>