<?xml version="1.0" encoding="UTF-8" standalone="no"?>
<svg
   xmlns:dc="http://purl.org/dc/elements/1.1/"
   xmlns:cc="http://creativecommons.org/ns#"
   xmlns:rdf="http://www.w3.org/1999/02/22-rdf-syntax-ns#"
   xmlns:svg="http://www.w3.org/2000/svg"
   xmlns="http://www.w3.org/2000/svg"
   xmlns:sodipodi="http://sodipodi.sourceforge.net/DTD/sodipodi-0.dtd"
   xmlns:inkscape="http://www.inkscape.org/namespaces/inkscape"
   version="1.1"
   id="Layer_1"
   x="0px"
   y="0px"
   viewBox="0 0 507.2 507.2"
   style="enable-background:new 0 0 507.2 507.2;"
   xml:space="preserve"
   width="512px"
   height="512px"
   class=""
   inkscape:version="0.48.4 r9939"
   sodipodi:docname="فريق عمل2 .svg"><metadata
   id="metadata3025"><rdf:RDF><cc:Work
       rdf:about=""><dc:format>image/svg+xml</dc:format><dc:type
         rdf:resource="http://purl.org/dc/dcmitype/StillImage" /><dc:title /></cc:Work></rdf:RDF></metadata><defs
   id="defs3023" /><sodipodi:namedview
   pagecolor="#ffffff"
   bordercolor="#666666"
   borderopacity="1"
   objecttolerance="10"
   gridtolerance="10"
   guidetolerance="10"
   inkscape:pageopacity="0"
   inkscape:pageshadow="2"
   inkscape:window-width="1280"
   inkscape:window-height="706"
   id="namedview3021"
   showgrid="false"
   inkscape:zoom="0.71677427"
   inkscape:cx="-7.417081"
   inkscape:cy="257.56588"
   inkscape:window-x="-8"
   inkscape:window-y="-8"
   inkscape:window-maximized="1"
   inkscape:current-layer="g3009" /><g
   id="g3007"><g
     id="g3009"><circle
       style="fill:#ffbb00;stroke:#000000;stroke-width:33.16501235999999900;stroke-miterlimit:4;stroke-opacity:0.96470588000000002;stroke-dasharray:none;fill-opacity:1"
       cx="253.60001"
       cy="253.60001"
       r="253.60001"
       data-original="#32BA7C"
       class=""
       id="circle3011"
       sodipodi:cx="253.60001"
       sodipodi:cy="253.60001"
       sodipodi:rx="253.60001"
       sodipodi:ry="253.60001"
       transform="matrix(0.92705686,0,0,0.9160171,18.878084,21.193675)" /><path
       d="m 355.21785,293.02711 c 0.44506,-0.7546 0.90339,-1.54576 1.36768,-2.36026 -0.0511,0.0583 -0.0861,0.0949 -0.14019,0.15768 -0.39552,0.74427 -0.81448,1.4713 -1.22749,2.20258 z"
       id="path5"
       inkscape:connector-curvature="0"
       style="fill:none" /><path
       d="m 355.21785,293.02711 c -3.51778,5.95089 -6.39611,10.00438 -7.26321,11.19544 2.63175,-3.57913 5.06355,-7.30269 7.26321,-11.19544 z"
       id="path7"
       inkscape:connector-curvature="0"
       style="fill:#010101" /><path
       d="m 227.9721,302.21409 c 6.25168,2.76318 12.91412,2.39814 19.47387,2.31202 7.20409,-0.0949 14.20455,-1.69311 21.01366,-4.05203 1.11965,-0.53995 2.24789,-1.05816 3.35282,-1.6246 2.90628,-1.49024 6.0765,-2.50467 8.55799,-4.75985 7.41651,-4.53804 13.74398,-10.2686 18.90809,-17.27049 1.89318,-3.25504 5.70433,-9.69937 7.54198,-12.98356 -9.9e-4,-0.0365 -0.003,-0.0554 -0.004,-0.0714 0.002,0.0161 0.003,0.035 0.004,0.0714 0.54736,-1.23041 1.1138,-2.45365 1.64077,-3.69586 1.60114,-3.77907 2.54562,-7.52886 0.92248,-11.65377 -1.08003,-2.74264 -1.81144,-5.66641 -2.32382,-8.57614 -2.99214,-17.18292 -2.43604,-34.3506 0.54313,-51.47574 1.08307,-6.24878 1.10771,-6.16703 -4.98762,-7.97036 -19.79134,-5.85326 -37.60032,-15.5876 -54.12139,-27.81271 -2.12746,-1.65892 0,0 -2.12746,-1.65892 l -0.003,-9.9e-4 c -2.1909,-1.58671 0,0 -2.1909,-1.58671 -9.16801,-7.39013 -17.885,-15.26138 -25.9305,-23.87318 -9.34466,-9.99498 -18.1719,-20.3868 -25.26788,-32.13769 -0.95243,-1.57796 -1.79235,-1.8684 -3.42503,-0.7999 -3.15142,2.06105 -6.39611,3.99875 -9.72852,5.7597 -1.96606,1.03788 -2.03258,1.94644 -0.89412,3.74621 2.9777,4.70221 5.7401,9.54302 8.58781,14.32791 2.09313,3.822 0,0 2.09087,3.81989 0,0 0.002,9.9e-4 0.002,0.002 2.23543,3.76291 4.47894,7.51999 6.70417,11.28819 7.08141,12.00702 14.17314,24.00754 21.23189,36.02753 6.87352,11.71075 13.71986,23.43831 20.55839,35.16946 0.80138,1.37272 1.69974,2.38648 3.41629,2.73972 9.95549,2.05604 16.55168,11.4488 15.11828,21.37646 -1.36914,9.49347 -9.37673,17.39029 -20.77516,16.77932 -10.45543,-0.56048 -19.2775,-11.01006 -17.31873,-21.34068 0.92327,-4.87672 0.0809,-8.49811 -2.64194,-12.19887 -0.94726,-1.29693 -1.60407,-2.80625 -2.42665,-4.19937 -10.95536,-18.59885 -21.92025,-37.18734 -32.87269,-55.78763 -7.20331,-12.24339 -14.40011,-24.48905 -21.54511,-36.76834 -0.93997,-1.62023 -1.76545,-1.89755 -3.39151,-0.85755 -3.25424,2.08146 -6.60639,4.01983 -9.98027,5.90492 -1.6874,0.93931 -1.75591,1.93479 -0.81807,3.49142 3.95928,6.56769 7.01569,13.5806 9.78761,20.70573 3.91476,10.05407 7.43837,20.22926 9.98531,30.74589 2.42889,10.05182 4.53446,20.13506 5.54585,30.44008 1.0233,10.37659 1.37867,20.73357 0.72187,31.16778 -0.59997,9.53653 -1.80189,18.95857 -4.08119,28.2069 -0.64223,2.601 0.0709,3.54403 2.2406,4.03586 3.27107,0.74162 6.27063,2.21715 9.38548,3.37323 15.92031,5.91009 30.34309,14.32048 42.91349,25.81524 2.16774,1.98527 3.82294,4.55992 6.60653,5.84888 z"
       id="path11"
       inkscape:connector-curvature="0"
       style="fill:#010101" /><path
       d="m 248.68512,330.50486 c -12.13991,1.25386 -23.98408,0.41155 -35.78612,-2.20402 -1.90047,-0.42043 -2.55435,0.0539 -3.00976,1.83766 -2.02012,7.90834 -4.10807,15.80794 -6.28004,23.67681 -0.50721,1.84653 -0.0664,2.5749 1.80705,2.98791 13.83156,3.04183 27.72009,4.43879 41.93485,3.36739 12.29678,-0.9283 24.10968,-3.69003 35.762,-7.40047 6.51151,-2.07405 12.5586,-5.32484 18.80738,-8.05861 3.77602,-2.37919 7.59008,-4.70591 11.32543,-7.14647 9.27893,-6.0736 17.593,-13.27399 25.01679,-21.521 3.42582,-3.80532 6.68085,-7.7259 9.69194,-11.82165 0.8671,-1.19106 3.74557,-5.24454 7.26321,-11.19544 0.41301,-0.73141 0.83197,-1.45831 1.22762,-2.20258 0.0539,-0.063 0.089,-0.0993 0.14018,-0.15766 3.19223,-5.60071 6.73043,-12.54855 9.71832,-20.22476 1.11951,-3.058 2.1501,-6.15536 3.05363,-9.30677 0.70054,-2.43895 0.25983,-3.2272 -1.91809,-3.80662 -7.84699,-2.09313 -15.67796,-4.27464 -23.52509,-6.36113 -2.12519,-0.5642 -3.54548,0.0956 -4.20957,2.46241 -2.5398,9.00598 -6.3451,17.48063 -10.98967,25.59635 -0.68741,1.20563 -0.0672,0.11381 -1.86112,3.79802 -2.32368,4.17459 -5.32761,7.83229 -8.56953,11.31363 -0.92684,1.15754 -1.31507,1.51807 -1.8611,2.09167 -7.70988,8.13904 -15.70567,15.19924 -25.47513,20.7109 -13.12652,7.39888 -27.12304,12.00264 -42.26318,13.56443 z"
       id="path13"
       inkscape:connector-curvature="0"
       style="fill:#010101" /><path
       d="m 424.60791,272.22425 c -8.48645,-2.19237 -16.96389,-4.43879 -25.45034,-6.65011 -1.51065,-0.39407 -2.12519,0.61745 -2.53236,1.79538 -0.99112,2.88576 -2.06836,5.74806 -2.89741,8.67912 -1.72094,6.06763 -4.46809,11.70331 -6.8559,17.50104 -1.67428,4.06515 -3.11193,7.06327 -5.49854,11.91944 -1.28884,2.36171 -2.40994,4.83736 -3.89872,7.06325 -5.14529,7.70111 -10.56633,15.19195 -16.89234,21.98953 -5.08395,5.46489 -10.11543,10.92979 -15.95542,15.64896 -6.93182,5.60931 -14.10889,10.85385 -21.66835,15.55977 -6.63554,4.1294 -13.50164,7.85588 -20.8992,10.49491 0.16206,-0.0584 0.46841,-0.1912 0,0 -6.04299,2.44915 -13.72356,4.82398 -20.0366,6.48223 -8.00771,2.11075 -16.10421,3.76597 -24.32341,4.78185 -2.20403,0.2014 -4.40528,0.39696 -6.6064,0.59547 -13.70818,1.26989 -27.33476,0.51077 -40.92185,-1.55307 -3.61186,-0.54894 -3.91185,-0.84946 -10.82762,-1.70197 -3.46452,-0.65973 -4.18268,-0.29773 -4.66206,2.66818 -0.65615,4.03453 -1.8443,7.92888 -2.90908,11.85821 -1.6079,6.12462 -1.96909,7.54039 -3.58707,11.89903 -0.27587,0.74148 0.10799,1.3808 0.93572,1.62897 0.50643,0.16643 1.0086,0.40281 1.52973,0.49622 8.4528,1.56762 16.75879,3.8273 25.41457,4.44608 5.5897,0.40295 11.64727,0.62766 17.24864,0.81157 6.84873,0.22486 13.25132,0.48761 20.10735,-0.14018 11.72385,-1.06836 23.27109,-2.98632 34.61255,-6.09824 14.31771,-3.92655 28.17405,-9.02945 41.16487,-16.3218 1.47581,-0.83197 3.05509,-1.47713 4.58614,-2.21278 3.5892,-2.54562 7.60174,-4.46065 10.92833,-7.39464 4.43601,-2.24205 8.16818,-5.48978 12.10347,-8.45279 9.50816,-7.13917 18.0675,-15.29848 25.9773,-24.16282 10.12708,-11.35166 20.27152,-24.88986 27.31437,-38.41057 0,0 -0.3168,0.5459 0,0 3.58338,-6.24731 6.29687,-12.90034 9.0513,-19.53019 2.7632,-6.64136 4.58177,-13.60086 6.92467,-20.38242 0.67363,-1.95015 0.50428,-2.79539 -1.47634,-3.30763 z"
       id="path15"
       inkscape:connector-curvature="0"
       style="fill:#010101" /></g></g> </svg>