<?xml version="1.0" encoding="UTF-8" standalone="no"?>
<!-- Generator: Adobe Illustrator 16.0.0, SVG Export Plug-In . SVG Version: 6.00 Build 0)  -->

<svg
   xmlns:osb="http://www.openswatchbook.org/uri/2009/osb"
   xmlns:dc="http://purl.org/dc/elements/1.1/"
   xmlns:cc="http://creativecommons.org/ns#"
   xmlns:rdf="http://www.w3.org/1999/02/22-rdf-syntax-ns#"
   xmlns:svg="http://www.w3.org/2000/svg"
   xmlns="http://www.w3.org/2000/svg"
   xmlns:xlink="http://www.w3.org/1999/xlink"
   xmlns:sodipodi="http://sodipodi.sourceforge.net/DTD/sodipodi-0.dtd"
   xmlns:inkscape="http://www.inkscape.org/namespaces/inkscape"
   version="1.1"
   id="Layer_1"
   x="0px"
   y="0px"
   width="500"
   height="500"
   viewBox="0 0 500 500"
   enable-background="new 0 0 4000 4000"
   xml:space="preserve"
   inkscape:version="0.48.4 r9939"
   sodipodi:docname="1000 نقاط.svg"><metadata
   id="metadata21"><rdf:RDF><cc:Work
       rdf:about=""><dc:format>image/svg+xml</dc:format><dc:type
         rdf:resource="http://purl.org/dc/dcmitype/StillImage" /><dc:title></dc:title></cc:Work></rdf:RDF></metadata><defs
   id="defs19"><linearGradient
     id="linearGradient5223"
     osb:paint="gradient"><stop
       style="stop-color:#1af596;stop-opacity:1;"
       offset="0"
       id="stop5225" /><stop
       style="stop-color:#1af596;stop-opacity:0;"
       offset="1"
       id="stop5227" /></linearGradient><linearGradient
     id="SVGID_7_"
     gradientUnits="userSpaceOnUse"
     x1="343.13989"
     y1="399.31641"
     x2="-21.260099"
     y2="244.11639"
     gradientTransform="matrix(0.35514037,0,0,-0.35514037,164.65138,450.92425)"><stop
       offset="0"
       style="stop-color:#FFC200;stop-opacity:0"
       id="stop6310" /><stop
       offset="0.203"
       style="stop-color:#FFBB00;stop-opacity:0.203"
       id="stop6312" /><stop
       offset="0.499"
       style="stop-color:#FFA700;stop-opacity:0.499"
       id="stop6314" /><stop
       offset="0.852"
       style="stop-color:#FF8800;stop-opacity:0.852"
       id="stop6316" /><stop
       offset="1"
       style="stop-color:#FF7800"
       id="stop6318" /></linearGradient><linearGradient
     id="SVGID_6_"
     gradientUnits="userSpaceOnUse"
     x1="156.4334"
     y1="414.01999"
     x2="106.8334"
     y2="273.22"
     gradientTransform="matrix(0.35514037,0,0,-0.35514037,164.65138,450.92425)"><stop
       offset="0"
       style="stop-color:#FFC200;stop-opacity:0"
       id="stop6297" /><stop
       offset="0.203"
       style="stop-color:#FFBB00;stop-opacity:0.203"
       id="stop6299" /><stop
       offset="0.499"
       style="stop-color:#FFA700;stop-opacity:0.499"
       id="stop6301" /><stop
       offset="0.852"
       style="stop-color:#FF8800;stop-opacity:0.852"
       id="stop6303" /><stop
       offset="1"
       style="stop-color:#FF7800"
       id="stop6305" /></linearGradient><linearGradient
     id="SVGID_5_"
     gradientUnits="userSpaceOnUse"
     x1="64.677696"
     y1="245.108"
     x2="187.0777"
     y2="142.70799"
     gradientTransform="matrix(0.35514037,0,0,-0.35514037,164.65138,450.92425)"><stop
       offset="0"
       style="stop-color:#FFC200;stop-opacity:0"
       id="stop6284" /><stop
       offset="0.203"
       style="stop-color:#FFBB00;stop-opacity:0.203"
       id="stop6286" /><stop
       offset="0.499"
       style="stop-color:#FFA700;stop-opacity:0.499"
       id="stop6288" /><stop
       offset="0.852"
       style="stop-color:#FF8800;stop-opacity:0.852"
       id="stop6290" /><stop
       offset="1"
       style="stop-color:#FF7800"
       id="stop6292" /></linearGradient><linearGradient
     id="SVGID_4_"
     gradientUnits="userSpaceOnUse"
     x1="183.0977"
     y1="35.1087"
     x2="349.15771"
     y2="201.1687"
     gradientTransform="matrix(0.35514037,0,0,-0.35514037,164.65138,450.92425)"><stop
       offset="0"
       style="stop-color:#FFC200;stop-opacity:0"
       id="stop6271" /><stop
       offset="0.203"
       style="stop-color:#FFBB00;stop-opacity:0.203"
       id="stop6273" /><stop
       offset="0.499"
       style="stop-color:#FFA700;stop-opacity:0.499"
       id="stop6275" /><stop
       offset="0.852"
       style="stop-color:#FF8800;stop-opacity:0.852"
       id="stop6277" /><stop
       offset="1"
       style="stop-color:#FF7800"
       id="stop6279" /></linearGradient><linearGradient
     id="SVGID_3_"
     gradientUnits="userSpaceOnUse"
     x1="388.68741"
     y1="144.8383"
     x2="346.28741"
     y2="353.63831"
     gradientTransform="matrix(0.35514037,0,0,-0.35514037,164.65138,450.92425)"><stop
       offset="0"
       style="stop-color:#FFC200;stop-opacity:0"
       id="stop6258" /><stop
       offset="0.203"
       style="stop-color:#FFBB00;stop-opacity:0.203"
       id="stop6260" /><stop
       offset="0.499"
       style="stop-color:#FFA700;stop-opacity:0.499"
       id="stop6262" /><stop
       offset="0.852"
       style="stop-color:#FF8800;stop-opacity:0.852"
       id="stop6264" /><stop
       offset="1"
       style="stop-color:#FF7800"
       id="stop6266" /></linearGradient><linearGradient
     id="SVGID_2_"
     gradientUnits="userSpaceOnUse"
     x1="361.33801"
     y1="390.13141"
     x2="201.23801"
     y2="390.13141"
     gradientTransform="matrix(0.35514037,0,0,-0.35514037,164.65138,450.92425)"><stop
       offset="0"
       style="stop-color:#FFC200;stop-opacity:0"
       id="stop6245" /><stop
       offset="0.203"
       style="stop-color:#FFBB00;stop-opacity:0.203"
       id="stop6247" /><stop
       offset="0.499"
       style="stop-color:#FFA700;stop-opacity:0.499"
       id="stop6249" /><stop
       offset="0.852"
       style="stop-color:#FF8800;stop-opacity:0.852"
       id="stop6251" /><stop
       offset="1"
       style="stop-color:#FF7800"
       id="stop6253" /></linearGradient><linearGradient
     y2="-71.181602"
     x2="236.9382"
     y1="458.42841"
     x1="236.9382"
     gradientTransform="matrix(0.35514037,0,0,-0.35514037,164.65138,450.92425)"
     gradientUnits="userSpaceOnUse"
     id="linearGradient6415"
     xlink:href="#SVGID_1_"
     inkscape:collect="always" /><linearGradient
     id="SVGID_1_"
     gradientUnits="userSpaceOnUse"
     x1="236.9382"
     y1="458.42841"
     x2="236.9382"
     y2="-71.181602"
     gradientTransform="matrix(1.0667,0,0,-1.0667,3.2666,557.5352)"><stop
       offset="0"
       style="stop-color:#FFCF95"
       id="stop6236" /><stop
       offset="0.427"
       style="stop-color:#FFC954"
       id="stop6238" /><stop
       offset="1"
       style="stop-color:#FFC200"
       id="stop6240" /></linearGradient></defs><sodipodi:namedview
   pagecolor="#ffffff"
   bordercolor="#666666"
   borderopacity="1"
   objecttolerance="10"
   gridtolerance="10"
   guidetolerance="10"
   inkscape:pageopacity="0"
   inkscape:pageshadow="2"
   inkscape:window-width="1280"
   inkscape:window-height="706"
   id="namedview17"
   showgrid="false"
   inkscape:zoom="0.74642639"
   inkscape:cx="283.17279"
   inkscape:cy="272.26432"
   inkscape:window-x="-8"
   inkscape:window-y="-8"
   inkscape:window-maximized="1"
   inkscape:current-layer="Layer_1" />
<path
   d="m 470.23262,149.50046 c -1.84021,-15.4006 -8.01408,-28.50848 -21.31646,-38.41668 C 410.64768,82.575287 369.52633,58.798266 327.83344,35.868984 310.49968,26.335035 292.59572,18.04461 274.56215,9.9074678 266.12219,6.1001205 257.95629,4.2581755 249.77862,4.2833217 241.60095,4.2581701 233.43425,6.1001205 224.99576,9.9074678 206.96138,18.04461 189.05809,26.335035 171.72367,35.868984 130.02998,58.798266 88.90957,82.575287 50.64161,111.08378 37.337769,120.9921 31.163894,134.1 29.32435,149.50046 c -7.988406,66.9796 -9.234199,133.98076 -0.652054,201.09064 2.182216,17.05381 8.927773,30.28837 22.624184,40.40522 53.71857,39.68321 111.73148,71.94889 172.01356,100.42782 9.01832,4.25823 17.7706,6.12666 26.46845,5.98514 8.69771,0.14152 17.45012,-1.72691 26.46911,-5.98514 60.28208,-28.47893 118.29513,-60.74461 172.01276,-100.42782 13.69588,-10.11685 20.4413,-23.35141 22.62499,-40.40522 8.58161,-67.10988 7.33501,-134.11104 -0.65273,-201.09064 z"
   id="path3"
   inkscape:connector-curvature="0"
   style="fill:#2b0000;fill-opacity:1" />
<path
   d="m 346.09252,291.40542 c 0.44928,-0.76174 0.91194,-1.56039 1.38063,-2.38259 -0.0516,0.0589 -0.0869,0.0958 -0.14152,0.15917 -0.39926,0.75131 -0.82219,1.48522 -1.23911,2.22342 z"
   id="path5"
   inkscape:connector-curvature="0"
   style="fill:none" />
<path
   d="m 346.09252,291.40542 c -3.55107,6.00721 -6.45664,10.09906 -7.33194,11.30139 2.65665,-3.613 5.11147,-7.3718 7.33194,-11.30139 z"
   id="path7"
   inkscape:connector-curvature="0"
   style="fill:#010101" />
<path
   d="m 461.24306,150.57465 c -1.70177,-14.24468 -7.33769,-24.4858 -17.73449,-32.23117 C 405.0749,89.713552 363.10353,65.597454 323.47061,43.801347 305.78761,34.075859 287.0319,25.465625 270.84028,18.159505 263.64384,14.91353 256.80988,13.336152 249.80658,13.336152 V 488.35953 l 0.88706,0.006 c 7.28633,0 14.38098,-1.67675 21.68776,-5.12764 66.78447,-31.54969 122.55617,-64.10427 170.50119,-99.5231 11.17914,-8.25725 17.04632,-18.82794 19.02389,-34.27121 8.02573,-62.77379 7.80904,-127.82612 -0.66342,-198.86882 z"
   id="path9"
   inkscape:connector-curvature="0"
   style="fill:#ffffff;fill-opacity:1;opacity:0.2;stroke:#000000;stroke-opacity:0.32941176999999999" />



<path
   inkscape:connector-curvature="0"
   style="fill:url(#linearGradient6415)"
   d="m 255.06733,273.03005 22.54693,45.6845 50.41582,7.32587 c 5.73711,0.83333 8.02769,7.88387 3.87668,11.93067 l -36.48187,35.55999 8.61199,50.21206 c 0.98016,5.71381 -5.01731,10.07125 -10.14849,7.37348 l -45.09354,-23.70687 -45.0932,23.70687 c -5.13118,2.69743 -11.12865,-1.65967 -10.1485,-7.37348 l 8.61201,-50.21206 -36.48155,-35.56032 c -4.15135,-4.0468 -1.86043,-11.09668 3.87668,-11.93068 l 50.41582,-7.32586 22.54661,-45.68417 c 2.56592,-5.19876 9.97869,-5.19876 12.54461,0 z"
   id="path6242" /><path
   inkscape:connector-curvature="0"
   style="fill:url(#SVGID_2_)"
   d="m 277.61359,318.71455 -22.54626,-45.6845 c -1.2828,-2.59921 -3.77747,-3.89899 -6.27213,-3.89899 v 86.49252 l 28.81839,-36.90903 z"
   id="path6255" /><path
   inkscape:connector-curvature="0"
   style="fill:url(#SVGID_3_)"
   d="m 295.42489,373.53108 36.48121,-35.56065 c 2.04786,-1.99627 2.52563,-4.72266 1.7975,-7.07384 l -84.90875,24.72665 46.63004,17.90784 z"
   id="path6268" /><path
   inkscape:connector-curvature="0"
   style="fill:url(#SVGID_4_)"
   d="m 301.2752,430.56795 -52.48035,-74.94471 v 51.78651 l 45.09322,23.70687 c 2.5749,1.35371 5.36721,0.93022 7.38713,-0.54867 z"
   id="path6281" /><path
   inkscape:connector-curvature="0"
   style="fill:url(#SVGID_5_)"
   d="m 248.79485,355.62324 -46.63002,17.90784 -8.61168,50.21206 c -0.4884,2.84659 0.7561,5.3559 2.76136,6.82481 l 52.48034,-74.94471 z"
   id="path6294" /><path
   inkscape:connector-curvature="0"
   style="fill:url(#SVGID_6_)"
   d="m 163.8861,330.89692 84.90875,24.72632 -28.81874,-36.90902 -50.41582,7.3262 c -2.90685,0.42216 -4.92642,2.4414 -5.67419,4.8565 l 0,0 z"
   id="path6307" /><path
   inkscape:connector-curvature="0"
   style="fill:url(#SVGID_7_)"
   d="m 202.16516,373.53108 -36.48155,-35.56032 c -2.04788,-1.99627 -2.52563,-4.72266 -1.79751,-7.07384 l 84.90875,24.72632 -46.62969,17.90784 z"
   id="path6320" /><path
   style="fill:#ffffff;fill-opacity:1;stroke:#000000;stroke-width:0;stroke-miterlimit:4;stroke-opacity:1;stroke-dasharray:none;stroke-dashoffset:0"
   d="m 280.54338,229.35157 c -7.74404,-2.77106 -17.10067,-12.00327 -21.97657,-21.68443 -6.65235,-13.20826 -7.56515,-17.38016 -7.96661,-36.4105 -0.31534,-14.93528 -0.0925,-18.03535 1.74408,-24.30072 3.78566,-12.91409 10.67752,-21.93231 21.32536,-27.905 4.56333,-2.55969 5.94289,-2.81281 16.55869,-3.03803 10.91561,-0.23158 11.88918,-0.0832 16.95409,2.58413 15.77124,8.30562 24.14811,25.38811 24.73009,50.43075 0.33516,14.42116 -1.6914,25.22054 -6.69529,35.67891 -10.54397,22.03743 -26.83887,31.02671 -44.67384,24.64489 z m 16.64136,-23.16938 c 6.39014,-1.45024 8.42551,-8.26696 9.43847,-18.32251 3.09764,-30.74986 -9.02456,-46.04809 -15.84265,-45.81819 -6.88165,0.23203 -18.36196,19.12356 -14.52586,42.50411 1.65339,10.07718 6.30966,17.58841 10.62549,21.95815 3.43232,3.4752 5.31644,0.81051 10.30455,-0.32156 z"
   id="path10157-1"
   inkscape:connector-curvature="0"
   sodipodi:nodetypes="sscsssssssssssss" /><path
   style="fill:#ffffff;fill-opacity:1;stroke:#000000;stroke-width:0;stroke-miterlimit:4;stroke-opacity:1;stroke-dasharray:none;stroke-dashoffset:0"
   d="m 189.82392,228.9546 c -7.74406,-2.77106 -17.10069,-12.00327 -21.97658,-21.68443 -6.65236,-13.20826 -7.56517,-17.38016 -7.96662,-36.41049 -0.31534,-14.93529 -0.0925,-18.03535 1.74408,-24.30072 3.78566,-12.91409 10.67751,-21.93232 21.32536,-27.905 4.56334,-2.5597 5.94289,-2.81281 16.5587,-3.03804 10.91561,-0.23158 11.88917,-0.0832 16.95408,2.58413 15.77123,8.30562 24.14812,25.38812 24.7301,50.43075 0.33514,14.42117 -1.69139,25.22054 -6.69528,35.67891 -10.54399,22.03743 -26.83888,31.02672 -44.67384,24.64489 z m 16.64135,-23.16937 c 6.39014,-1.45025 8.4255,-8.26697 9.43847,-18.32251 3.09763,-30.74986 -9.02457,-46.0481 -15.84265,-45.8182 -6.88165,0.23203 -18.36198,19.12356 -14.52587,42.50412 1.65338,10.07717 6.30966,17.5884 10.62548,21.95814 3.43234,3.47521 5.31645,0.81052 10.30457,-0.32155 z"
   id="path10157-7-7"
   inkscape:connector-curvature="0"
   sodipodi:nodetypes="sscsssssssssssss" /><path
   style="fill:#ffffff;fill-opacity:1;stroke:#000000;stroke-width:0;stroke-miterlimit:4;stroke-opacity:1;stroke-dasharray:none;stroke-dashoffset:0"
   d="m 371.97731,231.39037 c -7.74405,-2.77105 -17.10068,-12.00325 -21.97657,-21.68441 -6.65236,-13.20827 -7.56517,-17.38015 -7.96661,-36.4105 -0.31534,-14.93528 -0.0926,-18.03536 1.74407,-24.30072 3.78567,-12.9141 10.67752,-21.93232 21.32536,-27.90501 4.56334,-2.5597 5.94289,-2.8128 16.5587,-3.03803 10.91561,-0.23159 11.88917,-0.0832 16.95408,2.58413 15.77123,8.30562 24.14811,25.38812 24.73009,50.43076 0.33516,14.42116 -1.69139,25.22054 -6.69529,35.67891 -10.54397,22.03742 -26.83888,31.02671 -44.67383,24.64487 z m 16.64136,-23.16935 c 6.39014,-1.45027 8.4255,-8.26698 9.43846,-18.32252 3.09765,-30.74986 -9.02455,-46.0481 -15.84264,-45.8182 -6.88165,0.23203 -18.36197,19.12356 -14.52587,42.50412 1.65338,10.07717 6.30966,17.5884 10.62548,21.95815 3.43234,3.47519 5.31644,0.81052 10.30457,-0.32155 z"
   id="path10157-4-4"
   inkscape:connector-curvature="0"
   sodipodi:nodetypes="sscsssssssssssss" /><path
   style="fill:#ffffff;fill-opacity:1;stroke:#6d00ad;stroke-width:0;stroke-miterlimit:4;stroke-opacity:1;stroke-dasharray:none;stroke-dashoffset:0"
   d="m 91.217326,229.26541 -1.676642,-3.51599 6.706435,-12.03924 c 8.264611,-14.83647 12.688711,-25.83609 14.289151,-35.5271 1.60607,-9.72519 0.63258,-14.47831 -3.89192,-19.00284 -3.54586,-3.54586 -3.77308,-3.61212 -10.990043,-3.20431 l -7.369335,0.4164 0.02331,-4.25285 c 0.04443,-8.10983 2.951046,-34.54115 3.90318,-35.49328 2.210527,-2.21054 16.715848,-4.2937 26.196588,-3.76219 18.09164,1.01424 29.1041,8.85031 33.56946,23.88677 3.19901,10.77223 1.45856,20.7857 -6.29923,36.24173 -5.36489,10.68863 -8.01428,14.69747 -19.00825,28.76168 l -7.94088,10.15852 14.8941,-0.40904 c 14.54826,-0.39953 14.87925,-0.3595 14.25477,1.72395 -0.35165,1.17317 -1.64232,6.04819 -2.8682,10.83339 l -2.22884,8.70041 -24.94351,0 -24.943469,0 -1.676661,-3.51601 0,0 z"
   id="path10141"
   inkscape:connector-curvature="0" /></svg>