<?xml version="1.0" encoding="utf-8"?>
<!-- Generator: Adobe Illustrator 26.0.1, SVG Export Plug-In . SVG Version: 6.00 Build 0)  -->
<svg version="1.1" id="Layer_1" xmlns="http://www.w3.org/2000/svg" xmlns:xlink="http://www.w3.org/1999/xlink" x="0px" y="0px"
	 viewBox="0 0 800 800" style="enable-background:new 0 0 800 800;" xml:space="preserve">
<style type="text/css">
	.st0{stroke:#FFFFFF;stroke-width:16;stroke-miterlimit:10;}
	.st1{fill:#FFFFFF;}
</style>
<circle class="st0" cx="400" cy="400" r="350"/>
<path class="st1" d="M405.5,142.7c26.1-0.4,52.1-0.2,78-0.4c1.6,30.5,12.6,61.6,34.9,83.2c22.3,22.1,53.9,32.3,84.6,35.7v80.4
	c-28.7-1-57.6-7-83.8-19.3c-11.4-5.2-21.9-11.8-32.3-18.5c-0.2,58.2,0.2,116.5-0.4,174.5c-1.6,27.9-10.8,55.6-26.9,78.6
	c-26.1,38.3-71.4,63.2-117.9,64c-28.5,1.6-57-6.2-81.4-20.5c-40.3-23.7-68.6-67.2-72.8-113.9c-0.4-10-0.6-19.9-0.2-29.7
	c3.6-37.9,22.3-74.2,51.5-98.9c33.1-28.7,79.4-42.5,122.7-34.3c0.4,29.5-0.8,59-0.8,88.6c-19.7-6.4-42.9-4.6-60.2,7.4
	c-12.6,8.2-22.1,20.7-27.1,34.9c-4.2,10.2-3,21.3-2.8,32.1c4.8,32.7,36.3,60.2,69.8,57.2c22.3-0.2,43.7-13.2,55.2-32.1
	c3.8-6.6,8-13.4,8.2-21.1c2-35.7,1.2-71.2,1.4-106.9C405.3,303.1,404.9,222.9,405.5,142.7L405.5,142.7z"/>
</svg>
