<?xml version="1.0" encoding="UTF-8" standalone="no"?>
<!-- Generator: Adobe Illustrator 16.0.0, SVG Export Plug-In . SVG Version: 6.00 Build 0)  -->

<svg
   xmlns:osb="http://www.openswatchbook.org/uri/2009/osb"
   xmlns:dc="http://purl.org/dc/elements/1.1/"
   xmlns:cc="http://creativecommons.org/ns#"
   xmlns:rdf="http://www.w3.org/1999/02/22-rdf-syntax-ns#"
   xmlns:svg="http://www.w3.org/2000/svg"
   xmlns="http://www.w3.org/2000/svg"
   xmlns:sodipodi="http://sodipodi.sourceforge.net/DTD/sodipodi-0.dtd"
   xmlns:inkscape="http://www.inkscape.org/namespaces/inkscape"
   version="1.1"
   id="Layer_1"
   x="0px"
   y="0px"
   width="500"
   height="500"
   viewBox="0 0 500 500"
   enable-background="new 0 0 4000 4000"
   xml:space="preserve"
   inkscape:version="0.48.4 r9939"
   sodipodi:docname="مكافئة بالنقاط.svg"><metadata
   id="metadata21"><rdf:RDF><cc:Work
       rdf:about=""><dc:format>image/svg+xml</dc:format><dc:type
         rdf:resource="http://purl.org/dc/dcmitype/StillImage" /></cc:Work></rdf:RDF></metadata><defs
   id="defs19"><linearGradient
     id="linearGradient5223"
     osb:paint="gradient"><stop
       style="stop-color:#1af596;stop-opacity:1;"
       offset="0"
       id="stop5225" /><stop
       style="stop-color:#1af596;stop-opacity:0;"
       offset="1"
       id="stop5227" /></linearGradient></defs><sodipodi:namedview
   pagecolor="#ffffff"
   bordercolor="#666666"
   borderopacity="1"
   objecttolerance="10"
   gridtolerance="10"
   guidetolerance="10"
   inkscape:pageopacity="0"
   inkscape:pageshadow="2"
   inkscape:window-width="1360"
   inkscape:window-height="706"
   id="namedview17"
   showgrid="false"
   inkscape:zoom="0.71"
   inkscape:cx="319.59027"
   inkscape:cy="221.37206"
   inkscape:window-x="-8"
   inkscape:window-y="-8"
   inkscape:window-maximized="1"
   inkscape:current-layer="Layer_1" />
<path
   d="m 470.23262,149.50046 c -1.84021,-15.4006 -8.01408,-28.50848 -21.31646,-38.41668 C 410.64768,82.575287 369.52633,58.798266 327.83344,35.868984 310.49968,26.335035 292.59572,18.04461 274.56215,9.9074678 266.12219,6.1001205 257.95629,4.2581755 249.77862,4.2833217 241.60095,4.2581701 233.43425,6.1001205 224.99576,9.9074678 206.96138,18.04461 189.05809,26.335035 171.72367,35.868984 130.02998,58.798266 88.90957,82.575287 50.64161,111.08378 37.337769,120.9921 31.163894,134.1 29.32435,149.50046 c -7.988406,66.9796 -9.234199,133.98076 -0.652054,201.09064 2.182216,17.05381 8.927773,30.28837 22.624184,40.40522 53.71857,39.68321 111.73148,71.94889 172.01356,100.42782 9.01832,4.25823 17.7706,6.12666 26.46845,5.98514 8.69771,0.14152 17.45012,-1.72691 26.46911,-5.98514 60.28208,-28.47893 118.29513,-60.74461 172.01276,-100.42782 13.69588,-10.11685 20.4413,-23.35141 22.62499,-40.40522 8.58161,-67.10988 7.33501,-134.11104 -0.65273,-201.09064 z"
   id="path3"
   inkscape:connector-curvature="0"
   style="fill:#25edd7;fill-opacity:1" />


<path
   d="m 461.24306,150.57465 c -1.70177,-14.24468 -7.33769,-24.4858 -17.73449,-32.23117 C 405.0749,89.713552 363.10353,65.597454 323.47061,43.801347 305.78761,34.075859 287.0319,25.465625 270.84028,18.159505 263.64384,14.91353 256.80988,13.336152 249.80658,13.336152 V 488.35953 l 0.88706,0.006 c 7.28633,0 14.38098,-1.67675 21.68776,-5.12764 66.78447,-31.54969 122.55617,-64.10427 170.50119,-99.5231 11.17914,-8.25725 17.04632,-18.82794 19.02389,-34.27121 8.02573,-62.77379 7.80904,-127.82612 -0.66342,-198.86882 z"
   id="path9"
   inkscape:connector-curvature="0"
   style="fill:#209f97;fill-opacity:1;opacity:0.20000000000000001" />



<g
   transform="matrix(0.69326451,0,0,0.67150102,81.756885,83.328613)"
   id="g3"><g
     id="g5"><path
       inkscape:connector-curvature="0"
       d="m 434.539,221.226 -6,-8.2 c -6.6,-9 -6.7,-21.2 -0.2,-30.3 l 5.9,-8.3 c 9,-12.7 4.8,-30.5 -8.9,-37.9 l -9,-4.8 c -9.8,-5.3 -15.2,-16.2 -13.3,-27.2 l 1.7,-10.1 c 2.6,-15.4 -8.9,-29.6 -24.5,-30.2 l -10.2,-0.4 c -11.1,-0.5 -20.7,-8 -23.8,-18.7 l -2.8,-9.8 c -4.3,-15 -20.8,-22.8 -35.2,-16.6 l -9.4,4 c -10.2,4.4 -22.1,1.8 -29.6,-6.5 l -6.8,-7.6 c -10.4,-11.6 -28.7,-11.5 -38.9,0.3 l -6.7,7.7 c -7.3,8.4 -19.2,11.2 -29.5,7 l -9.4,-3.9 c -14.4,-6 -30.8,2.1 -34.9,17.1 l -2.7,9.8 c -2.9,10.7 -12.4,18.4 -23.5,19.1 l -10.2,0.6 c -15.6,0.9 -26.9,15.3 -24,30.6 l 1.8,10 c 2,11 -3.2,22 -12.9,27.4 l -8.9,5 c -13.7,7.6 -17.6,25.4 -8.4,38 l 6,8.2 c 6.6,9 6.7,21.2 0.2,30.3 l -5.9,8.3 c -9,12.7 -4.8,30.5 8.9,37.9 l 9,4.8 c 9.8,5.3 15.2,16.2 13.3,27.2 l -1.7,10.1 c -2.6,15.4 8.9,29.6 24.5,30.2 l 10.2,0.4 c 11.1,0.5 20.7,8 23.8,18.7 l 2.8,9.8 c 4.3,15 20.8,22.8 35.2,16.6 l 9.4,-4 c 10.2,-4.4 22.1,-1.8 29.6,6.5 l 6.8,7.6 c 10.4,11.6 28.7,11.5 38.9,-0.3 l 6.7,-7.7 c 7.3,-8.4 19.2,-11.2 29.5,-7 l 9.4,3.9 c 14.4,6 30.8,-2.1 34.9,-17.1 l 2.7,-9.8 c 2.9,-10.7 12.4,-18.4 23.5,-19.1 l 10.2,-0.6 c 15.6,-0.9 26.9,-15.3 24,-30.6 l -1.8,-10 c -2,-11 3.2,-22 12.9,-27.4 l 8.9,-5 c 13.7,-7.5 17.6,-25.4 8.4,-38 z m -190.3,108 c -71.7,0 -130,-58.3 -130,-130 0,-71.7 58.3,-130 130,-130 71.7,0 130,58.3 130,130 0,71.7 -58.3,130 -130,130 z"
       id="path7" /><path
       inkscape:connector-curvature="0"
       d="m 380.039,361.126 -4.5,0.3 -2.2,8 c -6.5,23.7 -28.2,40.2 -52.7,40.2 -7.2,0 -14.2,-1.4 -20.8,-4.1 l -7.6,-3.2 -2.4,2.8 37.1,67.5 c 2.2,3.9 6,6.7 10.4,7.5 l 44.7,8.3 c 7,1.3 14,-2.5 16.7,-9.2 l 16.9,-42.2 c 1.7,-4.2 1.4,-8.9 -0.8,-12.8 l -34.8,-63.1 z"
       id="path9-1" /><path
       inkscape:connector-curvature="0"
       d="m 191.739,406.226 c -6.9,3 -14.1,4.5 -21.6,4.5 -24.2,0 -45.8,-16.2 -52.5,-39.4 l -2.3,-7.9 -8,-0.3 -33.6,61.2 c -2.2,3.9 -2.5,8.6 -0.8,12.8 l 16.9,42.2 c 2.7,6.7 9.7,10.5 16.7,9.2 l 44.7,-8.3 c 4.4,-0.8 8.2,-3.6 10.4,-7.5 l 38.1,-69.3 -0.3,-0.3 -7.7,3.1 z"
       id="path11" /><path
       inkscape:connector-curvature="0"
       d="m 319.139,191.926 c 0,0 7.5,-11.7 -2.2,-20.6 -12.1,-11.1 -45,-3.7 -45,-3.7 l 0,0 c -2.3,0.4 -4.7,0.9 -7.3,1.5 0,0 -11.4,5.3 0,-29.2 11.4,-34.5 -7.6,-39.9 -15.6,-39.9 -8,0 -5.3,17.1 -5.3,17.1 0,0 -17.1,47.1 -33.4,59.6 -4.3,4.6 -6.7,9.7 -7.9,13.3 -2.6,-2.2 -5.9,-3.5 -9.5,-3.5 h -21.9 c -8.1,0 -14.6,6.6 -14.6,14.6 v 58.4 c 0,8.1 6.6,14.6 14.6,14.6 h 21.9 c 3,0 5.8,-0.9 8.1,-2.5 0.5,-0.5 3.4,-3.4 3.4,-11.5 v -36.3 c 0,1.4 0.2,45 25.3,47.7 9,0.6 20.1,1.1 31.2,0.9 10.1,0.8 20.9,0.9 29.4,-0.9 29,-6.2 21.8,-26.4 21.8,-26.4 15.7,-11.8 6.8,-26.5 6.8,-26.5 13.8,-14.5 0.2,-26.7 0.2,-26.7 z"
       id="path13" /></g></g></svg>