<?xml version="1.0" encoding="UTF-8" standalone="no"?>
<!-- Generator: Adobe Illustrator 16.0.0, SVG Export Plug-In . SVG Version: 6.00 Build 0)  -->

<svg
   xmlns:osb="http://www.openswatchbook.org/uri/2009/osb"
   xmlns:dc="http://purl.org/dc/elements/1.1/"
   xmlns:cc="http://creativecommons.org/ns#"
   xmlns:rdf="http://www.w3.org/1999/02/22-rdf-syntax-ns#"
   xmlns:svg="http://www.w3.org/2000/svg"
   xmlns="http://www.w3.org/2000/svg"
   xmlns:xlink="http://www.w3.org/1999/xlink"
   xmlns:sodipodi="http://sodipodi.sourceforge.net/DTD/sodipodi-0.dtd"
   xmlns:inkscape="http://www.inkscape.org/namespaces/inkscape"
   version="1.1"
   id="Layer_1"
   x="0px"
   y="0px"
   width="500"
   height="500"
   viewBox="0 0 500 500"
   enable-background="new 0 0 4000 4000"
   xml:space="preserve"
   inkscape:version="0.48.4 r9939"
   sodipodi:docname="100.svg"><metadata
   id="metadata21"><rdf:RDF><cc:Work
       rdf:about=""><dc:format>image/svg+xml</dc:format><dc:type
         rdf:resource="http://purl.org/dc/dcmitype/StillImage" /></cc:Work></rdf:RDF></metadata><defs
   id="defs19"><linearGradient
     id="linearGradient5223"
     osb:paint="gradient"><stop
       style="stop-color:#1af596;stop-opacity:1;"
       offset="0"
       id="stop5225" /><stop
       style="stop-color:#1af596;stop-opacity:0;"
       offset="1"
       id="stop5227" /></linearGradient><linearGradient
     id="SVGID_7_"
     gradientUnits="userSpaceOnUse"
     x1="343.13989"
     y1="399.31641"
     x2="-21.260099"
     y2="244.11639"
     gradientTransform="matrix(0.35514037,0,0,-0.35514037,164.65138,450.92425)"><stop
       offset="0"
       style="stop-color:#FFC200;stop-opacity:0"
       id="stop6310" /><stop
       offset="0.203"
       style="stop-color:#FFBB00;stop-opacity:0.203"
       id="stop6312" /><stop
       offset="0.499"
       style="stop-color:#FFA700;stop-opacity:0.499"
       id="stop6314" /><stop
       offset="0.852"
       style="stop-color:#FF8800;stop-opacity:0.852"
       id="stop6316" /><stop
       offset="1"
       style="stop-color:#FF7800"
       id="stop6318" /></linearGradient><linearGradient
     id="SVGID_6_"
     gradientUnits="userSpaceOnUse"
     x1="156.4334"
     y1="414.01999"
     x2="106.8334"
     y2="273.22"
     gradientTransform="matrix(0.35514037,0,0,-0.35514037,164.65138,450.92425)"><stop
       offset="0"
       style="stop-color:#FFC200;stop-opacity:0"
       id="stop6297" /><stop
       offset="0.203"
       style="stop-color:#FFBB00;stop-opacity:0.203"
       id="stop6299" /><stop
       offset="0.499"
       style="stop-color:#FFA700;stop-opacity:0.499"
       id="stop6301" /><stop
       offset="0.852"
       style="stop-color:#FF8800;stop-opacity:0.852"
       id="stop6303" /><stop
       offset="1"
       style="stop-color:#FF7800"
       id="stop6305" /></linearGradient><linearGradient
     id="SVGID_5_"
     gradientUnits="userSpaceOnUse"
     x1="64.677696"
     y1="245.108"
     x2="187.0777"
     y2="142.70799"
     gradientTransform="matrix(0.35514037,0,0,-0.35514037,164.65138,450.92425)"><stop
       offset="0"
       style="stop-color:#FFC200;stop-opacity:0"
       id="stop6284" /><stop
       offset="0.203"
       style="stop-color:#FFBB00;stop-opacity:0.203"
       id="stop6286" /><stop
       offset="0.499"
       style="stop-color:#FFA700;stop-opacity:0.499"
       id="stop6288" /><stop
       offset="0.852"
       style="stop-color:#FF8800;stop-opacity:0.852"
       id="stop6290" /><stop
       offset="1"
       style="stop-color:#FF7800"
       id="stop6292" /></linearGradient><linearGradient
     id="SVGID_4_"
     gradientUnits="userSpaceOnUse"
     x1="183.0977"
     y1="35.1087"
     x2="349.15771"
     y2="201.1687"
     gradientTransform="matrix(0.35514037,0,0,-0.35514037,164.65138,450.92425)"><stop
       offset="0"
       style="stop-color:#FFC200;stop-opacity:0"
       id="stop6271" /><stop
       offset="0.203"
       style="stop-color:#FFBB00;stop-opacity:0.203"
       id="stop6273" /><stop
       offset="0.499"
       style="stop-color:#FFA700;stop-opacity:0.499"
       id="stop6275" /><stop
       offset="0.852"
       style="stop-color:#FF8800;stop-opacity:0.852"
       id="stop6277" /><stop
       offset="1"
       style="stop-color:#FF7800"
       id="stop6279" /></linearGradient><linearGradient
     id="SVGID_3_"
     gradientUnits="userSpaceOnUse"
     x1="388.68741"
     y1="144.8383"
     x2="346.28741"
     y2="353.63831"
     gradientTransform="matrix(0.35514037,0,0,-0.35514037,164.65138,450.92425)"><stop
       offset="0"
       style="stop-color:#FFC200;stop-opacity:0"
       id="stop6258" /><stop
       offset="0.203"
       style="stop-color:#FFBB00;stop-opacity:0.203"
       id="stop6260" /><stop
       offset="0.499"
       style="stop-color:#FFA700;stop-opacity:0.499"
       id="stop6262" /><stop
       offset="0.852"
       style="stop-color:#FF8800;stop-opacity:0.852"
       id="stop6264" /><stop
       offset="1"
       style="stop-color:#FF7800"
       id="stop6266" /></linearGradient><linearGradient
     id="SVGID_2_"
     gradientUnits="userSpaceOnUse"
     x1="361.33801"
     y1="390.13141"
     x2="201.23801"
     y2="390.13141"
     gradientTransform="matrix(0.35514037,0,0,-0.35514037,164.65138,450.92425)"><stop
       offset="0"
       style="stop-color:#FFC200;stop-opacity:0"
       id="stop6245" /><stop
       offset="0.203"
       style="stop-color:#FFBB00;stop-opacity:0.203"
       id="stop6247" /><stop
       offset="0.499"
       style="stop-color:#FFA700;stop-opacity:0.499"
       id="stop6249" /><stop
       offset="0.852"
       style="stop-color:#FF8800;stop-opacity:0.852"
       id="stop6251" /><stop
       offset="1"
       style="stop-color:#FF7800"
       id="stop6253" /></linearGradient><linearGradient
     y2="-71.181602"
     x2="236.9382"
     y1="458.42841"
     x1="236.9382"
     gradientTransform="matrix(0.35514037,0,0,-0.35514037,164.65138,450.92425)"
     gradientUnits="userSpaceOnUse"
     id="linearGradient6415"
     xlink:href="#SVGID_1_"
     inkscape:collect="always" /><linearGradient
     id="SVGID_1_"
     gradientUnits="userSpaceOnUse"
     x1="236.9382"
     y1="458.42841"
     x2="236.9382"
     y2="-71.181602"
     gradientTransform="matrix(1.0667,0,0,-1.0667,3.2666,557.5352)"><stop
       offset="0"
       style="stop-color:#FFCF95"
       id="stop6236" /><stop
       offset="0.427"
       style="stop-color:#FFC954"
       id="stop6238" /><stop
       offset="1"
       style="stop-color:#FFC200"
       id="stop6240" /></linearGradient></defs><sodipodi:namedview
   pagecolor="#ffffff"
   bordercolor="#666666"
   borderopacity="1"
   objecttolerance="10"
   gridtolerance="10"
   guidetolerance="10"
   inkscape:pageopacity="0"
   inkscape:pageshadow="2"
   inkscape:window-width="1600"
   inkscape:window-height="838"
   id="namedview17"
   showgrid="false"
   inkscape:zoom="0.74642639"
   inkscape:cx="197.99247"
   inkscape:cy="271.14804"
   inkscape:window-x="-8"
   inkscape:window-y="-8"
   inkscape:window-maximized="1"
   inkscape:current-layer="Layer_1" />
<path
   d="m 470.23262,149.50046 c -1.84021,-15.4006 -8.01408,-28.50848 -21.31646,-38.41668 C 410.64768,82.575287 369.52633,58.798266 327.83344,35.868984 310.49968,26.335035 292.59572,18.04461 274.56215,9.9074678 266.12219,6.1001205 257.95629,4.2581755 249.77862,4.2833217 241.60095,4.2581701 233.43425,6.1001205 224.99576,9.9074678 206.96138,18.04461 189.05809,26.335035 171.72367,35.868984 130.02998,58.798266 88.90957,82.575287 50.64161,111.08378 37.337769,120.9921 31.163894,134.1 29.32435,149.50046 c -7.988406,66.9796 -9.234199,133.98076 -0.652054,201.09064 2.182216,17.05381 8.927773,30.28837 22.624184,40.40522 53.71857,39.68321 111.73148,71.94889 172.01356,100.42782 9.01832,4.25823 17.7706,6.12666 26.46845,5.98514 8.69771,0.14152 17.45012,-1.72691 26.46911,-5.98514 60.28208,-28.47893 118.29513,-60.74461 172.01276,-100.42782 13.69588,-10.11685 20.4413,-23.35141 22.62499,-40.40522 8.58161,-67.10988 7.33501,-134.11104 -0.65273,-201.09064 z"
   id="path3"
   inkscape:connector-curvature="0"
   style="fill:#2b0000;fill-opacity:1" />
<path
   d="m 346.09252,291.40542 c 0.44928,-0.76174 0.91194,-1.56039 1.38063,-2.38259 -0.0516,0.0589 -0.0869,0.0958 -0.14152,0.15917 -0.39926,0.75131 -0.82219,1.48522 -1.23911,2.22342 z"
   id="path5"
   inkscape:connector-curvature="0"
   style="fill:none" />
<path
   d="m 346.09252,291.40542 c -3.55107,6.00721 -6.45664,10.09906 -7.33194,11.30139 2.65665,-3.613 5.11147,-7.3718 7.33194,-11.30139 z"
   id="path7"
   inkscape:connector-curvature="0"
   style="fill:#010101" />
<path
   d="m 461.24306,150.57465 c -1.70177,-14.24468 -7.33769,-24.4858 -17.73449,-32.23117 C 405.0749,89.713552 363.10353,65.597454 323.47061,43.801347 305.78761,34.075859 287.0319,25.465625 270.84028,18.159505 263.64384,14.91353 256.80988,13.336152 249.80658,13.336152 V 488.35953 l 0.88706,0.006 c 7.28633,0 14.38098,-1.67675 21.68776,-5.12764 66.78447,-31.54969 122.55617,-64.10427 170.50119,-99.5231 11.17914,-8.25725 17.04632,-18.82794 19.02389,-34.27121 8.02573,-62.77379 7.80904,-127.82612 -0.66342,-198.86882 z"
   id="path9"
   inkscape:connector-curvature="0"
   style="fill:#ffffff;fill-opacity:1;opacity:0.2;stroke:#000000;stroke-opacity:0.32941176999999999" />



<path
   style="fill:#ffffff;fill-opacity:1;stroke:#000000;stroke-width:1.28509378;stroke-miterlimit:4;stroke-opacity:1;stroke-dasharray:none;stroke-dashoffset:0"
   d="m 337.89132,242.88025 c -10.01346,-3.58311 -22.11208,-15.52085 -28.41687,-28.0391 -8.60185,-17.07899 -9.78215,-22.47346 -10.30126,-47.0807 -0.40774,-19.31211 -0.11977,-23.32067 2.25519,-31.42212 4.89506,-16.69862 13.8066,-28.35965 27.57482,-36.08266 5.90064,-3.30982 7.68448,-3.63709 21.41127,-3.92832 14.11447,-0.29947 15.37333,-0.10756 21.92253,3.34141 20.39305,10.7396 31.22479,32.82818 31.97732,65.20964 0.43338,18.64733 -2.18706,32.61149 -8.65735,46.13473 -13.63392,28.49554 -34.7041,40.11917 -57.76565,31.86712 z m 21.51817,-29.95921 c 8.26278,-1.87525 10.89462,-10.68963 12.20443,-23.69198 4.00542,-39.7612 -11.66923,-59.54263 -20.48539,-59.24535 -8.89833,0.30003 -23.74299,24.72777 -18.78271,54.96007 2.13791,13.03032 8.15873,22.74274 13.73931,28.39305 4.43819,4.4936 6.87444,1.04805 13.32436,-0.41579 z"
   id="path10157"
   inkscape:connector-curvature="0"
   sodipodi:nodetypes="sscsssssssssssss" /><path
   style="fill:#ffffff;fill-opacity:1;stroke:#000000;stroke-width:1.28509378;stroke-miterlimit:4;stroke-opacity:1;stroke-dasharray:none;stroke-dashoffset:0"
   d="m 126.40472,195.93285 c -0.42257,-25.48804 -0.97406,-46.54762 -1.22549,-46.79907 -0.25143,-0.25146 -3.369,0.31097 -6.9279,1.24979 l -6.47071,1.70694 -4.05815,-13.8483 c -2.23198,-7.61657 -4.04262,-14.6147 -4.02363,-15.55142 0.019,-0.93672 3.91747,-3.3883 8.66336,-5.44795 4.74588,-2.05966 18.06483,-8.28419 29.59771,-13.83229 l 20.96886,-10.08744 4.4899,2.7749 c 3.95001,2.44123 4.40491,3.25568 3.78301,6.77324 -0.38879,2.19908 -1.02918,23.34652 -1.42309,46.99429 -0.39392,23.64778 -1.05494,54.11392 -1.46892,67.70255 l -0.75275,24.70664 -20.19193,0 -20.19195,0 -0.76832,-46.34188 z"
   id="path10139"
   inkscape:connector-curvature="0" /><path
   style="fill:#ffffff;fill-opacity:1;stroke:#000000;stroke-width:1.28509378;stroke-miterlimit:4;stroke-opacity:1;stroke-dasharray:none;stroke-dashoffset:0"
   d="m 220.58621,242.36696 c -10.01346,-3.58312 -22.11209,-15.52086 -28.41686,-28.0391 -8.60186,-17.07899 -9.78216,-22.47346 -10.30126,-47.08071 -0.40775,-19.31211 -0.11977,-23.32067 2.25518,-31.42212 4.89507,-16.6986 13.8066,-28.35966 27.57482,-36.08266 5.90063,-3.30982 7.68447,-3.6371 21.4113,-3.92833 14.11445,-0.29945 15.37331,-0.10756 21.92252,3.3414 20.39303,10.73963 31.22479,32.82821 31.97733,65.20966 0.43336,18.64732 -2.18706,32.6115 -8.65737,46.13472 -13.63393,28.49555 -34.7041,40.11919 -57.76566,31.86714 z m 21.51818,-29.95921 c 8.26278,-1.87525 10.89461,-10.68963 12.20443,-23.69199 4.00542,-39.7612 -11.66923,-59.54262 -20.48538,-59.24536 -8.89834,0.30004 -23.74301,24.72778 -18.78273,54.96007 2.13791,13.03033 8.15874,22.74276 13.73933,28.39306 4.43818,4.49361 6.87444,1.04804 13.32435,-0.41578 z"
   id="path10157-7"
   inkscape:connector-curvature="0"
   sodipodi:nodetypes="sscsssssssssssss" /><path
   inkscape:connector-curvature="0"
   style="fill:url(#linearGradient6415)"
   d="m 255.06733,273.03005 22.54693,45.6845 50.41582,7.32587 c 5.73711,0.83333 8.02769,7.88387 3.87668,11.93067 l -36.48187,35.55999 8.61199,50.21206 c 0.98016,5.71381 -5.01731,10.07125 -10.14849,7.37348 l -45.09354,-23.70687 -45.0932,23.70687 c -5.13118,2.69743 -11.12865,-1.65967 -10.1485,-7.37348 l 8.61201,-50.21206 -36.48155,-35.56032 c -4.15135,-4.0468 -1.86043,-11.09668 3.87668,-11.93068 l 50.41582,-7.32586 22.54661,-45.68417 c 2.56592,-5.19876 9.97869,-5.19876 12.54461,0 z"
   id="path6242" /><path
   inkscape:connector-curvature="0"
   style="fill:url(#SVGID_2_)"
   d="m 277.61359,318.71455 -22.54626,-45.6845 c -1.2828,-2.59921 -3.77747,-3.89899 -6.27213,-3.89899 v 86.49252 l 28.81839,-36.90903 z"
   id="path6255" /><path
   inkscape:connector-curvature="0"
   style="fill:url(#SVGID_3_)"
   d="m 295.42489,373.53108 36.48121,-35.56065 c 2.04786,-1.99627 2.52563,-4.72266 1.7975,-7.07384 l -84.90875,24.72665 46.63004,17.90784 z"
   id="path6268" /><path
   inkscape:connector-curvature="0"
   style="fill:url(#SVGID_4_)"
   d="m 301.2752,430.56795 -52.48035,-74.94471 v 51.78651 l 45.09322,23.70687 c 2.5749,1.35371 5.36721,0.93022 7.38713,-0.54867 z"
   id="path6281" /><path
   inkscape:connector-curvature="0"
   style="fill:url(#SVGID_5_)"
   d="m 248.79485,355.62324 -46.63002,17.90784 -8.61168,50.21206 c -0.4884,2.84659 0.7561,5.3559 2.76136,6.82481 l 52.48034,-74.94471 z"
   id="path6294" /><path
   inkscape:connector-curvature="0"
   style="fill:url(#SVGID_6_)"
   d="m 163.8861,330.89692 84.90875,24.72632 -28.81874,-36.90902 -50.41582,7.3262 c -2.90685,0.42216 -4.92642,2.4414 -5.67419,4.8565 l 0,0 z"
   id="path6307" /><path
   inkscape:connector-curvature="0"
   style="fill:url(#SVGID_7_)"
   d="m 202.16516,373.53108 -36.48155,-35.56032 c -2.04788,-1.99627 -2.52563,-4.72266 -1.79751,-7.07384 l 84.90875,24.72632 -46.62969,17.90784 z"
   id="path6320" /></svg>