<?xml version="1.0" encoding="UTF-8" standalone="no"?>
<!-- Generator: Adobe Illustrator 16.0.0, SVG Export Plug-In . SVG Version: 6.00 Build 0)  -->

<svg
   xmlns:osb="http://www.openswatchbook.org/uri/2009/osb"
   xmlns:dc="http://purl.org/dc/elements/1.1/"
   xmlns:cc="http://creativecommons.org/ns#"
   xmlns:rdf="http://www.w3.org/1999/02/22-rdf-syntax-ns#"
   xmlns:svg="http://www.w3.org/2000/svg"
   xmlns="http://www.w3.org/2000/svg"
   xmlns:sodipodi="http://sodipodi.sourceforge.net/DTD/sodipodi-0.dtd"
   xmlns:inkscape="http://www.inkscape.org/namespaces/inkscape"
   version="1.1"
   id="Layer_1"
   x="0px"
   y="0px"
   width="500"
   height="500"
   viewBox="0 0 500 500"
   enable-background="new 0 0 4000 4000"
   xml:space="preserve"
   inkscape:version="0.48.4 r9939"
   sodipodi:docname="سيفي.svg"><metadata
   id="metadata21"><rdf:RDF><cc:Work
       rdf:about=""><dc:format>image/svg+xml</dc:format><dc:type
         rdf:resource="http://purl.org/dc/dcmitype/StillImage" /></cc:Work></rdf:RDF></metadata><defs
   id="defs19"><linearGradient
     id="linearGradient5223"
     osb:paint="gradient"><stop
       style="stop-color:#1af596;stop-opacity:1;"
       offset="0"
       id="stop5225" /><stop
       style="stop-color:#1af596;stop-opacity:0;"
       offset="1"
       id="stop5227" /></linearGradient></defs><sodipodi:namedview
   pagecolor="#ffffff"
   bordercolor="#666666"
   borderopacity="1"
   objecttolerance="10"
   gridtolerance="10"
   guidetolerance="10"
   inkscape:pageopacity="0"
   inkscape:pageshadow="2"
   inkscape:window-width="1360"
   inkscape:window-height="706"
   id="namedview17"
   showgrid="false"
   inkscape:zoom="0.71"
   inkscape:cx="319.59027"
   inkscape:cy="221.37206"
   inkscape:window-x="-8"
   inkscape:window-y="-8"
   inkscape:window-maximized="1"
   inkscape:current-layer="Layer_1" />
<path
   d="m 470.23262,149.50046 c -1.84021,-15.4006 -8.01408,-28.50848 -21.31646,-38.41668 C 410.64768,82.575287 369.52633,58.798266 327.83344,35.868984 310.49968,26.335035 292.59572,18.04461 274.56215,9.9074678 266.12219,6.1001205 257.95629,4.2581755 249.77862,4.2833217 241.60095,4.2581701 233.43425,6.1001205 224.99576,9.9074678 206.96138,18.04461 189.05809,26.335035 171.72367,35.868984 130.02998,58.798266 88.90957,82.575287 50.64161,111.08378 37.337769,120.9921 31.163894,134.1 29.32435,149.50046 c -7.988406,66.9796 -9.234199,133.98076 -0.652054,201.09064 2.182216,17.05381 8.927773,30.28837 22.624184,40.40522 53.71857,39.68321 111.73148,71.94889 172.01356,100.42782 9.01832,4.25823 17.7706,6.12666 26.46845,5.98514 8.69771,0.14152 17.45012,-1.72691 26.46911,-5.98514 60.28208,-28.47893 118.29513,-60.74461 172.01276,-100.42782 13.69588,-10.11685 20.4413,-23.35141 22.62499,-40.40522 8.58161,-67.10988 7.33501,-134.11104 -0.65273,-201.09064 z"
   id="path3"
   inkscape:connector-curvature="0"
   style="fill:#f95858;fill-opacity:1" />


<path
   d="m 461.24306,150.57465 c -1.70177,-14.24468 -7.33769,-24.4858 -17.73449,-32.23117 C 405.0749,89.713552 363.10353,65.597454 323.47061,43.801347 305.78761,34.075859 287.0319,25.465625 270.84028,18.159505 263.64384,14.91353 256.80988,13.336152 249.80658,13.336152 V 488.35953 l 0.88706,0.006 c 7.28633,0 14.38098,-1.67675 21.68776,-5.12764 66.78447,-31.54969 122.55617,-64.10427 170.50119,-99.5231 11.17914,-8.25725 17.04632,-18.82794 19.02389,-34.27121 8.02573,-62.77379 7.80904,-127.82612 -0.66342,-198.86882 z"
   id="path9"
   inkscape:connector-curvature="0"
   style="fill:#ffffff;fill-opacity:1;opacity:0.2" />



<g
   id="g3"
   transform="matrix(0.58186619,0,0,0.57911532,121.83099,101.74648)"
   style="fill:#ffffff"><g
     id="g5"
     style="fill:#ffffff"><path
       inkscape:connector-curvature="0"
       d="m 196,90 c -16.538,0 -31,13.462 -31,30 0,16.538 14.462,30 31,30 16.538,0 31,-13.462 31,-30 0,-16.538 -14.462,-30 -31,-30 z"
       id="path7"
       style="fill:#ffffff" /></g></g><g
   id="g9"
   transform="matrix(0.58186619,0,0,0.57911532,121.83099,101.74648)"
   style="fill:#ffffff"><g
     id="g11"
     style="fill:#ffffff"><path
       inkscape:connector-curvature="0"
       d="M 85.605,13.184 13.184,85.605 c -1.359,1.359 -2.45,2.9 -3.611,4.395 H 90 V 9.571 c -1.494,1.161 -3.036,2.254 -4.395,3.613 z"
       id="path13"
       style="fill:#ffffff" /></g></g><g
   id="g15"
   transform="matrix(0.58186619,0,0,0.57911532,121.83099,101.74648)"
   style="fill:#ffffff"><g
     id="g17"
     style="fill:#ffffff"><path
       inkscape:connector-curvature="0"
       d="m 196,180 c -41.353,0 -76,35.647 -76,77 v 15 h 152 v -15 c 0,-41.353 -34.647,-77 -76,-77 z"
       id="path19"
       style="fill:#ffffff" /></g></g><g
   id="g21"
   transform="matrix(0.58186619,0,0,0.57911532,121.83099,101.74648)"
   style="fill:#ffffff"><g
     id="g23"
     style="fill:#ffffff"><path
       inkscape:connector-curvature="0"
       d="M 377,0 H 120 v 105 c 0,8.291 -6.709,15 -15,15 H 0 v 347 c 0,8.291 6.709,15 15,15 H 294.853 C 283.096,464.475 275.601,443.991 273.135,422 H 105 c -8.291,0 -15,-6.709 -15,-15 0,-8.291 6.709,-15 15,-15 h 168.419 c 1.174,-10.4 3.272,-20.471 6.693,-30 H 105 c -8.291,0 -15,-6.709 -15,-15 0,-8.291 6.709,-15 15,-15 H 295.48 C 317.141,300.26 351.816,278.037 392,273.516 V 15 C 392,6.709 385.291,0 377,0 z m -75,287 c 0,8.291 -6.709,15 -15,15 H 105 c -8.291,0 -15,-6.709 -15,-15 v -30 c 0,-42.017 24.976,-80.089 60.72,-96.858 C 141.053,149.487 135,135.489 135,120 c 0,-33.091 27.909,-60 61,-60 33.091,0 61,26.909 61,60 0,15.489 -6.053,29.487 -15.72,40.142 C 277.024,176.911 302,214.983 302,257 v 30 z"
       id="path25"
       style="fill:#ffffff" /></g></g><g
   id="g27"
   transform="matrix(0.58186619,0,0,0.57911532,121.83099,101.74648)"
   style="fill:#ffffff"><g
     id="g29"
     style="fill:#ffffff"><path
       inkscape:connector-curvature="0"
       d="m 407,302 c -57.99,0 -105,47.01 -105,105 0,57.99 47.01,105 105,105 57.99,0 105,-47.01 105,-105 0,-57.99 -47.01,-105 -105,-105 z m 55.605,85.605 -60,60 c -2.93,2.93 -6.768,4.395 -10.605,4.395 -3.837,0 -7.676,-1.465 -10.605,-4.395 l -30,-30 c -5.859,-5.859 -5.859,-15.352 0,-21.211 5.859,-5.859 15.352,-5.859 21.211,0 L 392,415.789 441.395,366.394 c 5.859,-5.859 15.352,-5.859 21.211,0 5.859,5.859 5.859,15.352 -10e-4,21.211 z"
       id="path31"
       style="fill:#ffffff" /></g></g></svg>