<?xml version="1.0" encoding="UTF-8" standalone="no"?>
<!-- Generator: Adobe Illustrator 16.0.0, SVG Export Plug-In . SVG Version: 6.00 Build 0)  -->

<svg
   xmlns:osb="http://www.openswatchbook.org/uri/2009/osb"
   xmlns:dc="http://purl.org/dc/elements/1.1/"
   xmlns:cc="http://creativecommons.org/ns#"
   xmlns:rdf="http://www.w3.org/1999/02/22-rdf-syntax-ns#"
   xmlns:svg="http://www.w3.org/2000/svg"
   xmlns="http://www.w3.org/2000/svg"
   xmlns:sodipodi="http://sodipodi.sourceforge.net/DTD/sodipodi-0.dtd"
   xmlns:inkscape="http://www.inkscape.org/namespaces/inkscape"
   version="1.1"
   id="Layer_1"
   x="0px"
   y="0px"
   width="500"
   height="500"
   viewBox="0 0 500 500"
   enable-background="new 0 0 4000 4000"
   xml:space="preserve"
   inkscape:version="0.48.4 r9939"
   sodipodi:docname="سنة 2.svg"><metadata
   id="metadata21"><rdf:RDF><cc:Work
       rdf:about=""><dc:format>image/svg+xml</dc:format><dc:type
         rdf:resource="http://purl.org/dc/dcmitype/StillImage" /><dc:title></dc:title></cc:Work></rdf:RDF></metadata><defs
   id="defs19"><linearGradient
     id="linearGradient5223"
     osb:paint="gradient"><stop
       style="stop-color:#1af596;stop-opacity:1;"
       offset="0"
       id="stop5225" /><stop
       style="stop-color:#1af596;stop-opacity:0;"
       offset="1"
       id="stop5227" /></linearGradient></defs><sodipodi:namedview
   pagecolor="#ffffff"
   bordercolor="#666666"
   borderopacity="1"
   objecttolerance="10"
   gridtolerance="10"
   guidetolerance="10"
   inkscape:pageopacity="0"
   inkscape:pageshadow="2"
   inkscape:window-width="1280"
   inkscape:window-height="706"
   id="namedview17"
   showgrid="false"
   inkscape:zoom="0.71"
   inkscape:cx="236.80527"
   inkscape:cy="250"
   inkscape:window-x="-8"
   inkscape:window-y="-8"
   inkscape:window-maximized="1"
   inkscape:current-layer="Layer_1" />
<path
   d="m 470.23262,149.50046 c -1.84021,-15.4006 -8.01408,-28.50848 -21.31646,-38.41668 C 410.64768,82.575287 369.52633,58.798266 327.83344,35.868984 310.49968,26.335035 292.59572,18.04461 274.56215,9.9074678 266.12219,6.1001205 257.95629,4.2581755 249.77862,4.2833217 241.60095,4.2581701 233.43425,6.1001205 224.99576,9.9074678 206.96138,18.04461 189.05809,26.335035 171.72367,35.868984 130.02998,58.798266 88.90957,82.575287 50.64161,111.08378 37.337769,120.9921 31.163894,134.1 29.32435,149.50046 c -7.988406,66.9796 -9.234199,133.98076 -0.652054,201.09064 2.182216,17.05381 8.927773,30.28837 22.624184,40.40522 53.71857,39.68321 111.73148,71.94889 172.01356,100.42782 9.01832,4.25823 17.7706,6.12666 26.46845,5.98514 8.69771,0.14152 17.45012,-1.72691 26.46911,-5.98514 60.28208,-28.47893 118.29513,-60.74461 172.01276,-100.42782 13.69588,-10.11685 20.4413,-23.35141 22.62499,-40.40522 8.58161,-67.10988 7.33501,-134.11104 -0.65273,-201.09064 z"
   id="path3"
   inkscape:connector-curvature="0"
   style="fill:#232178;fill-opacity:1" />
<path
   d="m 346.09252,291.40542 c 0.44928,-0.76174 0.91194,-1.56039 1.38063,-2.38259 -0.0516,0.0589 -0.0869,0.0958 -0.14152,0.15917 -0.39926,0.75131 -0.82219,1.48522 -1.23911,2.22342 z"
   id="path5"
   inkscape:connector-curvature="0"
   style="fill:none" />
<path
   d="m 346.09252,291.40542 c -3.55107,6.00721 -6.45664,10.09906 -7.33194,11.30139 2.65665,-3.613 5.11147,-7.3718 7.33194,-11.30139 z"
   id="path7"
   inkscape:connector-curvature="0"
   style="fill:#010101" />
<path
   d="m 461.24306,150.57465 c -1.70177,-14.24468 -7.33769,-24.4858 -17.73449,-32.23117 C 405.0749,89.713552 363.10353,65.597454 323.47061,43.801347 305.78761,34.075859 287.0319,25.465625 270.84028,18.159505 263.64384,14.91353 256.80988,13.336152 249.80658,13.336152 V 488.35953 l 0.88706,0.006 c 7.28633,0 14.38098,-1.67675 21.68776,-5.12764 66.78447,-31.54969 122.55617,-64.10427 170.50119,-99.5231 11.17914,-8.25725 17.04632,-18.82794 19.02389,-34.27121 8.02573,-62.77379 7.80904,-127.82612 -0.66342,-198.86882 z"
   id="path9"
   inkscape:connector-curvature="0"
   style="fill:#ffffff;fill-opacity:0.63492066000000003;opacity:0.2" />



<g
   transform="matrix(18.915294,0,0,18.915294,-37.607987,-67.418354)"
   id="g5828"><path
     inkscape:connector-curvature="0"
     d="m 15.226,13.438 c 0.659,-0.083 1.269,-0.481 1.567,-1.044 0.321,-0.606 0.268,-1.334 -0.151,-2.051 C 15.791,8.883 16.21,7.599 16.228,7.546 16.263,7.444 16.236,7.329 16.16,7.256 16.083,7.184 15.973,7.167 15.88,7.215 15.761,7.276 13,8.736 13,11.234 c 0,1.129 0.752,2.062 1.72,2.202 l 0.506,0.002 z"
     id="path5830"
     style="fill:#ffffff" /><path
     inkscape:connector-curvature="0"
     d="m 15,18.5 c -0.276,0 -0.5,-0.224 -0.5,-0.5 v -6 c 0,-0.276 0.224,-0.5 0.5,-0.5 0.276,0 0.5,0.224 0.5,0.5 v 6 c 0,0.276 -0.224,0.5 -0.5,0.5 z"
     id="path5832"
     style="fill:#232178;fill-opacity:1" /></g><path
   style="fill:#ffffff;fill-opacity:1;stroke:#6d00ad;stroke-width:0;stroke-miterlimit:4;stroke-opacity:1;stroke-dasharray:none;stroke-dashoffset:0"
   d="m 221.82566,437.1493 c -6.34297,-0.57159 -8.18874,-1.56586 -8.98882,-4.84202 -4.58245,-18.7644 -8.05103,-34.25297 -7.74033,-34.56367 0.20589,-0.20588 3.73487,0.40482 7.84228,1.35711 23.803,5.51872 38.30577,-1.47605 38.43117,-18.53544 0.0827,-11.24824 -6.85512,-18.17392 -20.01948,-19.98448 l -9.54266,-1.31243 -2.11069,-10.50988 c -2.91526,-14.51609 -2.92688,-14.47271 4.60026,-17.19455 10.8841,-3.93571 17.27709,-19.48873 12.80317,-31.14768 -2.95796,-7.70829 -22.75025,-11.01901 -38.96229,-6.51733 -3.97486,1.10371 -7.49728,1.73356 -7.82759,1.39965 -0.41891,-0.42344 3.73132,-59.98008 4.65713,-66.83107 0.0311,-0.22964 4.92142,-1.91768 10.86748,-3.7512 8.07569,-2.49021 17.23326,-3.33601 36.19354,-3.34285 23.50543,-0.008 26.16392,0.35724 35.94915,4.94543 13.65128,6.40094 24.10809,15.95233 29.91919,27.32861 3.98688,7.80503 4.63032,11.59034 4.57967,26.94259 -0.0965,29.26025 -8.69411,45.91766 -31.24073,60.52741 l -9.48435,6.1456 4.33275,2.85706 c 16.75446,11.04797 22.90285,21.6575 22.90285,39.5206 0,34.62517 -28.10465,51.92927 -77.1617,47.50854 z"
   id="path10143"
   inkscape:connector-curvature="0" /></svg>