<?xml version="1.0" encoding="UTF-8" standalone="no"?>
<!-- Generator: Adobe Illustrator 16.0.0, SVG Export Plug-In . SVG Version: 6.00 Build 0)  -->

<svg
   xmlns:osb="http://www.openswatchbook.org/uri/2009/osb"
   xmlns:dc="http://purl.org/dc/elements/1.1/"
   xmlns:cc="http://creativecommons.org/ns#"
   xmlns:rdf="http://www.w3.org/1999/02/22-rdf-syntax-ns#"
   xmlns:svg="http://www.w3.org/2000/svg"
   xmlns="http://www.w3.org/2000/svg"
   xmlns:xlink="http://www.w3.org/1999/xlink"
   xmlns:sodipodi="http://sodipodi.sourceforge.net/DTD/sodipodi-0.dtd"
   xmlns:inkscape="http://www.inkscape.org/namespaces/inkscape"
   version="1.1"
   id="Layer_1"
   x="0px"
   y="0px"
   width="500"
   height="500"
   viewBox="0 0 500 500"
   enable-background="new 0 0 4000 4000"
   xml:space="preserve"
   inkscape:version="0.48.4 r9939"
   sodipodi:docname="1000 نقاط.svg"><metadata
   id="metadata21"><rdf:RDF><cc:Work
       rdf:about=""><dc:format>image/svg+xml</dc:format><dc:type
         rdf:resource="http://purl.org/dc/dcmitype/StillImage" /></cc:Work></rdf:RDF></metadata><defs
   id="defs19"><linearGradient
     id="linearGradient5223"
     osb:paint="gradient"><stop
       style="stop-color:#1af596;stop-opacity:1;"
       offset="0"
       id="stop5225" /><stop
       style="stop-color:#1af596;stop-opacity:0;"
       offset="1"
       id="stop5227" /></linearGradient><linearGradient
     id="SVGID_7_"
     gradientUnits="userSpaceOnUse"
     x1="343.13989"
     y1="399.31641"
     x2="-21.260099"
     y2="244.11639"
     gradientTransform="matrix(0.35514037,0,0,-0.35514037,164.65138,450.92425)"><stop
       offset="0"
       style="stop-color:#FFC200;stop-opacity:0"
       id="stop6310" /><stop
       offset="0.203"
       style="stop-color:#FFBB00;stop-opacity:0.203"
       id="stop6312" /><stop
       offset="0.499"
       style="stop-color:#FFA700;stop-opacity:0.499"
       id="stop6314" /><stop
       offset="0.852"
       style="stop-color:#FF8800;stop-opacity:0.852"
       id="stop6316" /><stop
       offset="1"
       style="stop-color:#FF7800"
       id="stop6318" /></linearGradient><linearGradient
     id="SVGID_6_"
     gradientUnits="userSpaceOnUse"
     x1="156.4334"
     y1="414.01999"
     x2="106.8334"
     y2="273.22"
     gradientTransform="matrix(0.35514037,0,0,-0.35514037,164.65138,450.92425)"><stop
       offset="0"
       style="stop-color:#FFC200;stop-opacity:0"
       id="stop6297" /><stop
       offset="0.203"
       style="stop-color:#FFBB00;stop-opacity:0.203"
       id="stop6299" /><stop
       offset="0.499"
       style="stop-color:#FFA700;stop-opacity:0.499"
       id="stop6301" /><stop
       offset="0.852"
       style="stop-color:#FF8800;stop-opacity:0.852"
       id="stop6303" /><stop
       offset="1"
       style="stop-color:#FF7800"
       id="stop6305" /></linearGradient><linearGradient
     id="SVGID_5_"
     gradientUnits="userSpaceOnUse"
     x1="64.677696"
     y1="245.108"
     x2="187.0777"
     y2="142.70799"
     gradientTransform="matrix(0.35514037,0,0,-0.35514037,164.65138,450.92425)"><stop
       offset="0"
       style="stop-color:#FFC200;stop-opacity:0"
       id="stop6284" /><stop
       offset="0.203"
       style="stop-color:#FFBB00;stop-opacity:0.203"
       id="stop6286" /><stop
       offset="0.499"
       style="stop-color:#FFA700;stop-opacity:0.499"
       id="stop6288" /><stop
       offset="0.852"
       style="stop-color:#FF8800;stop-opacity:0.852"
       id="stop6290" /><stop
       offset="1"
       style="stop-color:#FF7800"
       id="stop6292" /></linearGradient><linearGradient
     id="SVGID_4_"
     gradientUnits="userSpaceOnUse"
     x1="183.0977"
     y1="35.1087"
     x2="349.15771"
     y2="201.1687"
     gradientTransform="matrix(0.35514037,0,0,-0.35514037,164.65138,450.92425)"><stop
       offset="0"
       style="stop-color:#FFC200;stop-opacity:0"
       id="stop6271" /><stop
       offset="0.203"
       style="stop-color:#FFBB00;stop-opacity:0.203"
       id="stop6273" /><stop
       offset="0.499"
       style="stop-color:#FFA700;stop-opacity:0.499"
       id="stop6275" /><stop
       offset="0.852"
       style="stop-color:#FF8800;stop-opacity:0.852"
       id="stop6277" /><stop
       offset="1"
       style="stop-color:#FF7800"
       id="stop6279" /></linearGradient><linearGradient
     id="SVGID_3_"
     gradientUnits="userSpaceOnUse"
     x1="388.68741"
     y1="144.8383"
     x2="346.28741"
     y2="353.63831"
     gradientTransform="matrix(0.35514037,0,0,-0.35514037,164.65138,450.92425)"><stop
       offset="0"
       style="stop-color:#FFC200;stop-opacity:0"
       id="stop6258" /><stop
       offset="0.203"
       style="stop-color:#FFBB00;stop-opacity:0.203"
       id="stop6260" /><stop
       offset="0.499"
       style="stop-color:#FFA700;stop-opacity:0.499"
       id="stop6262" /><stop
       offset="0.852"
       style="stop-color:#FF8800;stop-opacity:0.852"
       id="stop6264" /><stop
       offset="1"
       style="stop-color:#FF7800"
       id="stop6266" /></linearGradient><linearGradient
     id="SVGID_2_"
     gradientUnits="userSpaceOnUse"
     x1="361.33801"
     y1="390.13141"
     x2="201.23801"
     y2="390.13141"
     gradientTransform="matrix(0.35514037,0,0,-0.35514037,164.65138,450.92425)"><stop
       offset="0"
       style="stop-color:#FFC200;stop-opacity:0"
       id="stop6245" /><stop
       offset="0.203"
       style="stop-color:#FFBB00;stop-opacity:0.203"
       id="stop6247" /><stop
       offset="0.499"
       style="stop-color:#FFA700;stop-opacity:0.499"
       id="stop6249" /><stop
       offset="0.852"
       style="stop-color:#FF8800;stop-opacity:0.852"
       id="stop6251" /><stop
       offset="1"
       style="stop-color:#FF7800"
       id="stop6253" /></linearGradient><linearGradient
     y2="-71.181602"
     x2="236.9382"
     y1="458.42841"
     x1="236.9382"
     gradientTransform="matrix(0.35514037,0,0,-0.35514037,164.65138,450.92425)"
     gradientUnits="userSpaceOnUse"
     id="linearGradient6415"
     xlink:href="#SVGID_1_"
     inkscape:collect="always" /><linearGradient
     id="SVGID_1_"
     gradientUnits="userSpaceOnUse"
     x1="236.9382"
     y1="458.42841"
     x2="236.9382"
     y2="-71.181602"
     gradientTransform="matrix(1.0667,0,0,-1.0667,3.2666,557.5352)"><stop
       offset="0"
       style="stop-color:#FFCF95"
       id="stop6236" /><stop
       offset="0.427"
       style="stop-color:#FFC954"
       id="stop6238" /><stop
       offset="1"
       style="stop-color:#FFC200"
       id="stop6240" /></linearGradient></defs><sodipodi:namedview
   pagecolor="#ffffff"
   bordercolor="#666666"
   borderopacity="1"
   objecttolerance="10"
   gridtolerance="10"
   guidetolerance="10"
   inkscape:pageopacity="0"
   inkscape:pageshadow="2"
   inkscape:window-width="1280"
   inkscape:window-height="706"
   id="namedview17"
   showgrid="false"
   inkscape:zoom="0.74642639"
   inkscape:cx="197.99247"
   inkscape:cy="271.14804"
   inkscape:window-x="-8"
   inkscape:window-y="-8"
   inkscape:window-maximized="1"
   inkscape:current-layer="Layer_1" />
<path
   d="m 470.23262,149.50046 c -1.84021,-15.4006 -8.01408,-28.50848 -21.31646,-38.41668 C 410.64768,82.575287 369.52633,58.798266 327.83344,35.868984 310.49968,26.335035 292.59572,18.04461 274.56215,9.9074678 266.12219,6.1001205 257.95629,4.2581755 249.77862,4.2833217 241.60095,4.2581701 233.43425,6.1001205 224.99576,9.9074678 206.96138,18.04461 189.05809,26.335035 171.72367,35.868984 130.02998,58.798266 88.90957,82.575287 50.64161,111.08378 37.337769,120.9921 31.163894,134.1 29.32435,149.50046 c -7.988406,66.9796 -9.234199,133.98076 -0.652054,201.09064 2.182216,17.05381 8.927773,30.28837 22.624184,40.40522 53.71857,39.68321 111.73148,71.94889 172.01356,100.42782 9.01832,4.25823 17.7706,6.12666 26.46845,5.98514 8.69771,0.14152 17.45012,-1.72691 26.46911,-5.98514 60.28208,-28.47893 118.29513,-60.74461 172.01276,-100.42782 13.69588,-10.11685 20.4413,-23.35141 22.62499,-40.40522 8.58161,-67.10988 7.33501,-134.11104 -0.65273,-201.09064 z"
   id="path3"
   inkscape:connector-curvature="0"
   style="fill:#2b0000;fill-opacity:1" />
<path
   d="m 346.09252,291.40542 c 0.44928,-0.76174 0.91194,-1.56039 1.38063,-2.38259 -0.0516,0.0589 -0.0869,0.0958 -0.14152,0.15917 -0.39926,0.75131 -0.82219,1.48522 -1.23911,2.22342 z"
   id="path5"
   inkscape:connector-curvature="0"
   style="fill:none" />
<path
   d="m 346.09252,291.40542 c -3.55107,6.00721 -6.45664,10.09906 -7.33194,11.30139 2.65665,-3.613 5.11147,-7.3718 7.33194,-11.30139 z"
   id="path7"
   inkscape:connector-curvature="0"
   style="fill:#010101" />
<path
   d="m 461.24306,150.57465 c -1.70177,-14.24468 -7.33769,-24.4858 -17.73449,-32.23117 C 405.0749,89.713552 363.10353,65.597454 323.47061,43.801347 305.78761,34.075859 287.0319,25.465625 270.84028,18.159505 263.64384,14.91353 256.80988,13.336152 249.80658,13.336152 V 488.35953 l 0.88706,0.006 c 7.28633,0 14.38098,-1.67675 21.68776,-5.12764 66.78447,-31.54969 122.55617,-64.10427 170.50119,-99.5231 11.17914,-8.25725 17.04632,-18.82794 19.02389,-34.27121 8.02573,-62.77379 7.80904,-127.82612 -0.66342,-198.86882 z"
   id="path9"
   inkscape:connector-curvature="0"
   style="fill:#ffffff;fill-opacity:1;opacity:0.2;stroke:#000000;stroke-opacity:0.32941176999999999" />



<path
   style="fill:#ffffff;fill-opacity:1;stroke:#000000;stroke-width:1;stroke-miterlimit:4;stroke-opacity:1;stroke-dasharray:none;stroke-dashoffset:0"
   d="m 269.79392,225.55895 c -7.79201,-2.78821 -17.20659,-12.0776 -22.11268,-21.81872 -6.69356,-13.29007 -7.61202,-17.4878 -8.01596,-36.636 -0.31729,-15.02779 -0.0932,-18.14706 1.75488,-24.45123 3.80911,-12.99409 10.74365,-22.06816 21.45744,-28.07784 4.5916,-2.57555 5.9797,-2.83022 16.66125,-3.05684 10.98322,-0.23303 11.96281,-0.0837 17.05909,2.60013 15.86892,8.35706 24.29767,25.54536 24.88326,50.7431 0.33723,14.51048 -1.70187,25.37674 -6.73675,35.89989 -10.60928,22.1739 -27.00511,31.21887 -44.95053,24.79751 z m 16.74443,-23.31286 c 6.42971,-1.45923 8.47769,-8.31817 9.49692,-18.43599 3.11683,-30.94031 -9.08045,-46.3333 -15.94077,-46.10197 -6.92427,0.23347 -18.47569,19.242 -14.61583,42.76736 1.66362,10.13959 6.34874,17.69734 10.69129,22.09415 3.45359,3.49671 5.34937,0.81554 10.36839,-0.32355 z"
   id="path10157"
   inkscape:connector-curvature="0"
   sodipodi:nodetypes="sscsssssssssssss" /><path
   style="fill:#ffffff;fill-opacity:1;stroke:#000000;stroke-width:1;stroke-miterlimit:4;stroke-opacity:1;stroke-dasharray:none;stroke-dashoffset:0"
   d="m 105.22492,189.02667 c -0.32883,-19.8336 -0.75797,-36.22118 -0.95362,-36.41685 -0.19565,-0.19567 -2.6216,0.24198 -5.39097,0.97253 l -5.035208,1.32826 -3.15786,-10.7761 c -1.73682,-5.92686 -3.14578,-11.37248 -3.131,-12.10139 0.0148,-0.72891 3.04839,-2.63662 6.74142,-4.23934 3.69302,-1.60273 14.057208,-6.44637 23.031558,-10.76364 l 16.31699,-7.84958 3.49383,2.1593 c 3.07371,1.89965 3.42769,2.53342 2.94376,5.27062 -0.30254,1.71122 -0.80086,18.16717 -1.10738,36.56876 -0.30653,18.4016 -0.82091,42.10893 -1.14305,52.68297 l -0.58575,19.22555 -15.71242,0 -15.71243,0 -0.59787,-36.06109 z"
   id="path10139"
   inkscape:connector-curvature="0" /><path
   style="fill:#ffffff;fill-opacity:1;stroke:#000000;stroke-width:1;stroke-miterlimit:4;stroke-opacity:1;stroke-dasharray:none;stroke-dashoffset:0"
   d="m 178.51256,225.15953 c -7.79201,-2.78822 -17.2066,-12.07761 -22.11268,-21.81872 -6.69356,-13.29007 -7.61202,-17.4878 -8.01596,-36.63601 -0.31729,-15.02778 -0.0932,-18.14706 1.75488,-24.45123 3.80911,-12.99407 10.74365,-22.06816 21.45744,-28.07784 4.59159,-2.57555 5.97969,-2.83022 16.66127,-3.05684 10.98321,-0.23302 11.96279,-0.0837 17.05908,2.60012 15.86891,8.35708 24.29768,25.54538 24.88327,50.74311 0.33722,14.51048 -1.70187,25.37675 -6.73676,35.89989 -10.60929,22.17391 -27.00511,31.21888 -44.95054,24.79752 z M 195.257,201.84667 c 6.42971,-1.45923 8.47768,-8.31817 9.49692,-18.436 3.11683,-30.94031 -9.08045,-46.33329 -15.94077,-46.10197 -6.92427,0.23347 -18.4757,19.242 -14.61584,42.76736 1.66362,10.13959 6.34875,17.69735 10.6913,22.09415 3.45359,3.49672 5.34937,0.81554 10.36839,-0.32354 z"
   id="path10157-7"
   inkscape:connector-curvature="0"
   sodipodi:nodetypes="sscsssssssssssss" /><path
   style="fill:#ffffff;fill-opacity:1;stroke:#000000;stroke-width:1;stroke-miterlimit:4;stroke-opacity:1;stroke-dasharray:none;stroke-dashoffset:0"
   d="m 361.79415,227.61039 c -7.79202,-2.78821 -17.20659,-12.0776 -22.11268,-21.81872 -6.69357,-13.29006 -7.61202,-17.48779 -8.01596,-36.636 -0.31729,-15.02778 -0.0932,-18.14706 1.75488,-24.45123 3.80911,-12.99408 10.74365,-22.06816 21.45744,-28.07784 4.5916,-2.57555 5.9797,-2.83022 16.66125,-3.05684 10.98322,-0.23303 11.96281,-0.0837 17.05909,2.60012 15.86892,8.35707 24.29767,25.54537 24.88326,50.74311 0.33723,14.51048 -1.70187,25.37675 -6.73675,35.89989 -10.60929,22.17391 -27.00511,31.21887 -44.95053,24.79751 z m 16.74443,-23.31286 c 6.42971,-1.45923 8.47769,-8.31817 9.49692,-18.43599 3.11683,-30.9403 -9.08045,-46.3333 -15.94077,-46.10197 -6.92428,0.23346 -18.47569,19.242 -14.61583,42.76737 1.66362,10.13958 6.34873,17.69734 10.69129,22.09414 3.45359,3.49671 5.34937,0.81554 10.36839,-0.32355 z"
   id="path10157-4"
   inkscape:connector-curvature="0"
   sodipodi:nodetypes="sscsssssssssssss" /><path
   inkscape:connector-curvature="0"
   style="fill:url(#linearGradient6415)"
   d="m 255.06733,273.03005 22.54693,45.6845 50.41582,7.32587 c 5.73711,0.83333 8.02769,7.88387 3.87668,11.93067 l -36.48187,35.55999 8.61199,50.21206 c 0.98016,5.71381 -5.01731,10.07125 -10.14849,7.37348 l -45.09354,-23.70687 -45.0932,23.70687 c -5.13118,2.69743 -11.12865,-1.65967 -10.1485,-7.37348 l 8.61201,-50.21206 -36.48155,-35.56032 c -4.15135,-4.0468 -1.86043,-11.09668 3.87668,-11.93068 l 50.41582,-7.32586 22.54661,-45.68417 c 2.56592,-5.19876 9.97869,-5.19876 12.54461,0 z"
   id="path6242" /><path
   inkscape:connector-curvature="0"
   style="fill:url(#SVGID_2_)"
   d="m 277.61359,318.71455 -22.54626,-45.6845 c -1.2828,-2.59921 -3.77747,-3.89899 -6.27213,-3.89899 v 86.49252 l 28.81839,-36.90903 z"
   id="path6255" /><path
   inkscape:connector-curvature="0"
   style="fill:url(#SVGID_3_)"
   d="m 295.42489,373.53108 36.48121,-35.56065 c 2.04786,-1.99627 2.52563,-4.72266 1.7975,-7.07384 l -84.90875,24.72665 46.63004,17.90784 z"
   id="path6268" /><path
   inkscape:connector-curvature="0"
   style="fill:url(#SVGID_4_)"
   d="m 301.2752,430.56795 -52.48035,-74.94471 v 51.78651 l 45.09322,23.70687 c 2.5749,1.35371 5.36721,0.93022 7.38713,-0.54867 z"
   id="path6281" /><path
   inkscape:connector-curvature="0"
   style="fill:url(#SVGID_5_)"
   d="m 248.79485,355.62324 -46.63002,17.90784 -8.61168,50.21206 c -0.4884,2.84659 0.7561,5.3559 2.76136,6.82481 l 52.48034,-74.94471 z"
   id="path6294" /><path
   inkscape:connector-curvature="0"
   style="fill:url(#SVGID_6_)"
   d="m 163.8861,330.89692 84.90875,24.72632 -28.81874,-36.90902 -50.41582,7.3262 c -2.90685,0.42216 -4.92642,2.4414 -5.67419,4.8565 l 0,0 z"
   id="path6307" /><path
   inkscape:connector-curvature="0"
   style="fill:url(#SVGID_7_)"
   d="m 202.16516,373.53108 -36.48155,-35.56032 c -2.04788,-1.99627 -2.52563,-4.72266 -1.79751,-7.07384 l 84.90875,24.72632 -46.62969,17.90784 z"
   id="path6320" /></svg>