<?xml version="1.0" encoding="UTF-8" standalone="no"?>
<!-- Generator: Adobe Illustrator 16.0.0, SVG Export Plug-In . SVG Version: 6.00 Build 0)  -->

<svg
   xmlns:dc="http://purl.org/dc/elements/1.1/"
   xmlns:cc="http://creativecommons.org/ns#"
   xmlns:rdf="http://www.w3.org/1999/02/22-rdf-syntax-ns#"
   xmlns:svg="http://www.w3.org/2000/svg"
   xmlns="http://www.w3.org/2000/svg"
   xmlns:sodipodi="http://sodipodi.sourceforge.net/DTD/sodipodi-0.dtd"
   xmlns:inkscape="http://www.inkscape.org/namespaces/inkscape"
   version="1.1"
   id="Layer_1"
   x="0px"
   y="0px"
   width="500"
   height="500"
   viewBox="0 0 500 500"
   enable-background="new 0 0 4000 4000"
   xml:space="preserve"
   inkscape:version="0.48.4 r9939"
   sodipodi:docname="كاتب نشيط.svg"><metadata
   id="metadata21"><rdf:RDF><cc:Work
       rdf:about=""><dc:format>image/svg+xml</dc:format><dc:type
         rdf:resource="http://purl.org/dc/dcmitype/StillImage" /></cc:Work></rdf:RDF></metadata><defs
   id="defs19" /><sodipodi:namedview
   pagecolor="#ffffff"
   bordercolor="#666666"
   borderopacity="1"
   objecttolerance="10"
   gridtolerance="10"
   guidetolerance="10"
   inkscape:pageopacity="0"
   inkscape:pageshadow="2"
   inkscape:window-width="1280"
   inkscape:window-height="706"
   id="namedview17"
   showgrid="false"
   inkscape:zoom="0.74642639"
   inkscape:cx="36.475141"
   inkscape:cy="271.14804"
   inkscape:window-x="-8"
   inkscape:window-y="-8"
   inkscape:window-maximized="1"
   inkscape:current-layer="Layer_1" />
<path
   d="m 470.23262,149.50046 c -1.84021,-15.4006 -8.01408,-28.50848 -21.31646,-38.41668 C 410.64768,82.575287 369.52633,58.798266 327.83344,35.868984 310.49968,26.335035 292.59572,18.04461 274.56215,9.9074678 266.12219,6.1001205 257.95629,4.2581755 249.77862,4.2833217 241.60095,4.2581701 233.43425,6.1001205 224.99576,9.9074678 206.96138,18.04461 189.05809,26.335035 171.72367,35.868984 130.02998,58.798266 88.90957,82.575287 50.64161,111.08378 37.337769,120.9921 31.163894,134.1 29.32435,149.50046 c -7.988406,66.9796 -9.234199,133.98076 -0.652054,201.09064 2.182216,17.05381 8.927773,30.28837 22.624184,40.40522 53.71857,39.68321 111.73148,71.94889 172.01356,100.42782 9.01832,4.25823 17.7706,6.12666 26.46845,5.98514 8.69771,0.14152 17.45012,-1.72691 26.46911,-5.98514 60.28208,-28.47893 118.29513,-60.74461 172.01276,-100.42782 13.69588,-10.11685 20.4413,-23.35141 22.62499,-40.40522 8.58161,-67.10988 7.33501,-134.11104 -0.65273,-201.09064 z"
   id="path3"
   inkscape:connector-curvature="0"
   style="fill:#f3ab00" />


<path
   d="m 461.24306,150.57465 c -1.70177,-14.24468 -7.33769,-24.4858 -17.73449,-32.23117 C 405.0749,89.713552 363.10353,65.597454 323.47061,43.801347 305.78761,34.075859 287.0319,25.465625 270.84028,18.159505 263.64384,14.91353 256.80988,13.336152 249.80658,13.336152 V 488.35953 l 0.88706,0.006 c 7.28633,0 14.38098,-1.67675 21.68776,-5.12764 66.78447,-31.54969 122.55617,-64.10427 170.50119,-99.5231 11.17914,-8.25725 17.04632,-18.82794 19.02389,-34.27121 8.02573,-62.77379 7.80904,-127.82612 -0.66342,-198.86882 z"
   id="path9"
   inkscape:connector-curvature="0"
   style="fill:#f5b41a" />



<g
   transform="matrix(0.54994187,0,0,0.53686636,99.002162,112.06115)"
   id="g3"><g
     id="g5"><path
       inkscape:connector-curvature="0"
       d="m 364.876,147.135 c -11.027,-11.027 -25.502,-16.532 -39.977,-16.532 -14.475,0 -28.959,5.514 -39.986,16.532 -22.046,22.046 -22.046,57.918 0,79.963 22.046,22.045 57.918,22.046 79.964,0 22.044,-22.045 22.044,-57.917 -0.001,-79.963 z m -56.962,56.953 c 9.363,9.363 24.589,9.371 33.952,0 3.329,-3.337 8.74,-3.337 12.068,0 3.337,3.337 3.337,8.731 0,12.068 -8.006,8.006 -18.521,12.009 -29.044,12.009 -10.523,0 -21.039,-4.003 -29.044,-12.009 -16.011,-16.011 -16.011,-42.068 0,-58.08 16.011,-16.011 42.077,-16.011 58.089,0 3.337,3.337 3.337,8.731 0,12.068 -3.329,3.337 -8.74,3.337 -12.068,0 -9.363,-9.363 -24.589,-9.354 -33.952,0 -9.356,9.364 -9.356,24.582 -0.001,33.944 z"
       id="path7" /></g></g><g
   transform="matrix(0.54994187,0,0,0.53686636,99.002162,112.06115)"
   id="g9"><g
     id="g11"><path
       inkscape:connector-curvature="0"
       d="M 511.702,8.101 C 511.352,3.945 508.058,0.65 503.901,0.3 502.424,0.18 425.175,-5.188 334.355,34.96 L 477.05,177.656 C 517.198,86.836 511.83,9.578 511.702,8.101 z"
       id="path13" /></g></g><g
   transform="matrix(0.54994187,0,0,0.53686636,99.002162,112.06115)"
   id="g15"><g
     id="g17"><path
       inkscape:connector-curvature="0"
       d="M 469.343,194.094 317.925,42.676 C 261.117,70.867 200.638,117.647 150.889,194.58 l -67.008,-4.464 c -3.721,-0.367 -7.161,1.937 -8.518,5.403 L 23.599,327.81 c -1.391,3.551 -0.256,7.596 2.782,9.901 1.528,1.161 3.346,1.741 5.164,1.741 1.801,0 3.602,-0.563 5.121,-1.707 l 42.965,-32.219 22.481,4.498 33.909,33.909 -9.32,16.745 c -11.292,-5.556 -24.35,-6.99 -37.127,-3.755 -17.095,4.336 -31.076,16.003 -38.347,32.006 L 0.768,499.942 c -1.468,3.235 -0.785,7.05 1.733,9.568 1.639,1.639 3.824,2.501 6.043,2.501 1.195,0 2.398,-0.247 3.533,-0.768 L 123.09,460.776 c 15.994,-7.272 27.662,-21.243 31.997,-38.339 3.346,-13.178 1.707,-26.672 -4.31,-38.211 l 15.918,-9.627 35.3,35.3 4.498,22.489 -32.219,42.956 c -2.287,3.047 -2.279,7.255 0.034,10.293 1.647,2.168 4.191,3.371 6.794,3.371 1.041,0 2.091,-0.188 3.107,-0.589 L 316.5,436.656 c 3.465,-1.357 5.65,-4.797 5.403,-8.518 l -4.464,-67.016 c 76.925,-49.75 123.713,-110.22 151.904,-167.028 z M 138.547,418.229 c -3.055,12.043 -11.266,21.883 -22.515,27.004 l -90.299,41.044 41.044,-90.299 c 5.121,-11.249 14.962,-19.46 27.004,-22.515 3.166,-0.802 6.35,-1.195 9.491,-1.195 5.283,0 10.438,1.127 15.149,3.294 -1.929,3.465 -3.858,6.939 -5.787,10.404 -2.629,4.72 -5.386,10.515 -0.12,14.799 4.711,3.824 9.704,0.743 14.083,-1.733 3.269,-1.852 6.538,-3.696 9.807,-5.548 3.509,7.53 4.303,16.227 2.143,24.745 z m -4.114,-196.414 c -1.084,1.929 -2.185,3.815 -3.252,5.778 -2.936,5.411 -5.778,10.942 -8.569,16.524 -0.93,1.852 -1.895,3.619 -2.808,5.505 -3.576,7.34 -7.024,14.825 -10.353,22.43 -0.947,2.168 -1.844,4.455 -2.774,6.657 -1.92,4.541 -3.866,9.047 -5.693,13.673 l -21.747,-4.344 c -2.373,-0.478 -4.848,0.085 -6.794,1.545 l -22.011,16.507 38.561,-98.527 51.525,3.44 c -2.09,3.532 -4.07,7.202 -6.085,10.812 z m 6.495,148.414 12.29,-22.088 c 0.384,-0.444 0.879,-0.768 1.169,-1.289 l 40.669,-73.827 h 43.938 v 37.869 l -98.066,59.335 z m 64.994,91.349 16.507,-22.011 c 1.459,-1.946 2.014,-4.413 1.545,-6.794 l -4.344,-21.721 c 4.703,-1.861 9.286,-3.841 13.903,-5.795 2.117,-0.896 4.31,-1.758 6.393,-2.663 7.639,-3.337 15.149,-6.794 22.515,-10.387 1.784,-0.871 3.474,-1.792 5.232,-2.671 5.676,-2.842 11.292,-5.727 16.78,-8.706 1.92,-1.05 3.764,-2.125 5.659,-3.184 3.644,-2.048 7.349,-4.045 10.908,-6.145 l 3.431,51.525 -98.529,38.552 z M 324.89,260.692 c -18.845,0 -37.699,-7.169 -52.054,-21.525 -28.703,-28.703 -28.703,-75.397 0,-104.1 28.703,-28.703 75.406,-28.703 104.1,0 28.703,28.703 28.703,75.397 0,104.1 -14.348,14.355 -33.201,21.525 -52.046,21.525 z"
       id="path19" /></g></g></svg>