<?xml version="1.0" encoding="UTF-8" standalone="no"?>
<!-- Generator: Adobe Illustrator 16.0.0, SVG Export Plug-In . SVG Version: 6.00 Build 0)  -->

<svg
   xmlns:osb="http://www.openswatchbook.org/uri/2009/osb"
   xmlns:dc="http://purl.org/dc/elements/1.1/"
   xmlns:cc="http://creativecommons.org/ns#"
   xmlns:rdf="http://www.w3.org/1999/02/22-rdf-syntax-ns#"
   xmlns:svg="http://www.w3.org/2000/svg"
   xmlns="http://www.w3.org/2000/svg"
   xmlns:sodipodi="http://sodipodi.sourceforge.net/DTD/sodipodi-0.dtd"
   xmlns:inkscape="http://www.inkscape.org/namespaces/inkscape"
   version="1.1"
   id="Layer_1"
   x="0px"
   y="0px"
   width="500"
   height="500"
   viewBox="0 0 500 500"
   enable-background="new 0 0 4000 4000"
   xml:space="preserve"
   inkscape:version="0.48.4 r9939"
   sodipodi:docname="50 موضوع.svg"><metadata
   id="metadata21"><rdf:RDF><cc:Work
       rdf:about=""><dc:format>image/svg+xml</dc:format><dc:type
         rdf:resource="http://purl.org/dc/dcmitype/StillImage" /></cc:Work></rdf:RDF></metadata><defs
   id="defs19"><linearGradient
     id="linearGradient5223"
     osb:paint="gradient"><stop
       style="stop-color:#1af596;stop-opacity:1;"
       offset="0"
       id="stop5225" /><stop
       style="stop-color:#1af596;stop-opacity:0;"
       offset="1"
       id="stop5227" /></linearGradient></defs><sodipodi:namedview
   pagecolor="#ffffff"
   bordercolor="#666666"
   borderopacity="1"
   objecttolerance="10"
   gridtolerance="10"
   guidetolerance="10"
   inkscape:pageopacity="0"
   inkscape:pageshadow="2"
   inkscape:window-width="1280"
   inkscape:window-height="706"
   id="namedview17"
   showgrid="false"
   inkscape:zoom="1"
   inkscape:cx="282.37251"
   inkscape:cy="271.14804"
   inkscape:window-x="-8"
   inkscape:window-y="-8"
   inkscape:window-maximized="1"
   inkscape:current-layer="Layer_1" />
<path
   d="m 470.23262,149.50046 c -1.84021,-15.4006 -8.01408,-28.50848 -21.31646,-38.41668 C 410.64768,82.575287 369.52633,58.798266 327.83344,35.868984 310.49968,26.335035 292.59572,18.04461 274.56215,9.9074678 266.12219,6.1001205 257.95629,4.2581755 249.77862,4.2833217 241.60095,4.2581701 233.43425,6.1001205 224.99576,9.9074678 206.96138,18.04461 189.05809,26.335035 171.72367,35.868984 130.02998,58.798266 88.90957,82.575287 50.64161,111.08378 37.337769,120.9921 31.163894,134.1 29.32435,149.50046 c -7.988406,66.9796 -9.234199,133.98076 -0.652054,201.09064 2.182216,17.05381 8.927773,30.28837 22.624184,40.40522 53.71857,39.68321 111.73148,71.94889 172.01356,100.42782 9.01832,4.25823 17.7706,6.12666 26.46845,5.98514 8.69771,0.14152 17.45012,-1.72691 26.46911,-5.98514 60.28208,-28.47893 118.29513,-60.74461 172.01276,-100.42782 13.69588,-10.11685 20.4413,-23.35141 22.62499,-40.40522 8.58161,-67.10988 7.33501,-134.11104 -0.65273,-201.09064 z"
   id="path3"
   inkscape:connector-curvature="0"
   style="fill:#cc00ff;fill-opacity:1" />
<path
   d="m 346.09252,291.40542 c 0.44928,-0.76174 0.91194,-1.56039 1.38063,-2.38259 -0.0516,0.0589 -0.0869,0.0958 -0.14152,0.15917 -0.39926,0.75131 -0.82219,1.48522 -1.23911,2.22342 z"
   id="path5"
   inkscape:connector-curvature="0"
   style="fill:none" />
<path
   d="m 346.09252,291.40542 c -3.55107,6.00721 -6.45664,10.09906 -7.33194,11.30139 2.65665,-3.613 5.11147,-7.3718 7.33194,-11.30139 z"
   id="path7"
   inkscape:connector-curvature="0"
   style="fill:#010101" />
<path
   d="m 461.24306,150.57465 c -1.70177,-14.24468 -7.33769,-24.4858 -17.73449,-32.23117 C 405.0749,89.713552 363.10353,65.597454 323.47061,43.801347 305.78761,34.075859 287.0319,25.465625 270.84028,18.159505 263.64384,14.91353 256.80988,13.336152 249.80658,13.336152 V 488.35953 l 0.88706,0.006 c 7.28633,0 14.38098,-1.67675 21.68776,-5.12764 66.78447,-31.54969 122.55617,-64.10427 170.50119,-99.5231 11.17914,-8.25725 17.04632,-18.82794 19.02389,-34.27121 8.02573,-62.77379 7.80904,-127.82612 -0.66342,-198.86882 z"
   id="path9"
   inkscape:connector-curvature="0"
   style="fill:#ffffff;fill-opacity:0.58823532;opacity:0.39513276000000003" />



<g
   transform="matrix(3.8679998,0,0,3.8679998,177.76972,248.64963)"
   id="g5144"
   style="fill:#ffffff;stroke:#000000;stroke-opacity:1;stroke-width:0.25853155;stroke-miterlimit:4;stroke-dasharray:none"><g
     id="g5146"
     style="fill:#ffffff;stroke:#000000;stroke-width:0.25853155;stroke-miterlimit:4;stroke-opacity:1;stroke-dasharray:none"><g
       id="g5148"
       style="fill:#ffffff;stroke:#000000;stroke-width:0.25853155;stroke-miterlimit:4;stroke-opacity:1;stroke-dasharray:none"><path
         style="fill:#ffffff;stroke:#000000;stroke-width:0.25853155;stroke-miterlimit:4;stroke-opacity:1;stroke-dasharray:none"
         inkscape:connector-curvature="0"
         d="M 48.15,6.05 43.782,1.688 C 43.331,1.237 42.738,1.011 42.146,1.011 c -0.593,0 -1.186,0.225 -1.636,0.676 l -3.494,3.484 7.64,7.626 3.494,-3.483 c 0.903,-0.902 0.903,-2.365 0,-3.264 z"
         id="path5150" /><polygon
         style="fill:#ffffff;stroke:#000000;stroke-width:0.25853155;stroke-miterlimit:4;stroke-opacity:1;stroke-dasharray:none"
         points="43.021,14.431 35.381,6.804 14.336,27.81 21.976,35.437 "
         id="polygon5152" /><polygon
         style="fill:#ffffff;stroke:#000000;stroke-width:0.25853155;stroke-miterlimit:4;stroke-opacity:1;stroke-dasharray:none"
         points="20.327,37.067 12.687,29.441 11.056,38.694 "
         id="polygon5154" /><path
         style="fill:#ffffff;stroke:#000000;stroke-width:0.25853155;stroke-miterlimit:4;stroke-opacity:1;stroke-dasharray:none"
         inkscape:connector-curvature="0"
         d="M 33.807,42.816 H 5.001 V 14.011 H 25.33 l 5.01,-5 H 3.234 C 1.455,9.011 0,10.466 0,12.245 v 32.338 c 0,1.778 1.455,3.233 3.234,3.233 h 32.339 c 1.777,0 3.232,-1.455 3.232,-3.233 V 21.462 l -5,4.992 0.002,16.362 0,0 z"
         id="path5156" /></g></g></g><path
   style="fill:#ffffff;fill-opacity:1;stroke:#000000;stroke-width:1;stroke-miterlimit:4;stroke-opacity:1;stroke-dasharray:none;stroke-dashoffset:0"
   d="m 170.31488,236.28427 c -1.92495,-0.29451 -4.04354,-1.236 -4.70797,-2.09223 -1.19076,-1.53444 -4.43388,-22.03805 -3.61532,-22.8566 0.23165,-0.23164 3.41884,0.55936 7.08268,1.75772 9.23335,3.02008 24.78125,2.22957 29.84335,-1.51733 8.08982,-5.98798 8.75292,-16.41405 1.39138,-21.87769 -4.89336,-3.63179 -16.5419,-4.33726 -27.07204,-1.63956 -6.70664,1.71815 -8.65839,1.80606 -10.34887,0.46606 -2.33166,-1.84827 -8.03191,-7.72119 -8.03191,-8.27524 0,-0.197 1.505,-7.31863 3.34443,-15.82582 4.65471,-21.52766 7.9171,-39.15668 10.36323,-55.99976 1.14883,-7.9103 2.36524,-15.686539 2.70317,-17.280519 0.61199,-2.88658 0.74468,-2.89961 33.28868,-3.26872 17.97085,-0.20382 32.67135,-0.37058 32.66775,-0.37058 -0.10056,0 -6.93839,38.104529 -7.44947,41.512779 l -0.73519,4.90309 -20.53251,0 -20.53251,0 -2.08709,7.49842 c -1.1479,4.12414 -1.91336,7.67215 -1.70103,7.88447 0.21233,0.21233 4.66515,-0.27788 9.89517,-1.08935 5.23003,-0.81146 12.58749,-1.09078 16.34993,-0.6207 22.08624,2.7595 36.15165,23.89011 32.12641,48.26393 -2.02649,12.27086 -5.23767,19.10489 -12.29129,26.15855 -10.81731,10.81729 -24.00114,15.31418 -43.97774,15.00044 -6.86033,-0.10775 -14.04829,-0.43687 -15.97324,-0.73136 z"
   id="path10147"
   inkscape:connector-curvature="0" /><path
   style="fill:#ffffff;fill-opacity:1;stroke:#000000;stroke-width:1;stroke-miterlimit:4;stroke-opacity:1;stroke-dasharray:none;stroke-dashoffset:0"
   d="m 288.46299,230.65451 c -10.02873,-3.83043 -21.98288,-16.13687 -28.07755,-28.9051 -8.31518,-17.42003 -9.39083,-22.88933 -9.38783,-47.73372 0.002,-19.49824 0.37851,-23.53745 2.94868,-31.66247 5.29757,-16.74719 14.54064,-28.324539 28.60069,-35.823689 6.0257,-3.21389 7.83293,-3.50598 21.69206,-3.50598 14.25052,0 15.51684,0.2206 22.05236,3.84149 20.35042,11.2749 30.80872,33.798289 30.87484,66.493309 0.0381,18.82789 -2.9054,32.86422 -9.72468,46.37314 -14.36928,28.46538 -35.88187,39.74464 -58.97857,30.92302 z m 22.35729,-29.77367 c 5.41736,-5.41739 8.25383,-16.39429 7.64125,-29.57122 -0.72879,-15.67724 -5.34466,-23.20992 -14.22249,-23.20992 -8.98721,0 -13.38506,7.41815 -14.20908,23.96742 -0.66281,13.31234 1.8238,23.12634 7.33467,28.94803 4.38274,4.62991 8.73487,4.58647 13.45565,-0.13431 z"
   id="path10157"
   inkscape:connector-curvature="0" /></svg>