<?xml version="1.0" encoding="utf-8"?>
<!-- Generator: Adobe Illustrator 26.0.1, SVG Export Plug-In . SVG Version: 6.00 Build 0)  -->
<svg version="1.1"
	 id="Layer_1" xmlns:cc="http://creativecommons.org/ns#" xmlns:dc="http://purl.org/dc/elements/1.1/" xmlns:inkscape="http://www.inkscape.org/namespaces/inkscape" xmlns:osb="http://www.openswatchbook.org/uri/2009/osb" xmlns:rdf="http://www.w3.org/1999/02/22-rdf-syntax-ns#" xmlns:sodipodi="http://sodipodi.sourceforge.net/DTD/sodipodi-0.dtd" xmlns:svg="http://www.w3.org/2000/svg"
	 xmlns="http://www.w3.org/2000/svg" xmlns:xlink="http://www.w3.org/1999/xlink" x="0px" y="0px" viewBox="0 0 500 500"
	 style="enable-background:new 0 0 500 500;" xml:space="preserve">
<style type="text/css">
	.st0{fill:#232178;}
	.st1{fill:none;}
	.st2{fill:#010101;}
	.st3{opacity:0.2;fill:#FFFFFF;fill-opacity:0.6349;enable-background:new    ;}
	.st4{fill:#FFFFFF;}
</style>
<sodipodi:namedview  bordercolor="#666666" borderopacity="1" gridtolerance="10" guidetolerance="10" id="namedview17" inkscape:current-layer="Layer_1" inkscape:cx="236.80527" inkscape:cy="250" inkscape:pageopacity="0" inkscape:pageshadow="2" inkscape:window-height="706" inkscape:window-maximized="1" inkscape:window-width="1280" inkscape:window-x="-8" inkscape:window-y="-8" inkscape:zoom="0.71" objecttolerance="10" pagecolor="#ffffff" showgrid="false">
	</sodipodi:namedview>
<path id="path3" inkscape:connector-curvature="0" class="st0" d="M470.2,149.5c-1.8-15.4-8-28.5-21.3-38.4
	c-38.3-28.5-79.4-52.3-121.1-75.2c-17.3-9.5-35.2-17.8-53.3-26c-8.4-3.8-16.6-5.6-24.8-5.6s-16.3,1.8-24.8,5.6
	c-18,8.1-35.9,16.4-53.3,26c-41.6,22.9-82.7,46.7-121,75.2c-13.3,9.9-19.5,23-21.3,38.4c-8,67-9.2,134-0.7,201.1
	c2.2,17.1,8.9,30.3,22.6,40.4c53.7,39.7,111.7,71.9,172,100.4c9,4.3,17.8,6.1,26.5,6c8.7,0.1,17.5-1.7,26.5-6
	c60.3-28.5,118.3-60.7,172-100.4c13.7-10.1,20.4-23.4,22.6-40.4C479.5,283.5,478.2,216.5,470.2,149.5z"/>
<path id="path5" inkscape:connector-curvature="0" class="st1" d="M346.1,291.4c0.4-0.8,0.9-1.6,1.4-2.4c-0.1,0.1-0.1,0.1-0.1,0.2
	C346.9,289.9,346.5,290.7,346.1,291.4z"/>
<path id="path7" inkscape:connector-curvature="0" class="st2" d="M346.1,291.4c-3.6,6-6.5,10.1-7.3,11.3
	C341.4,299.1,343.9,295.3,346.1,291.4z"/>
<path id="path9" inkscape:connector-curvature="0" class="st3" d="M461.2,150.6c-1.7-14.2-7.3-24.5-17.7-32.2
	c-38.4-28.6-80.4-52.7-120-74.5c-17.7-9.7-36.4-18.3-52.6-25.6c-7.2-3.2-14-4.8-21-4.8v475h0.9c7.3,0,14.4-1.7,21.7-5.1
	c66.8-31.5,122.6-64.1,170.5-99.5c11.2-8.3,17-18.8,19-34.3C469.9,286.7,469.7,221.6,461.2,150.6L461.2,150.6z"/>
<g id="g5828" transform="matrix(18.915294,0,0,18.915294,-37.607987,-67.418354)">
	<path id="path5830" inkscape:connector-curvature="0" class="st4" d="M15.2,13.4c0.7-0.1,1.3-0.5,1.6-1c0.3-0.6,0.3-1.3-0.2-2.1
		c-0.9-1.5-0.4-2.7-0.4-2.8c0-0.1,0-0.2-0.1-0.3c-0.1-0.1-0.2-0.1-0.3,0s-2.9,1.5-2.9,4c0,1.1,0.8,2.1,1.7,2.2L15.2,13.4z"/>
	<path id="path5832" inkscape:connector-curvature="0" class="st0" d="M15,18.5c-0.3,0-0.5-0.2-0.5-0.5v-6c0-0.3,0.2-0.5,0.5-0.5
		s0.5,0.2,0.5,0.5v6C15.5,18.3,15.3,18.5,15,18.5z"/>
</g>
<path id="path10147" inkscape:connector-curvature="0" class="st4" d="M194.9,468c-3.4-0.5-7.2-2.2-8.4-3.7
	c-2.1-2.7-7.9-39.3-6.4-40.7c0.4-0.4,6.1,1,12.6,3.1c16.4,5.4,44.1,4,53.2-2.7c14.4-10.7,15.6-29.2,2.5-39
	c-8.7-6.5-29.5-7.7-48.2-2.9c-11.9,3.1-15.4,3.2-18.4,0.8c-4.2-3.3-14.3-13.8-14.3-14.7c0-0.4,2.7-13,6-28.2
	c8.3-38.3,14.1-69.8,18.5-99.8c2-14.1,4.2-27.9,4.8-30.8c1.1-5.1,1.3-5.2,59.3-5.8c32-0.4,58.2-0.7,58.2-0.7
	c-0.2,0-12.4,67.9-13.3,74l-1.3,8.7H263h-36.6l-3.7,13.4c-2,7.3-3.4,13.7-3,14c0.4,0.4,8.3-0.5,17.6-1.9c9.3-1.4,22.4-1.9,29.1-1.1
	c39.3,4.9,64.4,42.6,57.2,86c-3.6,21.9-9.3,34-21.9,46.6c-19.3,19.3-42.8,27.3-78.3,26.7C211.2,469.1,198.4,468.5,194.9,468
	L194.9,468z"/>
</svg>
