<?xml version="1.0" encoding="UTF-8" standalone="no"?>
<!-- Generator: Adobe Illustrator 16.0.0, SVG Export Plug-In . SVG Version: 6.00 Build 0)  -->

<svg
   xmlns:osb="http://www.openswatchbook.org/uri/2009/osb"
   xmlns:dc="http://purl.org/dc/elements/1.1/"
   xmlns:cc="http://creativecommons.org/ns#"
   xmlns:rdf="http://www.w3.org/1999/02/22-rdf-syntax-ns#"
   xmlns:svg="http://www.w3.org/2000/svg"
   xmlns="http://www.w3.org/2000/svg"
   xmlns:sodipodi="http://sodipodi.sourceforge.net/DTD/sodipodi-0.dtd"
   xmlns:inkscape="http://www.inkscape.org/namespaces/inkscape"
   version="1.1"
   id="Layer_1"
   x="0px"
   y="0px"
   width="500"
   height="500"
   viewBox="0 0 500 500"
   enable-background="new 0 0 4000 4000"
   xml:space="preserve"
   inkscape:version="0.48.4 r9939"
   sodipodi:docname="سيفي.svg"><metadata
   id="metadata21"><rdf:RDF><cc:Work
       rdf:about=""><dc:format>image/svg+xml</dc:format><dc:type
         rdf:resource="http://purl.org/dc/dcmitype/StillImage" /></cc:Work></rdf:RDF></metadata><defs
   id="defs19"><linearGradient
     id="linearGradient5223"
     osb:paint="gradient"><stop
       style="stop-color:#1af596;stop-opacity:1;"
       offset="0"
       id="stop5225" /><stop
       style="stop-color:#1af596;stop-opacity:0;"
       offset="1"
       id="stop5227" /></linearGradient></defs><sodipodi:namedview
   pagecolor="#ffffff"
   bordercolor="#666666"
   borderopacity="1"
   objecttolerance="10"
   gridtolerance="10"
   guidetolerance="10"
   inkscape:pageopacity="0"
   inkscape:pageshadow="2"
   inkscape:window-width="1280"
   inkscape:window-height="706"
   id="namedview17"
   showgrid="false"
   inkscape:zoom="0.71"
   inkscape:cx="319.59027"
   inkscape:cy="221.37206"
   inkscape:window-x="-8"
   inkscape:window-y="-8"
   inkscape:window-maximized="1"
   inkscape:current-layer="Layer_1" />
<path
   d="m 470.23262,149.50046 c -1.84021,-15.4006 -8.01408,-28.50848 -21.31646,-38.41668 C 410.64768,82.575287 369.52633,58.798266 327.83344,35.868984 310.49968,26.335035 292.59572,18.04461 274.56215,9.9074678 266.12219,6.1001205 257.95629,4.2581755 249.77862,4.2833217 241.60095,4.2581701 233.43425,6.1001205 224.99576,9.9074678 206.96138,18.04461 189.05809,26.335035 171.72367,35.868984 130.02998,58.798266 88.90957,82.575287 50.64161,111.08378 37.337769,120.9921 31.163894,134.1 29.32435,149.50046 c -7.988406,66.9796 -9.234199,133.98076 -0.652054,201.09064 2.182216,17.05381 8.927773,30.28837 22.624184,40.40522 53.71857,39.68321 111.73148,71.94889 172.01356,100.42782 9.01832,4.25823 17.7706,6.12666 26.46845,5.98514 8.69771,0.14152 17.45012,-1.72691 26.46911,-5.98514 60.28208,-28.47893 118.29513,-60.74461 172.01276,-100.42782 13.69588,-10.11685 20.4413,-23.35141 22.62499,-40.40522 8.58161,-67.10988 7.33501,-134.11104 -0.65273,-201.09064 z"
   id="path3"
   inkscape:connector-curvature="0"
   style="fill:#f95858;fill-opacity:1" />


<path
   d="m 461.24306,150.57465 c -1.70177,-14.24468 -7.33769,-24.4858 -17.73449,-32.23117 C 405.0749,89.713552 363.10353,65.597454 323.47061,43.801347 305.78761,34.075859 287.0319,25.465625 270.84028,18.159505 263.64384,14.91353 256.80988,13.336152 249.80658,13.336152 V 488.35953 l 0.88706,0.006 c 7.28633,0 14.38098,-1.67675 21.68776,-5.12764 66.78447,-31.54969 122.55617,-64.10427 170.50119,-99.5231 11.17914,-8.25725 17.04632,-18.82794 19.02389,-34.27121 8.02573,-62.77379 7.80904,-127.82612 -0.66342,-198.86882 z"
   id="path9"
   inkscape:connector-curvature="0"
   style="fill:#ffffff;fill-opacity:1;opacity:0.2" />



<g
   transform="matrix(0.929151,0,0,0.929151,88.008152,85.173222)"
   id="g3"><path
     style="fill:#ffffff"
     inkscape:connector-curvature="0"
     d="m 175,171.173 c 38.914,0 70.463,-38.318 70.463,-85.586 C 245.463,38.318 235.105,0 175,0 c -60.105,0 -70.465,38.318 -70.465,85.587 0,47.268 31.549,85.586 70.465,85.586 z"
     id="path5" /><path
     style="fill:#ffffff"
     inkscape:connector-curvature="0"
     d="m 41.909,301.853 c -0.012,-2.882 -0.024,-0.812 0,0 l 0,0 z"
     id="path7" /><path
     style="fill:#ffffff"
     inkscape:connector-curvature="0"
     d="m 308.085,304.104 c 0.038,-0.789 0.013,-5.474 0,0 l 0,0 z"
     id="path9-0" /><path
     style="fill:#ffffff"
     inkscape:connector-curvature="0"
     d="M 307.935,298.397 C 306.63,216.055 295.876,192.592 213.583,177.74 c 0,0 -11.584,14.761 -38.584,14.761 -27,0 -38.586,-14.761 -38.586,-14.761 -81.395,14.69 -92.803,37.805 -94.303,117.982 -0.123,6.547 -0.18,6.891 -0.202,6.131 0.005,1.424 0.011,4.058 0.011,8.651 0,0 19.592,39.496 133.08,39.496 113.486,0 133.08,-39.496 133.08,-39.496 0,-2.951 0.002,-5.003 0.005,-6.399 -0.022,0.47 -0.066,-0.441 -0.149,-5.708 z"
     id="path11" /></g><g
   id="g3015"
   transform="matrix(0.33783522,0,0,0.33783522,168.32498,245.86744)"
   style="fill:#f95858;fill-opacity:1;stroke-width:29.28726006;stroke-miterlimit:4;stroke-dasharray:none"><path
     style="fill:#f95858;fill-opacity:1;stroke-width:29.28726006;stroke-miterlimit:4;stroke-dasharray:none"
     d="m 260,310.4 c 11.2,11.2 11.2,30.4 0,41.6 l -23.2,23.2 c -11.2,11.2 -30.4,11.2 -41.6,0 L 93.6,272.8 c -11.2,-11.2 -11.2,-30.4 0,-41.6 L 116.8,208 c 11.2,-11.2 30.4,-11.2 41.6,0 L 260,310.4 z"
     data-original="#FFFFFF"
     class=""
     id="path3017"
     inkscape:connector-curvature="0" /><path
     style="fill:#f95858;fill-opacity:1;stroke-width:29.28726006;stroke-miterlimit:4;stroke-dasharray:none"
     d="m 348.8,133.6 c 11.2,-11.2 30.4,-11.2 41.6,0 l 23.2,23.2 c 11.2,11.2 11.2,30.4 0,41.6 l -176,175.2 c -11.2,11.2 -30.4,11.2 -41.6,0 l -23.2,-23.2 c -11.2,-11.2 -11.2,-30.4 0,-41.6 l 176,-175.2 z"
     data-original="#FFFFFF"
     class=""
     id="path3019"
     inkscape:connector-curvature="0" /></g></svg>