<?xml version="1.0" encoding="utf-8"?>
<!-- Generator: Adobe Illustrator 26.0.1, SVG Export Plug-In . SVG Version: 6.00 Build 0)  -->
<svg version="1.1"
	 id="Layer_1" xmlns:cc="http://creativecommons.org/ns#" xmlns:dc="http://purl.org/dc/elements/1.1/" xmlns:inkscape="http://www.inkscape.org/namespaces/inkscape" xmlns:osb="http://www.openswatchbook.org/uri/2009/osb" xmlns:rdf="http://www.w3.org/1999/02/22-rdf-syntax-ns#" xmlns:sodipodi="http://sodipodi.sourceforge.net/DTD/sodipodi-0.dtd" xmlns:svg="http://www.w3.org/2000/svg"
	 xmlns="http://www.w3.org/2000/svg" xmlns:xlink="http://www.w3.org/1999/xlink" x="0px" y="0px" viewBox="0 0 500 500"
	 style="enable-background:new 0 0 500 500;" xml:space="preserve">
<style type="text/css">
	.st0{fill:#232178;}
	.st1{fill:none;}
	.st2{fill:#010101;}
	.st3{opacity:0.2;fill:#FFFFFF;fill-opacity:0.6349;enable-background:new    ;}
	.st4{fill:#FFFFFF;}
	.st5{display:none;fill:#FFFFFF;}
</style>
<sodipodi:namedview  bordercolor="#666666" borderopacity="1" gridtolerance="10" guidetolerance="10" id="namedview17" inkscape:current-layer="Layer_1" inkscape:cx="236.80527" inkscape:cy="250" inkscape:pageopacity="0" inkscape:pageshadow="2" inkscape:window-height="706" inkscape:window-maximized="1" inkscape:window-width="1280" inkscape:window-x="-8" inkscape:window-y="-8" inkscape:zoom="0.71" objecttolerance="10" pagecolor="#ffffff" showgrid="false">
	</sodipodi:namedview>
<path id="path3" inkscape:connector-curvature="0" class="st0" d="M470.2,149.5c-1.8-15.4-8-28.5-21.3-38.4
	c-38.3-28.5-79.4-52.3-121.1-75.2c-17.3-9.5-35.2-17.8-53.3-26c-8.4-3.8-16.6-5.6-24.8-5.6c-8.2,0-16.3,1.8-24.8,5.6
	c-18,8.1-35.9,16.4-53.3,26C130,58.8,88.9,82.6,50.6,111.1c-13.3,9.9-19.5,23-21.3,38.4c-8,67-9.2,134-0.7,201.1
	c2.2,17.1,8.9,30.3,22.6,40.4c53.7,39.7,111.7,71.9,172,100.4c9,4.3,17.8,6.1,26.5,6c8.7,0.1,17.5-1.7,26.5-6
	c60.3-28.5,118.3-60.7,172-100.4c13.7-10.1,20.4-23.4,22.6-40.4C479.5,283.5,478.2,216.5,470.2,149.5z"/>
<path id="path5" inkscape:connector-curvature="0" class="st1" d="M346.1,291.4c0.4-0.8,0.9-1.6,1.4-2.4c-0.1,0.1-0.1,0.1-0.1,0.2
	C346.9,289.9,346.5,290.7,346.1,291.4z"/>
<path id="path7" inkscape:connector-curvature="0" class="st2" d="M346.1,291.4c-3.6,6-6.5,10.1-7.3,11.3
	C341.4,299.1,343.9,295.3,346.1,291.4z"/>
<path id="path9" inkscape:connector-curvature="0" class="st3" d="M461.2,150.6c-1.7-14.2-7.3-24.5-17.7-32.2
	c-38.4-28.6-80.4-52.7-120-74.5c-17.7-9.7-36.4-18.3-52.6-25.6c-7.2-3.2-14-4.8-21-4.8v475l0.9,0c7.3,0,14.4-1.7,21.7-5.1
	c66.8-31.5,122.6-64.1,170.5-99.5c11.2-8.3,17-18.8,19-34.3C469.9,286.7,469.7,221.6,461.2,150.6L461.2,150.6z"/>
<g id="g5828" transform="matrix(18.915294,0,0,18.915294,-37.607987,-67.418354)">
	<path id="path5830" inkscape:connector-curvature="0" class="st4" d="M15.2,13.4c0.7-0.1,1.3-0.5,1.6-1c0.3-0.6,0.3-1.3-0.2-2.1
		c-0.9-1.5-0.4-2.7-0.4-2.8c0-0.1,0-0.2-0.1-0.3c-0.1-0.1-0.2-0.1-0.3,0c-0.1,0.1-2.9,1.5-2.9,4c0,1.1,0.8,2.1,1.7,2.2L15.2,13.4z"
		/>
	<path id="path5832" inkscape:connector-curvature="0" class="st0" d="M15,18.5c-0.3,0-0.5-0.2-0.5-0.5v-6c0-0.3,0.2-0.5,0.5-0.5
		s0.5,0.2,0.5,0.5v6C15.5,18.3,15.3,18.5,15,18.5z"/>
</g>
<path id="path10143" inkscape:connector-curvature="0" class="st5" d="M221.8,437.1c-6.3-0.6-8.2-1.6-9-4.8
	c-4.6-18.8-8.1-34.3-7.7-34.6c0.2-0.2,3.7,0.4,7.8,1.4c23.8,5.5,38.3-1.5,38.4-18.5c0.1-11.2-6.9-18.2-20-20l-9.5-1.3l-2.1-10.5
	c-2.9-14.5-2.9-14.5,4.6-17.2c10.9-3.9,17.3-19.5,12.8-31.1c-3-7.7-22.8-11-39-6.5c-4,1.1-7.5,1.7-7.8,1.4c-0.4-0.4,3.7-60,4.7-66.8
	c0-0.2,4.9-1.9,10.9-3.8c8.1-2.5,17.2-3.3,36.2-3.3c23.5,0,26.2,0.4,35.9,4.9c13.7,6.4,24.1,16,29.9,27.3c4,7.8,4.6,11.6,4.6,26.9
	c-0.1,29.3-8.7,45.9-31.2,60.5l-9.5,6.1l4.3,2.9c16.8,11,22.9,21.7,22.9,39.5C299,424.3,270.9,441.6,221.8,437.1L221.8,437.1z"/>
<path id="path10145" inkscape:connector-curvature="0" class="st4" d="M221.2,430v-19.4h-43.1c-23.7,0-43.1-0.5-43.1-1.1
	c0-0.6,4.3-9.1,9.6-18.8C163,356.6,176,311.9,176,282.2v-11.6h20.7h20.7l-1.6-31.2l-1.6-31.2h39h39v9.1c0,17.5-4.3,134.3-5.4,146.8
	l-1.1,12.7l13.5-1.3c7.4-0.7,15.1-1.9,17-2.6c3.1-1.2,3,0.8-1.4,17.6l-4.9,19l-12.1,0.6l-12.1,0.6v19.3v19.3h-32.3h-32.3L221.2,430
	L221.2,430z M221.2,349.4c0-13.5-0.6-26.2-1.3-28.1c-0.9-2.3-4.1,3.4-9.4,16.5c-4.4,11-10.2,23.6-12.9,28.1l-4.8,8.1H207h14.2V349.4
	z"/>
</svg>
