<?xml version="1.0" encoding="UTF-8" standalone="no"?>
<!-- Generator: Adobe Illustrator 16.0.0, SVG Export Plug-In . SVG Version: 6.00 Build 0)  -->

<svg
   xmlns:osb="http://www.openswatchbook.org/uri/2009/osb"
   xmlns:dc="http://purl.org/dc/elements/1.1/"
   xmlns:cc="http://creativecommons.org/ns#"
   xmlns:rdf="http://www.w3.org/1999/02/22-rdf-syntax-ns#"
   xmlns:svg="http://www.w3.org/2000/svg"
   xmlns="http://www.w3.org/2000/svg"
   xmlns:sodipodi="http://sodipodi.sourceforge.net/DTD/sodipodi-0.dtd"
   xmlns:inkscape="http://www.inkscape.org/namespaces/inkscape"
   version="1.1"
   id="Layer_1"
   x="0px"
   y="0px"
   width="500"
   height="500"
   viewBox="0 0 500 500"
   enable-background="new 0 0 4000 4000"
   xml:space="preserve"
   inkscape:version="0.48.4 r9939"
   sodipodi:docname="كاتب جديد .svg"><metadata
   id="metadata21"><rdf:RDF><cc:Work
       rdf:about=""><dc:format>image/svg+xml</dc:format><dc:type
         rdf:resource="http://purl.org/dc/dcmitype/StillImage" /></cc:Work></rdf:RDF></metadata><defs
   id="defs19"><linearGradient
     id="linearGradient5223"
     osb:paint="gradient"><stop
       style="stop-color:#1af596;stop-opacity:1;"
       offset="0"
       id="stop5225" /><stop
       style="stop-color:#1af596;stop-opacity:0;"
       offset="1"
       id="stop5227" /></linearGradient><linearGradient
     id="SVGID_7_"
     gradientUnits="userSpaceOnUse"
     x1="343.13989"
     y1="399.31641"
     x2="-21.260099"
     y2="244.11639"
     gradientTransform="matrix(0.18555708,0,0,-0.18555708,302.51417,408.09912)"><stop
       offset="0"
       style="stop-color:#FFC200;stop-opacity:0"
       id="stop6310" /><stop
       offset="0.203"
       style="stop-color:#FFBB00;stop-opacity:0.203"
       id="stop6312" /><stop
       offset="0.499"
       style="stop-color:#FFA700;stop-opacity:0.499"
       id="stop6314" /><stop
       offset="0.852"
       style="stop-color:#FF8800;stop-opacity:0.852"
       id="stop6316" /><stop
       offset="1"
       style="stop-color:#FF7800"
       id="stop6318" /></linearGradient><linearGradient
     id="SVGID_6_"
     gradientUnits="userSpaceOnUse"
     x1="156.4334"
     y1="414.01999"
     x2="106.8334"
     y2="273.22"
     gradientTransform="matrix(0.18555708,0,0,-0.18555708,302.51417,408.09912)"><stop
       offset="0"
       style="stop-color:#FFC200;stop-opacity:0"
       id="stop6297" /><stop
       offset="0.203"
       style="stop-color:#FFBB00;stop-opacity:0.203"
       id="stop6299" /><stop
       offset="0.499"
       style="stop-color:#FFA700;stop-opacity:0.499"
       id="stop6301" /><stop
       offset="0.852"
       style="stop-color:#FF8800;stop-opacity:0.852"
       id="stop6303" /><stop
       offset="1"
       style="stop-color:#FF7800"
       id="stop6305" /></linearGradient><linearGradient
     id="SVGID_5_"
     gradientUnits="userSpaceOnUse"
     x1="64.677696"
     y1="245.108"
     x2="187.0777"
     y2="142.70799"
     gradientTransform="matrix(0.18555708,0,0,-0.18555708,302.51417,408.09912)"><stop
       offset="0"
       style="stop-color:#FFC200;stop-opacity:0"
       id="stop6284" /><stop
       offset="0.203"
       style="stop-color:#FFBB00;stop-opacity:0.203"
       id="stop6286" /><stop
       offset="0.499"
       style="stop-color:#FFA700;stop-opacity:0.499"
       id="stop6288" /><stop
       offset="0.852"
       style="stop-color:#FF8800;stop-opacity:0.852"
       id="stop6290" /><stop
       offset="1"
       style="stop-color:#FF7800"
       id="stop6292" /></linearGradient><linearGradient
     id="SVGID_4_"
     gradientUnits="userSpaceOnUse"
     x1="183.0977"
     y1="35.1087"
     x2="349.15771"
     y2="201.1687"
     gradientTransform="matrix(0.18555708,0,0,-0.18555708,302.51417,408.09912)"><stop
       offset="0"
       style="stop-color:#FFC200;stop-opacity:0"
       id="stop6271" /><stop
       offset="0.203"
       style="stop-color:#FFBB00;stop-opacity:0.203"
       id="stop6273" /><stop
       offset="0.499"
       style="stop-color:#FFA700;stop-opacity:0.499"
       id="stop6275" /><stop
       offset="0.852"
       style="stop-color:#FF8800;stop-opacity:0.852"
       id="stop6277" /><stop
       offset="1"
       style="stop-color:#FF7800"
       id="stop6279" /></linearGradient><linearGradient
     id="SVGID_3_"
     gradientUnits="userSpaceOnUse"
     x1="388.68741"
     y1="144.8383"
     x2="346.28741"
     y2="353.63831"
     gradientTransform="matrix(0.18555708,0,0,-0.18555708,302.51417,408.09912)"><stop
       offset="0"
       style="stop-color:#FFC200;stop-opacity:0"
       id="stop6258" /><stop
       offset="0.203"
       style="stop-color:#FFBB00;stop-opacity:0.203"
       id="stop6260" /><stop
       offset="0.499"
       style="stop-color:#FFA700;stop-opacity:0.499"
       id="stop6262" /><stop
       offset="0.852"
       style="stop-color:#FF8800;stop-opacity:0.852"
       id="stop6264" /><stop
       offset="1"
       style="stop-color:#FF7800"
       id="stop6266" /></linearGradient><linearGradient
     id="SVGID_2_"
     gradientUnits="userSpaceOnUse"
     x1="361.33801"
     y1="390.13141"
     x2="201.23801"
     y2="390.13141"
     gradientTransform="matrix(0.18555708,0,0,-0.18555708,302.51417,408.09912)"><stop
       offset="0"
       style="stop-color:#FFC200;stop-opacity:0"
       id="stop6245" /><stop
       offset="0.203"
       style="stop-color:#FFBB00;stop-opacity:0.203"
       id="stop6247" /><stop
       offset="0.499"
       style="stop-color:#FFA700;stop-opacity:0.499"
       id="stop6249" /><stop
       offset="0.852"
       style="stop-color:#FF8800;stop-opacity:0.852"
       id="stop6251" /><stop
       offset="1"
       style="stop-color:#FF7800"
       id="stop6253" /></linearGradient><linearGradient
     id="SVGID_1_"
     gradientUnits="userSpaceOnUse"
     x1="236.9382"
     y1="458.42841"
     x2="236.9382"
     y2="-71.181602"
     gradientTransform="matrix(1.0667,0,0,-1.0667,3.2666,557.5352)"><stop
       offset="0"
       style="stop-color:#FFCF95"
       id="stop6236" /><stop
       offset="0.427"
       style="stop-color:#FFC954"
       id="stop6238" /><stop
       offset="1"
       style="stop-color:#FFC200"
       id="stop6240" /></linearGradient><linearGradient
     id="SVGID_7_-9"
     gradientUnits="userSpaceOnUse"
     x1="343.13989"
     y1="399.31641"
     x2="-21.260099"
     y2="244.11639"
     gradientTransform="matrix(0.18555708,0,0,-0.18555708,207.37233,408.1813)"><stop
       offset="0"
       style="stop-color:#FFC200;stop-opacity:0"
       id="stop6310-3" /><stop
       offset="0.203"
       style="stop-color:#FFBB00;stop-opacity:0.203"
       id="stop6312-4" /><stop
       offset="0.499"
       style="stop-color:#FFA700;stop-opacity:0.499"
       id="stop6314-4" /><stop
       offset="0.852"
       style="stop-color:#FF8800;stop-opacity:0.852"
       id="stop6316-6" /><stop
       offset="1"
       style="stop-color:#FF7800"
       id="stop6318-0" /></linearGradient><linearGradient
     id="SVGID_6_-6"
     gradientUnits="userSpaceOnUse"
     x1="156.4334"
     y1="414.01999"
     x2="106.8334"
     y2="273.22"
     gradientTransform="matrix(0.18555708,0,0,-0.18555708,207.37233,408.1813)"><stop
       offset="0"
       style="stop-color:#FFC200;stop-opacity:0"
       id="stop6297-6" /><stop
       offset="0.203"
       style="stop-color:#FFBB00;stop-opacity:0.203"
       id="stop6299-1" /><stop
       offset="0.499"
       style="stop-color:#FFA700;stop-opacity:0.499"
       id="stop6301-8" /><stop
       offset="0.852"
       style="stop-color:#FF8800;stop-opacity:0.852"
       id="stop6303-4" /><stop
       offset="1"
       style="stop-color:#FF7800"
       id="stop6305-9" /></linearGradient><linearGradient
     id="SVGID_5_-6"
     gradientUnits="userSpaceOnUse"
     x1="64.677696"
     y1="245.108"
     x2="187.0777"
     y2="142.70799"
     gradientTransform="matrix(0.18555708,0,0,-0.18555708,207.37233,408.1813)"><stop
       offset="0"
       style="stop-color:#FFC200;stop-opacity:0"
       id="stop6284-3" /><stop
       offset="0.203"
       style="stop-color:#FFBB00;stop-opacity:0.203"
       id="stop6286-7" /><stop
       offset="0.499"
       style="stop-color:#FFA700;stop-opacity:0.499"
       id="stop6288-8" /><stop
       offset="0.852"
       style="stop-color:#FF8800;stop-opacity:0.852"
       id="stop6290-8" /><stop
       offset="1"
       style="stop-color:#FF7800"
       id="stop6292-2" /></linearGradient><linearGradient
     id="SVGID_4_-9"
     gradientUnits="userSpaceOnUse"
     x1="183.0977"
     y1="35.1087"
     x2="349.15771"
     y2="201.1687"
     gradientTransform="matrix(0.18555708,0,0,-0.18555708,207.37233,408.1813)"><stop
       offset="0"
       style="stop-color:#FFC200;stop-opacity:0"
       id="stop6271-1" /><stop
       offset="0.203"
       style="stop-color:#FFBB00;stop-opacity:0.203"
       id="stop6273-3" /><stop
       offset="0.499"
       style="stop-color:#FFA700;stop-opacity:0.499"
       id="stop6275-5" /><stop
       offset="0.852"
       style="stop-color:#FF8800;stop-opacity:0.852"
       id="stop6277-9" /><stop
       offset="1"
       style="stop-color:#FF7800"
       id="stop6279-8" /></linearGradient><linearGradient
     id="SVGID_3_-4"
     gradientUnits="userSpaceOnUse"
     x1="388.68741"
     y1="144.8383"
     x2="346.28741"
     y2="353.63831"
     gradientTransform="matrix(0.18555708,0,0,-0.18555708,207.37233,408.1813)"><stop
       offset="0"
       style="stop-color:#FFC200;stop-opacity:0"
       id="stop6258-0" /><stop
       offset="0.203"
       style="stop-color:#FFBB00;stop-opacity:0.203"
       id="stop6260-7" /><stop
       offset="0.499"
       style="stop-color:#FFA700;stop-opacity:0.499"
       id="stop6262-6" /><stop
       offset="0.852"
       style="stop-color:#FF8800;stop-opacity:0.852"
       id="stop6264-3" /><stop
       offset="1"
       style="stop-color:#FF7800"
       id="stop6266-6" /></linearGradient><linearGradient
     id="SVGID_2_-1"
     gradientUnits="userSpaceOnUse"
     x1="361.33801"
     y1="390.13141"
     x2="201.23801"
     y2="390.13141"
     gradientTransform="matrix(0.21915012,0,0,-0.21915012,0.67114411,112.18105)"><stop
       offset="0"
       style="stop-color:#FFC200;stop-opacity:0"
       id="stop6245-5" /><stop
       offset="0.203"
       style="stop-color:#FFBB00;stop-opacity:0.203"
       id="stop6247-4" /><stop
       offset="0.499"
       style="stop-color:#FFA700;stop-opacity:0.499"
       id="stop6249-2" /><stop
       offset="0.852"
       style="stop-color:#FF8800;stop-opacity:0.852"
       id="stop6251-0" /><stop
       offset="1"
       style="stop-color:#FF7800"
       id="stop6253-9" /></linearGradient><linearGradient
     id="SVGID_1_-3"
     gradientUnits="userSpaceOnUse"
     x1="236.9382"
     y1="458.42841"
     x2="236.9382"
     y2="-71.181602"
     gradientTransform="matrix(1.0667,0,0,-1.0667,3.2666,557.5352)"><stop
       offset="0"
       style="stop-color:#FFCF95"
       id="stop6236-7" /><stop
       offset="0.427"
       style="stop-color:#FFC954"
       id="stop6238-2" /><stop
       offset="1"
       style="stop-color:#FFC200"
       id="stop6240-6" /></linearGradient><linearGradient
     id="SVGID_7_-0"
     gradientUnits="userSpaceOnUse"
     x1="343.13989"
     y1="399.31641"
     x2="-21.260099"
     y2="244.11639"
     gradientTransform="matrix(0.18555708,0,0,-0.18555708,109.181,407.66691)"><stop
       offset="0"
       style="stop-color:#FFC200;stop-opacity:0"
       id="stop6310-0" /><stop
       offset="0.203"
       style="stop-color:#FFBB00;stop-opacity:0.203"
       id="stop6312-1" /><stop
       offset="0.499"
       style="stop-color:#FFA700;stop-opacity:0.499"
       id="stop6314-46" /><stop
       offset="0.852"
       style="stop-color:#FF8800;stop-opacity:0.852"
       id="stop6316-0" /><stop
       offset="1"
       style="stop-color:#FF7800"
       id="stop6318-7" /></linearGradient><linearGradient
     id="SVGID_6_-1"
     gradientUnits="userSpaceOnUse"
     x1="156.4334"
     y1="414.01999"
     x2="106.8334"
     y2="273.22"
     gradientTransform="matrix(0.18555708,0,0,-0.18555708,109.181,407.66691)"><stop
       offset="0"
       style="stop-color:#FFC200;stop-opacity:0"
       id="stop6297-7" /><stop
       offset="0.203"
       style="stop-color:#FFBB00;stop-opacity:0.203"
       id="stop6299-7" /><stop
       offset="0.499"
       style="stop-color:#FFA700;stop-opacity:0.499"
       id="stop6301-7" /><stop
       offset="0.852"
       style="stop-color:#FF8800;stop-opacity:0.852"
       id="stop6303-7" /><stop
       offset="1"
       style="stop-color:#FF7800"
       id="stop6305-3" /></linearGradient><linearGradient
     id="SVGID_5_-3"
     gradientUnits="userSpaceOnUse"
     x1="64.677696"
     y1="245.108"
     x2="187.0777"
     y2="142.70799"
     gradientTransform="matrix(0.18555708,0,0,-0.18555708,109.181,407.66691)"><stop
       offset="0"
       style="stop-color:#FFC200;stop-opacity:0"
       id="stop6284-5" /><stop
       offset="0.203"
       style="stop-color:#FFBB00;stop-opacity:0.203"
       id="stop6286-9" /><stop
       offset="0.499"
       style="stop-color:#FFA700;stop-opacity:0.499"
       id="stop6288-9" /><stop
       offset="0.852"
       style="stop-color:#FF8800;stop-opacity:0.852"
       id="stop6290-81" /><stop
       offset="1"
       style="stop-color:#FF7800"
       id="stop6292-8" /></linearGradient><linearGradient
     id="SVGID_4_-2"
     gradientUnits="userSpaceOnUse"
     x1="183.0977"
     y1="35.1087"
     x2="349.15771"
     y2="201.1687"
     gradientTransform="matrix(0.21915012,0,0,-0.21915012,0.67114411,112.18105)"><stop
       offset="0"
       style="stop-color:#FFC200;stop-opacity:0"
       id="stop6271-6" /><stop
       offset="0.203"
       style="stop-color:#FFBB00;stop-opacity:0.203"
       id="stop6273-6" /><stop
       offset="0.499"
       style="stop-color:#FFA700;stop-opacity:0.499"
       id="stop6275-0" /><stop
       offset="0.852"
       style="stop-color:#FF8800;stop-opacity:0.852"
       id="stop6277-3" /><stop
       offset="1"
       style="stop-color:#FF7800"
       id="stop6279-80" /></linearGradient><linearGradient
     id="SVGID_3_-1"
     gradientUnits="userSpaceOnUse"
     x1="388.68741"
     y1="144.8383"
     x2="346.28741"
     y2="353.63831"
     gradientTransform="matrix(0.18555708,0,0,-0.18555708,109.181,407.66691)"><stop
       offset="0"
       style="stop-color:#FFC200;stop-opacity:0"
       id="stop6258-2" /><stop
       offset="0.203"
       style="stop-color:#FFBB00;stop-opacity:0.203"
       id="stop6260-5" /><stop
       offset="0.499"
       style="stop-color:#FFA700;stop-opacity:0.499"
       id="stop6262-0" /><stop
       offset="0.852"
       style="stop-color:#FF8800;stop-opacity:0.852"
       id="stop6264-9" /><stop
       offset="1"
       style="stop-color:#FF7800"
       id="stop6266-4" /></linearGradient><linearGradient
     id="SVGID_2_-7"
     gradientUnits="userSpaceOnUse"
     x1="361.33801"
     y1="390.13141"
     x2="201.23801"
     y2="390.13141"
     gradientTransform="matrix(0.18555708,0,0,-0.18555708,109.181,407.66691)"><stop
       offset="0"
       style="stop-color:#FFC200;stop-opacity:0"
       id="stop6245-8" /><stop
       offset="0.203"
       style="stop-color:#FFBB00;stop-opacity:0.203"
       id="stop6247-3" /><stop
       offset="0.499"
       style="stop-color:#FFA700;stop-opacity:0.499"
       id="stop6249-5" /><stop
       offset="0.852"
       style="stop-color:#FF8800;stop-opacity:0.852"
       id="stop6251-1" /><stop
       offset="1"
       style="stop-color:#FF7800"
       id="stop6253-2" /></linearGradient><linearGradient
     id="SVGID_1_-1"
     gradientUnits="userSpaceOnUse"
     x1="236.9382"
     y1="458.42841"
     x2="236.9382"
     y2="-71.181602"
     gradientTransform="matrix(1.0667,0,0,-1.0667,3.2666,557.5352)"><stop
       offset="0"
       style="stop-color:#FFCF95"
       id="stop6236-6" /><stop
       offset="0.427"
       style="stop-color:#FFC954"
       id="stop6238-4" /><stop
       offset="1"
       style="stop-color:#FFC200"
       id="stop6240-0" /></linearGradient></defs><sodipodi:namedview
   pagecolor="#ffffff"
   bordercolor="#666666"
   borderopacity="1"
   objecttolerance="10"
   gridtolerance="10"
   guidetolerance="10"
   inkscape:pageopacity="0"
   inkscape:pageshadow="2"
   inkscape:window-width="1280"
   inkscape:window-height="706"
   id="namedview17"
   showgrid="false"
   inkscape:zoom="0.71"
   inkscape:cx="31.4672"
   inkscape:cy="207.01127"
   inkscape:window-x="-8"
   inkscape:window-y="-8"
   inkscape:window-maximized="1"
   inkscape:current-layer="Layer_1" />
<path
   d="m 470.23262,149.50046 c -1.84021,-15.4006 -8.01408,-28.50848 -21.31646,-38.41668 C 410.64768,82.575287 369.52633,58.798266 327.83344,35.868984 310.49968,26.335035 292.59572,18.04461 274.56215,9.9074678 266.12219,6.1001205 257.95629,4.2581755 249.77862,4.2833217 241.60095,4.2581701 233.43425,6.1001205 224.99576,9.9074678 206.96138,18.04461 189.05809,26.335035 171.72367,35.868984 130.02998,58.798266 88.90957,82.575287 50.64161,111.08378 37.337769,120.9921 31.163894,134.1 29.32435,149.50046 c -7.988406,66.9796 -9.234199,133.98076 -0.652054,201.09064 2.182216,17.05381 8.927773,30.28837 22.624184,40.40522 53.71857,39.68321 111.73148,71.94889 172.01356,100.42782 9.01832,4.25823 17.7706,6.12666 26.46845,5.98514 8.69771,0.14152 17.45012,-1.72691 26.46911,-5.98514 60.28208,-28.47893 118.29513,-60.74461 172.01276,-100.42782 13.69588,-10.11685 20.4413,-23.35141 22.62499,-40.40522 8.58161,-67.10988 7.33501,-134.11104 -0.65273,-201.09064 z"
   id="path3"
   inkscape:connector-curvature="0"
   style="fill:#b3b3b3;fill-opacity:1" />


<path
   d="m 461.24306,150.57465 c -1.70177,-14.24468 -7.33769,-24.4858 -17.73449,-32.23117 C 405.0749,89.713552 363.10353,65.597454 323.47061,43.801347 305.78761,34.075859 287.0319,25.465625 270.84028,18.159505 263.64384,14.91353 256.80988,13.336152 249.80658,13.336152 V 488.35953 l 0.88706,0.006 c 7.28633,0 14.38098,-1.67675 21.68776,-5.12764 66.78447,-31.54969 122.55617,-64.10427 170.50119,-99.5231 11.17914,-8.25725 17.04632,-18.82794 19.02389,-34.27121 8.02573,-62.77379 7.80904,-127.82612 -0.66342,-198.86882 z"
   id="path9"
   inkscape:connector-curvature="0"
   style="fill:#ffffff;fill-opacity:1;opacity:0.2" />



<g
   transform="matrix(0.56526825,0,0,0.54715501,112.43807,119.39216)"
   id="g3"><g
     id="g5"><path
       inkscape:connector-curvature="0"
       d="m 441.11,252.677 c 10.468,-11.99 15.704,-26.169 15.704,-42.54 0,-14.846 -5.432,-27.692 -16.259,-38.547 -10.849,-10.854 -23.695,-16.278 -38.541,-16.278 h -79.082 c 0.76,-2.664 1.522,-4.948 2.282,-6.851 0.753,-1.903 1.811,-3.999 3.138,-6.283 1.328,-2.285 2.283,-3.999 2.852,-5.139 3.425,-6.468 6.047,-11.801 7.857,-15.985 1.807,-4.192 3.606,-9.9 5.42,-17.133 1.811,-7.229 2.711,-14.465 2.711,-21.698 0,-4.566 -0.055,-8.281 -0.145,-11.134 -0.089,-2.855 -0.574,-7.139 -1.423,-12.85 -0.862,-5.708 -2.006,-10.467 -3.43,-14.272 -1.43,-3.806 -3.716,-8.092 -6.851,-12.847 -3.142,-4.764 -6.947,-8.613 -11.424,-11.565 -4.476,-2.95 -10.184,-5.424 -17.131,-7.421 -6.954,-1.999 -14.801,-2.998 -23.562,-2.998 -4.948,0 -9.227,1.809 -12.847,5.426 -3.806,3.806 -7.047,8.564 -9.709,14.272 -2.666,5.711 -4.523,10.66 -5.571,14.849 -1.047,4.187 -2.238,9.994 -3.565,17.415 -1.719,7.998 -2.998,13.752 -3.86,17.273 -0.855,3.521 -2.525,8.136 -4.997,13.845 -2.477,5.713 -5.424,10.278 -8.851,13.706 -6.28,6.28 -15.891,17.701 -28.837,34.259 -9.329,12.18 -18.94,23.695 -28.837,34.545 -9.899,10.852 -17.131,16.466 -21.698,16.847 -4.755,0.38 -8.848,2.331 -12.275,5.854 -3.427,3.521 -5.14,7.662 -5.14,12.419 v 183.01 c 0,4.949 1.807,9.182 5.424,12.703 3.615,3.525 7.898,5.38 12.847,5.571 6.661,0.191 21.698,4.374 45.111,12.566 14.654,4.941 26.12,8.706 34.4,11.272 8.278,2.566 19.849,5.328 34.684,8.282 14.849,2.949 28.551,4.428 41.11,4.428 h 4.855 21.7 10.276 c 25.321,-0.38 44.061,-7.806 56.247,-22.268 11.036,-13.135 15.697,-30.361 13.99,-51.679 7.422,-7.042 12.565,-15.984 15.416,-26.836 3.231,-11.604 3.231,-22.74 0,-33.397 8.754,-11.611 12.847,-24.649 12.272,-39.115 0.024,-6.097 -1.4,-13.328 -4.261,-21.706 z"
       id="path7" /><path
       inkscape:connector-curvature="0"
       d="M 100.5,191.864 H 18.276 c -4.952,0 -9.235,1.809 -12.851,5.426 C 1.809,200.905 0,205.188 0,210.137 v 182.732 c 0,4.942 1.809,9.227 5.426,12.847 3.619,3.611 7.902,5.421 12.851,5.421 H 100.5 c 4.948,0 9.229,-1.81 12.847,-5.421 3.616,-3.62 5.424,-7.904 5.424,-12.847 V 210.137 c 0,-4.949 -1.809,-9.231 -5.424,-12.847 -3.617,-3.618 -7.898,-5.426 -12.847,-5.426 z M 67.665,369.308 c -3.616,3.521 -7.898,5.281 -12.847,5.281 -5.14,0 -9.471,-1.76 -12.99,-5.281 -3.521,-3.521 -5.281,-7.85 -5.281,-12.99 0,-4.948 1.759,-9.232 5.281,-12.847 3.52,-3.617 7.85,-5.428 12.99,-5.428 4.949,0 9.231,1.811 12.847,5.428 3.617,3.614 5.426,7.898 5.426,12.847 0,5.14 -1.805,9.468 -5.426,12.99 z"
       id="path9-1" /></g></g></svg>